<svg width="24" height="24" xmlns:xlink="http://www.w3.org/1999/xlink" xmlns="http://www.w3.org/2000/svg"><defs><clipPath id="b"><use xlink:href="#a"/></clipPath><path d="M1.999 0h20.002q.098 0 .196.01t.194.028q.096.02.19.048.094.029.185.066.09.038.177.084.087.046.169.1.081.055.157.118.076.062.146.131.069.07.131.146.063.076.117.157.055.082.101.169.046.086.084.177.037.09.066.185.028.094.048.19.019.096.028.194.01.098.01.196v20.002q0 .098-.01.196t-.028.194q-.02.096-.048.19-.029.094-.066.185-.038.09-.084.177-.046.087-.1.169-.056.081-.118.157-.062.076-.131.146-.07.069-.146.131-.076.063-.157.117-.082.055-.169.101-.086.046-.177.084-.09.037-.185.066-.094.028-.19.048-.096.019-.194.028-.098.01-.196.01H1.999q-.098 0-.196-.01t-.194-.028q-.096-.02-.19-.048-.094-.029-.185-.066-.09-.038-.177-.084-.087-.046-.169-.1-.081-.056-.157-.118-.076-.062-.146-.131-.069-.07-.131-.146-.063-.076-.117-.157-.055-.082-.101-.169-.046-.086-.084-.177-.037-.09-.066-.185-.028-.094-.048-.19-.019-.096-.028-.194Q0 22.099 0 22V1.999q0-.098.01-.196t.028-.194q.02-.096.048-.19.029-.094.066-.185.038-.09.084-.177.046-.087.1-.169Q.392.807.455.731.516.655.585.585.655.516.731.454.807.39.888.337.97.282 1.057.236q.086-.046.177-.084.09-.037.185-.066.094-.028.19-.048.096-.019.194-.028Q1.901 0 2 0z" id="a"/></defs><path d="M1.999 0h20.002q.098 0 .196.01t.194.028q.096.02.19.048.094.029.185.066.09.038.177.084.087.046.169.1.081.055.157.118.076.062.146.131.069.07.131.146.063.076.117.157.055.082.101.169.046.086.084.177.037.09.066.185.028.094.048.19.019.096.028.194.01.098.01.196v20.002q0 .098-.01.196t-.028.194q-.02.096-.048.19-.029.094-.066.185-.038.09-.084.177-.046.087-.1.169-.056.081-.118.157-.062.076-.131.146-.07.069-.146.131-.076.063-.157.117-.082.055-.169.101-.086.046-.177.084-.09.037-.185.066-.094.028-.19.048-.096.019-.194.028-.098.01-.196.01H1.999q-.098 0-.196-.01t-.194-.028q-.096-.02-.19-.048-.094-.029-.185-.066-.09-.038-.177-.084-.087-.046-.169-.1-.081-.056-.157-.118-.076-.062-.146-.131-.069-.07-.131-.146-.063-.076-.117-.157-.055-.082-.101-.169-.046-.086-.084-.177-.037-.09-.066-.185-.028-.094-.048-.19-.019-.096-.028-.194Q0 22.099 0 22V1.999q0-.098.01-.196t.028-.194q.02-.096.048-.19.029-.094.066-.185.038-.09.084-.177.046-.087.1-.169Q.392.807.455.731.516.655.585.585.655.516.731.454.807.39.888.337.97.282 1.057.236q.086-.046.177-.084.09-.037.185-.066.094-.028.19-.048.096-.019.194-.028Q1.901 0 2 0z" fill="#C7C7C7"/><g clip-path="url(#b)"><path d="M0 0h24v8H0V0z"/><path d="M0 8h24v8H0V8z" fill="#D80027"/><path d="M0 16h24v8H0v-8z" fill="#FFDA44"/><g clip-path="url(#b)"><use xlink:href="#a" fill="none" stroke="#F1F1F1" stroke-width="2"/></g></g></svg>