<svg xmlns="http://www.w3.org/2000/svg" width="24" height="24" viewBox="0 0 24 24"><g fill="none" fill-rule="evenodd"><rect width="24" height="24" fill="#BA1212" fill-rule="nonzero" rx="2"/><path fill="#FFF" d="M18 10.75a.25.25 0 01-.25.25H12.5V9.389h5.25a.25.25 0 01.25.25v1.111zM15.639 18H12.5v-5.5h3.944v4.694a.806.806 0 01-.805.806zm-8.584-.806V12.5H11V18H7.861a.807.807 0 01-.806-.806zM5.5 9.639a.25.25 0 01.25-.25H11V11H5.75a.25.25 0 01-.25-.25V9.639zm1.555-2.945c.001-.667.565-1.178 1.234-1.194.962 0 1.878.93 2.437 2.389H8.25a1.196 1.196 0 01-1.195-1.195zM15.224 5.5a1.198 1.198 0 011.22 1.194c0 .659-.536 1.195-1.194 1.195h-2.477c.56-1.459 1.478-2.389 2.451-2.389zm2.526 2.389h-.098a2.66 2.66 0 00.292-1.195A2.694 2.694 0 0015.263 4h-.054c-1.381 0-2.63.933-3.459 2.499C10.921 4.933 9.675 4 8.303 4c-1.504.015-2.748 1.191-2.748 2.694 0 .431.111.833.292 1.195H5.75c-.965 0-1.75.785-1.75 1.75v1.111c0 .898.683 1.632 1.555 1.73v4.714A2.308 2.308 0 007.861 19.5h7.778a2.308 2.308 0 002.305-2.306V12.48a1.747 1.747 0 001.556-1.73V9.639c0-.965-.785-1.75-1.75-1.75z"/></g></svg>