<svg width="20" height="18" viewBox="0 0 20 18" xmlns:xlink="http://www.w3.org/1999/xlink" xmlns="http://www.w3.org/2000/svg"><defs><clipPath id="mask_1"><use xlink:href="#path_1"/></clipPath><path d="M7.695 14.849C3.06 10.777 0 8.092 0 4.796 0 2.11 2.178 0 4.95 0 6.516 0 8.019.706 9 1.822A5.462 5.462 0 0113.05 0C15.822 0 18 2.11 18 4.796c0 3.296-3.06 5.981-7.695 10.062L9 16l-1.305-1.151z" transform="translate(1 1)" id="path_1"/></defs><path d="M8.695 15.849C4.06 11.777 1 9.092 1 5.796 1 3.11 3.178 1 5.95 1c1.566 0 3.069.706 4.05 1.822A5.462 5.462 0 0114.05 1C16.822 1 19 3.11 19 5.796c0 3.296-3.06 5.981-7.695 10.062L10 17l-1.305-1.151z" id="Icon" fill="none" stroke="#BA1212" stroke-width="2"/></svg>