<svg width="24" height="24" xmlns:xlink="http://www.w3.org/1999/xlink" xmlns="http://www.w3.org/2000/svg"><defs><clipPath id="b"><use xlink:href="#a" clip-rule="evenodd"/></clipPath><path id="a" d="M0 0h24v24H0z"/></defs><g clip-path="url(#b)"><use xlink:href="#a" fill="#FFF"/><path d="M1.999 0h20.002q.098 0 .196.01t.194.028q.096.02.19.048.094.029.185.066.09.038.177.084.087.046.169.1.081.055.157.118.076.062.146.131.069.07.131.146.063.076.117.157.055.082.101.169.046.086.084.177.037.09.066.185.028.094.048.19.019.096.028.194.01.098.01.196v20.002q0 .098-.01.196t-.028.194q-.02.096-.048.19-.029.094-.066.185-.038.09-.084.177-.046.087-.1.169-.056.081-.118.157-.062.076-.131.146-.07.069-.146.131-.076.063-.157.117-.082.055-.169.101-.086.046-.177.084-.09.037-.185.066-.094.028-.19.048-.096.019-.194.028-.098.01-.196.01H1.999q-.098 0-.196-.01t-.194-.028q-.096-.02-.19-.048-.094-.029-.185-.066-.09-.038-.177-.084-.087-.046-.169-.1-.081-.056-.157-.118-.076-.062-.146-.131-.069-.07-.131-.146-.063-.076-.117-.157-.055-.082-.101-.169-.046-.086-.084-.177-.037-.09-.066-.185-.028-.094-.048-.19-.019-.096-.028-.194Q0 22.099 0 22V1.999q0-.098.01-.196t.028-.194q.02-.096.048-.19.029-.094.066-.185.038-.09.084-.177.046-.087.1-.169Q.392.807.455.731.516.655.585.585.655.516.731.454.807.39.888.337.97.282 1.057.236q.086-.046.177-.084.09-.037.185-.066.094-.028.19-.048.096-.019.194-.028Q1.901 0 2 0z" fill="#BA1212"/><path d="M3 3h18v18H3V3z" fill="none"/><path d="M8.117 5.024c.204.044.413.07.61.135.982.32 1.617.986 1.908 1.971.157.532.135 1.07-.018 1.601-.025.088-.015.147.054.215 1.47 1.465 2.94 2.932 4.405 4.403.089.089.166.063.257.043.545-.124 1.094-.164 1.633.009 1.076.345 1.73 1.082 1.976 2.18.094.415.065.831-.034 1.243-.085.354-.452.463-.715.206-.356-.346-.701-.702-1.056-1.05-.382-.373-.944-.343-1.26.061-.22.285-.23.713.01.985.26.292.546.561.82.84.109.11.222.216.328.33.247.26.142.619-.206.707a2.842 2.842 0 01-3.5-2.194c-.092-.457-.056-.915.057-1.365.032-.128.01-.21-.088-.307a1260.87 1260.87 0 01-4.33-4.324c-.091-.092-.17-.117-.295-.086-.595.143-1.195.172-1.775-.05-1.008-.385-1.625-1.116-1.842-2.175-.025-.124-.038-.25-.056-.376v-.245c.034-.196.058-.394.103-.588.082-.35.441-.454.704-.208.11.102.213.212.32.317.282.277.555.565.85.827.27.239.704.23.988.013.41-.312.442-.868.067-1.251-.337-.345-.68-.683-1.023-1.023-.13-.13-.214-.272-.154-.462.059-.189.201-.27.385-.3.147-.025.293-.054.44-.082h.437z" fill="#FFF"/><path d="M5.324 16.39c-.183.229-.261.503-.324.782v.382c.01.034.02.069.027.104.08.407.278.746.61.997.676.513 1.563.45 2.178-.163 1.27-1.264 2.535-2.534 3.802-3.801a.326.326 0 00.041-.048l-2.305-2.307c-.007.006-.024.02-.04.036l-3.81 3.812a2.488 2.488 0 00-.179.206zm2.139.805c-.096.096-.197.177-.285.173-.221-.001-.345-.075-.42-.22a.386.386 0 01.03-.423.806.806 0 01.09-.102c.792-.793 1.585-1.584 2.376-2.377.126-.127.265-.205.45-.152.27.077.384.391.223.622a.847.847 0 01-.098.112l-2.366 2.367z" fill="#FFF" fill-rule="evenodd"/><path d="M17.958 5c.107.074.223.139.317.225.191.175.372.36.555.543.2.2.221.363.074.605-.412.68-.826 1.359-1.24 2.036-.183.298-.467.331-.718.09-.065-.064-.126-.13-.207-.212l-2.743 2.732-1.146-1.137 2.732-2.72c-.07-.072-.131-.13-.186-.194-.172-.2-.147-.473.078-.61.729-.44 1.464-.868 2.197-1.3.039-.023.082-.039.123-.058h.164z" fill="#FFF"/></g></svg>