<svg width="24" height="24" viewBox="0 0 24 24" xmlns:xlink="http://www.w3.org/1999/xlink" xmlns="http://www.w3.org/2000/svg"><defs><clipPath id="clip_1"><use xlink:href="#artboard_1" clip-rule="evenodd"/></clipPath><path id="artboard_1" d="M0 0h24v24H0z"/></defs><g id="tools" clip-path="url(#clip_1)"><use xlink:href="#artboard_1" fill="#FFF"/><path d="M1.999 0h20.002q.098 0 .196.01t.194.028q.096.02.19.048.094.029.185.066.09.038.177.084.087.046.169.1.081.055.157.118.076.062.146.131.069.07.131.146.063.076.117.157.055.082.101.169.046.086.084.177.037.09.066.185.028.094.048.19.019.096.028.194.01.098.01.196v20.002q0 .098-.01.196t-.028.194q-.02.096-.048.19-.029.094-.066.185-.038.09-.084.177-.046.087-.1.169-.056.081-.118.157-.062.076-.131.146-.07.069-.146.131-.076.063-.157.117-.082.055-.169.101-.086.046-.177.084-.09.037-.185.066-.094.028-.19.048-.096.019-.194.028-.098.01-.196.01H1.999q-.098 0-.196-.01t-.194-.028q-.096-.02-.19-.048-.094-.029-.185-.066-.09-.038-.177-.084-.087-.046-.169-.1-.081-.056-.157-.118-.076-.062-.146-.131-.069-.07-.131-.146-.063-.076-.117-.157-.055-.082-.101-.169-.046-.086-.084-.177-.037-.09-.066-.185-.028-.094-.048-.19-.019-.096-.028-.194Q0 22.099 0 22V1.999q0-.098.01-.196t.028-.194q.02-.096.048-.19.029-.094.066-.185.038-.09.084-.177.046-.087.1-.169Q.392.807.455.731.516.655.585.585.655.516.731.454.807.39.888.337.97.282 1.057.236q.086-.046.177-.084.09-.037.185-.066.094-.028.19-.048.096-.019.194-.028Q1.901 0 2 0z" id="Rectangle" fill="#BA1212" stroke="none"/><g id="tools" transform="translate(3 3)"><g id="tools" stroke="none"><path d="M0 0h18v18H0V0z" id="Rectangle-4" fill="none"/><path d="M3.117 0c.204.044.413.07.61.134.982.32 1.617.987 1.908 1.972.157.531.135 1.07-.018 1.6-.025.088-.015.147.054.216 1.47 1.465 2.94 2.931 4.405 4.402.089.09.166.064.257.043.545-.123 1.094-.163 1.633.01 1.076.345 1.73 1.082 1.976 2.18.094.415.065.83-.034 1.242-.085.354-.452.463-.715.207-.356-.346-.701-.703-1.056-1.05-.382-.374-.944-.344-1.26.061-.22.285-.23.713.01.985.26.292.545.561.82.84.109.11.222.216.328.329.247.261.142.62-.206.707a2.842 2.842 0 01-3.5-2.193c-.092-.457-.056-.915.057-1.365.032-.128.01-.21-.088-.307-1.447-1.438-2.89-2.88-4.33-4.324-.091-.093-.17-.117-.295-.087-.595.144-1.195.172-1.775-.05C.89 5.167.273 4.437.056 3.377.031 3.253.018 3.127 0 3.002v-.246c.034-.196.058-.394.103-.587.082-.35.441-.454.704-.209.11.103.213.212.32.317.282.277.555.565.85.827.27.24.704.231.988.014.41-.313.442-.869.067-1.252-.337-.344-.68-.683-1.023-1.022-.13-.13-.214-.272-.154-.463.059-.188.201-.27.385-.3.147-.025.293-.054.44-.081h.437z" transform="translate(2 2.024)" id="Fill-1" fill="#FFF"/><path d="M.324 4.054c-.183.23-.261.503-.324.783v.381c.01.035.02.069.027.104.08.408.279.746.61.998.676.513 1.563.449 2.178-.163 1.27-1.265 2.535-2.534 3.802-3.802a.244.244 0 00.041-.048L4.353 0c-.007.006-.024.02-.04.037L.503 3.849a2.488 2.488 0 00-.179.205zm2.139.806c-.096.095-.197.176-.285.173-.221-.002-.345-.076-.42-.22a.386.386 0 01.03-.424.806.806 0 01.09-.102c.792-.792 1.585-1.584 2.376-2.377.126-.127.265-.205.45-.152.27.078.384.392.223.623a.847.847 0 01-.098.112C4.04 3.282 3.25 4.07 2.463 4.86z" transform="translate(2 9.336)" id="Fill-4" fill="#FFF" fill-rule="evenodd"/><path d="M5.108 0c.106.074.222.139.317.225.191.175.372.36.555.543.2.2.221.363.074.605-.413.68-.826 1.359-1.241 2.036-.182.298-.467.331-.717.09-.065-.064-.127-.13-.208-.212L1.146 6.019 0 4.882l2.731-2.72c-.069-.072-.13-.13-.186-.194-.172-.2-.147-.473.079-.61.728-.44 1.464-.868 2.197-1.3.038-.023.081-.039.122-.058h.165z" transform="translate(9.85 2)" id="Fill-7" fill="#FFF"/></g></g></g></svg>