<?xml version="1.0" encoding="utf-8"?>
<svg width="40px" height="34px" viewBox="0 0 40 34" version="1.1" xmlns:xlink="http://www.w3.org/1999/xlink" xmlns="http://www.w3.org/2000/svg">
  <desc>Created with Lunacy</desc>
  <defs>
    <path d="M3 0L2 0L2 2L0 2L0 3L2 3L2 5L3 5L3 3L5 3L5 2L3 2L3 0Z" transform="translate(23 9)" id="path_1" />
  </defs>
  <g id="buy02">
    <g id="buy02">
      <path d="M2.999 0L37.001 0Q37.1483 0 37.295 0.014441Q37.4416 0.028882 37.5861 0.0576249Q37.7306 0.0863679 37.8716 0.129136Q38.0126 0.171904 38.1487 0.228285Q38.2848 0.284667 38.4147 0.354118Q38.5447 0.42357 38.6672 0.505423Q38.7897 0.587276 38.9035 0.680742Q39.0174 0.774208 39.1216 0.878387Q39.2258 0.982566 39.3193 1.09645Q39.4127 1.21034 39.4946 1.33284Q39.5764 1.45535 39.6459 1.58528Q39.7153 1.71522 39.7717 1.85133Q39.8281 1.98745 39.8709 2.12844Q39.9136 2.26942 39.9424 2.41392Q39.9711 2.55842 39.9856 2.70505Q40 2.85167 40 2.999L40 31.001Q40 31.1483 39.9856 31.295Q39.9711 31.4416 39.9424 31.5861Q39.9136 31.7306 39.8709 31.8716Q39.8281 32.0126 39.7717 32.1487Q39.7153 32.2848 39.6459 32.4147Q39.5764 32.5447 39.4946 32.6671Q39.4127 32.7897 39.3193 32.9035Q39.2258 33.0174 39.1216 33.1216Q39.0174 33.2258 38.9035 33.3193Q38.7897 33.4127 38.6672 33.4946Q38.5447 33.5764 38.4147 33.6459Q38.2848 33.7153 38.1487 33.7717Q38.0126 33.8281 37.8716 33.8709Q37.7306 33.9136 37.5861 33.9424Q37.4416 33.9711 37.295 33.9856Q37.1483 34 37.001 34L2.999 34Q2.85167 34 2.70505 33.9856Q2.55842 33.9711 2.41392 33.9424Q2.26942 33.9136 2.12844 33.8709Q1.98745 33.8281 1.85133 33.7717Q1.71522 33.7153 1.58528 33.6459Q1.45535 33.5764 1.33284 33.4946Q1.21034 33.4127 1.09645 33.3193Q0.982566 33.2258 0.878387 33.1216Q0.774208 33.0174 0.680742 32.9035Q0.587276 32.7897 0.505423 32.6671Q0.42357 32.5447 0.354118 32.4147Q0.284667 32.2848 0.228285 32.1487Q0.171904 32.0126 0.129136 31.8716Q0.0863679 31.7306 0.0576249 31.5861Q0.028882 31.4416 0.014441 31.295Q0 31.1483 0 31.001L0 2.999Q0 2.85167 0.014441 2.70505Q0.028882 2.55842 0.0576249 2.41392Q0.0863679 2.26942 0.129136 2.12844Q0.171904 1.98745 0.228285 1.85133Q0.284667 1.71522 0.354118 1.58528Q0.42357 1.45535 0.505423 1.33284Q0.587276 1.21034 0.680742 1.09645Q0.774208 0.982566 0.878387 0.878387Q0.982566 0.774208 1.09645 0.680742Q1.21034 0.587276 1.33284 0.505423Q1.45535 0.42357 1.58528 0.354118Q1.71522 0.284667 1.85133 0.228285Q1.98745 0.171904 2.12844 0.129136Q2.26942 0.0863679 2.41392 0.0576249Q2.55842 0.028882 2.70505 0.014441Q2.85167 0 2.999 0L2.999 0Z" id="Rectangle" fill="#BA1212" stroke="none" />
      <g id="shopping-cart" transform="translate(11 8)">
        <g id="shopping-cart">
          <path d="M0 0L18 0L18 18L0 18L0 0Z" id="Rectangle-5" fill="none" stroke="none" />
          <path d="M0 0L0 1.5L1.5 1.5L4.2 7.2L3.15 9C3.075 9.225 3 9.525 3 9.75C3 10.575 3.675 11.25 4.5 11.25L13.5 11.25L13.5 9.75L4.8 9.75C4.725 9.75 4.65 9.675 4.65 9.6L4.65 9.52497L5.325 8.24997L10.875 8.24997C11.475 8.24997 11.925 7.94997 12.15 7.49997L14.85 2.625C15 2.475 15 2.4 15 2.25C15 1.8 14.7 1.5 14.25 1.5L3.15 1.5L2.475 0L0 0ZM3 13.5C3 12.675 3.675 12 4.5 12C5.325 12 6 12.675 6 13.5C6 14.325 5.325 15 4.5 15C3.675 15 3 14.325 3 13.5ZM10.5 13.5C10.5 12.675 11.175 12 12 12C12.825 12 13.5 12.675 13.5 13.5C13.5 14.325 12.825 15 12 15C11.175 15 10.5 14.325 10.5 13.5Z" transform="translate(1.5 1.5)" id="Shape" fill="#FFFFFF" fill-rule="evenodd" stroke="none" />
        </g>
      </g>
      <g id="Combined-Shape">
        <use xlink:href="#path_1" fill="none" stroke="#BA1212" stroke-width="2" />
        <use stroke="none" fill="#FFFFFF" xlink:href="#path_1" fill-rule="evenodd" />
      </g>
    </g>
  </g>
</svg>