<svg xmlns="http://www.w3.org/2000/svg" width="88" height="94" viewBox="0 0 88 94">
  <g fill="#FFF">
    <path d="M37.80645 47.897306L25.7821667 47.897306C24.2726 47.897306 23.04885 49.1205887 23.04885 50.6291696 23.04885 52.1377505 24.2726 53.3610331 25.7821667 53.3610331L37.80645 53.3610331C39.3160167 53.3610331 40.5397667 52.1377505 40.5397667 50.6291696 40.5397667 49.1205887 39.3160167 47.897306 37.80645 47.897306zM48.6847167 50.0961365C48.6519 49.920963 48.5972667 49.7489045 48.5288833 49.5852749 48.4605 49.4187135 48.37855 49.2602144 48.2801 49.1127096 48.1789 48.9624561 48.0641333 48.8231969 47.9383667 48.6974971 47.8126 48.5717973 47.6732667 48.4570916 47.5229333 48.358694 47.37535 48.2606628 47.2167667 48.1756413 47.0528667 48.1072943 46.8862167 48.0389474 46.7138833 47.9874581 46.5389833 47.9515439 45.6534833 47.7716062 44.7076667 48.063501 44.0735167 48.6973138 43.94775 48.8230136 43.8329833 48.9622729 43.7345333 49.1125263 43.6360833 49.2600312 43.5513833 49.4185302 43.483 49.5850916 43.4146167 49.7490877 43.3627333 49.9207797 43.3271667 50.0959532 43.2916 50.2707602 43.2725333 50.4510643 43.2725333 50.6286199 43.2725333 50.8059922 43.2916 50.9864795 43.3271667 51.1640351 43.3627333 51.33646 43.4146167 51.5085185 43.483 51.6750799 43.5513833 51.839076 43.6360833 51.9973918 43.7345333 52.1448967 43.8329833 52.2951501 43.94775 52.4344094 44.0735167 52.5601092 44.1992833 52.685809 44.3386167 52.8005146 44.48895 52.8989123 44.6365333 52.9973099 44.7951167 53.0819649 44.9617667 53.1503119 45.12585 53.2186589 45.298 53.2705146 45.4729 53.3060624 45.6478 53.3416101 45.8282 53.3606667 46.00585 53.3606667 46.72745 53.3606667 47.4298 53.0684055 47.9381833 52.5599259 48.06395 52.4342261 48.1787167 52.2949669 48.2799167 52.1447135 48.3783667 51.9972086 48.4603167 51.8387096 48.5287 51.6748967 48.5970833 51.5083353 48.6517167 51.3360936 48.6845333 51.1640351 48.7201 50.9864795 48.7391718 50.805809 48.7391718 50.6286199 48.7395333 50.4512476 48.7202833 50.270577 48.6847167 50.0961365zM85.0927 50.3812515L76.7107 50.3812515C71.9884 50.3812515 68.14665 54.2213255 68.14665 58.941115L68.14665 62.2181053C68.14665 63.7266862 69.3704 64.9499688 70.8799667 64.9499688 72.3895333 64.9499688 73.6132833 63.7266862 73.6132833 62.2181053L73.6132833 58.941115C73.6132833 57.2337232 75.00295 55.8449786 76.7108833 55.8449786L85.0928833 55.8449786C86.60245 55.8449786 87.8262 54.6216959 87.8262 53.113115 87.8262 51.6045341 86.6022667 50.3812515 85.0927 50.3812515zM73.5601167 70.9293216C73.52455 70.7546979 73.4726667 70.5824561 73.4042833 70.41846 73.3359 70.2520819 73.2512 70.0935828 73.15275 69.946078 73.05155 69.7956413 72.9395333 69.6561988 72.8110167 69.530499 72.1768667 68.8966862 71.2339833 68.604425 70.34555 68.7849123 70.17065 68.82046 69.9985 68.8721326 69.8344167 68.9402963 69.6703333 69.0086433 69.5091833 69.0934815 69.3616 69.1916959 69.2112667 69.2900936 69.0719333 69.4047992 68.9461667 69.530499 68.8204 69.6561988 68.7056333 69.7954581 68.6071833 69.946078 68.5087333 70.0935828 68.4240333 70.2520819 68.35565 70.41846 68.2872667 70.5826394 68.2353833 70.7545146 68.1998167 70.9293216 68.16425 71.1041287 68.1451833 71.2844327 68.1451833 71.4619883 68.1451833 71.6393606 68.16425 71.819848 68.1998167 71.9974035 68.2353833 72.1692788 68.2872667 72.3413372 68.35565 72.5078986 68.4240333 72.6718947 68.5087333 72.8302105 68.6071833 72.9777154 68.7083833 73.1279688 68.8204 73.2672281 68.9461667 73.3932943 69.4573 73.9037895 70.15965 74.1936686 70.8785 74.1936686 71.05615 74.1936686 71.23655 74.1769942 71.4142 74.1418129 71.58635 74.1062651 71.7586833 74.0545926 71.9253333 73.9864288 72.0894167 73.9180819 72.2478167 73.8332437 72.3954 73.7350292 72.5457333 73.633883 72.6850667 73.5191774 72.8108333 73.3934776 72.9366 73.2675945 73.0513667 73.128152 73.1525667 72.9778986 73.2510167 72.8303938 73.3357167 72.6718947 73.4041 72.5080819 73.4724833 72.3415205 73.5243667 72.1692788 73.5599333 71.9972203 73.5955 71.8196647 73.6118182 71.6389942 73.6118182 71.4618051 73.612 71.2844327 73.5955 71.1037622 73.5601167 70.9293216z"/>
    <path d="M70.8797833,77.7453294 C69.3702167,77.7453294 68.1464667,78.9686121 68.1464667,80.477193 L68.1464667,85.2572671 C68.1464667,86.9642924 66.7568,88.3532203 65.0488667,88.3532203 L41.7252,88.3532203 C40.0169,88.3532203 38.6276,86.9642924 38.6276,85.2572671 L38.6276,83.4311384 L43.6384667,83.4311384 C45.1480333,83.4311384 46.3717833,82.2078558 46.3717833,80.6992749 L46.3717833,73.4850955 L49.1206833,73.4850955 C53.8536167,73.4850955 57.9637667,70.2806667 59.1162,65.6926238 L65.3588833,40.8322807 L68.8812667,40.8322807 C70.3908333,40.8322807 71.6145833,39.6089981 71.6145833,38.1004172 L71.6145833,24.5178752 C71.6145833,23.0092943 70.3908333,21.7860117 68.8812667,21.7860117 L59.9468833,21.7860117 L59.9468833,8.46861209 C59.9465167,3.798846 56.1454667,0 51.4735833,0 C46.8017,0 43.0004667,3.798846 43.0004667,8.46861209 L43.0004667,21.7863782 L28.78755,21.7863782 L28.78755,8.46861209 C28.78755,3.798846 24.9865,0 20.3146167,0 C15.6427333,0 11.8415,3.798846 11.8415,8.46861209 L11.8415,21.7863782 L2.9073,21.7863782 C1.39773333,21.7863782 0.173983333,23.0096608 0.173983333,24.5182417 L0.173983333,38.1007836 C0.173983333,39.6093645 1.39773333,40.8326472 2.9073,40.8326472 L6.42968333,40.8326472 L12.6723667,65.6929903 C13.8246167,70.2810331 17.93495,73.485462 22.6680667,73.485462 L25.4169667,73.485462 L25.4169667,80.6996413 C25.4169667,82.2082222 26.6407167,83.4315049 28.1502833,83.4315049 L33.16115,83.4315049 L33.16115,85.2576335 C33.16115,89.977423 37.0030833,93.8171306 41.7252,93.8171306 L65.0488667,93.8171306 C69.7711667,93.8171306 73.6129167,89.9772398 73.6129167,85.2576335 L73.6129167,80.477193 C73.6129167,78.9684288 72.38935,77.7453294 70.8797833,77.7453294 Z M48.4672833,8.46861209 C48.4672833,6.81179337 49.8160667,5.4637271 51.4737667,5.4637271 C53.1314667,5.4637271 54.48025,6.81179337 54.48025,8.46861209 L54.48025,21.604425 L48.4671,21.604425 L48.4671,8.46861209 L48.4672833,8.46861209 Z M17.3083167,8.46861209 C17.3083167,6.81179337 18.6571,5.4637271 20.3148,5.4637271 C21.9725,5.4637271 23.3212833,6.81179337 23.3212833,8.46861209 L23.3212833,21.604425 L17.3081333,21.604425 L17.3081333,8.46861209 L17.3083167,8.46861209 Z M5.64061667,35.3687368 L5.64061667,27.249922 L66.1477667,27.249922 L66.1477667,35.3687368 L63.2265333,35.3687368 L8.56166667,35.3687368 L5.64061667,35.3687368 Z M28.1499167,68.0215517 L22.6680667,68.0215517 C20.4457,68.0215517 18.51575,66.5168187 17.97455,64.3623314 L12.0655333,40.8320975 L59.7223,40.8320975 L53.8132833,64.3623314 C53.27245,66.5168187 51.3421333,68.0215517 49.11995,68.0215517 L43.6381,68.0215517 L28.1499167,68.0215517 L28.1499167,68.0215517 Z M30.8832333,77.9674113 L30.8832333,73.4850955 L40.90515,73.4850955 L40.90515,77.9674113 L30.8832333,77.9674113 Z"/>
  </g>
</svg>
