<svg xmlns="http://www.w3.org/2000/svg" width="37" height="37" viewBox="0 0 37 37">
  <g fill="none" fill-rule="evenodd" transform="translate(-3 -3)">
    <rect width="30" height="30" x="6.627" y="6.627" stroke="#BA1212" stroke-width="2" rx="10" transform="rotate(-23 21.627 21.627)"/>
    <path fill="#BA1212" d="M28.0005,20.75 C28.0005,20.888 27.8885,21 27.7505,21 L22.5005,21 L22.5005,19.389 L27.7505,19.389 C27.8885,19.389 28.0005,19.501 28.0005,19.639 L28.0005,20.75 Z M25.6395,28 L22.5005,28 L22.5005,22.5 L26.4445,22.5 L26.4445,27.194 C26.4445,27.639 26.0835,28 25.6395,28 L25.6395,28 Z M17.0555,27.194 L17.0555,22.5 L21.0005,22.5 L21.0005,28 L17.8615,28 C17.4175,28 17.0555,27.639 17.0555,27.194 L17.0555,27.194 Z M15.5005,19.639 C15.5005,19.501 15.6125,19.389 15.7505,19.389 L21.0005,19.389 L21.0005,21 L15.7505,21 C15.6125,21 15.5005,20.888 15.5005,20.75 L15.5005,19.639 Z M17.0555,16.694 C17.0565,16.027 17.6205,15.516 18.2895,15.5 C19.2515,15.5 20.1675,16.43 20.7265,17.889 L18.2505,17.889 C17.5915,17.889 17.0555,17.353 17.0555,16.694 L17.0555,16.694 Z M25.2245,15.5 C25.8865,15.482 26.4445,16.027 26.4445,16.694 C26.4445,17.353 25.9085,17.889 25.2505,17.889 L22.7735,17.889 C23.3335,16.43 24.2515,15.5 25.2245,15.5 L25.2245,15.5 Z M27.7505,17.889 L27.6525,17.889 C27.8335,17.527 27.9445,17.125 27.9445,16.694 C27.9445,15.208 26.7355,14 25.2635,14 C25.2455,14 25.2285,14 25.2095,14 C23.8285,14 22.5795,14.933 21.7505,16.499 C20.9215,14.933 19.6755,14 18.3035,14 C16.7995,14.015 15.5555,15.191 15.5555,16.694 C15.5555,17.125 15.6665,17.527 15.8475,17.889 L15.7505,17.889 C14.7855,17.889 14.0005,18.674 14.0005,19.639 L14.0005,20.75 C14.0005,21.648 14.6835,22.382 15.5555,22.48 L15.5555,27.194 C15.5555,28.466 16.5895,29.5 17.8615,29.5 L25.6395,29.5 C26.9105,29.5 27.9445,28.466 27.9445,27.194 L27.9445,22.48 C28.8165,22.382 29.5005,21.648 29.5005,20.75 L29.5005,19.639 C29.5005,18.674 28.7155,17.889 27.7505,17.889 L27.7505,17.889 Z"/>
  </g>
</svg>
