<?xml version="1.0" encoding="utf-8"?>
<svg width="48px" height="48px" viewBox="0 0 48 48" version="1.1" xmlns:xlink="http://www.w3.org/1999/xlink" xmlns="http://www.w3.org/2000/svg">
  <desc>Created with Lunacy</desc>
  <g id="icons/example1">
    <g id="3D-Aquatronic">
      <path d="M0 0L48 0L48 48L0 48L0 0Z" id="Rectangle" fill="#FFF4F4" stroke="#FFDEDE" stroke-width="1" />
      <path d="M19.4146 10.0702C19.8038 10.8316 20.2383 11.5689 20.716 12.2782L20.732 12.2622C20.8939 12.5146 20.9089 12.8343 20.7712 13.1008C20.6336 13.3673 20.3642 13.5401 20.0646 13.5542C19.7649 13.5682 19.4806 13.4213 19.3186 13.1688C18.9613 12.5928 18.5826 12.0008 18.252 11.3982C17.9081 10.7986 17.6344 10.1616 17.436 9.4995C17.3091 9.05337 17.241 8.59259 17.2333 8.12884C17.2347 7.26184 17.377 6.40084 17.6546 5.5795C17.8524 4.99126 18.0986 4.42041 18.3906 3.87284C18.5468 3.59358 18.6857 3.30504 18.8066 3.00884C18.9629 2.62775 19.0461 2.22068 19.052 1.80884C19.048 1.57049 19.0048 1.33442 18.924 1.11017C18.7767 0.668342 19.0155 0.190779 19.4573 0.0435028C19.8991 -0.103773 20.3767 0.135008 20.524 0.576836C20.6663 0.981315 20.7402 1.40671 20.7426 1.8355C20.7251 2.51413 20.5747 3.18273 20.3 3.8035C20.06 4.35284 19.788 4.80084 19.5586 5.27017C19.3984 5.59551 19.2629 5.93247 19.1533 6.27817C18.977 6.88123 18.8854 7.50588 18.8813 8.13417C18.89 8.44833 18.9384 8.76013 19.0253 9.06217C19.1268 9.40841 19.257 9.74558 19.4146 10.0702ZM22.3426 1.07284C22.3822 1.29675 22.4072 1.52301 22.4173 1.75017L22.4173 1.9155C22.4064 2.45894 22.3166 2.99792 22.1506 3.5155C21.9066 4.18223 21.6051 4.82644 21.2493 5.44084C21.0721 5.75971 20.9188 6.09128 20.7906 6.43284C20.6529 6.8074 20.5773 7.20191 20.5666 7.60084C20.5569 8.04757 20.6218 8.4928 20.7586 8.91817C20.9357 9.46135 21.1889 9.97669 21.5106 10.4488C21.788 10.8595 22.044 11.2115 22.2146 11.5155C22.4468 11.8997 22.9407 12.0324 23.3342 11.8163C23.7277 11.6003 23.8808 11.1123 23.6813 10.7102C23.516 10.4115 23.3346 10.1448 23.148 9.89417C22.8955 9.55844 22.6724 9.20156 22.4813 8.8275C22.3985 8.65705 22.3342 8.47826 22.2893 8.29417C22.2451 8.09637 22.2236 7.89417 22.2253 7.6915C22.2295 7.55461 22.2492 7.41863 22.284 7.28617C22.3702 6.98736 22.4901 6.69929 22.6413 6.4275C22.892 5.93684 23.2386 5.36084 23.532 4.6355C23.876 3.78811 24.057 2.88337 24.0653 1.96884L24.0653 1.72884C24.0538 1.4263 24.0199 1.12504 23.964 0.827503C23.9286 0.519227 23.7257 0.255768 23.4367 0.142893C23.1476 0.0300174 22.8199 0.0862349 22.585 0.288977C22.3501 0.491718 22.2465 0.807738 22.316 1.11017L22.3426 1.07284ZM31.7666 13.7288C30.3293 10.6381 27.7008 8.26166 24.4813 7.14217C24.0395 6.99489 23.5619 7.23368 23.4146 7.6755C23.2673 8.11733 23.5061 8.59489 23.948 8.74217C26.7288 9.71314 28.9987 11.7676 30.2413 14.4382C30.4534 14.8299 30.9337 14.9888 31.3376 14.801C31.7415 14.6132 31.9295 14.1434 31.7666 13.7288ZM15.1213 7.5955C12.006 9.02613 9.60825 11.6646 8.48129 14.9022C8.4089 15.1143 8.42458 15.3466 8.52481 15.5471C8.62505 15.7476 8.80149 15.8995 9.01462 15.9688C9.22679 16.0397 9.45844 16.0233 9.65853 15.9233C9.85861 15.8233 10.0107 15.6478 10.0813 15.4355C11.0603 12.6309 13.1404 10.3467 15.8413 9.11017C16.2625 8.91576 16.4464 8.41671 16.252 7.9955C16.0576 7.57429 15.5585 7.39043 15.1373 7.58484L15.1213 7.5955ZM1.14796 17.4248C1.51252 17.272 1.88886 17.1489 2.27329 17.0568C2.62298 16.968 2.97999 16.9108 3.33996 16.8862L3.45196 16.8862C4.00271 16.8848 4.55071 16.9639 5.07862 17.1208C5.75055 17.3517 6.40029 17.6426 7.01996 17.9902C7.35315 18.1682 7.69897 18.3215 8.05462 18.4488C8.43151 18.5827 8.82802 18.653 9.22796 18.6568C9.67384 18.6558 10.1167 18.5838 10.54 18.4435C11.0699 18.2524 11.5707 17.9885 12.028 17.6595C12.4386 17.3768 12.7853 17.1262 13.0946 16.9395C13.3711 16.7998 13.5479 16.519 13.5542 16.2093C13.5606 15.8996 13.3955 15.6118 13.125 15.4609C12.8545 15.31 12.5228 15.3207 12.2626 15.4888C11.9817 15.6498 11.711 15.8279 11.452 16.0222C11.1156 16.2785 10.7589 16.5068 10.3853 16.7048C10.2142 16.7889 10.0357 16.8567 9.85196 16.9075C9.65616 16.9534 9.45573 16.9767 9.25462 16.9768C9.11638 16.976 8.97865 16.9599 8.84396 16.9288C8.547 16.8442 8.25932 16.7298 7.98529 16.5875C7.48929 16.3475 6.91862 16.0115 6.17196 15.7288C5.32303 15.3943 4.41774 15.2259 3.50529 15.2328L3.25462 15.2328C2.79617 15.2662 2.34128 15.3376 1.89462 15.4462C1.42119 15.5628 0.957565 15.7162 0.507957 15.9048C0.232624 16.023 0.0412307 16.279 0.00587302 16.5765C-0.0294847 16.874 0.0965647 17.1678 0.33654 17.3472C0.576515 17.5266 0.893957 17.5643 1.16929 17.4462L1.14796 17.4248ZM28.9666 17.9742C28.2137 18.3749 27.4853 18.8201 26.7853 19.3075L26.8013 19.3075C26.5523 19.503 26.2149 19.5424 25.9275 19.4097C25.6402 19.277 25.4515 18.9944 25.4389 18.6782C25.4263 18.3619 25.5921 18.0653 25.868 17.9102C26.4386 17.5368 27.02 17.1475 27.6226 16.8008C28.2146 16.45 28.8444 16.1673 29.5 15.9582C29.9442 15.8194 30.4054 15.7422 30.8706 15.7288C31.7366 15.7169 32.5989 15.8429 33.4253 16.1022C34.015 16.3048 34.5875 16.5545 35.1373 16.8488C35.4167 17 35.7053 17.1336 36.0013 17.2488C36.3853 17.3994 36.7941 17.4772 37.2066 17.4782C37.5294 17.4572 37.8457 17.3777 38.14 17.2435C38.5493 17.062 38.9435 16.848 39.3186 16.6035C39.572 16.4434 39.8916 16.4307 40.1569 16.5702C40.4222 16.7096 40.593 16.98 40.6049 17.2795C40.6168 17.579 40.468 17.8621 40.2146 18.0222C39.7708 18.3146 39.3034 18.5697 38.8173 18.7848C38.3151 19.0167 37.7703 19.142 37.2173 19.1528C36.8585 19.1533 36.5008 19.1139 36.1506 19.0355C35.8423 18.966 35.5407 18.8697 35.2493 18.7475C34.6946 18.5182 34.2413 18.2568 33.7666 18.0328C33.4404 17.8749 33.1014 17.7446 32.7533 17.6435C32.1468 17.4789 31.5203 17.3999 30.892 17.4088C30.5788 17.4177 30.2683 17.4698 29.9693 17.5635C29.6244 17.6728 29.2891 17.8102 28.9666 17.9742ZM11.692 19.7395C12.4467 19.3389 13.1768 18.8936 13.8786 18.4062L13.8626 18.4168C14.1111 18.2346 14.4395 18.2035 14.7178 18.3359C14.996 18.4683 15.179 18.7428 15.1942 19.0506C15.2095 19.3584 15.0544 19.6496 14.7906 19.8088C14.22 20.1875 13.6386 20.5768 13.036 20.9182C12.4453 21.2729 11.8152 21.5575 11.1586 21.7662C10.7164 21.9049 10.2567 21.9804 9.79329 21.9902C8.92753 21.999 8.06566 21.873 7.23862 21.6168C6.65058 21.4143 6.07984 21.1646 5.53196 20.8702C5.24983 20.7208 4.95961 20.5872 4.66262 20.4702C4.27669 20.3196 3.86621 20.2419 3.45196 20.2408C3.12875 20.259 2.81197 20.3386 2.51862 20.4755C2.11029 20.6591 1.71629 20.873 1.33996 21.1155C1.08177 21.2775 0.756796 21.2894 0.487442 21.1468C0.218088 21.0042 0.0452788 20.7287 0.0341089 20.4241C0.0229391 20.1195 0.175106 19.8321 0.43329 19.6702C0.885687 19.3764 1.36204 19.1213 1.85729 18.9075C2.35969 18.6763 2.90434 18.551 3.45729 18.5395C4.13563 18.5406 4.80678 18.6784 5.43062 18.9448C5.98529 19.1742 6.44396 19.4355 6.91329 19.6595C7.23954 19.8175 7.57852 19.9477 7.92662 20.0488C8.52536 20.2179 9.14447 20.3041 9.76662 20.3048C10.0798 20.2955 10.3902 20.2434 10.6893 20.1502C11.0353 20.0441 11.3709 19.9066 11.692 19.7395ZM39.5213 20.2942C39.1577 20.4483 38.7811 20.5697 38.396 20.6568C38.0652 20.7407 37.728 20.7964 37.388 20.8232L37.388 20.8115L37.2226 20.8115C36.6595 20.8204 36.0983 20.7431 35.5586 20.5822C34.8867 20.3513 34.237 20.0604 33.6173 19.7128C33.2956 19.5437 32.9623 19.3976 32.62 19.2755C32.2431 19.1417 31.8466 19.0714 31.4466 19.0675C31.0007 19.0686 30.5579 19.1406 30.1346 19.2808C29.6054 19.4698 29.1061 19.7338 28.652 20.0648C28.2413 20.3475 27.8893 20.5982 27.5853 20.7848C27.3262 20.9344 27.1665 21.2109 27.1665 21.5101C27.1664 21.8093 27.326 22.0858 27.5851 22.2354C27.8442 22.385 28.1635 22.3851 28.4226 22.2355C28.701 22.0733 28.9699 21.8952 29.228 21.7022C29.5644 21.446 29.9211 21.2177 30.2946 21.0195C30.4654 20.9361 30.644 20.87 30.828 20.8222C31.023 20.7717 31.2238 20.7466 31.4253 20.7475C31.5639 20.7474 31.702 20.7653 31.836 20.8008C32.1351 20.8818 32.4247 20.9944 32.7 21.1368C33.2861 21.4565 33.8898 21.7432 34.508 21.9955C35.3574 22.3287 36.2621 22.4988 37.1746 22.4968L37.4093 22.4968C37.868 22.4661 38.3232 22.3947 38.7693 22.2835C39.2434 22.1693 39.7072 22.0159 40.156 21.8248C40.4742 21.7443 40.7161 21.4852 40.7746 21.1621C40.833 20.8391 40.6972 20.5116 40.4273 20.3247C40.1574 20.1378 39.8032 20.1258 39.5213 20.2942ZM13.5 29.5315C11.5215 28.234 9.94565 26.4087 8.95062 24.2622L8.92929 24.2622C8.73489 23.8424 8.91755 23.3446 9.33729 23.1502C9.75703 22.9558 10.2549 23.1384 10.4493 23.5582C11.3131 25.4198 12.6801 27.003 14.396 28.1288C18.1733 30.5836 23.0718 30.4606 26.7213 27.8195C28.5337 26.5064 29.9 24.6692 30.636 22.5555C30.7832 22.1137 31.2608 21.8749 31.7026 22.0222C32.1444 22.1694 32.3832 22.647 32.236 23.0888C31.3928 25.5326 29.8197 27.6586 27.7293 29.1795C23.5163 32.231 17.8587 32.3709 13.5 29.5315ZM36.624 35.9582C36.9001 35.9582 37.124 35.7743 37.124 35.5475C37.124 35.3207 36.9001 35.1368 36.624 35.1368C36.3478 35.1368 36.124 35.3207 36.124 35.5475C36.124 35.7743 36.3478 35.9582 36.624 35.9582ZM3.95862 38.8968C3.6344 38.8952 3.31495 38.8185 3.02529 38.6728L3.02529 38.6835L2.87596 39.2488C3.23502 39.3859 3.61702 39.4529 4.00129 39.4462C4.3679 39.4695 4.73136 39.3659 5.03062 39.1528C5.29465 38.9316 5.44218 38.6011 5.43062 38.2568C5.44983 38.0215 5.3707 37.7888 5.21203 37.6139C5.05337 37.4391 4.82936 37.3378 4.59329 37.3342C5.06826 37.2945 5.42401 36.8818 5.39329 36.4062C5.39329 35.7555 4.92929 35.3875 4.11329 35.3875C3.73184 35.3848 3.35341 35.4554 2.99862 35.5955L3.13196 36.1288C3.41206 35.9941 3.71729 35.9196 4.02796 35.9102C4.44929 35.9102 4.69996 36.1182 4.69996 36.4435C4.69996 36.8488 4.35329 37.0568 3.67062 37.0568L3.41462 37.0568L3.41462 37.5902L3.73996 37.5902C4.41729 37.5902 4.73729 37.8142 4.73729 38.2302C4.73729 38.6462 4.44396 38.8968 3.95862 38.8968ZM7.36129 35.4515L6.36929 35.4515L6.36929 39.4035L7.30262 39.4035C7.81225 39.4561 8.32578 39.3519 8.77462 39.1048C9.28555 38.7087 9.55904 38.0793 9.49996 37.4355C9.55501 36.8348 9.32614 36.2429 8.88129 35.8355C8.43722 35.529 7.89764 35.3927 7.36129 35.4515ZM24.8013 36.9875L24.8013 36.4542L25.2653 36.4542L25.2653 35.8515L25.9266 35.7288L25.9266 36.4808L26.588 36.4808L26.588 37.0142L25.9266 37.0142L25.9266 38.3582C25.9266 38.7848 26.028 38.9342 26.316 38.9342C26.4244 38.9321 26.5313 38.9085 26.6306 38.8648L26.6893 39.3982C26.4988 39.4633 26.2986 39.4958 26.0973 39.4942C25.8315 39.5221 25.5704 39.4087 25.4093 39.1955C25.2852 38.9579 25.2351 38.6885 25.2653 38.4222L25.2653 36.9875L24.8013 36.9875ZM8.29462 38.5982C8.00306 38.7691 7.66635 38.8473 7.32929 38.8222L7.05729 38.8222L7.05729 36.0062L7.30262 36.0062C7.65257 35.9566 8.00887 36.0301 8.31062 36.2142C8.64577 36.5193 8.821 36.9623 8.78529 37.4142C8.82396 37.8651 8.64095 38.3067 8.29462 38.5982ZM17.6546 36.4808C17.6546 36.8115 17.628 37.0568 17.628 37.6435L17.628 40.5982L16.9613 40.5982L16.9613 38.9982C16.772 39.2788 16.4515 39.442 16.1133 39.4302C15.7518 39.4469 15.4094 39.2675 15.2173 38.9608C15.0256 38.639 14.9311 38.2685 14.9453 37.8942C14.9453 36.9822 15.404 36.3902 16.108 36.3902C16.4603 36.3832 16.7919 36.5561 16.988 36.8488L16.988 36.4488L17.6546 36.4488L17.6546 36.4808ZM12.6946 39.4408C13.0371 39.455 13.3673 39.3116 13.5906 39.0515L13.612 39.0355L13.612 39.3608L14.284 39.3608C14.2573 39.2168 14.2573 38.8702 14.2573 38.6248L14.2573 37.7608C14.2573 37.2115 14.2093 36.9875 14.044 36.7848C13.7859 36.5109 13.416 36.3712 13.0413 36.4062C12.67 36.4013 12.3033 36.4893 11.9746 36.6622L12.1506 37.1368C12.3851 36.9859 12.656 36.9011 12.9346 36.8915C13.114 36.8718 13.2924 36.9358 13.4184 37.065C13.5444 37.1941 13.604 37.374 13.58 37.5528L13.58 37.6062L13.1053 37.6062C12.813 37.5871 12.5204 37.6383 12.252 37.7555C11.9539 37.9136 11.7733 38.2291 11.788 38.5662C11.7745 38.8077 11.8669 39.0431 12.041 39.2111C12.2151 39.3791 12.4537 39.4629 12.6946 39.4408ZM23.5213 39.0515C23.2979 39.3116 22.9678 39.455 22.6253 39.4408C22.38 39.4714 22.1339 39.3913 21.9536 39.2223C21.7733 39.0533 21.6774 38.8129 21.692 38.5662C21.6773 38.2291 21.8579 37.9136 22.156 37.7555C22.4244 37.6383 22.717 37.5871 23.0093 37.6062L23.5213 37.6488L23.5213 37.5955C23.5453 37.4167 23.4857 37.2368 23.3597 37.1076C23.2337 36.9785 23.0553 36.9145 22.876 36.9342C22.5988 36.9431 22.3295 37.028 22.0973 37.1795L21.9213 36.6782C22.2497 36.5047 22.6166 36.4166 22.988 36.4222C23.3629 36.3855 23.7335 36.5255 23.9906 36.8008C24.156 37.0035 24.204 37.2275 24.204 37.7768L24.204 39.3768L23.5586 39.3768L23.5586 39.0515L23.5213 39.0515ZM32.7 36.4808C32.732 36.9662 32.732 37.1102 32.732 37.4995L32.732 39.3555L33.3933 39.3555L33.3933 37.3982C33.5561 37.1236 33.8386 36.9418 34.156 36.9075C34.333 36.892 34.4995 36.9936 34.5666 37.1582C34.6173 37.3165 34.6372 37.483 34.6253 37.6488L34.6253 39.3928L35.292 39.3928L35.292 37.6488C35.3131 37.3673 35.2636 37.085 35.148 36.8275C34.9849 36.5517 34.6778 36.394 34.3586 36.4222C33.9607 36.4174 33.5829 36.5965 33.3346 36.9075L33.3346 36.4808L32.7 36.4808ZM30.526 39.2583C31.2967 39.2906 31.952 38.7013 32.0013 37.9315C32.0475 37.5349 31.9163 37.138 31.6428 36.8471C31.3693 36.5561 30.9814 36.4006 30.5826 36.4222C29.8113 36.4237 29.1825 37.0413 29.1671 37.8125C29.1517 38.5837 29.7554 39.2259 30.526 39.2583ZM39.9514 39.1913L39.9533 39.1902L39.9533 39.1955L39.9514 39.1913ZM39.9514 39.1913L39.74 38.7155C39.5495 38.8584 39.3167 38.9335 39.0786 38.9288C38.5613 38.9288 38.268 38.5768 38.268 37.9315C38.268 37.2862 38.54 36.9235 39.02 36.9235C39.2603 36.9257 39.4944 37 39.692 37.1368L39.8893 36.6408C39.6018 36.4898 39.2806 36.4145 38.956 36.4222C38.1133 36.4222 37.58 36.9875 37.58 37.9422C37.5344 38.3415 37.6692 38.7403 37.9476 39.0301C38.2261 39.3198 38.6192 39.4704 39.02 39.4408C39.3482 39.4508 39.6721 39.364 39.9514 39.1913ZM27.228 36.5075C27.2546 37.0035 27.2546 37.3662 27.2546 37.5742L27.2546 39.3982L27.9106 39.3982L27.9106 37.7182C28.0386 37.2915 28.3 37.0568 28.6253 37.0568C28.7016 37.0499 28.7783 37.0499 28.8546 37.0568L28.876 36.4862C28.7926 36.4634 28.7064 36.4526 28.62 36.4542C28.2658 36.4648 27.9584 36.7013 27.8573 37.0408L27.8573 36.5075L27.228 36.5075ZM21.02 38.3635L21.02 39.3768L20.4173 39.3768L20.4173 38.9502C20.1762 39.2619 19.8034 39.4434 19.4093 39.4408C19.0915 39.4691 18.7868 39.3083 18.6306 39.0302C18.5231 38.7761 18.4792 38.4997 18.5026 38.2248L18.5026 36.4808L19.1693 36.4808L19.1693 38.1822C19.1536 38.3463 19.1736 38.5119 19.228 38.6675C19.2891 38.8295 19.45 38.9317 19.6226 38.9182C19.9339 38.8827 20.2105 38.7029 20.3693 38.4328L20.3693 36.4808L21.036 36.4808L21.036 38.3635L21.02 38.3635ZM37.0136 36.4808L36.2214 36.4808L36.2214 39.3768L37.0136 39.3768L37.0136 36.4808ZM16.9613 37.4088C16.8389 37.1381 16.5799 36.9546 16.284 36.9288C15.884 36.9288 15.6333 37.3128 15.6333 37.9208C15.6333 38.5288 15.8786 38.9288 16.268 38.9288C16.5346 38.9288 16.7426 38.7795 16.9613 38.4382L16.9613 37.4088ZM30.5986 38.9448C30.14 38.9448 29.868 38.5662 29.868 37.9315L29.852 37.9208C29.852 37.3075 30.1453 36.9342 30.5986 36.9342C31.052 36.9342 31.3293 37.3182 31.3293 37.9422C31.3293 38.5662 31.0573 38.9448 30.5986 38.9448ZM11.3186 37.5155L10.0066 37.5155L10.0066 38.0382L11.3186 38.0382L11.3186 37.5155ZM13.2706 38.0222L13.5746 38.0222L13.5746 38.5875C13.4406 38.8268 13.1926 38.98 12.9186 38.9928C12.7991 39.0022 12.6812 38.9596 12.5954 38.8758C12.5096 38.792 12.4641 38.6753 12.4706 38.5555C12.4706 38.1875 12.7373 38.0222 13.2706 38.0222ZM23.5213 38.0382L23.2173 38.0382C22.684 38.0382 22.4173 38.2035 22.4173 38.5715C22.4108 38.6913 22.4563 38.808 22.5421 38.8918C22.6279 38.9756 22.7457 39.0182 22.8653 39.0088C23.1444 38.9937 23.3943 38.8312 23.5213 38.5822L23.5213 38.0382Z" transform="translate(3.67871 3.951164)" id="Combined-Shape" fill="#BA1212" fill-rule="evenodd" stroke="none" />
    </g>
  </g>
</svg>