<svg xmlns="http://www.w3.org/2000/svg" width="442" height="237" viewBox="0 0 442 237">
  <path fill="#9E9E9E" d="M573.136842,51 L573.153684,51.0210526 C573.623158,51.5031579 587.010526,65.44 587.347368,87.4694737 C587.690526,109.892632 576.905263,124.273684 576.905263,124.273684 C581.827368,132.404211 588.216842,133.444211 596.875789,132.130526 C596.88,132.130526 597.663158,132.027368 597.661053,132.016842 C595.850526,127.524211 595.231579,122.755789 596.785263,116.595789 C599.082105,107.465263 609.126316,101.926316 616.105263,105.957895 C622.429474,109.606316 620.730526,119.252632 614.250526,126.031579 C609.042105,131.484211 600.831579,134.254737 600.831579,134.254737 C600.831579,134.254737 609.943158,145.153684 626.888421,144.985263 C643.835789,144.812632 646.574737,143.444211 646.574737,143.444211 L641.267368,152.517895 L641.275789,189.185263 L649.269474,200.694737 L641.282105,212.195789 L641.284211,219.673684 C641.284211,257.298947 610.776842,287.804211 573.155789,287.804211 C535.511579,287.804211 504.985263,257.336842 504.985263,219.673684 L504.987368,212.195789 L497,200.694737 L504.993684,189.185263 L505.002105,152.517895 L499.694737,143.444211 C499.694737,143.444211 502.433684,144.812632 519.378947,144.985263 C536.328421,145.153684 545.437895,134.254737 545.437895,134.254737 L545.413436,134.246363 C544.919744,134.076127 537.063993,131.311111 532.016842,126.031579 C525.541053,119.252632 523.842105,109.606316 530.166316,105.957895 C537.143158,101.926316 547.187368,107.467368 549.486316,116.595789 C551.037895,122.755789 550.421053,127.524211 548.610526,132.016842 C548.608421,132.023158 549.389474,132.130526 549.393684,132.130526 C558.054737,133.444211 564.442105,132.406316 569.366316,124.273684 C569.366316,124.273684 558.581053,109.892632 558.924211,87.4694737 C559.258947,65.4357895 572.650526,51.4989474 573.117895,51.0210526 L573.136842,51 Z M573.054,128.276 L573.098947,128.235789 C571.488058,129.751143 569.759414,131.061531 567.936169,132.151852 L567.651,132.319 L567.888499,132.181209 C568.163743,132.01731 568.436491,131.848421 568.707368,131.675789 L568.707368,145.301053 C568.313684,146.075789 567.903158,146.764211 567.473684,147.372632 L567.473684,132.423158 L567.542,132.383 L567.149054,132.605615 C563.053065,134.879988 558.509458,136.064786 553.769603,135.99607 L553.417,135.988 L553.083,135.976 L552.925,135.97 L552.495,135.946 L552.38823,135.940754 C551.155847,135.860014 549.912015,135.694737 548.661053,135.442105 C548.656842,135.44 547.549474,135.113684 547.547368,135.117895 L547.501,135.2 L547.547368,135.119937 L547.547368,135.119937 C547.549474,135.115789 548.244211,135.322105 548.534737,135.406316 L548.534737,148.033684 L547.301053,147.378947 L547.301053,135.553684 L547.348595,135.474663 L547.348595,135.474663 L547.391,135.396 L547.301053,135.553684 L547.13954,135.828972 C546.211632,137.358942 544.999502,138.818809 543.573162,140.197501 L543.49,140.276 L543.490526,178.109474 L542.258947,178.341053 L542.258947,141.393684 L542.197739,141.446761 C540.884903,142.57019 539.434123,143.63306 537.887814,144.628663 L537.633,144.79 L537.835263,144.663158 C538.040526,144.531579 538.244211,144.398947 538.446316,144.265263 L538.446316,179.071579 L537.214737,179.307368 L537.214737,145.054737 L537.322,144.986 L537.035154,145.165007 C535.742717,145.959396 534.391495,146.707939 533.004717,147.406961 L532.541,147.638 L532.075187,147.865599 C530.673755,148.542431 529.241931,149.168925 527.802946,149.741409 L527.41,149.896 L527.745,149.765526 C527.950526,149.684211 528.155789,149.602105 528.36,149.52 L528.359,262.091 L528.858153,262.646279 C531.340954,265.364483 534.070983,267.853013 537.012636,270.076526 L537.214,270.226 C537.417895,270.383158 537.622105,270.534211 537.827368,270.684211 L538.446316,271.130526 L538.446,271.127 L538.500934,271.166035 C539.504669,271.877433 540.531259,272.55873 541.579384,273.208617 L542.258,273.622 L542.258947,273.623158 L542.313,273.656 L542.369496,273.690123 L542.369496,273.690123 L542.447,273.736 L542.871579,273.989211 L542.871579,273.989211 L543.490526,274.347368 L543.49,274.343 L543.973453,274.617308 C545.05314,275.219344 546.153375,275.788989 547.272838,276.324934 L547.301053,276.338947 C547.711579,276.534737 548.12,276.726316 548.534737,276.911579 L548.534737,276.911579 L548.534,276.908 L548.966288,277.103412 C549.820059,277.47985 550.684275,277.836963 551.558379,278.1742 L552.345,278.47 C552.549474,278.549474 552.754737,278.623158 552.960263,278.695789 L553.196,278.778 L553.319608,278.822007 L553.319608,278.822007 L553.428,278.859 L553.576842,278.911579 L553.576,278.909 L554.209802,279.125726 C555.103128,279.422657 556.005785,279.699158 556.917219,279.954679 L557.387368,280.082105 L557.387368,280.082105 L557.831558,280.203185 C559.054521,280.525146 560.292757,280.809481 561.544946,281.054879 L562.431,281.221 L562.431579,263.461053 C562.835789,263.677895 563.246316,263.884211 563.665263,264.077895 L563.665,281.429 L564.385362,281.540768 C565.339646,281.680461 566.301221,281.7977 567.269533,281.891934 L567.712,281.931 L567.473684,281.909474 L567.473684,281.909474 L567.473684,265.471579 C567.882105,265.583158 568.292632,265.68 568.707368,265.768421 L568.707,282.012 L569.214974,282.049562 C570.517703,282.133979 571.831747,282.176842 573.155789,282.176842 C574.479916,282.176842 575.793971,282.133925 577.096641,282.049406 L577.562,282.015 L577.562105,266.010526 C577.976842,265.943158 578.387368,265.867368 578.795789,265.778947 L578.795789,281.913684 L578.179737,281.968421 L578.179737,281.968421 L577.75,282.001 L578.071488,281.978238 C579.368384,281.873 580.653568,281.72649 581.925726,281.540023 L582.606,281.434 L582.606316,264.625263 C583.021053,264.458947 583.433684,264.282105 583.837895,264.098947 L583.837,281.228 L584.765546,281.053598 C585.704457,280.869351 586.635487,280.663182 587.558082,280.435648 L587.648421,280.412632 L587.648421,280.412632 L587.648421,261.884211 C588.069474,261.581053 588.48,261.271579 588.882105,260.943158 L588.882105,280.090526 L588.3,280.246 L587.793,280.375 L588.266053,280.255526 L588.266053,280.255526 L588.3,280.246 L588.477845,280.201011 C589.700393,279.878722 590.907618,279.518777 592.098206,279.122493 L592.692,278.919 L592.692632,257.050526 C593.128421,256.488421 593.541053,255.913684 593.926316,255.313684 L593.926,278.479 L594.748404,278.170084 C595.622076,277.832543 596.485836,277.475116 597.339131,277.098357 L597.734,276.92 L597.734737,242.623158 L597.736842,242.595789 L597.745263,204.741053 C597.751579,192.477895 597.745263,180.216842 597.745263,167.953684 L597.734737,167.953684 L597.734737,150.313684 L598.968421,148.652632 L598.968,276.349 L599.031604,276.31923 C600.150397,275.782847 601.249928,275.212756 602.328885,274.610271 L602.778,274.354 L602.778947,140.275789 L602.696465,140.197501 C601.270042,138.818809 600.057857,137.358942 599.129937,135.828972 L598.968,135.555 L598.968421,135.553684 L598.869,135.382 L598.920879,135.474663 L598.920879,135.474663 L598.968,135.555 L598.968421,147.349474 C598.562105,147.551579 598.136842,147.768421 597.734737,147.972632 L597.734737,135.406316 C598.025263,135.322105 598.722105,135.115789 598.722105,135.119937 L598.786,135.233 L598.722105,135.117895 L598.722105,135.117895 C598.722105,135.113684 597.614737,135.44 597.610526,135.442105 C596.359564,135.694737 595.115732,135.860014 593.883349,135.940754 L593.642,135.954 L593.926316,135.938947 L593.926316,135.938947 L593.926316,149.707368 C593.507368,149.852632 593.096842,149.989474 592.692632,150.122105 L592.692632,135.993684 L592.875,135.987 L592.961276,135.985502 L592.961276,135.985502 L593.071,135.981 L593.308684,135.973421 L593.308684,135.973421 L593.398,135.968 L593.42175,135.967074 L593.42175,135.967074 L593.626,135.955 L593.398,135.968 L593.071,135.981 L592.875,135.987 L592.501976,135.99607 C585.621542,136.095819 579.154636,133.554189 573.870155,128.872634 L573.604,128.633 L573.745263,128.762105 L573.745263,128.762105 L573.751579,128.770526 L573.751579,132.425263 L572.52,132.418947 L572.52,128.770526 L572.522105,128.764211 L572.812105,128.503158 L572.812105,128.503158 L573.054,128.276 Z M572.52,266.277895 C572.928421,266.296842 573.338947,266.307368 573.751579,266.307368 L573.751579,282.170526 L572.665263,282.170526 L572.52,282.168421 L572.52,266.277895 Z M557.387368,259.833684 C557.787368,260.206316 558.197895,260.566316 558.621053,260.913684 L558.621053,280.404211 C558.208421,280.301053 557.797895,280.193684 557.387368,280.082105 L557.387368,259.833684 Z M552.345263,253.086316 C552.72,253.835789 553.130526,254.555789 553.576842,255.254737 L553.576,278.909 L553.428,278.859 L553.196,278.778 L552.435759,278.50479 L552.435759,278.50479 L552.345,278.47 L552.345263,253.086316 Z M547.301053,196.688421 L547.336842,196.692632 L548.534737,196.861053 L548.534,276.908 L548.116019,276.720553 L548.116019,276.720553 L547.301,276.338 L547.301053,196.688421 Z M542.258947,195.974737 L543.490526,196.153684 L543.49,274.343 L543.16756,274.159727 L543.16756,274.159727 L542.447,273.736 L542.313,273.656 L542.258,273.622 L542.258947,195.974737 Z M604.012,141.395 L604.012,273.633 L604.721265,273.200571 C605.768622,272.550235 606.794419,271.868493 607.797345,271.156659 L607.823,271.137 L607.823158,144.265263 C608.227368,144.532632 608.637895,144.795789 609.054737,145.056842 L609.054,270.237 L609.284414,270.066504 C612.713452,267.470916 615.854264,264.514763 618.650562,261.254446 L619.062,260.766 L618.531579,261.39 C618.326316,261.627368 618.118947,261.863158 617.909474,262.096842 L617.909474,149.52 L618.525263,149.765526 L618.525263,149.765526 L618.919,149.919 L618.467804,149.741409 C613.191154,147.642303 608.010731,144.817048 604.071972,141.446761 L604.012,141.395 Z M537.214737,195.174737 L538.446316,195.374737 L538.446,271.127 L537.752438,270.626863 L537.752438,270.626863 L537.214,270.226 L537.214737,195.174737 Z M612.867368,147.206316 C613.275789,147.416842 613.684211,147.621053 614.098947,147.821053 L614.098947,266.006316 C613.694737,266.385263 613.282105,266.76 612.867368,267.126316 L612.867368,147.206316 Z M532.170526,182.343158 L533.404211,182.484211 L533.404211,267.12 C532.987368,266.751579 532.576842,266.378947 532.170526,265.997895 L532.170526,182.343158 Z M596.648421,169.048421 L596.648011,229.799444 C596.64753,237.411358 596.646484,242.585263 596.644211,242.585263 C596.511579,255.107368 586.324211,265.214737 573.772632,265.214737 C561.138947,265.214737 550.898947,254.974737 550.898947,242.336842 C550.898947,229.705263 561.138947,219.463158 573.772632,219.463158 C575.692632,219.463158 577.557895,219.703158 579.341053,220.149474 L579.341053,241.964211 C577.947368,241.494737 576.357895,241.28 574.821053,241.237895 L573.907368,241.237895 C569.229474,241.362105 565.023158,243.385263 562.033684,246.562105 C561.852632,245.574737 561.757895,244.555789 561.757895,243.511579 C561.757895,236.368421 565.762105,229.189474 573.907368,230.421053 L573.907368,225.202105 C572.884211,224.978947 571.791579,224.863158 570.633684,224.863158 C562.391579,224.863158 556.018947,232.911579 555.673684,241.267368 C555.389474,248.113684 558.717895,255.166316 564.452632,258.178947 C564.452632,252.78562 568.721019,248.395303 574.083762,248.248028 L574.36,248.244 L574.346901,248.246729 C574.042055,248.288987 569.463158,248.908884 569.463158,253.492632 C569.463158,263.452632 585.84,259.250526 585.614737,241.978947 L585.621053,241.978947 L585.621053,203.648421 L579.621053,201.947368 L579.621053,213.869474 C577.751579,213.488421 575.816842,213.292632 573.835789,213.292632 C566.28,213.292632 559.402105,216.183158 554.244211,220.917895 C557.774737,214.589474 563.610526,209.72 570.618947,207.448421 C572.345263,206.970526 573.612632,205.389474 573.612632,203.509474 C573.612632,201.938947 572.722105,200.570526 571.418947,199.888421 C567.092632,198.018947 546.943158,195.637895 540.861053,194.656842 L585.623158,190.252632 L585.623158,187.484211 L532.64,181.294737 L585.631579,171.155789 L596.648421,169.048421 Z M527.279,149.947 L526.842817,150.115022 C520.918626,152.369132 514.960671,153.696588 510.583158,153.842105 C510.378947,153.848421 509.835789,153.709474 509.968421,153.854737 L513.216842,157.414737 L513.208421,189.151579 L517.042,194.671 L517.042,206.717 L513.202105,212.246316 L513.202105,222.261053 C513.202105,230.542632 514.880395,238.428158 517.915033,245.598059 L517.953,245.685 L518.285679,246.454992 C519.417026,249.015362 520.722487,251.481331 522.187042,253.837988 L522.428,254.218 L522.084211,253.667368 L522.084211,253.667368 L522.084211,151.730526 C522.492632,151.608421 522.903158,151.48 523.317895,151.349474 L523.317,255.585 L523.704071,256.157656 C524.750036,257.679073 525.864484,259.149699 527.042965,260.565115 L527.337,260.913 L527.128421,260.665263 L527.128421,260.665263 L527.128421,150.006316 L527.279,149.947 Z M618.947733,149.930231 L619.141053,150.006316 L619.141053,150.006316 L619.141,260.673 L619.244475,260.551171 C620.421673,259.135393 621.534854,257.664488 622.579587,256.142895 L622.953684,255.589474 L622.953684,255.589474 L622.953684,151.349474 C623.368421,151.48 623.776842,151.608421 624.185263,151.730526 L624.185263,253.671579 L623.781754,254.318051 L623.781754,254.318051 L623.405,254.904 L623.362,254.97 L623.371228,254.957037 L623.371228,254.957037 L623.405,254.904 L623.601341,254.604571 C625.764994,251.23564 627.600391,247.635706 629.062462,243.849926 L629.229,243.406 L629.393215,242.973006 C631.769841,236.518368 633.067368,229.541432 633.067368,222.261053 L633.067368,212.246316 L629.229,206.72 L629.229,194.668 L633.061053,189.151579 L633.054737,157.503158 L636.303158,153.854737 C636.433684,153.705263 635.890526,153.848421 635.688421,153.842105 C631.192597,153.692655 625.02938,152.296514 618.947733,149.930231 Z M816.238737,244.810316 C817.249263,244.810316 818.091368,245.037684 818.754526,245.484 C819.424,245.928211 819.756632,246.469263 819.756632,247.105053 C819.756632,247.749263 819.592421,248.248211 819.264,248.610316 C818.931368,248.974526 818.525053,249.161895 818.040842,249.170316 C817.558737,249.170316 817.148211,249.014526 816.805053,248.705053 C816.478737,248.399789 816.318737,248.004 816.327158,247.536632 C816.327158,246.675579 816.699789,246.033474 817.445053,245.604 C817.245053,245.502947 816.952421,245.448211 816.562947,245.448211 C814.388211,245.448211 813.297684,247.332421 813.297684,251.096632 C813.297684,253.014526 813.653474,254.427158 814.360842,255.342947 C815.066105,256.260842 815.973474,256.717684 817.080842,256.717684 C818.188211,256.717684 819.158737,256.300842 819.990316,255.471368 L820.118737,255.580842 C819.091368,257.850316 817.522947,258.995579 815.424,259.004089 C813.887158,259.012421 812.626105,258.422947 811.640842,257.231368 C810.653474,256.044 810.162947,254.361895 810.162947,252.185053 C810.162947,250.006105 810.725053,248.233474 811.845053,246.856632 C812.971368,245.494526 814.432421,244.810316 816.238737,244.810316 Z M772.788211,244.810238 C774.169263,244.810238 775.285053,245.233474 776.133474,246.069263 C776.981895,246.909263 777.407158,248.252421 777.407158,250.094526 L777.407158,251.109263 L770.205053,251.109263 C770.205053,252.780842 770.520842,254.126105 771.148211,255.145053 C771.781895,256.159789 772.725053,256.662947 773.984,256.662947 C775.245053,256.662947 776.354526,256.204 777.314526,255.288211 L777.421895,255.416632 C776.247158,257.797684 774.550316,258.995579 772.327158,259.004 C770.722947,258.995579 769.430316,258.387158 768.455579,257.176632 C767.476632,255.968211 766.990316,254.279789 766.990316,252.111368 C766.990316,249.934526 767.527158,248.176632 768.596632,246.825053 C769.664,245.477684 771.066105,244.801895 772.788211,244.810238 Z M826.851368,244.810233 C828.600842,244.810233 830.040842,245.431368 831.179789,246.667158 C832.316632,247.892421 832.893474,249.599789 832.910316,251.778737 C832.910316,253.957684 832.335579,255.702947 831.186105,257.016632 C830.040842,258.334526 828.579789,258.995579 826.798737,259.004 C825.026105,258.995579 823.573474,258.347158 822.440842,257.062947 C821.306105,255.782947 820.739789,254.056632 820.739789,251.890316 C820.739789,249.717684 821.314526,247.995579 822.470316,246.717684 C823.638737,245.435579 825.101895,244.801895 826.851368,244.810233 Z M847.550316,244.810233 C849.297684,244.810233 850.739789,245.431368 851.876632,246.667158 C853.015579,247.892421 853.590316,249.599789 853.609263,251.778737 C853.609263,253.957684 853.032421,255.702947 851.885053,257.016632 C850.739789,258.334526 849.276632,258.995579 847.495579,259.004 C845.725053,258.995579 844.272421,258.347158 843.137684,257.062947 C842.005053,255.782947 841.438737,254.056632 841.438737,251.890316 C841.438737,249.717684 842.013474,247.995579 843.169263,246.717684 C844.337684,245.435579 845.800842,244.801895 847.550316,244.810233 Z M869.362947,244.810316 C870.276632,244.810316 871.312421,245.033474 872.472421,245.471368 L872.472421,248.825053 L872.365053,248.825053 C871.184,246.698737 870.045053,245.635579 868.946105,245.635579 C868.438737,245.635579 868.007158,245.793474 867.664,246.115579 C867.316632,246.433474 867.139789,246.875579 867.131368,247.441895 C867.131368,248.399789 867.861895,249.233474 869.322947,249.934526 C869.939789,250.229263 870.546105,250.551368 871.152421,250.905053 C871.762947,251.260842 872.278737,251.761895 872.689263,252.399789 C873.101895,253.041895 873.314526,253.804 873.322947,254.684 C873.331368,256.004 872.897684,257.058737 872.017684,257.833474 C871.139789,258.612421 870.021895,259.004 868.659789,259.004 C867.304,259.004 866.064,258.728211 864.952421,258.178737 L864.899789,254.288211 L865.032421,254.288211 C866.289263,256.881895 867.594526,258.178737 868.946105,258.178737 C869.527158,258.178737 870.013474,258.006105 870.413474,257.660842 C870.811368,257.319789 871.011368,256.827158 871.011368,256.191368 C871.011368,255.542947 870.805053,255.012421 870.386105,254.601895 C869.975579,254.187158 869.470316,253.835579 868.885053,253.540842 C868.297684,253.248211 867.697684,252.936632 867.091368,252.597684 C866.506105,252.256632 866.000842,251.782947 865.590316,251.166105 C865.173474,250.555579 864.960842,249.825053 864.952421,248.974526 C864.944,247.740842 865.362947,246.736632 866.209263,245.968211 C867.059789,245.195579 868.110316,244.810316 869.362947,244.810316 Z M859.560842,244.810316 L859.560842,255.435579 C859.560842,256.536632 859.664,257.269263 859.870316,257.644 C860.078737,258.014526 860.535579,258.324 861.236632,258.576632 L861.236632,258.684 L855.125053,258.684 L855.125053,258.576632 C855.685053,258.324 856.045053,258.006105 856.194526,257.616632 C856.352421,257.227158 856.426105,256.397684 856.426105,255.128211 L856.426105,249.406105 C856.426105,248.134526 856.344,247.324 856.190316,246.976632 C856.034526,246.633474 855.617684,246.326105 854.946105,246.056632 L854.946105,245.928211 C856.417684,245.791368 857.914526,245.416632 859.432421,244.810316 L859.560842,244.810316 Z M788.228211,244.810316 L788.228211,255.462947 C788.219789,256.580842 788.293474,257.315579 788.451368,257.669263 C788.600842,258.029263 788.973474,258.330316 789.556632,258.580842 L789.556632,258.684 L783.762947,258.684 L783.762947,258.580842 C784.341895,258.330316 784.706105,258.029263 784.861895,257.669263 C785.017684,257.315579 785.091368,256.580842 785.091368,255.462947 L785.091368,249.330316 C785.091368,248.071368 785.013474,247.273474 784.859789,246.928211 C784.701895,246.578737 784.285053,246.273474 783.613474,246.008211 L783.613474,245.875579 C785.047158,245.770316 786.546105,245.416632 788.099789,244.810316 L788.228211,244.810316 Z M747.266105,240.345053 L747.266105,240.454526 C746.575579,240.719789 746.118737,241.073474 745.897684,241.502947 C745.676632,241.936632 745.565053,242.694526 745.565053,243.772421 L745.565053,257.860842 L747.798737,257.860842 C748.405053,257.860842 748.914526,257.705053 749.331368,257.393474 C749.741895,257.081895 750.272421,256.498737 750.910316,255.654526 L752.106105,254.111368 L752.261895,254.111368 L751.819789,258.684 L740.596632,258.684 L740.596632,258.576632 C741.276632,258.342947 741.725053,258.018737 741.937684,257.604 C742.132596,257.223825 742.233751,256.55707 742.242771,255.600494 L742.242947,243.721895 C742.242947,242.622947 742.137684,241.860842 741.925053,241.441895 C741.704,241.016632 741.259789,240.686105 740.596632,240.454526 L740.596632,240.345053 L747.266105,240.345053 Z M794.973474,244.810316 L794.973474,246.641895 C796.285053,245.422947 797.615579,244.810316 798.952421,244.810316 C801.171368,244.810316 802.282947,246.210316 802.282947,249.014526 L802.282947,255.435579 C802.282947,256.570316 802.362947,257.315579 802.516632,257.669263 C802.676632,258.025053 803.049263,258.324 803.638737,258.576632 L803.638737,258.684 L797.845053,258.684 L797.845053,258.576632 C798.255579,258.404 798.546105,258.220842 798.712421,258.018737 C798.872421,257.820842 798.977684,257.519789 799.040842,257.111368 C799.104,256.705053 799.137684,256.035579 799.146105,255.098737 L799.146105,249.117684 C799.146105,247.328211 798.455579,246.433474 797.072421,246.433474 C796.548211,246.433474 795.847158,246.618737 794.973474,246.993474 L794.973474,255.462947 C794.973474,256.597684 795.045053,257.338737 795.192421,257.684 C795.337684,258.029263 795.695579,258.324 796.276632,258.576632 L796.276632,258.684 L790.535579,258.684 L790.535579,258.576632 C791.116632,258.324 791.474526,258.029263 791.621895,257.684 C791.769263,257.338737 791.838737,256.597684 791.838737,255.462947 L791.838737,249.507158 C791.838737,248.151368 791.769263,247.296632 791.630316,246.951368 C791.493474,246.606105 791.076632,246.290316 790.386105,246.004 L790.386105,245.875579 C791.821895,245.770316 793.308211,245.416632 794.847158,244.810316 L794.973474,244.810316 Z M838.891368,238.751368 L838.891368,255.462947 C838.880842,256.561895 838.965053,257.296632 839.133474,257.660842 C839.306105,258.025053 839.689263,258.330316 840.270316,258.580842 L840.270316,258.684 L834.346105,258.684 L834.346105,258.580842 C834.925053,258.330316 835.289263,258.029263 835.442947,257.669263 C835.600842,257.315579 835.674526,256.580842 835.674526,255.462947 L835.674526,243.244 C835.674526,241.987158 835.594526,241.189263 835.438737,240.844 C835.285053,240.498737 834.868211,240.187158 834.196632,239.919789 L834.196632,239.814526 C836.002947,239.658737 837.525053,239.307158 838.762947,238.751368 L838.891368,238.751368 Z M765.944,238.751368 C766.874526,238.751368 767.592421,238.957684 768.101895,239.361895 C768.611368,239.768211 768.872421,240.239789 768.880842,240.776632 C768.880842,241.313474 768.727158,241.724 768.419789,242.020842 C768.110316,242.324 767.737684,242.471368 767.299789,242.471368 C766.861895,242.471368 766.493474,242.340842 766.192421,242.071368 C765.895579,241.804 765.744,241.450316 765.744,241.008211 C765.744,240.317684 766.104,239.749263 766.826105,239.309263 C766.605053,239.275579 766.417684,239.258737 766.259789,239.258737 C765.032421,239.258737 764.417684,240.126105 764.417684,241.860842 C764.417684,242.614526 764.434526,243.452421 764.466105,244.378737 L764.495579,245.130316 L766.807158,245.130316 L766.807158,246.273474 L764.495579,246.273474 L764.495579,255.412421 C764.495579,256.490316 764.607158,257.231368 764.832421,257.629263 C765.057684,258.029263 765.497684,258.342947 766.144,258.576632 L766.144,258.684 L760.112421,258.684 L760.112421,258.576632 C760.634526,258.324 760.962947,258.001895 761.089263,257.604 C761.219789,257.204 761.278737,256.332421 761.278737,254.980842 L761.278737,246.273474 L759.687158,246.273474 L759.687158,246.130316 L761.278737,245.130316 L761.278737,243.951368 C761.272421,242.248211 761.701895,240.957684 762.565053,240.075579 C763.432421,239.195579 764.558737,238.751368 765.944,238.751368 Z M757.642947,244.810316 L757.642947,255.462947 C757.634526,256.580842 757.710316,257.315579 757.866105,257.669263 C758.015579,258.029263 758.388211,258.330316 758.973474,258.580842 L758.973474,258.684 L753.179789,258.684 L753.179789,258.580842 C753.758737,258.330316 754.122947,258.029263 754.276632,257.669263 C754.432421,257.315579 754.508211,256.580842 754.508211,255.462947 L754.508211,249.330316 C754.508211,248.071368 754.428211,247.273474 754.274526,246.928211 C754.118737,246.578737 753.701895,246.273474 753.028211,246.008211 L753.028211,245.875579 C754.464,245.770316 755.960842,245.416632 757.514526,244.810316 L757.642947,244.810316 Z M847.525053,245.448211 C845.752421,245.448211 844.866105,247.604 844.866105,251.905053 C844.866105,256.204 845.750316,258.357684 847.525053,258.366105 C849.293474,258.357684 850.179789,256.204 850.179789,251.905053 C850.179789,247.604 849.293474,245.448211 847.525053,245.448211 Z M826.824,245.448211 C825.053474,245.448211 824.167158,247.604 824.167158,251.905053 C824.167158,256.204 825.053474,258.357684 826.824,258.366105 C828.596632,258.357684 829.482947,256.204 829.482947,251.905053 C829.482947,247.604 828.596632,245.448211 826.824,245.448211 Z M573.751579,249.492632 L573.751579,257.673684 C573.311579,257.629474 572.896842,257.524211 572.52,257.347368 L572.52,250.014737 C572.957895,249.757895 573.397895,249.595789 573.751579,249.492632 Z M577.562105,242.627368 C577.985263,242.715789 578.393684,242.825263 578.795789,242.945263 L578.795789,255.951579 C578.534737,256.147368 578.271579,256.328421 578.004211,256.494737 C577.858947,256.583158 577.711579,256.669474 577.562105,256.749474 L577.562105,242.627368 Z M563.665263,246.488421 L563.665263,255.578947 C563.606316,255.821053 563.553684,256.069474 563.511579,256.32 C563.136842,256.054737 562.776842,255.768421 562.431579,255.467368 L562.431579,247.734737 L562.829474,247.311579 C563.098947,247.025263 563.376842,246.749474 563.665263,246.488421 Z M582.606316,203.928421 L583.837895,204.277895 L583.837895,248.117895 C583.808421,248.174737 583.774737,248.229474 583.738947,248.282105 C583.435789,249.357895 583.050526,250.338947 582.606316,251.231579 L582.606316,203.928421 Z M772.394526,245.448211 C771.748211,245.448211 771.240842,245.844 770.878737,246.633474 C770.516632,247.420842 770.295579,248.745053 770.205053,250.604 L774.272421,250.317684 C774.272421,248.564 774.120842,247.309263 773.819789,246.564 C773.514526,245.820842 773.040842,245.448211 772.394526,245.448211 Z M558.621053,234.261053 L558.621053,250.345263 C558.105263,249.265263 557.692632,248.128421 557.387368,246.968421 L557.387368,237.452632 C557.696842,236.362105 558.109474,235.286316 558.621053,234.261053 Z M568.707368,243.372632 L568.707368,248.715789 C568.277895,248.972632 567.865263,249.261053 567.473684,249.574737 L567.473684,243.903158 C567.88,243.707368 568.290526,243.528421 568.707368,243.372632 Z M862.125053,244.865053 C862.594526,244.865053 862.998737,245.041895 863.335579,245.395579 C863.672421,245.751368 863.840842,246.176632 863.840842,246.675579 C863.840842,247.185053 863.676632,247.614526 863.348211,247.959789 C863.015579,248.309263 862.613474,248.479789 862.125053,248.479789 C861.642947,248.479789 861.236632,248.309263 860.904,247.959789 C860.575579,247.614526 860.411368,247.189263 860.411368,246.688211 C860.411368,246.189263 860.579789,245.759789 860.916632,245.395579 C861.253474,245.041895 861.657684,244.865053 862.125053,244.865053 Z M573.751579,242.341053 L573.751579,247.168421 C573.334737,247.189474 572.924211,247.237895 572.52,247.305263 L572.52,242.437895 C572.928421,242.389474 573.338947,242.357895 573.751579,242.341053 Z M627.995,204.943 L629.229,206.72 L629.229,243.406 L628.835712,244.42191 C628.567485,245.095439 628.287719,245.762105 627.995789,246.423158 L627.995,204.943 Z M518.273,204.944 L518.273684,246.423158 L517.953,245.685 C517.632237,244.928421 517.329474,244.172105 517.042105,243.406316 L517.042,206.717 L518.273,204.944 Z M756.035158,239.816 C756.519368,239.816 756.936211,239.994947 757.285684,240.346526 C757.630947,240.706526 757.803579,241.121263 757.803579,241.609684 C757.803579,242.093895 757.630947,242.508632 757.285684,242.860211 C756.936211,243.203368 756.519368,243.376 756.035158,243.376 C755.553053,243.376 755.155158,243.203368 754.843579,242.860211 C754.532,242.508632 754.374105,242.093895 754.374105,241.609684 C754.374105,241.121263 754.532,240.706526 754.843579,240.346526 C755.155158,239.994947 755.553053,239.816 756.035158,239.816 Z M786.620421,239.816 C787.102526,239.816 787.519368,239.994947 787.870947,240.346526 C788.216211,240.706526 788.388842,241.121263 788.388842,241.609684 C788.388842,242.093895 788.216211,242.508632 787.870947,242.860211 C787.519368,243.203368 787.102526,243.376 786.620421,243.376 C786.138316,243.376 785.740421,243.203368 785.428842,242.860211 C785.115158,242.508632 784.959368,242.093895 784.959368,241.609684 C784.959368,241.121263 785.115158,240.706526 785.428842,240.346526 C785.740421,239.994947 786.138316,239.816 786.620421,239.816 Z M867.365684,164.843368 L867.365684,165.354947 C865.725684,165.816 864.582526,166.481263 863.919368,167.350737 C863.237263,168.222316 862.927789,169.656 862.961474,171.651789 C862.961474,173.649684 863.713053,177.573895 865.216211,183.443368 L872.110947,209.689684 L878.489895,186.361263 C880.384632,180.167579 881.220421,175.388632 880.982526,172.062316 C880.742526,168.717053 879.140421,166.481263 876.136211,165.354947 L876.136211,164.843368 L892.927789,164.843368 L892.927789,165.256 C891.102526,166.123368 889.378316,168.053895 887.790947,171.056 C886.188842,174.058105 884.155158,179.843368 881.681474,188.409684 L871.647789,223.411789 C868.167789,235.561263 863.237263,241.634947 856.870947,241.634947 C854.668842,241.634947 852.843579,240.986526 851.376211,239.691789 C849.906737,238.392842 849.174105,236.891789 849.174105,235.150737 C849.174105,233.428632 849.755158,231.908632 850.932,230.578105 C852.092,229.279158 853.593053,228.630737 855.420421,228.630737 C857.260421,228.630737 858.763579,229.264421 859.923579,230.525474 C861.085684,231.788632 861.734105,233.409684 861.870947,235.407579 C864.412,233.272842 866.633053,229.074947 868.525684,222.813895 L870.113053,217.011789 L862.860421,217.079158 L854.054105,186.157053 C851.597263,177.693895 849.822526,172.300211 848.765684,169.999158 C847.689895,167.712842 846.203579,166.123368 844.310947,165.256 L844.310947,164.843368 L867.365684,164.843368 Z M702.740421,146.413895 L702.740421,146.824421 C700.079368,147.794947 698.355158,149.058105 697.572,150.628632 C696.784632,152.182316 696.393053,155.114947 696.393053,159.416 L696.393053,208.563368 C696.393053,217.761263 693.969895,224.725474 689.123579,229.468632 C686.734105,231.738105 684.515158,233.496 682.468842,234.757053 C680.403579,236.037053 677.946737,237.266526 675.096211,238.460211 L675.096211,237.967579 C680.761474,234.432842 683.595158,227.727579 683.595158,217.864421 L683.595158,159.416 C683.595158,155.184421 683.201474,152.268632 682.418316,150.679158 C681.599368,149.074947 679.875158,147.794947 677.245684,146.824421 L677.245684,146.413895 L702.740421,146.413895 Z M563.665263,228.231579 L563.665263,233.490526 C563.197895,234.124211 562.787368,234.806316 562.431579,235.530526 L562.431579,229.214737 C562.825263,228.865263 563.237895,228.534737 563.665263,228.231579 Z M553.576842,223.010526 L553.576842,229.418947 C553.130526,230.115789 552.72,230.835789 552.345263,231.578947 L552.345263,224.143158 L553.576842,223.010526 Z M568.707368,226.117895 L568.707368,229.715789 C568.28,229.861053 567.869474,230.031579 567.473684,230.227368 L567.473684,226.393684 C567.877895,226.284211 568.288421,226.189474 568.707368,226.117895 Z M845.108842,228.645474 L845.108842,229.856 L707.132,229.856 L707.132,228.645474 L845.108842,228.645474 Z M906.763579,228.645474 L906.763579,229.856 L879.342526,229.856 L879.342526,228.645474 L906.763579,228.645474 Z M572.52,226.077895 L572.810526,226.113684 L572.810526,229.206316 L572.52,229.193684 L572.52,226.077895 Z M558.621053,218.896842 L558.621053,223.768421 C558.197895,224.115789 557.787368,224.473684 557.387368,224.848421 L557.387368,219.747368 C557.793684,219.454737 558.204211,219.170526 558.621053,218.896842 Z M552.345263,197.395789 L553.576842,197.572632 L553.576842,219.882105 C553.48,220.050526 553.383158,220.218947 553.288421,220.387368 L552.345263,222.077895 L552.345263,197.395789 Z M563.665263,216.298947 L563.665263,220.602105 C563.246316,220.797895 562.835789,221.006316 562.431579,221.221053 L562.431579,216.816842 C562.84,216.635789 563.248421,216.463158 563.665263,216.298947 Z M568.707368,214.856842 L568.707368,218.907368 C568.292632,218.995789 567.882105,219.096842 567.473684,219.206316 L567.473684,215.115789 C567.884211,215.018947 568.294737,214.934737 568.707368,214.856842 Z M577.562105,214.633684 C577.976842,214.690526 578.387368,214.757895 578.795789,214.829474 L578.795789,218.907368 C578.387368,218.818947 577.978947,218.741053 577.562105,218.671579 L577.562105,214.633684 Z M573.751579,214.383158 L573.751579,218.368421 C573.338947,218.368421 572.928421,218.381053 572.52,218.4 L572.52,214.414737 C572.928421,214.395789 573.338947,214.385263 573.751579,214.383158 Z M776.563579,163.613895 C780.454105,163.613895 783.698316,164.483368 786.256211,166.209684 C788.833053,167.914947 790.113053,169.999158 790.113053,172.456 C790.113053,174.927579 789.481474,176.856 788.218316,178.256 C786.938316,179.658105 785.369895,180.371789 783.510947,180.405474 C781.647789,180.405474 780.062526,179.809684 778.748842,178.613895 C777.485684,177.439158 776.870947,175.919158 776.906737,174.108632 C776.906737,170.799158 778.338316,168.325474 781.205684,166.670737 C780.437263,166.277053 779.310947,166.072842 777.809895,166.072842 C769.430947,166.072842 765.233053,173.325474 765.233053,187.830737 C765.233053,195.220211 766.599368,200.662316 769.327789,204.194947 C772.041474,207.727579 775.540421,209.485474 779.805684,209.485474 C784.073053,209.485474 787.809895,207.881263 791.018316,204.687579 L791.513053,205.098105 C787.553053,213.856 781.513053,218.253895 773.422526,218.290101 C767.502526,218.325474 762.639368,216.056 758.849895,211.464421 C755.045684,206.889684 753.150947,200.405474 753.150947,192.028632 C753.150947,183.632842 755.319368,176.807579 759.635158,171.500211 C763.967789,166.243368 769.601474,163.613895 776.563579,163.613895 Z M923.542526,163.613895 C927.058316,163.613895 931.049895,164.468632 935.521474,166.154947 L935.521474,179.077053 L935.113053,179.077053 C930.555158,170.885474 926.169895,166.788632 921.938316,166.788632 C919.976211,166.788632 918.319368,167.403368 916.990947,168.630737 C915.658316,169.860211 914.976211,171.569684 914.940421,173.750737 C914.940421,177.439158 917.757263,180.645474 923.388842,183.359158 C925.761474,184.483368 928.098316,185.729684 930.437263,187.096 C932.790947,188.460211 934.769895,190.390737 936.357263,192.845474 C937.944632,195.323368 938.763579,198.256 938.797263,201.653895 C938.830947,206.738105 937.159368,210.799158 933.763579,213.784421 C930.384632,216.788632 926.066737,218.289684 920.828842,218.289684 C915.607789,218.289684 910.828842,217.232842 906.546737,215.117053 L906.340421,200.133895 L906.852,200.133895 C911.700421,210.114947 916.734105,215.117053 921.938316,215.117053 C924.174105,215.117053 926.049895,214.451789 927.586737,213.121263 C929.123579,211.805474 929.889895,209.912842 929.889895,207.456 C929.889895,204.963368 929.087789,202.912842 927.485684,201.327579 C925.898316,199.742316 923.950947,198.376 921.698316,197.249684 C919.430947,196.123368 917.125684,194.912842 914.788842,193.613895 C912.536211,192.300211 910.590947,190.474947 909.003579,188.102316 C907.399368,185.748632 906.580421,182.931789 906.546737,179.658105 C906.510947,174.896 908.132,171.039158 911.390947,168.070737 C914.668842,165.098105 918.713053,163.613895 923.542526,163.613895 Z M727.125684,163.613895 C738.235158,163.613895 743.782526,169.639158 743.782526,181.685474 L743.782526,203.957053 C743.748842,207.677053 744.226737,210.114947 745.233053,211.243368 C746.239368,212.384421 747.997263,213.068632 750.540421,213.342316 L750.540421,213.752842 C749.464632,214.776 747.757263,215.746526 745.437263,216.653895 C740.437263,218.580211 736.666737,218.460211 734.089895,216.296 C732.826737,215.167579 732.058316,213.599158 731.801474,211.601263 C727.041474,216.020211 722.435158,218.253895 717.997263,218.289684 C714.601474,218.289684 711.734105,217.096 709.397263,214.689684 C707.058316,212.300211 705.898316,208.988632 705.898316,204.757053 C705.898316,199.331789 707.809895,195.081263 711.647789,192.045474 C715.489895,188.988632 722.161474,187.371789 731.700421,187.165474 L731.700421,180.117053 C731.700421,171.634947 728.270947,167.403368 721.409895,167.403368 C718.713053,167.403368 715.915158,168.171789 713.033053,169.725474 C715.113053,170.049684 716.784632,170.765474 718.083579,171.889684 C719.380421,172.999158 720.026737,174.367579 720.026737,175.986526 C720.026737,177.590737 719.412,179.026526 718.184632,180.270737 C716.955158,181.514947 715.489895,182.146526 713.782526,182.146526 C712.058316,182.146526 710.607789,181.550737 709.414105,180.357053 C708.235158,179.142316 707.639368,177.641263 707.639368,175.799158 C707.639368,172.336 709.567789,169.432842 713.405684,167.112842 C717.247789,164.773895 721.818316,163.613895 727.125684,163.613895 Z M843.763579,164.843368 L843.763579,165.354947 C840.965684,166.020211 838.321474,167.199158 835.828842,168.906526 C833.321474,170.611789 830.470947,173.272842 827.281474,176.908632 L821.222526,183.563368 L834.668842,205.508632 C837.108842,209.399158 839.123579,212.079158 840.725684,213.546526 C842.315158,215.013895 844.054105,216.056 845.915158,216.653895 L845.915158,217.060211 L833.732,217.060211 C830.384632,217.060211 828.100421,216.550737 826.870947,215.510737 C825.641474,214.483368 823.732,211.653895 821.119368,207.009684 L811.633053,189.999158 L818.679368,181.413895 C822.569895,176.702316 824.515158,173.409684 824.515158,171.500211 C824.515158,168.767579 822.468842,166.757053 818.372,165.458105 L818.372,164.843368 L843.763579,164.843368 Z M797.542526,150.632842 L798.908842,152.117053 L810.283579,164.496 L810.283579,203.359158 C810.249895,208.428632 810.523579,211.653895 811.119368,213.051789 C811.700421,214.451789 813.098316,215.643368 815.300421,216.653895 L815.300421,217.060211 L793.083579,217.060211 L793.083579,216.653895 C795.199368,215.681263 796.529895,214.483368 797.075158,213.051789 C797.622526,211.618105 797.894105,208.392842 797.894105,203.359158 L797.894105,157.761263 C797.894105,154.670737 797.778316,152.293895 797.542526,150.632842 Z M557.387368,198.132632 L558.621053,198.322105 L558.621053,213.44 C558.197895,213.850526 557.787368,214.273684 557.387368,214.711579 L557.387368,198.132632 Z M727.332,189.622316 C721.102526,189.622316 717.980421,193.613895 717.980421,201.599158 C717.980421,205.234947 718.698316,207.881263 720.113053,209.552842 C721.546737,211.209684 723.287789,212.043368 725.334105,212.043368 C727.399368,212.043368 729.515158,211.464421 731.700421,210.304421 L731.700421,190.323368 C729.942526,189.860211 728.492,189.622316 727.332,189.622316 Z M562.431579,198.941053 L563.665263,199.157895 L563.665263,209.492632 C563.246316,209.753684 562.835789,210.023158 562.431579,210.305263 L562.431579,198.941053 Z M567.473684,199.903158 C567.913684,199.997895 568.326316,200.094737 568.707368,200.189474 L568.707368,206.968421 C568.292632,207.128421 567.882105,207.301053 567.473684,207.477895 L567.473684,199.903158 Z M518.273,196.444 L521.225263,200.694737 L518.273,204.944 L518.273,196.444 Z M627.995,196.445 L627.995,204.943 L625.044211,200.694737 L627.995,196.445 Z M627.995789,152.738947 C628.414737,152.835789 628.821053,152.924211 629.229474,153.008421 L629.229,194.668 L627.995,196.445 L627.995789,152.738947 Z M518.273684,152.738947 L518.273,196.444 L517.042,194.671 L517.042105,153.008421 C517.448421,152.922105 517.856842,152.835789 518.273684,152.738947 Z M537.214737,182.932632 L538.446316,183.075789 L538.446316,193.795789 L537.214737,193.917895 L537.214737,182.932632 Z M542.258947,183.52 L543.490526,183.663158 L543.490526,193.301053 L542.258947,193.421053 L542.258947,183.52 Z M547.301053,184.109474 L548.534737,184.254737 L548.534737,192.802105 L547.301053,192.926316 L547.301053,184.109474 Z M552.345263,184.698947 L553.576842,184.842105 L553.576842,192.309474 L552.345263,192.431579 L552.345263,184.698947 Z M557.387368,185.286316 L558.621053,185.431579 L558.621053,191.812632 L557.387368,191.932632 L557.387368,185.286316 Z M562.431579,185.875789 L563.665263,186.021053 L563.665263,191.313684 L562.431579,191.44 L562.431579,185.875789 Z M567.473684,186.467368 L568.707368,186.608421 L568.707368,190.821053 L567.473684,190.941053 L567.473684,186.467368 Z M572.52,187.054737 L573.751579,187.197895 L573.751579,190.326316 L572.52,190.444211 L572.52,187.054737 Z M577.562105,187.642105 L578.795789,187.787368 L578.795789,189.827368 L577.562105,189.949474 L577.562105,187.642105 Z M582.606316,188.231579 L583.837895,188.378947 L583.837895,189.332632 L582.606316,189.452632 L582.606316,188.231579 Z M533.404211,147.206316 L533.404211,180.035789 L532.170526,180.271579 L532.170526,147.821053 L532.541,147.638 L532.789737,147.516053 C532.995263,147.413684 533.2,147.310526 533.404211,147.206316 Z M547.301053,148.652632 L548.534737,150.313684 L548.534737,177.143158 L547.301053,177.378947 L547.301053,148.652632 Z M552.345263,155.44 L553.576842,157.098947 L553.576842,176.178947 L552.345263,176.414737 L552.345263,155.44 Z M557.387368,162.227368 L557.781053,162.76 L558.326316,163.488421 L558.621053,163.888421 L558.621053,175.214737 L557.387368,175.452632 L557.387368,162.227368 Z M563.665263,164.656842 L563.665263,174.252632 L562.431579,174.486316 L562.431579,165.044211 C562.831579,164.905263 563.242105,164.776842 563.665263,164.656842 Z M568.707368,163.677895 L568.707368,173.288421 L567.473684,173.522105 L567.473684,163.84 C567.88,163.778947 568.290526,163.726316 568.707368,163.677895 Z M572.949474,163.442105 C573.218947,163.442105 573.486316,163.446316 573.751579,163.452632 L573.751579,172.322105 L572.52,172.56 L572.52,163.446316 L572.949474,163.442105 Z M577.562105,163.722105 C577.978947,163.774737 578.389474,163.833684 578.795789,163.898947 L578.795789,171.36 L577.562105,171.593684 L577.562105,163.722105 Z M902.536211,144.980211 C904.430947,144.980211 905.999368,145.662316 907.262526,147.026526 C908.525684,148.392842 909.157263,150.150737 909.157263,152.285474 C909.157263,155.407579 907.687789,158.733895 904.772,162.232842 C901.837263,165.729684 898.626737,168.580211 895.129895,170.784421 L894.738316,170.578105 C897.860421,166.618105 899.428842,163.068632 899.428842,159.927579 C899.428842,158.837053 898.849895,157.504421 897.689895,155.936 C896.527789,154.367579 895.948842,152.761263 895.948842,151.123368 C895.948842,149.502316 896.561474,148.070737 897.790947,146.824421 C899.020421,145.594947 900.607789,144.980211 902.536211,144.980211 Z M582.606316,164.768421 C583.029474,164.894737 583.44,165.029474 583.837895,165.172632 L583.837895,170.393684 L582.606316,170.627368 L582.606316,164.768421 Z M588.882105,162.227368 L588.882105,169.427368 L587.648421,169.661053 L587.648421,163.890526 L588.244211,163.088421 L588.244211,163.086316 L588.882105,162.227368 Z M593.926316,155.437895 L593.926316,168.456842 L592.692632,168.694737 L592.692632,157.098947 L593.926316,155.437895 Z M572.997895,160.656842 C578.414737,160.656842 583.294737,161.745263 586.728421,163.488421 L586.728421,163.488421 L585.791579,164.749474 C582.435789,163.265263 577.938947,162.357895 572.997895,162.357895 C568.193684,162.357895 563.812632,163.214737 560.488421,164.625263 L560.488421,164.625263 L559.543158,163.355789 C562.96,161.690526 567.726316,160.656842 572.997895,160.656842 Z M573.16,134.953684 C573.166316,134.985263 573.174737,135.018947 573.178947,135.052632 C577.294737,155.08 585.002105,154.334737 596.549474,149.898947 C596.621053,149.873684 596.688421,149.831579 596.757895,149.797895 L587.610526,162.107368 C583.507368,160.08 578.32,159.069474 573.134737,159.073684 C567.949474,159.069474 562.762105,160.08 558.658947,162.107368 L549.511579,149.797895 C549.583158,149.831579 549.648421,149.873684 549.72,149.898947 C561.265263,154.334737 568.974737,155.082105 573.090526,135.052632 C573.096842,135.018947 573.105263,134.987368 573.109474,134.953684 C573.117895,134.987368 573.124211,135.025263 573.130526,135.056842 L573.134737,135.075789 L573.138947,135.056842 C573.147368,135.023158 573.153684,134.987368 573.16,134.953684 Z M587.648421,135.623158 C588.056842,135.694737 588.467368,135.753684 588.882105,135.806316 L588.882105,151.115789 C588.461053,151.191579 588.052632,151.250526 587.648421,151.294737 L587.648421,135.623158 Z M558.621053,135.623158 L558.621053,151.292632 C558.218947,151.250526 557.806316,151.193684 557.387368,151.115789 L557.387368,135.806316 C557.8,135.753684 558.212632,135.694737 558.621053,135.623158 Z M563.665263,134.235789 L563.665263,150.686316 C563.267368,150.861053 562.854737,151.002105 562.431579,151.109474 L562.431579,134.675789 C562.846316,134.538947 563.256842,134.393684 563.665263,134.235789 Z M582.606316,134.235789 C583.012632,134.393684 583.423158,134.538947 583.837895,134.675789 L583.837895,151.109474 C583.414737,151 583.004211,150.861053 582.606316,150.686316 L582.606316,134.235789 Z M552.345263,135.938947 L552.495,135.946 L552.849829,135.967074 L552.849829,135.967074 L552.925,135.97 L552.962632,135.972632 L552.962632,135.972632 L553.083,135.976 L553.310303,135.985502 L553.310303,135.985502 L553.417,135.988 L553.576842,135.993684 L553.576842,135.993684 L553.576842,150.122105 C553.172632,149.989474 552.76,149.850526 552.345263,149.707368 L552.345263,135.938947 Z M577.562105,131.675789 C577.968421,131.934737 578.378947,132.185263 578.795789,132.423158 L578.795789,147.372632 C578.368421,146.764211 577.955789,146.073684 577.562105,145.298947 L577.562105,131.675789 Z M610.250526,124.084211 C620.694737,109.842105 606.185263,104.789474 600.581053,117.433684 C598.124211,122.976842 597.768421,130.151579 599.477895,131.642105 C601.221053,131.490526 607.223158,128.208421 610.250526,124.084211 Z M536.021053,124.084211 C539.048421,128.208421 545.050526,131.490526 546.791579,131.642105 C548.501053,130.151579 548.147368,122.976842 545.690526,117.433684 C540.084211,104.789474 525.576842,109.842105 536.021053,124.084211 Z M573.134737,73.7768421 C563.928421,77.3010526 564.871579,112.572632 573.090526,119.953684 C573.124211,119.985263 573.147368,119.985263 573.181053,119.953684 C581.421053,112.551579 582.309474,77.1789474 573.134737,73.7768421 Z" opacity=".119" transform="translate(-497 -51)"/>
</svg>
