<?xml version="1.0" encoding="utf-8"?>
<svg width="134px" height="48px" viewBox="0 0 134 48" version="1.1" xmlns:xlink="http://www.w3.org/1999/xlink" xmlns="http://www.w3.org/2000/svg">
  <desc>Created with Lunacy</desc>
  <g id="sm-rus-default-3">
    <path d="M134 0.501493L129.082 0.501493L129.082 2.57194C129.082 2.57194 127.856 0 123.259 0C118.269 0 115.162 4.40597 115.162 9.24179C115.162 14.3713 117.87 18.4263 123.423 18.4263C127.592 18.4263 128.904 16.2054 128.904 16.2054L128.947 18.1898C128.783 20.8334 127.414 22.2519 124.791 22.2519C122.852 22.2519 121.634 21.6215 121.363 20.1027L115.939 20.4036C116.131 24.1648 120.386 26.3928 124.257 26.3928C132.966 26.3785 134 21.7433 134 17.9749L134 0.501493ZM114.1 11.6131C114.484 6.01791 111.327 0.150448 104.591 0.150448C98.6896 0.150448 95.1899 4.9791 95.1899 10.2448C95.1899 15.5104 98.8036 20.1958 104.777 20.1958C109.053 20.1958 112.375 18.4334 113.843 13.9916L108.569 13.7552C108.433 14.4716 107.05 16.0764 104.876 16.0764C103.687 16.1121 102.535 15.6552 101.69 14.8128C100.845 13.9704 100.381 12.8162 100.407 11.6203L114.1 11.6131ZM48.6677 13.9487C48.6677 18.4048 53.0797 20.7618 57.3848 20.7618C60.8488 20.7618 65.8525 19.157 65.8525 14.2137C65.8525 10.7248 63.536 9.43522 60.2287 8.62567C57.3278 7.90925 53.8138 8.02388 53.8138 6.1397C53.8138 4.61373 55.4532 4.05493 57.0783 4.05493C58.9101 4.05493 60.7633 4.83582 60.7633 6.85612L65.3179 6.85612C64.9259 2.23522 61.2195 0.48 57.1638 0.48C53.1082 0.48 49.1809 2.2209 49.1809 6.89194C49.1809 10.2018 52.0319 11.6275 54.9828 12.1433C59.4518 12.9242 60.8417 13.1033 60.8417 14.8227C60.8417 16.5421 58.29 17.1081 57.4276 17.1081C55.4176 17.1081 53.322 16.2054 53.2864 13.9487L48.6677 13.9487ZM66.6508 19.8161L71.7684 19.8161L71.7684 9.06985C71.7684 5.82448 73.9922 5.07224 74.9687 5.07224C77.7557 5.07224 77.9766 7.35761 77.9766 9.42806L77.9766 19.8161L83.0943 19.8161L83.0943 9.06985C83.0943 5.81731 84.9403 5.00776 86.2589 5.00776C89.2027 5.00776 89.3025 7.32179 89.3025 9.43522L89.3025 19.8161L94.4201 19.8161L94.4201 7.36478C94.4201 2.49313 91.6688 0.637612 87.8199 0.637612C85.5892 0.6751 83.5324 1.85607 82.3672 3.76836C81.3908 1.51164 79.3594 0.637612 77.0928 0.637612C74.8497 0.623997 72.7595 1.77879 71.5688 3.68955L71.4976 3.68955L71.4976 1.1391L66.6508 1.1391L66.6508 19.8161ZM29.9124 1.70514C26.9826 1.70283 24.5335 3.78177 23.9517 6.55443C23.3692 3.79501 20.9357 1.72142 18.0163 1.71227C14.6582 1.70174 11.9261 4.42657 11.9103 7.80179C11.9065 9.42824 12.5457 10.9896 13.6873 12.1424C14.5542 13.0178 15.657 13.6032 16.8462 13.8358C14.4471 14.2974 12.5467 16.175 12.0422 18.5722C11.4606 15.8093 9.02362 13.7335 6.10123 13.7266C2.74226 13.7187 0.0118082 16.4471 8.53845e-06 19.8233C-0.0039339 23.2074 2.72017 25.9551 6.08703 25.963C9.01662 25.963 11.4633 23.8826 12.0435 21.1109C12.6283 23.8778 15.0698 25.9561 17.9973 25.963C20.9502 25.963 23.4124 23.8494 23.9673 21.0447C24.5241 23.8482 26.9828 25.9632 29.9362 25.9701C33.2905 25.9543 35.9999 23.2139 35.9946 19.8424C35.99 16.8531 33.8528 14.3667 31.0303 13.8377C33.4359 13.3869 35.342 11.5147 35.8569 9.12351C36.1031 10.2572 36.6665 11.307 37.4936 12.1424C38.6352 13.2951 40.1856 13.9449 41.8037 13.9487C45.1618 13.9486 47.8855 11.2152 47.8907 7.83996C47.8959 4.4647 45.1807 1.7228 41.8227 1.71227C38.9019 1.70311 36.4546 3.76332 35.8564 6.52096C35.2628 3.76883 32.8272 1.70745 29.9124 1.70514ZM12.0435 21.1109C12.1286 20.7046 12.1735 20.2835 12.174 19.8519C12.1745 19.4131 12.129 18.985 12.0422 18.5722C11.9572 18.9759 11.9118 19.3944 11.9103 19.8233C11.9098 20.2649 11.9558 20.6956 12.0435 21.1109ZM23.9693 9.02011C24.2039 10.1906 24.7756 11.2763 25.6261 12.1352C26.4988 13.0165 27.6105 13.6038 28.8088 13.8332C26.3863 14.2772 24.4626 16.1629 23.9532 18.5758C23.4508 16.1817 21.5553 14.3027 19.1576 13.8376C18.782 13.9105 18.3941 13.9487 17.9973 13.9487C17.6081 13.9477 17.2229 13.9095 16.8462 13.8358C17.2235 13.7632 17.6131 13.7256 18.0116 13.7266C18.4034 13.7275 18.7865 13.7656 19.1576 13.8376C21.5808 13.3675 23.4923 11.4529 23.9693 9.02011L23.9693 9.02011ZM23.9693 9.02011C23.889 8.61964 23.8482 8.20925 23.8492 7.79463L23.8206 7.80179C23.8221 7.37421 23.8673 6.95701 23.9517 6.55443C24.0392 6.96901 24.085 7.39908 24.0843 7.83996C24.0837 8.24372 24.0441 8.6383 23.9693 9.02011L23.9693 9.02011ZM100.557 7.9594C100.735 5.82486 102.51 4.18328 104.641 4.18328C106.772 4.18328 108.548 5.82486 108.725 7.9594L100.557 7.9594ZM124.335 14.3427C121.691 14.3427 119.994 11.7564 120.144 9.17015C120.279 6.76299 121.569 4.26269 124.534 4.26269C127.5 4.26269 129.146 6.73433 128.947 9.6C128.79 11.9284 127.471 14.3427 124.335 14.3427Z" transform="translate(-8.538452E-06 20.90508)" id="Combined-Shape" fill="#000000" fill-rule="evenodd" stroke="none" />
    <path d="M5.21032 7.86627L5.21032 2.54328L2.43053 7.86627L0 7.86627L0 0L2.05277 0L2.05277 5.32299L4.83255 0L7.26308 0L7.26308 7.8806L5.21032 7.86627Z" transform="translate(0 0.2292537)" id="Path" fill="#B12920" stroke="none" />
    <path d="M5.14617 7.86627L5.14617 4.55642L2.1383 4.55642L2.1383 7.86627L0 7.86627L0 0L2.1383 0L2.1383 2.86567L5.14617 2.86567L5.14617 1.98846e-16L7.28447 1.98846e-16L7.28447 7.8806L5.14617 7.86627Z" transform="translate(8.95234 0.2292537)" id="Path" fill="#B12920" stroke="none" />
    <path d="M4.70426 1.66209L4.70426 7.86627L2.56596 7.86627L2.56596 1.66209L0 1.66209L0 0L7.27021 0L7.27021 1.66209L4.70426 1.66209Z" transform="translate(17.22042 0.2292537)" id="Path" fill="#B12920" stroke="none" />
    <path d="M0 4.20537C0 6.67702 1.58234 8.32478 3.98436 8.32478C5.67916 8.42523 7.20917 7.31006 7.64085 5.6597L5.58096 5.6597C5.38517 6.36675 4.72788 6.8429 3.99862 6.80597C2.8867 6.80597 2.17394 6.06806 2.17394 4.71403L7.75489 4.71403L7.75489 4.4991C7.75489 1.7409 6.17255 0 3.90596 0C1.63936 0 0 1.73373 0 4.20537ZM2.16681 3.33851C2.16285 2.36794 2.94037 1.57684 3.90596 1.56896C4.98223 1.56896 5.49543 2.37851 5.58096 3.33851L2.16681 3.33851Z" transform="translate(24.86128 0)" id="Shape" fill="#B12920" fill-rule="evenodd" stroke="none" />
    <path d="M4.45479 0.00151894C3.49957 -0.0297084 2.59232 0.422203 2.03851 1.2051L2.02426 0.230773L0 0.230773L0 10.8911L2.1383 10.8911L2.1383 7.10122C2.69052 7.87506 3.59372 8.31685 4.54032 8.27615C6.57883 8.27615 7.92596 6.72152 7.92596 4.19256C7.92596 1.66361 6.55745 0.00151894 4.45479 0.00151894ZM3.91308 6.59973C2.75128 6.59973 2.03851 5.70421 2.03851 4.17824L2.06702 4.17824C2.06702 2.65227 2.77266 1.74958 3.92021 1.74958C5.06777 1.74958 5.78053 2.68092 5.78053 4.20689C5.78053 5.73286 5.07489 6.59973 3.91308 6.59973Z" transform="translate(33.835 -0.001518943)" id="Shape" fill="#B12920" fill-rule="evenodd" stroke="none" />
    <path d="M5.14617 7.86627L5.14617 4.55642L2.1383 4.55642L2.1383 7.86627L0 7.86627L0 0L2.1383 0L2.1383 2.86567L5.14617 2.86567L5.14617 1.98846e-16L7.28447 1.98846e-16L7.28447 7.8806L5.14617 7.86627Z" transform="translate(43.10096 0.2292537)" id="Path" fill="#B12920" stroke="none" />
    <path d="M0 4.20537C0 6.67701 1.58234 8.32478 3.98436 8.32478C5.67656 8.42171 7.20256 7.30729 7.63372 5.6597L5.58096 5.6597C5.38517 6.36675 4.72788 6.8429 3.99862 6.80597C2.8867 6.80597 2.17394 6.06806 2.17394 4.71403L7.76202 4.71403L7.76202 4.4991C7.76202 1.7409 6.17968 0 3.91308 0C1.64649 0 0 1.73373 0 4.20537ZM2.16681 3.33851C2.16285 2.36794 2.94037 1.57684 3.90596 1.56896L3.91308 1.56896C4.98223 1.56896 5.49543 2.37851 5.58096 3.33851L2.16681 3.33851Z" transform="translate(51.72543 0)" id="Shape" fill="#B12920" fill-rule="evenodd" stroke="none" />
    <path d="M4.70425 1.66209L4.70425 7.86627L2.56596 7.86627L2.56596 1.66209L0 1.66209L0 0L7.27021 0L7.27021 1.66209L4.70425 1.66209Z" transform="translate(59.77255 0.2292537)" id="Path" fill="#B12920" stroke="none" />
    <path d="M4.54745 1.93433L0 1.93433L0 0L4.54745 0L4.54745 1.93433Z" transform="translate(67.10692 2.973134)" id="Path" fill="#B12920" stroke="none" />
    <path d="M5.14617 7.86627L5.14617 1.66209L2.1383 1.66209L2.1383 7.86627L0 7.86627L0 0L7.28447 0L7.28447 7.8806L5.14617 7.86627Z" transform="translate(73.25809 0.2292537)" id="Path" fill="#B12920" stroke="none" />
    <path d="M5.30298 7.33612C5.31063 7.59585 5.36121 7.85248 5.45266 8.09552L7.60521 8.10985C7.3701 7.41949 7.27792 6.68808 7.33436 5.9606L7.33436 2.56478C7.33436 0.365373 5.50255 0 3.93447 0C1.68926 0 0.449043 0.895522 0.327872 2.65075L2.33787 2.65075C2.48755 1.75522 2.90809 1.44716 3.87745 1.44716C4.84681 1.44716 5.30298 1.86269 5.30298 2.5003C5.30298 3.13791 4.78979 3.26687 3.39989 3.44597C1.86032 3.64657 0 3.89015 0 5.94627C0 7.42209 1.05489 8.32478 2.77979 8.32478C3.71751 8.34177 4.62411 7.98654 5.30298 7.33612ZM2.20957 5.85313C2.20957 4.89313 3.06489 4.8 3.77766 4.67821C4.301 4.65078 4.81411 4.52184 5.28872 4.29851L5.28872 5.15104C5.30463 5.64957 5.10347 6.13029 4.73783 6.46752C4.37219 6.80475 3.87843 6.96496 3.38564 6.90627C2.65149 6.90627 2.20957 6.51224 2.20957 5.85313Z" transform="translate(81.85404 -1.272614E-15)" id="Shape" fill="#B12920" fill-rule="evenodd" stroke="none" />
    <path d="M4.45479 0.00151894C3.49957 -0.0297084 2.59232 0.422203 2.03851 1.2051L2.02426 0.230773L0 0.230773L0 10.8911L2.1383 10.8911L2.1383 7.10122C2.69052 7.87506 3.59372 8.31685 4.54032 8.27615C6.57883 8.27615 7.92596 6.72152 7.92596 4.19256C7.92596 1.66361 6.55745 0.00151894 4.45479 0.00151894ZM3.91308 6.59973C2.75128 6.59973 2.03851 5.70421 2.03851 4.17824L2.06702 4.17824C2.06702 2.65227 2.74415 1.74958 3.8917 1.74958C5.03926 1.74958 5.75202 2.71674 5.75202 4.20689C5.75202 5.69704 5.07489 6.59973 3.91308 6.59973Z" transform="translate(90.89191 -0.001518943)" id="Shape" fill="#B12920" fill-rule="evenodd" stroke="none" />
    <path d="M4.70425 1.66209L4.70425 7.86627L2.56596 7.86627L2.56596 1.66209L0 1.66209L0 0L7.26308 0L7.26308 1.66209L4.70425 1.66209Z" transform="translate(99.19564 0.2292537)" id="Path" fill="#B12920" stroke="none" />
    <path d="M5.14617 7.86627L5.14617 4.55642L2.1383 4.55642L2.1383 7.86627L0 7.86627L0 0L2.1383 0L2.1383 2.86567L5.14617 2.86567L5.14617 1.98846e-16L7.28447 1.98846e-16L7.28447 7.8806L5.14617 7.86627Z" transform="translate(107.4708 0.2292537)" id="Path" fill="#B12920" stroke="none" />
    <path d="M0 4.20537C0 6.67701 1.58947 8.32478 3.99149 8.32478C5.68369 8.42171 7.20969 7.30729 7.64085 5.6597L5.58809 5.6597C5.39229 6.36675 4.735 6.8429 4.00574 6.80597C2.89383 6.80597 2.18106 6.06806 2.18106 4.71403L7.76915 4.71403L7.76915 4.4991C7.76915 1.7409 6.18681 0 3.92021 0C1.65362 0 0 1.73373 0 4.20537ZM2.17394 3.33851C2.16998 2.36794 2.94749 1.57684 3.91308 1.56896L3.92021 1.56896C4.37649 1.57633 4.81057 1.76818 5.12442 2.10115C5.43826 2.43413 5.6054 2.88016 5.58808 3.33851L2.17394 3.33851Z" transform="translate(116.0597 0)" id="Shape" fill="#B12920" fill-rule="evenodd" stroke="none" />
    <path d="M4.45479 0.00151894C3.49957 -0.0297084 2.59232 0.422203 2.03851 1.2051L2.02426 0.230773L0 0.230773L0 10.8911L2.1383 10.8911L2.1383 7.10122C2.69052 7.87506 3.59372 8.31685 4.54032 8.27615C6.57883 8.27615 7.92596 6.72152 7.92596 4.19256C7.92596 1.66361 6.55745 0.00151894 4.45479 0.00151894ZM3.91308 6.59973C2.75128 6.59973 2.03851 5.70421 2.03851 4.17824L2.06702 4.17824C2.06702 2.65227 2.75128 1.74958 3.89883 1.74958C5.04638 1.74958 5.75915 2.71674 5.75915 4.20689C5.75915 5.69704 5.07489 6.59973 3.91308 6.59973Z" transform="translate(125.0405 -0.001518943)" id="Shape" fill="#B12920" fill-rule="evenodd" stroke="none" />
  </g>
</svg>