<?xml version="1.0" encoding="utf-8"?>
<svg width="22px" height="22px" viewBox="0 0 22 22" version="1.1" xmlns:xlink="http://www.w3.org/1999/xlink" xmlns="http://www.w3.org/2000/svg">
  <desc>Created with Lunacy</desc>
  <g id="musica-searcher-(1)-copy">
    <g id="musica-searcher-(1)" transform="translate(2.527027 2.527027)">
      <path d="M12.9625 10.9423L16.6762 14.656C17.2341 15.2139 17.2341 16.1183 16.6762 16.6762C16.1183 17.2341 15.2138 17.2341 14.6559 16.6762L10.9421 12.9624C10.9224 12.9427 10.9087 12.9196 10.8903 12.899C9.78183 13.6297 8.45503 14.0562 7.02805 14.0562C3.14654 14.0562 0 10.9096 0 7.02812C0 3.14661 3.14661 0 7.02812 0C10.9096 0 14.0562 3.14661 14.0562 7.02818C14.0562 8.4551 13.6297 9.78197 12.899 10.8904C12.9196 10.9088 12.9428 10.9226 12.9625 10.9423ZM2.42173 6.98033C2.42173 9.49794 4.46265 11.5389 6.98033 11.5389C9.49787 11.5389 11.5389 9.49794 11.5389 6.98033C11.5389 4.46271 9.49787 2.42173 6.98033 2.42173C4.46271 2.42173 2.42173 4.46265 2.42173 6.98033Z" id="Shape" fill="#666666" fill-rule="evenodd" stroke="none" />
    </g>
  </g>
</svg>