<?xml version="1.0" encoding="utf-8"?>
<svg width="14px" height="14px" viewBox="0 0 14 14" version="1.1" xmlns:xlink="http://www.w3.org/1999/xlink" xmlns="http://www.w3.org/2000/svg">
  <desc>Created with Lunacy</desc>
  <path d="M10.6057 8.95282L13.6442 11.9913C14.1006 12.4477 14.1006 13.1877 13.6442 13.6442C13.1877 14.1006 12.4477 14.1006 11.9912 13.6442L8.95265 10.6056C8.93651 10.5895 8.92527 10.5705 8.91024 10.5537C8.00332 11.1516 6.91775 11.5006 5.75022 11.5006C2.57444 11.5006 0 8.926 0 5.75028C0 2.5745 2.5745 0 5.75028 0C8.92606 0 11.5006 2.5745 11.5006 5.75033C11.5006 6.91781 11.1516 8.00343 10.5537 8.91036C10.5706 8.92539 10.5895 8.93667 10.6057 8.95282ZM1.98142 5.71118C1.98142 7.77104 3.65126 9.44088 5.71118 9.44088C7.77099 9.44088 9.44088 7.77104 9.44088 5.71118C9.44088 3.65131 7.77099 1.98142 5.71118 1.98142C3.65131 1.98142 1.98142 3.65126 1.98142 5.71118Z" id="search" fill="#FFFFFF" fill-rule="evenodd" stroke="none" />
</svg>