<svg xmlns="http://www.w3.org/2000/svg" width="103" height="86" viewBox="0 0 103 86">
  <g fill="#FFF">
    <path d="M92.2717051,34.608972 L92.2717051,32.2839579 C92.2717051,28.7384673 89.384084,25.8540514 85.8342051,25.8540514 L64.375,25.8540514 L64.375,15.1368037 C64.375,13.9530981 63.4144043,12.9934346 62.2290996,12.9934346 L55.7913984,12.9934346 L55.7913984,6.56453271 C55.7913984,5.3808271 54.8306016,4.42116355 53.645498,4.42116355 L24.4944863,4.42116355 L20.8303418,0.761542056 C19.9926621,-0.0753504673 18.6339473,-0.0753504673 17.7958652,0.761542056 L5.54892383,12.9934346 L2.14590039,12.9934346 C0.960796875,12.9936355 0,13.9530981 0,15.1368037 L0,75.1495327 C0,76.3330374 0.960796875,77.2929019 2.14590039,77.2929019 L10.944957,77.2929019 C11.2678379,78.8758645 11.9415625,80.3328411 12.8806328,81.5794393 L8.58319922,81.5794393 C7.3980957,81.5794393 6.4375,82.5393037 6.4375,83.7228084 C6.4375,84.9063131 7.3980957,85.8663785 8.58340039,85.8663785 L21.4577969,85.8663785 C21.4632285,85.8663785 21.4682578,85.8653738 21.4736895,85.8653738 C26.6478301,85.8579393 30.9752383,82.1736028 31.9710391,77.2931028 L62.2290996,77.2931028 L71.0297656,77.2931028 C71.3526465,78.8760654 72.0265723,80.3330421 72.9656426,81.5796402 L68.6680078,81.5796402 C67.4831055,81.5796402 66.5221074,82.5393037 66.5221074,83.7230093 C66.5221074,84.906715 67.4829043,85.8663785 68.6680078,85.8663785 L81.5424043,85.8663785 C81.5478359,85.8663785 81.5530664,85.8663785 81.558498,85.8663785 C86.7326387,85.8581402 91.0600469,82.1738037 92.0558477,77.2933037 L100.8541,77.2933037 C102.039203,77.2933037 103,76.3336402 103,75.1499346 L103,55.860014 L103,47.2863364 C103,40.9261542 98.352125,35.6329346 92.2717051,34.608972 Z M51.4997988,8.70790187 L51.4997988,12.9936355 L33.0772832,12.9936355 L28.7862871,8.70790187 L51.4997988,8.70790187 L51.4997988,8.70790187 Z M19.3131035,5.30808879 L22.0868613,8.07837383 C22.0878672,8.0793785 22.0890742,8.08058411 22.0900801,8.08158879 L27.0079277,12.9936355 L11.6184805,12.9936355 L19.3131035,5.30808879 Z M21.4581992,81.5790374 C17.9083203,81.5790374 15.020498,78.6948224 15.020498,75.1495327 C15.020498,71.6038411 17.9083203,68.7192243 21.4581992,68.7192243 C25.0076758,68.7192243 27.8952969,71.6038411 27.8952969,75.1495327 C27.8950957,78.6948224 25.0074746,81.5790374 21.4581992,81.5790374 Z M60.0831992,27.9974206 L60.0831992,64.4332897 L45.4895879,64.4332897 C44.3044844,64.4332897 43.3436875,65.3929533 43.3436875,66.5766589 C43.3436875,67.7603645 44.3042832,68.720028 45.4895879,68.720028 L60.0831992,68.720028 L60.0831992,73.0065654 L31.9710391,73.0065654 C30.9742324,68.1206402 26.6393809,64.4330888 21.4581992,64.4330888 C16.2770176,64.4330888 11.9415625,68.1208411 10.9447559,73.0065654 L4.29159961,73.0065654 L4.29159961,38.7136636 L12.8745977,38.7136636 C14.0595,38.7136636 15.020498,37.7542009 15.020498,36.5702944 C15.020498,35.3865888 14.0597012,34.4269252 12.8745977,34.4269252 L4.29159961,34.4269252 L4.29159961,30.1405888 L30.0409961,30.1405888 C31.2260996,30.1405888 32.1868965,29.1811262 32.1868965,27.9972196 C32.1868965,26.813514 31.2263008,25.8538505 30.0409961,25.8538505 L4.29159961,25.8538505 L4.29159961,17.279771 L6.4360918,17.279771 C6.43729883,17.279771 6.43850586,17.279771 6.43951172,17.279771 L60.0831992,17.279771 L60.0831992,27.9974206 Z M71.0297656,73.0063645 L64.375,73.0063645 L64.375,68.7198271 L72.9652402,68.7198271 C72.0259687,69.9666262 71.3524453,71.4234019 71.0297656,73.0063645 Z M87.9799043,75.1565654 C87.976082,78.6988411 85.0898691,81.5790374 81.5428066,81.5790374 C77.9931289,81.5790374 75.1051055,78.6948224 75.1051055,75.1495327 C75.1051055,71.6092664 77.9840762,68.7286682 81.5263105,68.7196262 L81.5424043,68.7196262 C81.544416,68.7196262 81.5462266,68.7194252 81.5480371,68.7194252 C85.0928867,68.7222383 87.976082,71.6020327 87.9799043,75.1427009 C87.9799043,75.1451121 87.9797031,75.1471215 87.9797031,75.1495327 C87.9797031,75.1519439 87.9799043,75.1541542 87.9799043,75.1565654 Z M98.7084004,73.0063645 L92.0558477,73.0063645 C91.0588398,68.1204393 86.7239883,64.4328879 81.5428066,64.4328879 C81.5371738,64.4328879 81.5317422,64.4332897 81.5263105,64.4332897 L64.3747988,64.4332897 L64.3747988,30.1407897 L85.8342051,30.1407897 C87.017498,30.1407897 87.9801055,31.1022617 87.9801055,32.2841589 L87.9801055,34.4273271 L72.9594062,34.4273271 C71.7745039,34.4273271 70.8135059,35.3867897 70.8135059,36.5706963 L70.8135059,55.860014 C70.8135059,57.0437196 71.7743027,58.0033832 72.9594062,58.0033832 L98.7084004,58.0033832 L98.7084004,73.0063645 L98.7084004,73.0063645 Z M79.3971074,38.7136636 L79.3971074,53.7164439 L75.1053066,53.7164439 L75.1053066,38.7136636 L79.3971074,38.7136636 Z M98.7084004,53.7164439 L83.688707,53.7164439 L83.688707,38.7136636 L90.1260059,38.7136636 C94.858373,38.7136636 98.7084004,42.5591495 98.7084004,47.2861355 L98.7084004,53.7164439 Z"/>
    <path d="M37.0954902 68.7198271L38.4348926 68.7198271C39.6197949 68.7198271 40.580793 67.7601636 40.580793 66.5764579 40.580793 65.3927523 39.6199961 64.4330888 38.4348926 64.4330888L37.0954902 64.4330888C35.9103867 64.4330888 34.9495898 65.3927523 34.9495898 66.5764579 34.9495898 67.7601636 35.9105879 68.7198271 37.0954902 68.7198271zM37.0954902 30.1407897L38.4348926 30.1407897C39.6197949 30.1407897 40.580793 29.1813271 40.580793 27.9974206 40.580793 26.813715 39.6199961 25.8540514 38.4348926 25.8540514L37.0954902 25.8540514C35.9103867 25.8540514 34.9495898 26.813514 34.9495898 27.9974206 34.949791 29.1811262 35.9105879 30.1407897 37.0954902 30.1407897z"/>
  </g>
</svg>
