<?xml version="1.0" encoding="utf-8"?>
<svg width="18px" height="18px" viewBox="0 0 18 18" version="1.1" xmlns:xlink="http://www.w3.org/1999/xlink" xmlns="http://www.w3.org/2000/svg">
  <desc>Created with Lunacy</desc>
  <g id="shopping-cart">
    <g id="shopping-cart">
      <path d="M0 0L18 0L18 18L0 18L0 0Z" id="Rectangle-5" fill="none" stroke="none" />
      <path d="M0 0L0 1.5L1.5 1.5L4.2 7.2L3.15 9C3.075 9.225 3 9.525 3 9.75C3 10.575 3.675 11.25 4.5 11.25L13.5 11.25L13.5 9.75L4.8 9.75C4.725 9.75 4.65 9.675 4.65 9.6L4.65 9.52497L5.325 8.24997L10.875 8.24997C11.475 8.24997 11.925 7.94997 12.15 7.49997L14.85 2.625C15 2.475 15 2.4 15 2.25C15 1.8 14.7 1.5 14.25 1.5L3.15 1.5L2.475 0L0 0ZM3 13.5C3 12.675 3.675 12 4.5 12C5.325 12 6 12.675 6 13.5C6 14.325 5.325 15 4.5 15C3.675 15 3 14.325 3 13.5ZM10.5 13.5C10.5 12.675 11.175 12 12 12C12.825 12 13.5 12.675 13.5 13.5C13.5 14.325 12.825 15 12 15C11.175 15 10.5 14.325 10.5 13.5Z" transform="translate(1.5 1.5)" id="Shape" fill="#FFFFFF" fill-rule="evenodd" stroke="none" />
    </g>
  </g>
</svg>