<?xml version="1.0" encoding="utf-8"?>
<svg width="24px" height="24px" viewBox="0 0 24 24" version="1.1" xmlns:xlink="http://www.w3.org/1999/xlink" xmlns="http://www.w3.org/2000/svg">
  <desc>Created with Lunacy</desc>
  <defs>
    <filter filterUnits="userSpaceOnUse" color-interpolation-filters="sRGB" id="filter_1">
      <feFlood flood-opacity="0" result="BackgroundImageFix" />
      <feColorMatrix in="SourceAlpha" type="matrix" values="0 0 0 0 0 0 0 0 0 0 0 0 0 0 0 0 0 0 127 0" />
      <feOffset dx="0" dy="1" />
      <feGaussianBlur stdDeviation="1.5" />
      <feColorMatrix type="matrix" values="0 0 0 0 0.7294118 0 0 0 0 0.07058824 0 0 0 0 0.07058824 0 0 0 0.2509804 0" />
      <feBlend mode="normal" in2="BackgroundImageFix" result="effect0_dropShadow" />
      <feBlend mode="normal" in="SourceGraphic" in2="effect0_dropShadow" result="shape" />
    </filter>
    <path d="M0 0L24 0L24 24L0 24L0 0Z" id="path_1" />
    <path d="M0 0L6 0L6 7L0 7L0 0Z" transform="translate(15 6)" id="path_2" />
    <clipPath id="clip_1">
      <use xlink:href="#path_1" />
    </clipPath>
    <clipPath id="clip_2">
      <use xlink:href="#path_2" />
    </clipPath>
  </defs>
  <g id="side-by-side">
    <g id="Rectangle">
      <g clip-path="url(#clip_1)">
        <use xlink:href="#path_1" fill="none" stroke="#000000" stroke-width="2" />
      </g>
    </g>
    <path d="M0 0L23 0L23 1L0 1L0 0Z" transform="matrix(-4.371139E-08 1 -1 -4.371139E-08 13 1)" id="Rectangle" fill="#000000" stroke="none" />
    <path d="M0 0L20 0L20 1L0 1L0 0Z" transform="matrix(-4.371139E-08 1 -1 -4.371139E-08 11 2)" id="Rectangle" fill="#000000" stroke="none" />
    <path d="M0 0L2 0L2 1L0 1L0 0Z" transform="translate(9 2)" id="Rectangle" fill="#000000" stroke="none" />
    <path d="M0 0L2 0L2 1L0 1L0 0Z" transform="translate(9 21)" id="Rectangle" fill="#000000" stroke="none" />
    <g filter="url(#filter_1)">
      <g id="Rectangle">
        <use stroke="none" fill="#D0021B" fill-opacity="0.149019614" xlink:href="#path_2" />
        <g clip-path="url(#clip_2)">
          <use xlink:href="#path_2" fill="none" stroke="#BA1212" stroke-width="2" />
        </g>
      </g>
    </g>
    <path d="M0 0L2 0L2 4L0 4L0 0Z" transform="translate(17 6)" id="Rectangle" fill="#BA1212" stroke="none" />
  </g>
</svg>