<svg xmlns="http://www.w3.org/2000/svg" width="83" height="86" viewBox="0 0 83 86">
  <path fill="#FFF" d="M64.0740425,45.5100138 L64.0740425,6.91301609 L7.03346698,6.91301609 L7.03346698,78.9226943 L33.2720377,78.9226943 C35.1544151,78.9226943 36.6944175,80.4780092 36.6944175,82.3791034 C36.6944175,84.2801977 35.1544151,85.8355126 33.2720377,85.8355126 L3.61089151,85.8355126 C1.72851415,85.8355126 0.188511792,84.2801977 0.188511792,82.3791034 L0.188511792,3.4564092 C0.188511792,1.55531494 1.72870991,0 3.61089151,0 L67.4962264,0 C69.3786038,0 70.9186061,1.55531494 70.9186061,3.4564092 L70.9186061,45.5100138 C70.9186061,47.411108 69.3786038,48.966423 67.4962264,48.966423 C65.6138491,48.966423 64.0740425,47.411108 64.0740425,45.5100138 Z M81.6996014,53.9208138 C80.2735283,52.6533517 78.1061321,52.7686115 76.8511486,54.2088644 L58.0847311,75.2932966 L48.6730401,66.1336046 C47.3041274,64.8086115 45.1365354,64.8661425 43.8245873,66.2488644 C42.5126392,67.6315862 42.5696038,69.8205333 43.9387123,71.1455264 L55.9171392,82.7822161 C56.544533,83.4158483 57.4001769,83.7616276 58.3127854,83.7616276 C58.36975,83.7616276 58.36975,83.7616276 58.4269104,83.7616276 C59.3395189,83.7040966 60.2521274,83.3007862 60.8225566,82.6094253 L81.9276557,58.8750069 C83.2396038,57.377223 83.1254788,55.1882759 81.6996014,53.9208138 Z M51.5249906,20.1627494 L20.7231816,20.1627494 C18.8408042,20.1627494 17.3008019,21.7180644 17.3008019,23.6191586 C17.3008019,25.5202529 18.8408042,27.0755678 20.7231816,27.0755678 L51.5249906,27.0755678 C53.4073679,27.0755678 54.9473703,25.5202529 54.9473703,23.6191586 C54.9473703,21.7180644 53.4073679,20.1627494 51.5249906,20.1627494 Z M54.947566,42.6297057 C54.947566,40.7286115 53.4075637,39.1732966 51.5251863,39.1732966 L20.7231816,39.1732966 C18.8408042,39.1732966 17.3008019,40.7286115 17.3008019,42.6297057 C17.3008019,44.5308 18.8408042,46.0861149 20.7231816,46.0861149 L51.5249906,46.0861149 C53.4073679,46.0861149 54.947566,44.5308 54.947566,42.6297057 Z M20.7231816,57.6077425 C18.8408042,57.6077425 17.3008019,59.1630575 17.3008019,61.0641517 C17.3008019,62.965246 18.8408042,64.5205609 20.7231816,64.5205609 L29.849658,64.5205609 C31.7320354,64.5205609 33.2720377,62.965246 33.2720377,61.0641517 C33.2720377,59.1630575 31.7320354,57.6077425 29.849658,57.6077425 L20.7231816,57.6077425 Z"/>
</svg>
