<?xml version="1.0" encoding="utf-8"?>
<svg width="24px" height="24px" viewBox="0 0 24 24" version="1.1" xmlns:xlink="http://www.w3.org/1999/xlink" xmlns="http://www.w3.org/2000/svg">
  <desc>Created with Lunacy</desc>
  <g id="tools">
    <path d="M15 6L17.25 6C17.6647 6 18 6.336 18 6.75L18 9.75C18 10.164 17.6647 10.5 17.25 10.5L16.5 10.5L16.5 18.75C16.5 19.164 16.1647 19.5 15.75 19.5L9.75 19.5L9.75 24L8.25 24L8.25 19.5L2.25 19.5C1.83525 19.5 1.5 19.164 1.5 18.75L1.5 10.5L0.75 10.5C0.33525 10.5 0 10.164 0 9.75L0 6.75C0 6.336 0.33525 6 0.75 6L3 6L3 0.75C3 0.336 3.33525 0 3.75 0L6 0C6.41475 0 6.75 0.336 6.75 0.75L6.75 6L11.25 6L11.25 0.75C11.25 0.336 11.5853 0 12 0L14.25 0C14.6648 0 15 0.336 15 0.75L15 6ZM5.25 6L4.5 6L4.5 1.5L5.25 1.5L5.25 6ZM12.75 6L13.5 6L13.5 1.5L12.75 1.5L12.75 6ZM1.5 9L16.5 9L16.5 7.5L1.5 7.5L1.5 9ZM3 18L15 18L15 10.5L3 10.5L3 18Z" transform="translate(3 9.375E-06)" id="Fill-1" fill="#BA1212" fill-rule="evenodd" stroke="none" />
    <path d="M0 1.5L7.5 1.5L7.5 0L0 0L0 1.5Z" transform="translate(8.25 12)" id="Fill-4" fill="#666666" stroke="none" />
    <path d="M0 1.5L7.5 1.5L7.5 0L0 0L0 1.5Z" transform="translate(8.25 15)" id="Fill-6" fill="#666666" stroke="none" />
  </g>
</svg>