<?xml version="1.0" encoding="utf-8"?>
<svg width="24px" height="24px" viewBox="0 0 24 24" version="1.1" xmlns:xlink="http://www.w3.org/1999/xlink" xmlns="http://www.w3.org/2000/svg">
  <desc>Created with Lunacy</desc>
  <g id="files">
    <path d="M14.7825 0.217512L19.2825 4.71751C19.4229 4.85907 19.5012 5.05065 19.5 5.25001L19.5 21.75C19.5 22.9927 18.4927 24 17.25 24L2.25 24C1.00734 24 0 22.9927 0 21.75L0 2.25001C0 1.00736 1.00734 1.19671e-05 2.25 1.19671e-05L14.25 1.19671e-05C14.4494 -0.00111303 14.641 0.0771213 14.7825 0.217512ZM17.25 22.5C17.6642 22.5 18 22.1642 18 21.75L18 6.00001L15 6.00001C14.1716 6.00001 13.5 5.32843 13.5 4.50001L13.5 1.50001L2.25 1.50001C1.83577 1.50001 1.5 1.83578 1.5 2.25001L1.5 21.75C1.5 22.1642 1.83577 22.5 2.25 22.5L17.25 22.5Z" transform="translate(2 -2.592149E-06)" id="Fill-1" fill="#BA1212" fill-rule="evenodd" stroke="none" />
    <path d="M0 1.5L7.5 1.5L7.5 0L0 0L0 1.5Z" transform="translate(5 10.5)" id="Fill-4" fill="#666666" stroke="none" />
    <path d="M0 1.5L13.5 1.5L13.5 0L0 0L0 1.5Z" transform="translate(5 14.25)" id="Fill-6" fill="#666666" stroke="none" />
    <path d="M0 1.5L7.5 1.5L7.5 0L0 0L0 1.5Z" transform="translate(5 18)" id="Fill-7" fill="#666666" stroke="none" />
  </g>
</svg>