<svg xmlns="http://www.w3.org/2000/svg" xmlns:xlink="http://www.w3.org/1999/xlink" width="16" height="25" viewBox="0 0 16 25">
  <defs>
    <rect id="блендеры-b" width="10" height="1" x="2" y="20"/>
    <filter id="блендеры-a" width="200%" height="1100%" x="-50%" y="-400%" filterUnits="objectBoundingBox">
      <feOffset dy="1" in="SourceAlpha" result="shadowOffsetOuter1"/>
      <feGaussianBlur in="shadowOffsetOuter1" result="shadowBlurOuter1" stdDeviation="1.5"/>
      <feColorMatrix in="shadowBlurOuter1" values="0 0 0 0 0.729411765   0 0 0 0 0.0705882353   0 0 0 0 0.0705882353  0 0 0 0.404747596 0"/>
    </filter>
  </defs>
  <g fill="none" fill-rule="evenodd" transform="translate(1)">
    <rect width="3" height="3" x="12" y="18" fill="#BA1212"/>
    <path stroke="#BA1212" d="M5,3 L12.9046359,3 C13.4507325,3 13.8958429,3.43810116 13.90451,3.98412898 L13.9838751,8.98412898 C13.9926404,9.53634417 13.5520872,9.99110873 12.999872,9.99987405 C12.9945821,9.99995801 12.9892916,10 12.984001,10 L7,10 L7,10"/>
    <path fill="#FFF" stroke="#BA1212" d="M1.73349752,1.53088089 C1.65904618,1.63374741 1.6235448,1.7648046 1.6443542,1.90006567 L3.07943421,11.2280858 C3.13572248,11.5939595 3.32127272,11.9119381 3.58529546,12.1384482 C3.8493182,12.3649583 4.19181345,12.5 4.56199176,12.5 L9.43800824,12.5 C9.80818655,12.5 10.1506818,12.3649583 10.4147045,12.1384482 C10.6787273,11.9119381 10.8642775,11.5939595 10.9205658,11.2280858 L12.3556458,1.90006567 C12.3764552,1.7648046 12.3409538,1.63374741 12.2665025,1.53088089 C12.1920511,1.42801437 12.0786499,1.35333852 11.9436594,1.33084012 L9.91780051,0.993196962 C7.9719032,0.668880745 5.98573619,0.675940846 1.73349752,1.53088089 Z"/>
    <path fill="#FFF" stroke="#212121" d="M8.98279435,13.5 L5.01720565,13.5 C4.23586502,13.5 3.50185696,13.7589802 2.90952136,14.2057797 C2.31718575,14.6525793 1.86652261,15.2871983 1.65187183,16.0384761 L0.892843666,18.6950746 C0.632219742,19.6072584 0.5,20.5513146 0.5,21.5 L1,22.5 L13.5,22 L13.5,21.5 C13.5,20.5513146 13.3677803,19.6072584 13.1071563,18.6950746 L12.3481282,16.0384761 C12.1334774,15.2871983 11.6828142,14.6525793 11.0904786,14.2057797 C10.498143,13.7589802 9.76413498,13.5 8.98279435,13.5 Z"/>
    <rect width="3" height="1" x="2" y="23" fill="#000" opacity=".152"/>
    <rect width="3" height="1" x="9" y="23" fill="#000" opacity=".152"/>
    <use fill="#000" filter="url(#блендеры-a)" xlink:href="#блендеры-b"/>
    <use fill="#BA1212" xlink:href="#блендеры-b"/>
    <rect width="1" height="8" x="5" y="3" fill="#D8D8D8"/>
    <rect width="1" height="8" x="8" y="3" fill="#D8D8D8"/>
    <rect width="1" height="2" x="3" y="3" fill="#D8D8D8"/>
    <rect width="1" height="2" x="10" y="3" fill="#D8D8D8"/>
  </g>
</svg>
