<svg xmlns="http://www.w3.org/2000/svg" xmlns:xlink="http://www.w3.org/1999/xlink" width="26" height="25" viewBox="0 0 26 25">
  <defs>
    <rect id="варочные-центры-b" width="6" height="2" x="9" y="2"/>
    <filter id="варочные-центры-a" width="266.7%" height="600%" x="-83.3%" y="-200%" filterUnits="objectBoundingBox">
      <feOffset dy="1" in="SourceAlpha" result="shadowOffsetOuter1"/>
      <feGaussianBlur in="shadowOffsetOuter1" result="shadowBlurOuter1" stdDeviation="1.5"/>
      <feColorMatrix in="shadowBlurOuter1" values="0 0 0 0 0.729411765   0 0 0 0 0.0705882353   0 0 0 0 0.0705882353  0 0 0 0.404747596 0"/>
    </filter>
    <rect id="варочные-центры-d" width="20" height="13" x="2" y="8"/>
    <filter id="варочные-центры-c" width="150%" height="176.9%" x="-25%" y="-30.8%" filterUnits="objectBoundingBox">
      <feOffset dy="1" in="SourceAlpha" result="shadowOffsetOuter1"/>
      <feGaussianBlur in="shadowOffsetOuter1" result="shadowBlurOuter1" stdDeviation="1.5"/>
      <feComposite in="shadowBlurOuter1" in2="SourceAlpha" operator="out" result="shadowBlurOuter1"/>
      <feColorMatrix in="shadowBlurOuter1" values="0 0 0 0 0.729411765   0 0 0 0 0.0705882353   0 0 0 0 0.0705882353  0 0 0 0.251311189 0"/>
    </filter>
  </defs>
  <g fill="none" fill-rule="evenodd" transform="translate(1)">
    <rect width="23" height="22" x=".5" y="1.5" stroke="#000"/>
    <use fill="#000" filter="url(#варочные-центры-a)" xlink:href="#варочные-центры-b"/>
    <use fill="#BA1212" xlink:href="#варочные-центры-b"/>
    <circle cx="4.5" cy="3.5" r="1" fill="#000"/>
    <circle cx="6.5" cy="3.5" r="1" fill="#000"/>
    <circle cx="17.5" cy="3.5" r="1" fill="#000"/>
    <circle cx="19.5" cy="3.5" r="1" fill="#000"/>
    <rect width="6" height="1" x="3" fill="#000" opacity=".152"/>
    <rect width="6" height="1" x="15" fill="#000" opacity=".152"/>
    <rect width="20" height="1" x="2" y="5" fill="#000"/>
    <use fill="#000" filter="url(#варочные-центры-c)" xlink:href="#варочные-центры-d"/>
    <rect width="19" height="12" x="2.5" y="8.5" fill="#D0021B" fill-opacity=".149" stroke="#BA1212" stroke-linejoin="square"/>
    <rect width="18" height="1" x="3" y="10" fill="#BA1212" fill-opacity=".25"/>
    <rect width="18" height="1" x="3" y="12" fill="#BA1212" fill-opacity=".25"/>
    <rect width="18" height="1" x="3" y="14" fill="#BA1212" fill-opacity=".25"/>
    <rect width="18" height="1" x="3" y="16" fill="#BA1212" fill-opacity=".25"/>
    <rect width="18" height="1" x="3" y="18" fill="#BA1212" fill-opacity=".25"/>
  </g>
</svg>
