<?xml version="1.0" encoding="utf-8"?>
<svg width="25px" height="21px" viewBox="0 0 25 21" version="1.1" xmlns:xlink="http://www.w3.org/1999/xlink" xmlns="http://www.w3.org/2000/svg">
  <desc>Created with Lunacy</desc>
  <defs>
    <filter filterUnits="userSpaceOnUse" color-interpolation-filters="sRGB" id="filter_1">
      <feFlood flood-opacity="0" result="BackgroundImageFix" />
      <feColorMatrix in="SourceAlpha" type="matrix" values="0 0 0 0 0 0 0 0 0 0 0 0 0 0 0 0 0 0 127 0" />
      <feOffset dx="0" dy="1" />
      <feGaussianBlur stdDeviation="1.5" />
      <feColorMatrix type="matrix" values="0 0 0 0 0.7294118 0 0 0 0 0.07058824 0 0 0 0 0.07058824 0 0 0 0.5019608 0" />
      <feBlend mode="normal" in2="BackgroundImageFix" result="effect0_dropShadow" />
      <feBlend mode="normal" in="SourceGraphic" in2="effect0_dropShadow" result="shape" />
    </filter>
    <path d="M0 0L24 0L22 17L2 17L0 0Z" transform="translate(0 3)" id="path_1" />
    <path d="M0 0L8 0L8 4L0 4L0 0Z" transform="translate(8 0)" id="path_2" />
    <clipPath id="clip_1">
      <use xlink:href="#path_1" />
    </clipPath>
    <clipPath id="clip_2">
      <use xlink:href="#path_2" />
    </clipPath>
  </defs>
  <g id="Вытяжка-настенная" transform="translate(0.5 0.5)">
    <g id="Rectangle">
      <g clip-path="url(#clip_1)">
        <use xlink:href="#path_1" fill="none" stroke="#000000" stroke-width="2" stroke-linejoin="round" />
      </g>
    </g>
    <g id="Rectangle">
      <g clip-path="url(#clip_2)">
        <use xlink:href="#path_2" fill="none" stroke="#000000" stroke-width="2" />
      </g>
    </g>
    <path d="M0.499 0L21.501 0Q21.5501 0 21.5983 0.00958814Q21.6465 0.0191763 21.692 0.0379841Q21.7374 0.0567919 21.7782 0.0840967Q21.8191 0.111401 21.8538 0.146154Q21.8886 0.180906 21.9159 0.22177Q21.9432 0.262635 21.962 0.308041Q21.9808 0.353447 21.9904 0.40165Q22 0.449853 22 0.499L22 0.501Q22 0.550147 21.9904 0.59835Q21.9808 0.646553 21.962 0.691959Q21.9432 0.737365 21.9159 0.778229Q21.8886 0.819094 21.8538 0.853846Q21.8191 0.888599 21.7782 0.915903Q21.7374 0.943208 21.692 0.962016Q21.6465 0.980824 21.5983 0.990412Q21.5501 1 21.501 1L0.499 1Q0.449853 1 0.40165 0.990412Q0.353447 0.980824 0.308041 0.962016Q0.262635 0.943208 0.22177 0.915903Q0.180906 0.888599 0.146154 0.853846Q0.111401 0.819094 0.0840967 0.778229Q0.0567919 0.737365 0.0379841 0.691959Q0.0191763 0.646553 0.00958814 0.59835Q0 0.550147 0 0.501L0 0.499Q0 0.449853 0.00958814 0.40165Q0.0191763 0.353447 0.0379841 0.308041Q0.0567919 0.262635 0.0840967 0.22177Q0.111401 0.180906 0.146154 0.146154Q0.180906 0.111401 0.22177 0.0840967Q0.262635 0.0567919 0.308041 0.0379841Q0.353447 0.0191763 0.40165 0.00958814Q0.449853 0 0.499 0Z" transform="translate(1 8)" id="Rectangle" fill="#060606" stroke="none" />
    <path d="M0 0L10 0L10 1L0 1L0 0Z" transform="translate(7 17)" id="Rectangle" fill="#060606" stroke="none" />
    <path d="M0.5 1C0.776142 1 1 0.776142 1 0.5C1 0.223858 0.776142 0 0.5 0C0.223858 0 0 0.223858 0 0.5C0 0.776142 0.223858 1 0.5 1Z" transform="translate(3 17)" id="Oval" fill="#060606" stroke="none" />
    <path d="M0.5 1C0.776142 1 1 0.776142 1 0.5C1 0.223858 0.776142 0 0.5 0C0.223858 0 0 0.223858 0 0.5C0 0.776142 0.223858 1 0.5 1Z" transform="translate(5 17)" id="Oval" fill="#060606" stroke="none" />
    <path d="M0.5 1C0.776142 1 1 0.776142 1 0.5C1 0.223858 0.776142 0 0.5 0C0.223858 0 0 0.223858 0 0.5C0 0.776142 0.223858 1 0.5 1Z" transform="translate(18 17)" id="Oval" fill="#060606" stroke="none" />
    <path d="M0.5 1C0.776142 1 1 0.776142 1 0.5C1 0.223858 0.776142 0 0.5 0C0.223858 0 0 0.223858 0 0.5C0 0.776142 0.223858 1 0.5 1Z" transform="translate(20 17)" id="Oval" fill="#060606" stroke="none" />
    <g filter="url(#filter_1)">
      <path d="M2 4L0.998752 3.3325Q0.957802 3.3052 0.920506 3.27309Q0.88321 3.24098 0.85013 3.20454Q0.81705 3.16809 0.788684 3.12788Q0.760319 3.08766 0.737096 3.04426Q0.713873 3.00087 0.696143 2.95496Q0.678412 2.90905 0.666441 2.86131Q0.65447 2.81357 0.648439 2.76473Q0.642408 2.71588 0.642408 2.66667Q0.642408 2.61745 0.648439 2.56861Q0.65447 2.51976 0.666441 2.47202Q0.678412 2.42428 0.696143 2.37837Q0.713873 2.33246 0.737096 2.28907Q0.760319 2.24568 0.788684 2.20546Q0.81705 2.16524 0.85013 2.1288Q0.88321 2.09236 0.920506 2.06024Q0.957802 2.02813 0.998752 2.00083L1.00125 1.99917Q1.0422 1.97187 1.07949 1.93976Q1.11679 1.90764 1.14987 1.8712Q1.18295 1.83476 1.21132 1.79454Q1.23968 1.75432 1.2629 1.71093Q1.28613 1.66754 1.30386 1.62163Q1.32159 1.57572 1.33356 1.52798Q1.34553 1.48024 1.35156 1.43139Q1.35759 1.38255 1.35759 1.33333Q1.35759 1.28412 1.35156 1.23527Q1.34553 1.18643 1.33356 1.13869Q1.32159 1.09095 1.30386 1.04504Q1.28613 0.999129 1.2629 0.955737Q1.23968 0.912344 1.21132 0.872125Q1.18295 0.831905 1.14987 0.795464Q1.11679 0.759024 1.07949 0.726911Q1.0422 0.694799 1.00125 0.667499L0 0" transform="matrix(-1 0 0 1 10 11)" id="Path-6" fill="none" stroke="#BA1212" stroke-width="1" stroke-linecap="square" />
    </g>
    <g filter="url(#filter_1)">
      <path d="M2 4L0.998752 3.3325Q0.957802 3.3052 0.920506 3.27309Q0.88321 3.24098 0.85013 3.20454Q0.81705 3.16809 0.788684 3.12788Q0.760319 3.08766 0.737096 3.04426Q0.713873 3.00087 0.696143 2.95496Q0.678412 2.90905 0.666441 2.86131Q0.65447 2.81357 0.648439 2.76473Q0.642408 2.71588 0.642408 2.66667Q0.642408 2.61745 0.648439 2.56861Q0.65447 2.51976 0.666441 2.47202Q0.678412 2.42428 0.696143 2.37837Q0.713873 2.33246 0.737096 2.28907Q0.760319 2.24568 0.788684 2.20546Q0.81705 2.16524 0.85013 2.1288Q0.88321 2.09236 0.920506 2.06024Q0.957802 2.02813 0.998752 2.00083L1.00125 1.99917Q1.0422 1.97187 1.07949 1.93976Q1.11679 1.90764 1.14987 1.8712Q1.18295 1.83476 1.21132 1.79454Q1.23968 1.75432 1.2629 1.71093Q1.28613 1.66754 1.30386 1.62163Q1.32159 1.57572 1.33356 1.52798Q1.34553 1.48024 1.35156 1.43139Q1.35759 1.38255 1.35759 1.33333Q1.35759 1.28412 1.35156 1.23527Q1.34553 1.18643 1.33356 1.13869Q1.32159 1.09095 1.30386 1.04504Q1.28613 0.999129 1.2629 0.955737Q1.23968 0.912344 1.21132 0.872125Q1.18295 0.831905 1.14987 0.795464Q1.11679 0.759024 1.07949 0.726911Q1.0422 0.694799 1.00125 0.667499L0 0" transform="matrix(-1 0 0 1 16 11)" id="Path-6" fill="none" stroke="#BA1212" stroke-width="1" stroke-linecap="square" />
    </g>
    <g filter="url(#filter_1)">
      <path d="M2 4L0.998752 3.3325Q0.957802 3.3052 0.920506 3.27309Q0.88321 3.24098 0.85013 3.20454Q0.81705 3.16809 0.788684 3.12788Q0.760319 3.08766 0.737096 3.04426Q0.713873 3.00087 0.696143 2.95496Q0.678412 2.90905 0.666441 2.86131Q0.65447 2.81357 0.648439 2.76473Q0.642408 2.71588 0.642408 2.66667Q0.642408 2.61745 0.648439 2.56861Q0.65447 2.51976 0.666441 2.47202Q0.678412 2.42428 0.696143 2.37837Q0.713873 2.33246 0.737096 2.28907Q0.760319 2.24568 0.788684 2.20546Q0.81705 2.16524 0.85013 2.1288Q0.88321 2.09236 0.920506 2.06024Q0.957802 2.02813 0.998752 2.00083L1.00125 1.99917Q1.0422 1.97187 1.07949 1.93976Q1.11679 1.90764 1.14987 1.8712Q1.18295 1.83476 1.21132 1.79454Q1.23968 1.75432 1.2629 1.71093Q1.28613 1.66754 1.30386 1.62163Q1.32159 1.57572 1.33356 1.52798Q1.34553 1.48024 1.35156 1.43139Q1.35759 1.38255 1.35759 1.33333Q1.35759 1.28412 1.35156 1.23527Q1.34553 1.18643 1.33356 1.13869Q1.32159 1.09095 1.30386 1.04504Q1.28613 0.999129 1.2629 0.955737Q1.23968 0.912344 1.21132 0.872125Q1.18295 0.831905 1.14987 0.795464Q1.11679 0.759024 1.07949 0.726911Q1.0422 0.694799 1.00125 0.667499L0 0" transform="matrix(-1 0 0 1 13 11)" id="Path-6" fill="none" stroke="#BA1212" stroke-width="1" stroke-linecap="square" />
    </g>
  </g>
</svg>