<svg xmlns="http://www.w3.org/2000/svg" xmlns:xlink="http://www.w3.org/1999/xlink" width="24" height="20" viewBox="0 0 24 20">
  <defs>
    <path id="вытяжки-b" d="M10,15 L9,14.3333333 C8.63181017,14.0878734 8.53231789,13.5904121 8.77777778,13.2222222 C8.83645601,13.1342049 8.91198265,13.0586782 9,13 C9.36818983,12.7545401 9.46768211,12.2570787 9.22222222,11.8888889 C9.16354399,11.8008715 9.08801735,11.7253449 9,11.6666667 L8,11 L8,11"/>
    <filter id="вытяжки-a" width="669.3%" height="384.7%" x="-284.7%" y="-117.3%" filterUnits="objectBoundingBox">
      <feMorphology in="SourceAlpha" operator="dilate" radius=".5" result="shadowSpreadOuter1"/>
      <feOffset dy="1" in="shadowSpreadOuter1" result="shadowOffsetOuter1"/>
      <feMorphology in="SourceAlpha" radius="1" result="shadowInner"/>
      <feOffset dy="1" in="shadowInner" result="shadowInner"/>
      <feComposite in="shadowOffsetOuter1" in2="shadowInner" operator="out" result="shadowOffsetOuter1"/>
      <feGaussianBlur in="shadowOffsetOuter1" result="shadowBlurOuter1" stdDeviation="1.5"/>
      <feColorMatrix in="shadowBlurOuter1" values="0 0 0 0 0.729411765   0 0 0 0 0.0705882353   0 0 0 0 0.0705882353  0 0 0 0.5 0"/>
    </filter>
    <path id="вытяжки-d" d="M16,15 L15,14.3333333 C14.6318102,14.0878734 14.5323179,13.5904121 14.7777778,13.2222222 C14.836456,13.1342049 14.9119827,13.0586782 15,13 C15.3681898,12.7545401 15.4676821,12.2570787 15.2222222,11.8888889 C15.163544,11.8008715 15.0880173,11.7253449 15,11.6666667 L14,11 L14,11"/>
    <filter id="вытяжки-c" width="669.3%" height="384.7%" x="-284.7%" y="-117.3%" filterUnits="objectBoundingBox">
      <feMorphology in="SourceAlpha" operator="dilate" radius=".5" result="shadowSpreadOuter1"/>
      <feOffset dy="1" in="shadowSpreadOuter1" result="shadowOffsetOuter1"/>
      <feMorphology in="SourceAlpha" radius="1" result="shadowInner"/>
      <feOffset dy="1" in="shadowInner" result="shadowInner"/>
      <feComposite in="shadowOffsetOuter1" in2="shadowInner" operator="out" result="shadowOffsetOuter1"/>
      <feGaussianBlur in="shadowOffsetOuter1" result="shadowBlurOuter1" stdDeviation="1.5"/>
      <feColorMatrix in="shadowBlurOuter1" values="0 0 0 0 0.729411765   0 0 0 0 0.0705882353   0 0 0 0 0.0705882353  0 0 0 0.5 0"/>
    </filter>
    <path id="вытяжки-f" d="M13,15 L12,14.3333333 C11.6318102,14.0878734 11.5323179,13.5904121 11.7777778,13.2222222 C11.836456,13.1342049 11.9119827,13.0586782 12,13 C12.3681898,12.7545401 12.4676821,12.2570787 12.2222222,11.8888889 C12.163544,11.8008715 12.0880173,11.7253449 12,11.6666667 L11,11 L11,11"/>
    <filter id="вытяжки-e" width="669.3%" height="384.7%" x="-284.7%" y="-117.3%" filterUnits="objectBoundingBox">
      <feMorphology in="SourceAlpha" operator="dilate" radius=".5" result="shadowSpreadOuter1"/>
      <feOffset dy="1" in="shadowSpreadOuter1" result="shadowOffsetOuter1"/>
      <feMorphology in="SourceAlpha" radius="1" result="shadowInner"/>
      <feOffset dy="1" in="shadowInner" result="shadowInner"/>
      <feComposite in="shadowOffsetOuter1" in2="shadowInner" operator="out" result="shadowOffsetOuter1"/>
      <feGaussianBlur in="shadowOffsetOuter1" result="shadowBlurOuter1" stdDeviation="1.5"/>
      <feColorMatrix in="shadowBlurOuter1" values="0 0 0 0 0.729411765   0 0 0 0 0.0705882353   0 0 0 0 0.0705882353  0 0 0 0.5 0"/>
    </filter>
  </defs>
  <g fill="none" fill-rule="evenodd">
    <path stroke="#000" d="M23.4377282,3.5 L0.562271846,3.5 L2.44462479,19.5 L21.5553752,19.5 L23.4377282,3.5 Z"/>
    <rect width="7" height="3" x="8.5" y=".5" stroke="#000"/>
    <rect width="22" height="1" x="1" y="8" fill="#060606" rx=".5"/>
    <rect width="10" height="1" x="7" y="17" fill="#060606"/>
    <circle cx="3.5" cy="17.5" r="1" fill="#060606"/>
    <circle cx="5.5" cy="17.5" r="1" fill="#060606"/>
    <circle cx="18.5" cy="17.5" r="1" fill="#060606"/>
    <circle cx="20.5" cy="17.5" r="1" fill="#060606"/>
    <g stroke-linecap="square" transform="matrix(-1 0 0 1 18 0)">
      <use fill="#000" filter="url(#вытяжки-a)" xlink:href="#вытяжки-b"/>
      <use stroke="#BA1212" xlink:href="#вытяжки-b"/>
    </g>
    <g stroke-linecap="square" transform="matrix(-1 0 0 1 30 0)">
      <use fill="#000" filter="url(#вытяжки-c)" xlink:href="#вытяжки-d"/>
      <use stroke="#BA1212" xlink:href="#вытяжки-d"/>
    </g>
    <g stroke-linecap="square" transform="matrix(-1 0 0 1 24 0)">
      <use fill="#000" filter="url(#вытяжки-e)" xlink:href="#вытяжки-f"/>
      <use stroke="#BA1212" xlink:href="#вытяжки-f"/>
    </g>
  </g>
</svg>
