<?xml version="1.0" encoding="utf-8"?>
<svg width="25px" height="25px" viewBox="0 0 25 25" version="1.1" xmlns:xlink="http://www.w3.org/1999/xlink" xmlns="http://www.w3.org/2000/svg">
  <desc>Created with Lunacy</desc>
  <defs>
    <filter filterUnits="userSpaceOnUse" color-interpolation-filters="sRGB" id="filter_1">
      <feFlood flood-opacity="0" result="BackgroundImageFix" />
      <feColorMatrix in="SourceAlpha" type="matrix" values="0 0 0 0 0 0 0 0 0 0 0 0 0 0 0 0 0 0 127 0" />
      <feOffset dx="0" dy="1" />
      <feGaussianBlur stdDeviation="1.5" />
      <feColorMatrix type="matrix" values="0 0 0 0 0.7294118 0 0 0 0 0.07058824 0 0 0 0 0.07058824 0 0 0 0.2509804 0" />
      <feBlend mode="normal" in2="BackgroundImageFix" result="effect0_dropShadow" />
      <feBlend mode="normal" in="SourceGraphic" in2="effect0_dropShadow" result="shape" />
    </filter>
    <path d="M2 0L22 0L24 24L0 24L2 0Z" id="path_1" />
    <path d="M1 0L15 0L16 15L0 15L1 0Z" transform="translate(4 3)" id="path_2" />
    <clipPath id="clip_1">
      <use xlink:href="#path_1" />
    </clipPath>
    <clipPath id="clip_2">
      <use xlink:href="#path_2" />
    </clipPath>
  </defs>
  <g id="гриль" transform="translate(0.5 0.5)">
    <g id="Rectangle">
      <g clip-path="url(#clip_1)">
        <use xlink:href="#path_1" fill="none" stroke="#000000" stroke-width="2" />
      </g>
    </g>
    <g filter="url(#filter_1)">
      <g id="Rectangle">
        <use stroke="none" fill="#D0021B" fill-opacity="0.149019614" xlink:href="#path_2" />
        <g clip-path="url(#clip_2)">
          <use xlink:href="#path_2" fill="none" stroke="#BA1212" stroke-width="2" />
        </g>
      </g>
    </g>
    <path d="M2 3C3.10457 3 4 2.32843 4 1.5C4 0.671573 3.10457 0 2 0C0.895431 0 0 0.671573 0 1.5C0 2.32843 0.895431 3 2 3Z" transform="translate(13 19)" id="Oval" fill="#000000" stroke="none" />
    <path d="M2 3C3.10457 3 4 2.32843 4 1.5C4 0.671573 3.10457 0 2 0C0.895431 0 0 0.671573 0 1.5C0 2.32843 0.895431 3 2 3Z" transform="translate(7 19)" id="Oval" fill="#000000" stroke="none" />
    <path d="M0 0L14 0L14 1L0 1L0 0Z" transform="translate(5 5)" id="Rectangle" fill="#BA1212" stroke="none" />
    <path d="M0 0L14 0L14 1L0 1L0 0Z" transform="translate(5 7)" id="Rectangle" fill="#BA1212" stroke="none" />
    <path d="M0 0L14 0L14 1L0 1L0 0Z" transform="translate(5 9)" id="Rectangle" fill="#BA1212" stroke="none" />
    <path d="M0 0L14 0L14 1L0 1L0 0Z" transform="translate(5 11)" id="Rectangle" fill="#BA1212" stroke="none" />
    <path d="M0 0L14 0L14 1L0 1L0 0Z" transform="translate(5 13)" id="Rectangle" fill="#BA1212" stroke="none" />
    <path d="M0 0L14 0L14 1L0 1L0 0Z" transform="translate(5 15)" id="Rectangle" fill="#BA1212" stroke="none" />
  </g>
</svg>