<svg xmlns="http://www.w3.org/2000/svg" xmlns:xlink="http://www.w3.org/1999/xlink" width="24" height="21" viewBox="0 0 24 21">
  <defs>
    <rect id="духовые-шкафы-b" width="18" height="7" x="3" y="10"/>
    <filter id="духовые-шкафы-a" width="155.6%" height="242.9%" x="-27.8%" y="-57.1%" filterUnits="objectBoundingBox">
      <feOffset dy="1" in="SourceAlpha" result="shadowOffsetOuter1"/>
      <feGaussianBlur in="shadowOffsetOuter1" result="shadowBlurOuter1" stdDeviation="1.5"/>
      <feComposite in="shadowBlurOuter1" in2="SourceAlpha" operator="out" result="shadowBlurOuter1"/>
      <feColorMatrix in="shadowBlurOuter1" values="0 0 0 0 0.729411765   0 0 0 0 0.0705882353   0 0 0 0 0.0705882353  0 0 0 0.251311189 0"/>
    </filter>
    <rect id="духовые-шкафы-d" width="12" height="2" x="6" y="2"/>
    <filter id="духовые-шкафы-c" width="183.3%" height="600%" x="-41.7%" y="-200%" filterUnits="objectBoundingBox">
      <feOffset dy="1" in="SourceAlpha" result="shadowOffsetOuter1"/>
      <feGaussianBlur in="shadowOffsetOuter1" result="shadowBlurOuter1" stdDeviation="1.5"/>
      <feColorMatrix in="shadowBlurOuter1" values="0 0 0 0 0.729411765   0 0 0 0 0.0705882353   0 0 0 0 0.0705882353  0 0 0 0.404747596 0"/>
    </filter>
  </defs>
  <g fill="none" fill-rule="evenodd">
    <rect width="23" height="19" x=".5" y=".5" stroke="#000"/>
    <path fill="#000" d="M3,9 L3,7 L0,7 L0,6 L24,6 L24,7 L21,7 L21,9 L3,9 Z M20,7 L4,7 L4,8 L20,8 L20,7 Z"/>
    <use fill="#000" filter="url(#духовые-шкафы-a)" xlink:href="#духовые-шкафы-b"/>
    <rect width="17" height="6" x="3.5" y="10.5" fill="#D0021B" fill-opacity=".149" stroke="#BA1212" stroke-linejoin="square"/>
    <use fill="#000" filter="url(#духовые-шкафы-c)" xlink:href="#духовые-шкафы-d"/>
    <use fill="#BA1212" xlink:href="#духовые-шкафы-d"/>
    <circle cx="20" cy="3" r="1" fill="#000"/>
    <circle cx="4" cy="3" r="1" fill="#000"/>
  </g>
</svg>
