<svg xmlns="http://www.w3.org/2000/svg" width="24" height="24" viewBox="0 0 24 24">
  <g fill="none" fill-rule="evenodd">
    <rect width="5" height="11" y="7" fill="#D8D8D8" rx="1"/>
    <path fill="#FFF" stroke="#BA1212" d="M19,0.5 L3,0.5 C2.30964406,0.5 1.68464406,0.779822031 1.23223305,1.23223305 C0.779822031,1.68464406 0.5,2.30964406 0.5,3 L0.5,4 C0.5,4.41421356 0.667893219,4.78921356 0.939339828,5.06066017 C1.21078644,5.33210678 1.58578644,5.5 2,5.5 L19,5.5 C19.6903559,5.5 20.3153559,5.22017797 20.767767,4.76776695 C21.220178,4.31535594 21.5,3.69035594 21.5,3 C21.5,2.30964406 21.220178,1.68464406 20.767767,1.23223305 C20.3153559,0.779822031 19.6903559,0.5 19,0.5 Z"/>
    <rect width="6" height="1" x="13" y="2" fill="#D8D8D8"/>
    <rect width="4" height="1" x="7" y="2" fill="#D8D8D8"/>
    <path fill="#FFF" stroke="#BA1212" d="M20,19.5 L0.5,20 L0.5,21 C0.5,21.4142136 0.667893219,21.7892136 0.939339828,22.0606602 C1.21078644,22.3321068 1.58578644,22.5 2,22.5 L20,22.5 C20.4142136,22.5 20.7892136,22.3321068 21.0606602,22.0606602 C21.3321068,21.7892136 21.5,21.4142136 21.5,21 C21.5,20.5857864 21.3321068,20.2107864 21.0606602,19.9393398 C20.7892136,19.6678932 20.4142136,19.5 20,19.5 Z"/>
    <rect width="6" height="14" x="6.5" y="5.5" fill="#BA1212" stroke="#BA1212"/>
    <rect width="5" height="1" x="3" y="23" fill="#D8D8D8"/>
    <rect width="5" height="1" x="14" y="23" fill="#D8D8D8"/>
    <rect width="7" height="1" x="13" y="18" fill="#D8D8D8"/>
    <path fill="#212121" d="M14,7 L14,6 L19,6 L19,7 L18,7 L18,10 L15,10 L15,7 L14,7 Z"/>
    <path fill="#FFF" stroke="#212121" d="M19.3331112,6.01084988 C18.9894258,6.05556098 18.6940917,6.23232635 18.4926124,6.48417551 C18.286362,6.74198848 18.178464,7.07848331 18.2178049,7.43255171 L19.0615821,13.872564 C19.1717297,13.9711509 19.328473,14 20.1018991,13.5552158 L20.7898445,7.26502948 C20.7831422,6.91724351 20.6369918,6.60322087 20.3861122,6.37867289 C20.1267898,6.14656826 19.7616639,6.01227998 19.3331112,6.01084988 Z" transform="matrix(0 1 1 0 9.5 -9.5)"/>
  </g>
</svg>
