<svg xmlns="http://www.w3.org/2000/svg" xmlns:xlink="http://www.w3.org/1999/xlink" width="28" height="27" viewBox="0 0 28 27">
  <defs>
    <rect id="миксер-b" width="3" height="3" x="21" y="0" rx="1.5"/>
    <filter id="миксер-a" width="433.3%" height="433.3%" x="-166.7%" y="-133.3%" filterUnits="objectBoundingBox">
      <feOffset dy="1" in="SourceAlpha" result="shadowOffsetOuter1"/>
      <feGaussianBlur in="shadowOffsetOuter1" result="shadowBlurOuter1" stdDeviation="1.5"/>
      <feColorMatrix in="shadowBlurOuter1" values="0 0 0 0 0.729411765   0 0 0 0 0.0705882353   0 0 0 0 0.0705882353  0 0 0 0.404747596 0"/>
    </filter>
  </defs>
  <g fill="none" fill-rule="evenodd" transform="translate(1 2)">
    <rect width="3" height="3" x="5.633" y="11" fill="#BA1212"/>
    <path fill="#BA1212" stroke="#BA1212" d="M15.6336572,8 C16.0438578,10.4612037 16.6339349,12.128601 16.6336572,14 C16.6326183,21 15.6326183,22 11.6336572,22 C9.40340492,22 7.02751733,22 1.63365717,22 C1.11730183,22 0.606473812,22.2429519 0.633657173,23 C0.65911849,23.7090898 1.19141811,23.9329976 1.63365717,24 C16.6336572,24 19.6336572,24 22.6336572,24 C23.127598,23.495121 22.8118314,22.1721267 22.787954,21.4790039 C22.6336572,17 19.6336572,13 19.6336572,10 C19.6336572,7.88049046 21.9539278,5.66397619 20.6336572,4 C19.6580161,2.77037067 19.1513167,5.59928385 17.6336572,6 L15.6336572,8 Z"/>
    <path fill="#FFF" stroke="#BA1212" d="M3.63903388,9 C-1.36738167,9 -1.36738167,2 4.63261833,2 C13.6326183,2 22.6326183,2 22.6326183,6 C22.6326183,8 22.2583018,8.3946974 18.6644245,9.20410156 C16.297639,9.73714314 12.6326183,10 10.6326183,10 C10.6326183,10 10.6326183,11 10.6326183,11 C7.63261833,11 5.63261833,11 3.63261833,11 L3.63903388,9 Z"/>
    <use fill="#000" filter="url(#миксер-a)" xlink:href="#миксер-b"/>
    <use fill="#BA1212" xlink:href="#миксер-b"/>
    <rect width="6" height="1" x="14.633" y="5" fill="#D8D8D8"/>
    <rect width="4" height="1" x="14.633" y="7" fill="#D8D8D8"/>
    <path fill="#FFF" stroke="#212121" d="M0.996824366,14.2747211 L1.63261833,16.5 C2.22453073,18.5716934 4.11807962,20 6.27267327,20 L7.99256339,20 C10.147157,20 12.0407059,18.5716934 12.6326183,16.5 L13.2684123,14.2747211 C13.4201366,13.7436861 13.1126445,13.1902003 12.5816095,13.0384761 C12.492268,13.0129499 12.3998049,13 12.3068883,13 L1.95834831,13 C1.40606356,13 0.958348314,13.4477153 0.958348314,14 C0.958348314,14.0929165 0.971298233,14.1853797 0.996824366,14.2747211 Z"/>
  </g>
</svg>
