<svg xmlns="http://www.w3.org/2000/svg" xmlns:xlink="http://www.w3.org/1999/xlink" width="24" height="25" viewBox="0 0 24 25">
  <defs>
    <rect id="пароварка-b" width="18" height="11" x="3" y="10"/>
    <filter id="пароварка-a" width="155.6%" height="190.9%" x="-27.8%" y="-36.4%" filterUnits="objectBoundingBox">
      <feOffset dy="1" in="SourceAlpha" result="shadowOffsetOuter1"/>
      <feGaussianBlur in="shadowOffsetOuter1" result="shadowBlurOuter1" stdDeviation="1.5"/>
      <feComposite in="shadowBlurOuter1" in2="SourceAlpha" operator="out" result="shadowBlurOuter1"/>
      <feColorMatrix in="shadowBlurOuter1" values="0 0 0 0 0.733333333   0 0 0 0 0   0 0 0 0 0  0 0 0 0.251311189 0"/>
    </filter>
    <rect id="пароварка-d" width="6" height="5" x="9" y="2"/>
    <filter id="пароварка-c" width="266.7%" height="300%" x="-83.3%" y="-80%" filterUnits="objectBoundingBox">
      <feOffset dy="1" in="SourceAlpha" result="shadowOffsetOuter1"/>
      <feGaussianBlur in="shadowOffsetOuter1" result="shadowBlurOuter1" stdDeviation="1.5"/>
      <feColorMatrix in="shadowBlurOuter1" values="0 0 0 0 0.733333333   0 0 0 0 0   0 0 0 0 0  0 0 0 0.404747596 0"/>
    </filter>
  </defs>
  <g fill="none" fill-rule="evenodd">
    <rect width="23" height="23" x=".5" y=".5" stroke="#000"/>
    <rect width="24" height="1" y="8" fill="#000"/>
    <use fill="#000" filter="url(#пароварка-a)" xlink:href="#пароварка-b"/>
    <rect width="17" height="10" x="3.5" y="10.5" fill="#D0021B" fill-opacity=".149" stroke="#B00" stroke-linejoin="square"/>
    <use fill="#000" filter="url(#пароварка-c)" xlink:href="#пароварка-d"/>
    <use fill="#B00" xlink:href="#пароварка-d"/>
    <circle cx="6" cy="3" r="1" fill="#000"/>
    <circle cx="3" cy="3" r="1" fill="#000"/>
    <circle cx="6" cy="6" r="1" fill="#000"/>
    <circle cx="3" cy="6" r="1" fill="#000"/>
    <rect width="1" height="3" x="17" y="2" fill="#000"/>
    <rect width="7" height="1" x="17" y="5" fill="#000"/>
    <rect width="18" height="1" x="3" y="12" fill="#B00" fill-opacity=".25"/>
    <rect width="18" height="1" x="3" y="14" fill="#B00" fill-opacity=".25"/>
    <rect width="18" height="1" x="3" y="16" fill="#B00" fill-opacity=".25"/>
    <rect width="18" height="1" x="3" y="18" fill="#B00" fill-opacity=".25"/>
  </g>
</svg>
