<svg xmlns="http://www.w3.org/2000/svg" xmlns:xlink="http://www.w3.org/1999/xlink" width="20" height="24" viewBox="0 0 20 24">
  <defs>
    <circle id="посудомоечные-машины-b" cx="12" cy="16" r="4"/>
    <filter id="посудомоечные-машины-a" width="225%" height="225%" x="-62.5%" y="-50%" filterUnits="objectBoundingBox">
      <feOffset dy="1" in="SourceAlpha" result="shadowOffsetOuter1"/>
      <feGaussianBlur in="shadowOffsetOuter1" result="shadowBlurOuter1" stdDeviation="1.5"/>
      <feComposite in="shadowBlurOuter1" in2="SourceAlpha" operator="out" result="shadowBlurOuter1"/>
      <feColorMatrix in="shadowBlurOuter1" values="0 0 0 0 0.729411765   0 0 0 0 0.0705882353   0 0 0 0 0.0705882353  0 0 0 0.25 0"/>
    </filter>
    <rect id="посудомоечные-машины-d" width="6" height="1" x="7" y="4"/>
    <filter id="посудомоечные-машины-c" width="266.7%" height="1100%" x="-83.3%" y="-400%" filterUnits="objectBoundingBox">
      <feOffset dy="1" in="SourceAlpha" result="shadowOffsetOuter1"/>
      <feGaussianBlur in="shadowOffsetOuter1" result="shadowBlurOuter1" stdDeviation="1.5"/>
      <feColorMatrix in="shadowBlurOuter1" values="0 0 0 0 0.729411765   0 0 0 0 0.0705882353   0 0 0 0 0.0705882353  0 0 0 0.404747596 0"/>
    </filter>
  </defs>
  <g fill="none" fill-rule="evenodd">
    <rect width="19" height="23" x=".5" y=".5" stroke="#000"/>
    <rect width="20" height="1" y="3" fill="#000"/>
    <circle cx="6.5" cy="17.5" r="2" fill="#E794A2" stroke="#BA1212"/>
    <circle cx="9" cy="17" r="2.5" fill="#E794A2" stroke="#BA1212"/>
    <use fill="#000" filter="url(#посудомоечные-машины-a)" xlink:href="#посудомоечные-машины-b"/>
    <circle cx="12" cy="16" r="3.5" fill="#E794A2" stroke="#BA1212" stroke-linejoin="square"/>
    <circle cx="12" cy="16" r="2" fill="#BA1212"/>
    <use fill="#000" filter="url(#посудомоечные-машины-c)" xlink:href="#посудомоечные-машины-d"/>
    <use fill="#BA1212" xlink:href="#посудомоечные-машины-d"/>
    <path stroke="#BA1212" d="M2.5,15 L2.5,19.5 C2.5,20.6045695 3.3954305,21.5 4.5,21.5 L15.5,21.5 C16.6045695,21.5 17.5,20.6045695 17.5,19.5 L17.5,15 L17.5,15"/>
    <line x1="6" x2="5" y1="7" y2="9" fill="#D8D8D8" stroke="#000" stroke-linecap="square" stroke-linejoin="round"/>
    <line x1="4" x2="3" y1="11" y2="13" fill="#D8D8D8" stroke="#000" stroke-linecap="square" stroke-linejoin="round"/>
    <line x1="15" x2="14" y1="7" y2="9" fill="#D8D8D8" stroke="#000" stroke-linecap="square" stroke-linejoin="round" transform="matrix(-1 0 0 1 29 0)"/>
    <line x1="17" x2="16" y1="11" y2="13" fill="#D8D8D8" stroke="#000" stroke-linecap="square" stroke-linejoin="round" transform="matrix(-1 0 0 1 33 0)"/>
    <line x1="10" x2="10" y1="7" y2="8" fill="#D8D8D8" stroke="#000" stroke-linecap="square" stroke-linejoin="round"/>
    <line x1="10" x2="10" y1="10" y2="11" fill="#D8D8D8" stroke="#000" stroke-linecap="square" stroke-linejoin="round"/>
  </g>
</svg>
