<?xml version="1.0" encoding="utf-8"?>
<svg width="24px" height="19px" viewBox="0 0 24 19" version="1.1" xmlns:xlink="http://www.w3.org/1999/xlink" xmlns="http://www.w3.org/2000/svg">
  <desc>Created with Lunacy</desc>
  <defs>
    <filter filterUnits="userSpaceOnUse" color-interpolation-filters="sRGB" id="filter_1">
      <feFlood flood-opacity="0" result="BackgroundImageFix" />
      <feColorMatrix in="SourceAlpha" type="matrix" values="0 0 0 0 0 0 0 0 0 0 0 0 0 0 0 0 0 0 127 0" />
      <feOffset dx="0" dy="1" />
      <feGaussianBlur stdDeviation="1.5" />
      <feColorMatrix type="matrix" values="0 0 0 0 0.7294118 0 0 0 0 0.07058824 0 0 0 0 0.07058824 0 0 0 0.2509804 0" />
      <feBlend mode="normal" in2="BackgroundImageFix" result="effect0_dropShadow" />
      <feBlend mode="normal" in="SourceGraphic" in2="effect0_dropShadow" result="shape" />
    </filter>
    <path d="M0 0L24 0L22 8L2 8L0 0Z" transform="translate(0 11)" id="path_1" />
    <path d="M0 0L20 0L20 12L0 12L0 0Z" transform="translate(2 0)" id="path_2" />
    <path d="M3 6C4.65685 6 6 4.65685 6 3C6 1.34315 4.65685 0 3 0C1.34315 0 0 1.34315 0 3C0 4.65685 1.34315 6 3 6Z" transform="translate(11 3)" id="path_3" />
    <path d="M4 8C6.20914 8 8 6.20914 8 4C8 1.79086 6.20914 0 4 0C1.79086 0 0 1.79086 0 4C0 6.20914 1.79086 8 4 8Z" transform="translate(7 2)" id="path_4" />
    <clipPath id="clip_1">
      <use xlink:href="#path_1" />
    </clipPath>
    <clipPath id="clip_2">
      <use xlink:href="#path_2" />
    </clipPath>
    <clipPath id="clip_3">
      <use xlink:href="#path_3" />
    </clipPath>
    <clipPath id="clip_4">
      <use xlink:href="#path_4" />
    </clipPath>
  </defs>
  <g id="подогреватели-посуды">
    <g id="Rectangle">
      <g clip-path="url(#clip_1)">
        <use xlink:href="#path_1" fill="none" stroke="#000000" stroke-width="2" />
      </g>
    </g>
    <g id="Rectangle">
      <g clip-path="url(#clip_2)">
        <use xlink:href="#path_2" fill="none" stroke="#000000" stroke-width="2" />
      </g>
    </g>
    <path d="M0 0L1 0L1 1L11 1L11 0L12 0L12 2L0 2L0 0Z" transform="translate(6 14)" id="Combined-Shape" fill="#1A1A1A" fill-rule="evenodd" stroke="none" />
    <g id="Oval">
      <use stroke="none" fill="#E794A2" xlink:href="#path_3" />
      <g clip-path="url(#clip_3)">
        <use xlink:href="#path_3" fill="none" stroke="#BA1212" stroke-width="2" />
      </g>
    </g>
    <g filter="url(#filter_1)">
      <g id="Oval">
        <use stroke="none" fill="#E794A2" xlink:href="#path_4" />
        <g clip-path="url(#clip_4)">
          <use xlink:href="#path_4" fill="none" stroke="#BA1212" stroke-width="2" />
        </g>
      </g>
    </g>
    <path d="M2 4C3.10457 4 4 3.10457 4 2C4 0.895431 3.10457 0 2 0C0.895431 0 0 0.895431 0 2C0 3.10457 0.895431 4 2 4Z" transform="translate(9 4)" id="Oval" fill="#BA1212" stroke="none" />
    <path d="M0 0L1 0L1 8L0 8L0 0Z" transform="translate(5 3)" id="Rectangle" fill="#000000" fill-opacity="0.152204245" stroke="none" />
    <path d="M0 0L1 0L1 8L0 8L0 0Z" transform="translate(18 3)" id="Rectangle" fill="#000000" fill-opacity="0.152204245" stroke="none" />
  </g>
</svg>