<svg xmlns="http://www.w3.org/2000/svg" xmlns:xlink="http://www.w3.org/1999/xlink" width="24" height="24" viewBox="0 0 24 24">
  <defs>
    <rect id="проф-стаканомоечные-машины-b" width="20" height="3" x="2" y="2"/>
    <filter id="проф-стаканомоечные-машины-a" width="135%" height="333.3%" x="-17.5%" y="-83.3%" filterUnits="objectBoundingBox">
      <feOffset dy="1" in="SourceAlpha" result="shadowOffsetOuter1"/>
      <feGaussianBlur in="shadowOffsetOuter1" result="shadowBlurOuter1" stdDeviation="1"/>
      <feColorMatrix in="shadowBlurOuter1" values="0 0 0 0 0.729411765   0 0 0 0 0.0705882353   0 0 0 0 0.0705882353  0 0 0 0.301901224 0"/>
    </filter>
  </defs>
  <g fill="none" fill-rule="evenodd">
    <rect width="23" height="23" x=".5" y=".5" stroke="#000"/>
    <use fill="#000" filter="url(#проф-стаканомоечные-машины-a)" xlink:href="#проф-стаканомоечные-машины-b"/>
    <use fill="#BA1212" xlink:href="#проф-стаканомоечные-машины-b"/>
    <rect width="22" height="1" x="1" y="16" fill="#BA1212"/>
    <rect width="1" height="4" x="4" y="18" fill="#000" opacity=".152" transform="matrix(1 0 0 -1 0 40)"/>
    <rect width="1" height="4" x="19" y="18" fill="#000" opacity=".152" transform="matrix(1 0 0 -1 0 40)"/>
    <rect width="10" height="1" x="7" y="3" fill="#FFF"/>
    <path fill="#212121" d="M18,10 L6,10 L6,8 L7,8 L7,9 L17,9 L17,8 L18,8 L18,10 Z" transform="matrix(1 0 0 -1 0 18)"/>
    <rect width="1" height="8" x="4" y="7" fill="#000" opacity=".152"/>
    <rect width="1" height="8" x="19" y="7" fill="#000" opacity=".152"/>
  </g>
</svg>
