<svg xmlns="http://www.w3.org/2000/svg" width="24" height="25" viewBox="0 0 24 25">
  <g fill="none" fill-rule="evenodd" transform="translate(0 1)">
    <path stroke="#BA1212" stroke-width="2" d="M8,13 L8,5.5 C8,2.46243388 10.4624339,5.57991845e-16 13.5,0 C16.5375661,-5.57991845e-16 19,2.46243388 19,5.5 L19,7 L19,7"/>
    <path fill="#FFF" stroke="#212121" d="M9,11.5 L7,11.5 C6.30964406,11.5 5.68464406,11.779822 5.23223305,12.232233 C4.77982203,12.6846441 4.5,13.3096441 4.5,14 L4.5,22.5 L11.5,22.5 L11.5,14 C11.5,13.3096441 11.220178,12.6846441 10.767767,12.232233 C10.3153559,11.779822 9.69035594,11.5 9,11.5 Z"/>
    <path fill="#FFF" stroke="#212121" d="M10.7339902,12.5162616 C10.1447752,12.5883957 9.63822649,12.8894331 9.2937014,13.3200895 C8.94435749,13.7567694 8.76160134,14.3267195 8.82823645,14.9264354 L9.89504279,20.5 L12.6018991,20.0552158 L13.1849809,14.6595557 C13.1780558,14.059783 12.9276126,13.5181299 12.4958986,13.1317273 C12.0627783,12.7440661 11.4531262,12.5151246 10.7339902,12.5162616 Z" transform="matrix(0 1 1 0 -5.5 5.5)"/>
    <rect width="24" height="2" y="22" fill="#D8D8D8"/>
  </g>
</svg>
