<svg xmlns="http://www.w3.org/2000/svg" width="24" height="24" viewBox="0 0 24 24">
  <g fill="none" fill-rule="evenodd">
    <polygon fill="#D8D8D8" points="13 22 21 22 20 24 14 24"/>
    <path fill="#BA1212" stroke="#BA1212" d="M23.4475062,8.5 L10.5524938,8.5 L11.2422214,15.3972766 C11.4102099,17.0771613 11.6849808,18.7446397 12.104406,20.5621488 C12.23529,21.1293126 12.5532495,21.6137754 12.9840055,21.9564473 C13.4147615,22.2991191 13.958314,22.5 14.540384,22.5 L19.459616,22.5 C20.0459757,22.5 20.593181,22.2954234 21.0287336,21.9279876 C21.4645968,21.5602898 21.7872428,21.0316706 21.9358813,20.3875702 C22.3153419,18.743241 22.5898615,17.0764469 22.7577786,15.3972766 L23.4475062,8.5 Z"/>
    <path fill="#BA1212" stroke="#BA1212" stroke-linejoin="round" d="M11,10 L8,12 C10.6666667,12 12,13 12,15 C14,15 13.6666667,13.3333333 11,10 Z"/>
    <path fill="#D8D8D8" d="M14,13 L14,15 L12,15 L12,13 L14,13 Z M17,13 L17,15 L16,15 L16,14 L15,14 L15,13 L17,13 Z M19,13 L19,15 L18,15 L18,13 L19,13 Z M22,13 L22,14 L21,14 L21,15 L20,15 L20,13 L22,13 Z"/>
    <path fill="#FFF" stroke="#212121" d="M23.3230204,0.5 L10.6769796,0.5 L11.2065504,2.22110496 C11.5978354,3.49278121 12.3809414,4.56250497 13.3988543,5.31430967 C14.4167672,6.06611437 15.6694871,6.5 17,6.5 C18.3305129,6.5 19.5832328,6.06611437 20.6011457,5.31430967 C21.6190586,4.56250497 22.4021646,3.49278121 22.7934496,2.22110496 L23.3230204,0.5 Z" transform="matrix(1 0 0 -1 0 7)"/>
    <path fill="#FFF" stroke="#B2B6B8" d="M19.3714745,2.5 L14.6285255,2.5 L14.9432566,3.86383469 C15.0537645,4.34270212 15.3222239,4.75174344 15.6859195,5.04106791 C16.0496151,5.33039239 16.508547,5.5 17,5.5 C17.491453,5.5 17.9503849,5.33039239 18.3140805,5.04106791 C18.6777761,4.75174344 18.9462355,4.34270212 19.0567434,3.86383469 L19.3714745,2.5 Z" transform="matrix(1 0 0 -1 0 8)"/>
    <path fill="#FFF" stroke="#212121" d="M7.9310646,14.5008876 L0.591682487,15.0624042 L1.18941123,22.1264711 C1.22226841,22.5147833 1.40108321,22.8581655 1.66910867,23.1044697 C1.93713412,23.3507739 2.29437024,23.5 2.68407007,23.5 L6.31592993,23.5 C6.70562976,23.5 7.06286588,23.3507739 7.33089133,23.1044697 C7.59891679,22.8581655 7.77773159,22.5147833 7.81058877,22.1264711 L7.9310646,14.5008876 Z"/>
    <polygon fill="#D8D8D8" points="2 16 3 16 4 22 3 22"/>
    <polygon fill="#D8D8D8" points="6 16 7 16 6 22 5 22"/>
  </g>
</svg>
