<svg xmlns="http://www.w3.org/2000/svg" xmlns:xlink="http://www.w3.org/1999/xlink" width="21" height="25" viewBox="0 0 21 25">
  <defs>
    <circle id="стиральные-машины-b" cx="10" cy="14" r="7"/>
    <filter id="стиральные-машины-a" width="171.4%" height="171.4%" x="-35.7%" y="-28.6%" filterUnits="objectBoundingBox">
      <feOffset dy="1" in="SourceAlpha" result="shadowOffsetOuter1"/>
      <feGaussianBlur in="shadowOffsetOuter1" result="shadowBlurOuter1" stdDeviation="1.5"/>
      <feComposite in="shadowBlurOuter1" in2="SourceAlpha" operator="out" result="shadowBlurOuter1"/>
      <feColorMatrix in="shadowBlurOuter1" values="0 0 0 0 0.729411765   0 0 0 0 0.0705882353   0 0 0 0 0.0705882353  0 0 0 0.25 0"/>
    </filter>
    <rect id="стиральные-машины-d" width="5" height="3" x="13" y="2"/>
    <filter id="стиральные-машины-c" width="300%" height="433.3%" x="-100%" y="-133.3%" filterUnits="objectBoundingBox">
      <feOffset dy="1" in="SourceAlpha" result="shadowOffsetOuter1"/>
      <feGaussianBlur in="shadowOffsetOuter1" result="shadowBlurOuter1" stdDeviation="1.5"/>
      <feColorMatrix in="shadowBlurOuter1" values="0 0 0 0 0.729411765   0 0 0 0 0.0705882353   0 0 0 0 0.0705882353  0 0 0 0.404747596 0"/>
    </filter>
  </defs>
  <g fill="none" fill-rule="evenodd">
    <rect width="19" height="23" x=".5" y=".5" stroke="#000"/>
    <use fill="#000" filter="url(#стиральные-машины-a)" xlink:href="#стиральные-машины-b"/>
    <circle cx="10" cy="14" r="6.5" fill="#BA1212" fill-opacity=".15" stroke="#BA1212" stroke-linejoin="square"/>
    <use fill="#000" filter="url(#стиральные-машины-c)" xlink:href="#стиральные-машины-d"/>
    <use fill="#BA1212" xlink:href="#стиральные-машины-d"/>
    <rect width="9" height="1" x="2" y="4" fill="#000" opacity=".152"/>
    <rect width="3" height="2" x="15" y="20" fill="#000" opacity=".152"/>
    <circle cx="2.5" cy="2.5" r="1" fill="#000"/>
    <circle cx="4.5" cy="2.5" r="1" fill="#000"/>
    <circle cx="6.5" cy="2.5" r="1" fill="#000"/>
    <circle cx="8.5" cy="2.5" r="1" fill="#000"/>
    <circle cx="10.5" cy="2.5" r="1" fill="#000"/>
    <path stroke="#BA1212" stroke-linecap="round" stroke-linejoin="round" d="M4,15 C5.87152563,13.7523162 8.24659725,13.534256 10.3140245,14.4202962 L10.6859755,14.5797038 C12.6065328,15.4027998 14.8409517,14.7385725 16,13 L16,13 L16,13"/>
  </g>
</svg>
