<svg xmlns="http://www.w3.org/2000/svg" width="22" height="24" viewBox="0 0 22 24">
  <g fill="none" fill-rule="evenodd" transform="translate(1)">
    <path stroke="#BA1212" stroke-width="2" d="M10,5 L16.2037605,5 C17.7324082,5 19.0166008,6.14940738 19.1854117,7.66870542 L20,15 L20,15"/>
    <path fill="#BA1212" stroke="#BA1212" stroke-linejoin="round" d="M3,5 L1.45528034e-12,5 C1.33333333,7 2,9 2,11 C4,11 4.33333333,9 3,5 Z"/>
    <path fill="#FFF" stroke="#BA1212" d="M9,0.5 C7.63162706,0.5 6.45266004,0.954921736 5.46414005,1.86740172 C4.43207207,2.82007985 3.60871271,4.25500069 2.97434165,6.15811388 C1.68099287,10.0381602 1.18960141,15.8200969 1.48050345,23.5 L16.5194965,23.5 C16.8103986,15.8200969 16.3190071,10.0381602 15.0256584,6.15811388 C14.3912873,4.25500069 13.5679279,2.82007985 12.5358599,1.86740172 C11.54734,0.954921736 10.3683729,0.5 9,0.5 Z"/>
    <polygon fill="#BA1212" points="4 4 14 4 15 5 3 5"/>
    <rect width="16" height="1" x="1" y="19" fill="#BA1212"/>
    <rect width="2" height="1" x="4" y="21" fill="#D8D8D8"/>
    <rect width="2" height="1" x="12" y="21" fill="#D8D8D8"/>
    <circle cx="7.5" cy="21.5" r="1" fill="#000"/>
    <circle cx="10.5" cy="21.5" r="1" fill="#000"/>
  </g>
</svg>
