<svg width="40" height="34" xmlns:xlink="http://www.w3.org/1999/xlink" xmlns="http://www.w3.org/2000/svg"><defs><path d="M3 0H2v2H0v1h2v2h1V3h2V2H3V0z" transform="translate(23 9)" id="a"/></defs><path d="M2.999 0h34.002q.147 0 .294.014.147.015.291.044.145.028.286.071.14.043.277.1.136.056.266.125.13.07.252.151.123.082.236.176.114.093.219.197.104.105.197.218.094.114.176.237.081.122.15.252.07.13.127.266.056.136.099.277.043.141.071.286.03.144.044.291.014.147.014.294v28.002q0 .147-.014.294-.015.147-.044.291-.028.145-.071.286-.043.14-.1.277-.056.136-.125.266-.07.13-.151.252-.082.123-.176.236-.093.114-.197.219-.105.104-.218.197-.114.094-.237.176-.122.081-.252.15-.13.07-.266.127-.136.056-.277.099-.141.043-.286.071-.144.03-.291.044-.147.014-.294.014H2.999q-.147 0-.294-.014-.147-.015-.291-.044-.145-.028-.286-.071-.14-.043-.277-.1-.136-.056-.266-.125-.13-.07-.252-.151-.123-.082-.237-.176-.113-.093-.218-.197-.104-.105-.197-.218-.094-.114-.176-.237-.081-.122-.15-.252-.07-.13-.127-.266-.056-.136-.099-.277-.043-.141-.071-.286-.03-.144-.044-.291Q0 31.148 0 31.001V2.999q0-.147.014-.294.015-.147.044-.291.028-.145.071-.286.043-.14.1-.277.056-.136.125-.266.07-.13.151-.252.082-.123.176-.237Q.774.983.878.878q.105-.104.218-.197.114-.094.237-.176.122-.081.252-.15.13-.07.266-.127.136-.056.277-.099.141-.043.286-.071.144-.03.291-.044Q2.852 0 2.999 0z" fill="#BA1212"/><path d="M11 8h18v18H11V8z" fill="none"/><path d="M12.5 9.5V11H14l2.7 5.7-1.05 1.8c-.075.225-.15.525-.15.75 0 .825.675 1.5 1.5 1.5h9v-1.5h-8.7a.161.161 0 01-.15-.15v-.075l.675-1.275h5.55c.6 0 1.05-.3 1.275-.75l2.7-4.875c.15-.15.15-.225.15-.375 0-.45-.3-.75-.75-.75h-11.1l-.675-1.5H12.5zm3 13.5c0-.825.675-1.5 1.5-1.5s1.5.675 1.5 1.5-.675 1.5-1.5 1.5-1.5-.675-1.5-1.5zm7.5 0c0-.825.675-1.5 1.5-1.5s1.5.675 1.5 1.5-.675 1.5-1.5 1.5S23 23.825 23 23z" fill="#FFF" fill-rule="evenodd"/><use xlink:href="#a" fill="none" stroke="#BA1212" stroke-width="2"/><use fill="#FFF" xlink:href="#a" fill-rule="evenodd"/></svg>