<svg xmlns="http://www.w3.org/2000/svg" width="88" height="94"><g fill="#FFF"><path d="M37.806 47.897H25.782a2.733 2.733 0 100 5.464h12.024a2.733 2.733 0 100-5.464zm10.879 2.2a2.55 2.55 0 00-.156-.512 2.686 2.686 0 00-.59-.888 2.803 2.803 0 00-.886-.59 2.756 2.756 0 00-2.98.59c-.125.126-.24.265-.338.416a2.75 2.75 0 00-.462 1.516 2.737 2.737 0 00.462 1.516 2.617 2.617 0 00.754.754 2.763 2.763 0 001.517.462 2.748 2.748 0 002.274-1.216 2.76 2.76 0 00.405-.981 2.657 2.657 0 000-1.068zm36.408.284H76.71c-4.723 0-8.564 3.84-8.564 8.56v3.277a2.733 2.733 0 005.466 0v-3.277a3.1 3.1 0 013.098-3.096h8.382a2.733 2.733 0 100-5.464zM73.56 70.93a2.763 2.763 0 00-.749-1.399 2.752 2.752 0 00-2.977-.59 2.808 2.808 0 00-.888.59 2.703 2.703 0 00-.59.888 2.763 2.763 0 00-.21 1.044 2.737 2.737 0 00.461 1.516 2.75 2.75 0 002.807 1.164 2.783 2.783 0 001.397-.748 2.774 2.774 0 00.75-1.396 2.734 2.734 0 000-1.069z"/><path d="M70.88 77.745a2.733 2.733 0 00-2.734 2.732v4.78a3.1 3.1 0 01-3.097 3.096H41.725a3.1 3.1 0 01-3.097-3.096v-1.826h5.01a2.733 2.733 0 002.734-2.732v-7.214h2.749a10.29 10.29 0 009.995-7.792l6.243-24.86h3.522a2.733 2.733 0 002.734-2.733V24.518a2.733 2.733 0 00-2.734-2.732h-8.934V8.469c0-4.67-3.802-8.469-8.473-8.469C46.802 0 43 3.799 43 8.469v13.317H28.788V8.47c0-4.67-3.802-8.469-8.473-8.469-4.672 0-8.474 3.799-8.474 8.469v13.317H2.908a2.733 2.733 0 00-2.733 2.732v13.583a2.733 2.733 0 002.733 2.732H6.43l6.242 24.86a10.291 10.291 0 009.996 7.792h2.749V80.7a2.733 2.733 0 002.733 2.732h5.011v1.826c0 4.72 3.842 8.56 8.564 8.56H65.05c4.722 0 8.564-3.84 8.564-8.56v-4.78a2.732 2.732 0 00-2.733-2.733zM48.467 8.47a3.01 3.01 0 013.007-3.005A3.01 3.01 0 0154.48 8.47v13.135h-6.013V8.47zm-31.159 0a3.01 3.01 0 013.007-3.005 3.01 3.01 0 013.006 3.005v13.135h-6.013V8.47zM5.641 35.37v-8.12h60.507v8.12H5.64zM28.15 68.022h-5.482a4.833 4.833 0 01-4.693-3.66l-5.91-23.53h47.657l-5.909 23.53a4.832 4.832 0 01-4.693 3.66H28.15zm2.733 9.945v-4.482h10.022v4.482H30.883z"/></g></svg>