<svg width="32" height="32" viewBox="0 0 32 32" xmlns:xlink="http://www.w3.org/1999/xlink" xmlns="http://www.w3.org/2000/svg"><g id="files" stroke="none"><path d="M19.71.29l6 6A1 1 0 0126 7v22a3 3 0 01-3 3H3a3 3 0 01-3-3V3a3 3 0 013-3h16a1 1 0 01.71.29zM23 30a1 1 0 001-1V8h-4a2 2 0 01-2-2V2H3a1 1 0 00-1 1v26a1 1 0 001 1h20z" transform="translate(2.667)" id="Fill-1" fill="#BA1212" fill-rule="evenodd"/><path d="M0 2h10V0H0v2z" transform="translate(6.667 14)" id="Fill-4" fill="#666"/><path d="M0 2h18V0H0v2z" transform="translate(6.667 19)" id="Fill-6" fill="#666"/><path d="M0 2h10V0H0v2z" transform="translate(6.667 24)" id="Fill-7" fill="#666"/></g></svg>