<svg width="24" height="24" viewBox="0 0 24 24" xmlns:xlink="http://www.w3.org/1999/xlink" xmlns="http://www.w3.org/2000/svg"><defs><clipPath id="mask_1"><use xlink:href="#path_1"/></clipPath><path d="M7.695 14.849C3.06 10.777 0 8.092 0 4.796 0 2.11 2.178 0 4.95 0 6.516 0 8.019.706 9 1.822A5.462 5.462 0 0113.05 0C15.822 0 18 2.11 18 4.796c0 3.296-3.06 5.981-7.695 10.062L9 16l-1.305-1.151z" transform="translate(3 4)" id="path_1"/></defs><g id="compare"><path d="M7.695 14.849C3.06 10.777 0 8.092 0 4.796 0 2.11 2.178 0 4.95 0 6.516 0 8.019.706 9 1.822A5.462 5.462 0 0113.05 0C15.822 0 18 2.11 18 4.796c0 3.296-3.06 5.981-7.695 10.062L9 16l-1.305-1.151z" transform="translate(3 4)" id="Icon" fill="#ba1212" stroke="none"/></g></svg>