<svg width="64" height="64" xmlns:xlink="http://www.w3.org/1999/xlink" xmlns="http://www.w3.org/2000/svg"><defs><clipPath id="b"><use xlink:href="#a"/></clipPath><path d="M2.999 0h58.002q.147 0 .294.014.147.015.291.044.145.028.286.071.14.043.277.1.136.056.266.125.13.07.252.151.123.082.236.176.114.093.219.197.104.105.197.218.094.114.176.237.081.122.15.252.07.13.127.266.056.136.099.277.043.141.071.286.03.144.044.291.014.147.014.294v58.002q0 .147-.014.294-.015.147-.044.291-.028.145-.071.286-.043.14-.1.277-.056.136-.125.266-.07.13-.151.252-.082.123-.176.236-.093.114-.197.219-.105.104-.218.197-.114.094-.237.176-.122.081-.252.15-.13.07-.266.127-.136.056-.277.099-.141.043-.286.071-.144.03-.291.044Q61.148 64 61 64H2.999q-.147 0-.294-.014-.147-.015-.291-.044-.145-.028-.286-.071-.14-.043-.277-.1-.136-.056-.266-.125-.13-.07-.252-.151-.123-.082-.237-.176-.113-.093-.218-.197-.104-.105-.197-.218-.094-.114-.176-.237-.081-.122-.15-.252-.07-.13-.127-.266-.056-.136-.099-.277-.043-.141-.071-.286-.03-.144-.044-.291Q0 61.148 0 61V2.999q0-.147.014-.294.015-.147.044-.291.028-.145.071-.286.043-.14.1-.277.056-.136.125-.266.07-.13.151-.252.082-.123.176-.237Q.774.983.878.878q.105-.104.218-.197.114-.094.237-.176.122-.081.252-.15.13-.07.266-.127.136-.056.277-.099.141-.043.286-.071.144-.03.291-.044Q2.852 0 2.999 0z" id="a"/></defs><use fill="#FFF" xlink:href="#a"/><g clip-path="url(#b)"><use xlink:href="#a" fill="none" stroke="#666" stroke-width="4"/></g><path d="M44.607 21.082l.476.959c.044.086 4.562 9.068 1.194 17.115l-.006.009c.004-.005 0 .005-.022.059-1.34 3.284-3.703 5.756-6.054 7.54-2.317 1.76-4.724 3.829-5.977 4.35l-.001-.001-1.014-.33c-.036-.013-12.448-3.965-16.806-14.343v-.004l-.01-.024.002.001-.01-.02c-.009-.021-.008-.02-.003-.01 0 .003.003.006.005.01l.005.013-.004-.012v-.001l-.004-.01h.001l-.017-.035h-.003c-4.458-10.334 1.296-22.016 1.314-22.051l.465-.964 1.016.332c.033.01 11.167 3.57 16.043 12.77 3.884-3.513 8.386-5.007 8.4-5.013l1.01-.34zM18.66 35.49l-.001.002-.02-.047-.01-.02-.015-.039-.003-.006h.001c-3.277-7.602-.364-16.127.82-19.006 2.894 1.142 11.06 4.95 14.264 12.582.042.098.042.093.03.064l.012.028.003.008c0-.001-.001-.002 0 0v.004l.003.008a16.767 16.767 0 01.628 1.729 17.991 17.991 0 01.535 2.197c.035.184.072.368.1.551.039.256.065.51.095.765.048.423.084.844.105 1.263.007.112.016.224.02.336.01.313.016.624.016.933l-.001.19c-.004.333-.011.662-.027.988-.17 3.461-1.027 6.534-1.737 8.569L22.839 24.564l8.616 22.881c-3.577-1.636-10.03-5.368-12.796-11.955zm15.081-6.434v.001l.004.007-.002-.003-.002-.005zm10.275 9.157v.001c.018-.04.013-.03.004-.013l-.004.007c2.315-5.536.296-11.683-.674-14.063-1.542.65-4.526 2.127-7.067 4.632.159.41.3.821.43 1.233.017.056.029.111.046.167.167.552.307 1.105.425 1.657.02.095.044.19.063.284.116.582.208 1.16.276 1.738l.03.272c.131 1.224.167 2.43.127 3.602l-.002.092c-.004.104-.004.21-.01.314-.01.2-.04.385-.053.582a30.543 30.543 0 01-.237 2.243c-.064.437-.136.859-.212 1.275-.044.234-.083.474-.13.701a35.29 35.29 0 01-.388 1.657 47.22 47.22 0 01-.457 1.599c-.033.113-.068.247-.104.355a23.44 23.44 0 002.641-1.73c2.052-1.558 4.11-3.701 5.258-6.514a.351.351 0 01.017-.039l.008-.015.013-.032-.002-.001c-.004.015-.02.048 0-.001l.002-.003z" fill="#ba1212" fill-rule="evenodd"/></svg>