<svg xmlns="http://www.w3.org/2000/svg" width="37" height="37"><g fill="none" fill-rule="evenodd" transform="translate(-3 -3)"><rect width="30" height="30" x="6.627" y="6.627" stroke="#BA1212" stroke-width="2" rx="10" transform="rotate(-23 21.627 21.627)"/><path fill="#BA1212" d="M28 20.75a.25.25 0 01-.25.25H22.5v-1.611h5.25a.25.25 0 01.25.25v1.111zM25.64 28H22.5v-5.5h3.945v4.694a.806.806 0 01-.805.806zm-8.585-.806V22.5H21V28h-3.139a.807.807 0 01-.806-.806zm-1.554-7.555a.25.25 0 01.25-.25H21V21h-5.25a.25.25 0 01-.25-.25v-1.111zm1.554-2.945c.002-.667.566-1.178 1.235-1.194.962 0 1.878.93 2.437 2.389H18.25a1.196 1.196 0 01-1.195-1.195zm8.17-1.194a1.198 1.198 0 011.22 1.194c0 .659-.537 1.195-1.195 1.195h-2.477c.56-1.459 1.479-2.389 2.451-2.389zm2.525 2.389h-.098a2.66 2.66 0 00.293-1.195A2.694 2.694 0 0025.264 14h-.055c-1.38 0-2.63.933-3.459 2.499C20.922 14.933 19.675 14 18.303 14c-1.504.015-2.748 1.191-2.748 2.694 0 .431.111.833.293 1.195h-.098c-.964 0-1.75.785-1.75 1.75v1.111c0 .898.684 1.632 1.556 1.73v4.714a2.308 2.308 0 002.306 2.306h7.778a2.308 2.308 0 002.305-2.306V22.48a1.747 1.747 0 001.555-1.73v-1.111c0-.965-.785-1.75-1.75-1.75z"/></g></svg>