<svg xmlns="http://www.w3.org/2000/svg" width="14" height="14"><path fill="#d0021b" d="M10.634 12.415c.915 0 1.591-.67 1.591-1.768 0-1.117-.676-1.808-1.591-1.808-.915 0-1.572.69-1.572 1.808 0 1.098.657 1.768 1.572 1.768zM3.356 5.151c.915 0 1.572-.689 1.572-1.742 0-1.135-.657-1.804-1.572-1.804-.895 0-1.571.669-1.571 1.804 0 1.053.676 1.742 1.571 1.742zM10.63 14c-2.023 0-3.351-1.463-3.351-3.353 0-1.91 1.328-3.413 3.35-3.413 2.024 0 3.372 1.503 3.372 3.413C14 12.537 12.652 14 10.629 14zm-7.078-.234h-1.49L10.518.203h1.509zm-.2-7.02C1.33 6.746 0 5.303 0 3.414 0 1.504 1.329 0 3.351 0c2.043 0 3.371 1.504 3.371 3.414 0 1.89-1.328 3.332-3.37 3.332z"/></svg>