<svg width="48" height="48" viewBox="0 0 48 48" xmlns:xlink="http://www.w3.org/1999/xlink" xmlns="http://www.w3.org/2000/svg"><g id="icons/example1"><g id="3D-Aquatronic"><path d="M0 0h48v48H0V0z" id="Rectangle" fill="#FFF4F4" stroke="#FFDEDE" stroke-width="1"/><path d="M19.415 10.07c.389.762.823 1.499 1.301 2.208l.016-.016a.84.84 0 01-1.413.907c-.358-.576-.736-1.168-1.067-1.77a9.02 9.02 0 01-.816-1.9 5.333 5.333 0 01-.203-1.37 8.002 8.002 0 01.422-2.55 11.14 11.14 0 01.736-1.706c.156-.28.295-.568.416-.864.156-.381.24-.788.245-1.2a2.168 2.168 0 00-.128-.699.843.843 0 111.6-.533c.142.404.216.83.219 1.259a5.194 5.194 0 01-.443 1.968c-.24.549-.512.997-.741 1.466a7.32 7.32 0 00-.406 1.008 6.772 6.772 0 00-.272 1.856c.009.314.057.626.144.928.102.346.232.684.39 1.008zm2.928-8.997c.04.224.064.45.074.677v.165c-.01.544-.1 1.083-.266 1.6a12.233 12.233 0 01-.902 1.926c-.177.319-.33.65-.458.992a3.67 3.67 0 00-.224 1.168 4 4 0 00.192 1.317c.177.543.43 1.059.752 1.53.277.412.533.763.704 1.067a.837.837 0 001.466-.805 7.183 7.183 0 00-.533-.816 7.3 7.3 0 01-.667-1.066 2.666 2.666 0 01-.192-.534 2.661 2.661 0 01-.064-.603 1.86 1.86 0 01.059-.405 4.11 4.11 0 01.357-.858c.251-.491.598-1.067.891-1.792a7.265 7.265 0 00.533-2.667v-.24a6.146 6.146 0 00-.101-.901.838.838 0 10-1.648.282l.027-.037zm9.424 12.656a12.598 12.598 0 00-7.286-6.587.843.843 0 00-.533 1.6c2.78.971 5.05 3.026 6.293 5.696a.843.843 0 001.526-.71zM15.12 7.596a12.597 12.597 0 00-6.64 7.306.837.837 0 00.534 1.067.843.843 0 001.066-.534 10.912 10.912 0 015.76-6.325.84.84 0 10-.704-1.525l-.016.01zM1.148 17.425c.365-.153.74-.276 1.125-.368a5.93 5.93 0 011.067-.17h.112a5.66 5.66 0 011.627.234c.672.23 1.321.522 1.941.87a7.71 7.71 0 001.035.458c.377.134.773.204 1.173.208a4.2 4.2 0 001.312-.213 6.08 6.08 0 001.488-.784c.41-.283.757-.534 1.067-.72a.837.837 0 10-.832-1.451 7.76 7.76 0 00-.811.533 7.743 7.743 0 01-1.067.683c-.17.084-.35.152-.533.203a2.667 2.667 0 01-.597.069 1.892 1.892 0 01-.411-.048 4.595 4.595 0 01-.859-.341c-.496-.24-1.066-.576-1.813-.86a7.127 7.127 0 00-2.667-.495h-.25a8.313 8.313 0 00-1.36.213 9.39 9.39 0 00-1.387.459.839.839 0 00.661 1.541l-.021-.021zm27.819.55c-.753.4-1.482.845-2.182 1.332h.016a.843.843 0 11-.933-1.397c.57-.373 1.152-.762 1.755-1.11a9.117 9.117 0 011.877-.842 5.087 5.087 0 011.37-.23 8.159 8.159 0 012.555.374c.59.203 1.163.453 1.712.747.28.151.568.285.864.4.384.15.793.228 1.206.23.322-.022.639-.101.933-.235.41-.182.803-.396 1.179-.64a.839.839 0 11.896 1.418 9.602 9.602 0 01-1.398.763 4.003 4.003 0 01-1.6.368c-.358 0-.716-.04-1.066-.117a5.403 5.403 0 01-.902-.289c-.554-.229-1.008-.49-1.482-.714a6.464 6.464 0 00-1.014-.39 6.742 6.742 0 00-1.861-.234 3.41 3.41 0 00-.923.155c-.345.109-.68.246-1.002.41zm-17.275 1.764c.755-.4 1.485-.845 2.187-1.333l-.016.01a.838.838 0 11.928 1.393c-.571.378-1.152.768-1.755 1.11a8.83 8.83 0 01-1.877.847 4.909 4.909 0 01-1.366.224 8.347 8.347 0 01-2.554-.373 11.552 11.552 0 01-1.707-.747 8.57 8.57 0 00-.87-.4 3.355 3.355 0 00-1.21-.23c-.323.019-.64.099-.933.236a8.958 8.958 0 00-1.179.64.853.853 0 11-.907-1.446 9.601 9.601 0 011.424-.763 4.028 4.028 0 011.6-.367c.679 0 1.35.138 1.974.405.554.23 1.013.49 1.482.715.327.157.666.288 1.014.389a6.805 6.805 0 001.84.256c.313-.01.623-.062.922-.155a5.952 5.952 0 001.003-.41zm27.83.555a6.63 6.63 0 01-1.126.363c-.33.084-.668.14-1.008.166v-.012h-.165a5.52 5.52 0 01-1.664-.229 11.821 11.821 0 01-1.942-.87 7.712 7.712 0 00-.997-.436 3.613 3.613 0 00-1.173-.209 4.206 4.206 0 00-1.312.214 5.867 5.867 0 00-1.483.784c-.41.282-.763.533-1.067.72a.838.838 0 00.838 1.45 8.43 8.43 0 00.805-.533 7.777 7.777 0 011.067-.683c.17-.083.349-.149.533-.197.195-.05.396-.075.597-.075a1.6 1.6 0 01.411.054c.3.08.589.193.864.336.586.32 1.19.606 1.808.858.85.334 1.754.504 2.667.502h.234c.459-.03.914-.102 1.36-.213a8.8 8.8 0 001.387-.46.837.837 0 10-.635-1.53zM13.5 29.532a12.677 12.677 0 01-4.55-5.27h-.02a.838.838 0 111.52-.704 11.008 11.008 0 003.946 4.57 10.896 10.896 0 0012.325-.308 10.945 10.945 0 003.915-5.265.843.843 0 111.6.534 12.624 12.624 0 01-4.507 6.09 12.565 12.565 0 01-14.229.353zm23.124 6.426c.276 0 .5-.184.5-.41 0-.227-.224-.411-.5-.411s-.5.184-.5.41c0 .227.224.411.5.411zM3.959 38.897a2.1 2.1 0 01-.934-.224v.01l-.149.566c.359.137.741.204 1.125.197a1.6 1.6 0 001.03-.293 1.12 1.12 0 00.4-.896.853.853 0 00-.838-.923.875.875 0 00.8-.928c0-.65-.464-1.018-1.28-1.018A2.978 2.978 0 003 35.596l.133.533c.28-.135.585-.21.896-.219.421 0 .672.208.672.534 0 .405-.347.613-1.03.613h-.255v.533h.325c.677 0 .997.224.997.64 0 .416-.293.667-.778.667zm3.402-3.445H6.37v3.952h.934a2.516 2.516 0 001.472-.3c.51-.395.784-1.025.725-1.669a1.93 1.93 0 00-.619-1.6 2.245 2.245 0 00-1.52-.383zm17.44 1.535v-.533h.464v-.602l.662-.123v.752h.661v.533h-.661v1.344c0 .427.101.576.389.576a.82.82 0 00.315-.07l.058.534c-.19.065-.39.098-.592.096a.763.763 0 01-.688-.298 1.344 1.344 0 01-.144-.774v-1.434h-.464zM8.295 38.598a1.66 1.66 0 01-.966.224h-.272v-2.816h.246c.35-.05.706.024 1.008.208.335.305.51.748.474 1.2a1.39 1.39 0 01-.49 1.184zm9.36-2.117c0 .33-.027.576-.027 1.163v2.954h-.667v-1.6a.982.982 0 01-.848.432 1.003 1.003 0 01-.896-.47 1.94 1.94 0 01-.272-1.066c0-.912.459-1.504 1.163-1.504.352-.007.684.166.88.459v-.4h.667v.032zm-4.96 2.96c.342.014.672-.13.896-.39l.021-.016v.326h.672c-.027-.144-.027-.49-.027-.736v-.864c0-.55-.048-.774-.213-.976a1.222 1.222 0 00-1.003-.379 2.228 2.228 0 00-1.066.256l.176.475c.234-.151.505-.236.784-.245a.586.586 0 01.645.66v.054h-.475a1.834 1.834 0 00-.853.15.875.875 0 00-.464.81.832.832 0 00.907.875zm10.826-.39a1.12 1.12 0 01-.896.39.832.832 0 01-.933-.875.875.875 0 01.464-.81c.268-.118.561-.169.853-.15l.512.043v-.053a.587.587 0 00-.645-.662 1.514 1.514 0 00-.779.245l-.176-.5a2.212 2.212 0 011.067-.257 1.21 1.21 0 011.003.379c.165.203.213.426.213.976v1.6h-.645v-.326h-.038zm9.179-2.57c.032.485.032.63.032 1.018v1.856h.661v-1.957c.163-.274.446-.456.763-.49a.405.405 0 01.41.25c.051.158.071.325.06.49v1.745h.666v-1.744a1.696 1.696 0 00-.144-.822.832.832 0 00-.79-.405 1.29 1.29 0 00-1.023.486v-.427H32.7zm-2.174 2.777a1.419 1.419 0 001.475-1.327 1.354 1.354 0 00-1.418-1.509 1.419 1.419 0 00-.057 2.836zm9.425-.067h.002v.005l-.002-.005zm0 0l-.211-.476a1.07 1.07 0 01-.661.214c-.518 0-.811-.352-.811-.998 0-.645.272-1.008.752-1.008a1.2 1.2 0 01.672.214l.197-.496a1.91 1.91 0 00-.933-.219c-.843 0-1.376.566-1.376 1.52a1.35 1.35 0 001.44 1.499c.328.01.652-.077.931-.25zm-12.723-2.684c.027.497.027.86.027 1.067v1.824h.656v-1.68c.128-.427.389-.661.714-.661.077-.007.153-.007.23 0l.021-.57a.821.821 0 00-1.019.555v-.535h-.629zm-6.208 1.857v1.013h-.603v-.427a1.264 1.264 0 01-1.008.49.81.81 0 01-.778-.41 1.697 1.697 0 01-.128-.805V36.48h.666v1.701c-.015.164.005.33.059.485a.39.39 0 00.395.251.997.997 0 00.746-.485V36.48h.667v1.883h-.016zm15.994-1.883h-.793v2.896h.793V36.48zm-20.053.928a.822.822 0 00-.677-.48c-.4 0-.65.384-.65.992s.245 1.008.634 1.008c.267 0 .475-.15.693-.49v-1.03zM30.6 38.945c-.459 0-.731-.379-.731-1.014l-.016-.01c0-.614.293-.987.747-.987.453 0 .73.384.73 1.008s-.272 1.003-.73 1.003zm-19.28-1.43h-1.312v.523h1.312v-.522zm1.952.507h.304v.566a.794.794 0 01-.656.405.416.416 0 01-.448-.438c0-.367.266-.533.8-.533zm10.25.016h-.304c-.533 0-.8.166-.8.534a.416.416 0 00.448.437.784.784 0 00.656-.427v-.544z" transform="translate(3.679 3.951)" id="Combined-Shape" fill="#BA1212" fill-rule="evenodd" stroke="none"/></g></g></svg>