<svg width="48" height="48" xmlns="http://www.w3.org/2000/svg"><path d="M0 0h48v48H0V0z" fill="#FFF4F4" stroke="#FFDEDE"/><path d="M23.093 14.021c.39.762.824 1.5 1.302 2.208l.016-.016a.84.84 0 01-1.414.907c-.357-.576-.736-1.168-1.066-1.77a9.02 9.02 0 01-.816-1.9 5.333 5.333 0 01-.203-1.37 8.002 8.002 0 01.421-2.55c.198-.588.444-1.158.736-1.706.157-.28.295-.568.416-.864.157-.381.24-.788.246-1.2a2.168 2.168 0 00-.128-.699.843.843 0 111.6-.533c.142.404.216.83.218 1.259a5.194 5.194 0 01-.442 1.968c-.24.549-.512.997-.742 1.466-.16.326-.295.663-.405 1.008a6.772 6.772 0 00-.272 1.856c.009.314.057.626.144.928.102.347.232.684.39 1.008zm2.928-8.997c.04.224.065.45.075.677v.166c-.01.543-.1 1.082-.267 1.6a12.26 12.26 0 01-.901 1.925c-.177.319-.33.65-.459.992a3.67 3.67 0 00-.224 1.168c-.01.447.056.892.192 1.317.177.544.43 1.059.752 1.531.278.41.534.763.704 1.067a.837.837 0 001.467-.806 7.183 7.183 0 00-.533-.816 7.3 7.3 0 01-.667-1.066 2.666 2.666 0 01-.192-.534 2.661 2.661 0 01-.064-.602c.004-.137.024-.273.059-.406a4.11 4.11 0 01.357-.858c.25-.491.597-1.067.89-1.792a7.265 7.265 0 00.534-2.667v-.24a6.146 6.146 0 00-.101-.901.838.838 0 10-1.648.282l.026-.037zm9.424 12.656a12.598 12.598 0 00-7.285-6.587.843.843 0 00-.533 1.6c2.78.971 5.05 3.026 6.293 5.696a.843.843 0 001.525-.709zM18.8 11.547a12.597 12.597 0 00-6.64 7.306.837.837 0 00.533 1.067.843.843 0 001.067-.533 10.912 10.912 0 015.76-6.326.84.84 0 10-.704-1.525l-.016.01zM4.827 21.376c.364-.153.74-.276 1.125-.368a5.93 5.93 0 011.067-.17h.112a5.66 5.66 0 011.626.234c.672.23 1.322.522 1.942.87a7.71 7.71 0 001.034.458c.377.134.774.204 1.174.208a4.2 4.2 0 001.312-.213 6.08 6.08 0 001.488-.784c.41-.283.757-.534 1.066-.72a.837.837 0 10-.832-1.451c-.28.161-.551.34-.81.533a7.743 7.743 0 01-1.067.683c-.171.084-.35.152-.533.203a2.62 2.62 0 01-.598.069c-.138 0-.276-.017-.41-.048a4.595 4.595 0 01-.859-.341c-.496-.24-1.067-.576-1.813-.859a7.127 7.127 0 00-2.667-.496h-.25a8.313 8.313 0 00-1.36.213 9.39 9.39 0 00-1.387.459.839.839 0 00.661 1.541l-.021-.021zm27.818.55c-.753.4-1.481.845-2.181 1.333h.016a.843.843 0 11-.933-1.398c.57-.373 1.152-.762 1.754-1.109a9.117 9.117 0 011.878-.843 5.087 5.087 0 011.37-.229 8.159 8.159 0 012.555.373c.59.203 1.162.453 1.712.747.28.151.568.285.864.4.384.15.793.228 1.205.23.323-.022.64-.101.934-.235a8.486 8.486 0 001.178-.64.839.839 0 11.896 1.418 9.602 9.602 0 01-1.397.763 4.003 4.003 0 01-1.6.368c-.359 0-.716-.039-1.067-.117a5.403 5.403 0 01-.901-.288c-.555-.23-1.008-.491-1.483-.715a6.464 6.464 0 00-1.013-.39 6.742 6.742 0 00-1.861-.234 3.41 3.41 0 00-.923.155c-.345.109-.68.246-1.003.41zM15.371 23.69a21.3 21.3 0 002.186-1.334l-.016.011a.838.838 0 11.928 1.392c-.57.379-1.152.768-1.754 1.11a8.86 8.86 0 01-1.878.847 4.909 4.909 0 01-1.365.224 8.347 8.347 0 01-2.555-.373 11.552 11.552 0 01-1.706-.747 8.57 8.57 0 00-.87-.4 3.355 3.355 0 00-1.21-.229c-.324.018-.64.098-.934.235a8.958 8.958 0 00-1.178.64.853.853 0 11-.907-1.446 9.601 9.601 0 011.424-.762 4.028 4.028 0 011.6-.368c.678 0 1.35.139 1.973.405.555.23 1.014.49 1.483.715.326.158.665.288 1.013.389.6.17 1.218.255 1.84.256.314-.01.624-.061.923-.155a5.952 5.952 0 001.003-.41zm27.829.554c-.364.154-.74.276-1.125.363-.331.084-.668.14-1.008.166v-.011H40.9a5.52 5.52 0 01-1.664-.23 11.821 11.821 0 01-1.941-.869 7.712 7.712 0 00-.997-.437 3.613 3.613 0 00-1.174-.208 4.206 4.206 0 00-1.312.213 5.867 5.867 0 00-1.482.784c-.411.283-.763.533-1.067.72a.838.838 0 00.837 1.45 8.32 8.32 0 00.806-.533 7.777 7.777 0 011.066-.682c.171-.084.35-.15.534-.198.195-.05.396-.075.597-.074a1.6 1.6 0 01.41.053c.3.081.59.194.865.336.586.32 1.19.606 1.808.859.85.333 1.754.503 2.666.501h.235c.459-.03.914-.102 1.36-.213a8.8 8.8 0 001.387-.459.837.837 0 10-.635-1.53zm-26.021 9.238a12.677 12.677 0 01-4.55-5.27h-.021a.838.838 0 111.52-.704 11.008 11.008 0 003.947 4.571 10.896 10.896 0 0012.325-.31 10.945 10.945 0 003.915-5.263.843.843 0 111.6.533 12.624 12.624 0 01-4.507 6.09 12.565 12.565 0 01-14.23.353zm23.124 6.426c.276 0 .5-.184.5-.41 0-.227-.224-.411-.5-.411s-.5.184-.5.41c0 .227.224.411.5.411zm-32.666 2.94a2.1 2.1 0 01-.933-.224v.01l-.15.566c.36.137.742.204 1.126.197a1.6 1.6 0 001.03-.293 1.12 1.12 0 00.4-.896.853.853 0 00-.838-.923.875.875 0 00.8-.928c0-.65-.464-1.018-1.28-1.018a2.978 2.978 0 00-1.115.208l.134.533c.28-.135.585-.21.896-.219.421 0 .672.208.672.534 0 .405-.347.613-1.03.613h-.256v.533h.326c.677 0 .997.224.997.64 0 .416-.293.667-.779.667zm3.403-3.445h-.992v3.952h.933a2.516 2.516 0 001.472-.299 1.895 1.895 0 00.726-1.67 1.93 1.93 0 00-.619-1.6 2.245 2.245 0 00-1.52-.383zm17.44 1.536v-.534h.464v-.602l.661-.123v.752h.662v.533h-.662v1.344c0 .427.102.576.39.576a.82.82 0 00.314-.069l.059.533c-.19.065-.39.098-.592.096a.763.763 0 01-.688-.298 1.344 1.344 0 01-.144-.774V40.94h-.464zm-16.507 1.61c-.291.171-.628.25-.965.224h-.272v-2.816h.245c.35-.05.707.024 1.008.208.335.305.51.748.475 1.2a1.39 1.39 0 01-.49 1.184zm9.36-2.117c0 .33-.026.576-.026 1.163v2.954h-.667v-1.6a.982.982 0 01-.848.432 1.003 1.003 0 01-.896-.469 1.94 1.94 0 01-.272-1.067c0-.912.459-1.504 1.163-1.504.352-.007.684.166.88.459v-.4h.666v.032zm-4.96 2.96c.343.014.673-.13.896-.39l.022-.015v.325h.672c-.027-.144-.027-.49-.027-.736v-.864c0-.55-.048-.773-.213-.976a1.222 1.222 0 00-1.003-.379 2.228 2.228 0 00-1.067.256l.176.475c.235-.15.506-.236.784-.245a.586.586 0 01.646.661v.053h-.475a1.834 1.834 0 00-.853.15.875.875 0 00-.464.81.832.832 0 00.906.875zm10.827-.39a1.12 1.12 0 01-.896.39.832.832 0 01-.933-.875.875.875 0 01.464-.81c.268-.118.56-.169.853-.15l.512.043v-.053a.587.587 0 00-.645-.662 1.514 1.514 0 00-.779.246l-.176-.502a2.212 2.212 0 011.067-.256 1.21 1.21 0 011.002.379c.166.203.214.427.214.976v1.6h-.646v-.325H27.2zm9.179-2.57c.032.485.032.63.032 1.019v1.856h.661v-1.958c.163-.274.445-.456.763-.49a.405.405 0 01.41.25c.051.159.07.325.059.491v1.744h.667V41.6a1.696 1.696 0 00-.144-.821.832.832 0 00-.79-.406 1.29 1.29 0 00-1.024.486v-.427h-.634zm-2.174 2.777a1.419 1.419 0 001.475-1.326 1.354 1.354 0 00-1.419-1.51 1.419 1.419 0 00-.056 2.836zm9.425-.067h.002v.005l-.002-.005zm0 0l-.211-.475c-.19.143-.424.218-.662.213-.517 0-.81-.352-.81-.997 0-.646.272-1.008.752-1.008a1.2 1.2 0 01.672.213l.197-.496a1.91 1.91 0 00-.933-.219c-.843 0-1.376.566-1.376 1.52a1.35 1.35 0 001.44 1.499c.328.01.652-.077.931-.25zM30.907 40.46c.026.496.026.858.026 1.066v1.824h.656v-1.68c.128-.426.39-.661.715-.661.076-.007.153-.007.23 0l.02-.57a.821.821 0 00-1.019.555l.001-.534h-.63zm-6.208 1.856v1.013h-.603v-.427a1.264 1.264 0 01-1.008.491.81.81 0 01-.779-.41 1.697 1.697 0 01-.128-.806v-1.744h.667v1.701c-.016.164.004.33.059.486a.39.39 0 00.394.25.997.997 0 00.747-.485v-1.952h.667v1.883h-.016zm15.993-1.883H39.9v2.896h.792v-2.896zm-20.052.928a.822.822 0 00-.677-.48c-.4 0-.651.384-.651.992s.245 1.008.635 1.008c.266 0 .474-.15.693-.49v-1.03zm13.637 1.536c-.458 0-.73-.379-.73-1.013l-.016-.011c0-.613.293-.987.746-.987.454 0 .731.384.731 1.008s-.272 1.003-.73 1.003zm-19.28-1.43h-1.312v.523h1.312v-.522zm1.952.507h.304v.566a.794.794 0 01-.656.405.416.416 0 01-.448-.437c0-.368.267-.534.8-.534zm10.251.016h-.304c-.533 0-.8.166-.8.534a.416.416 0 00.448.437.784.784 0 00.656-.427v-.544z" fill="#BA1212" fill-rule="evenodd"/></svg>