<svg xmlns="http://www.w3.org/2000/svg" width="442" height="237"><path fill="#9E9E9E" d="M76.137 0l.017.021c.47.482 13.857 14.419 14.193 36.448.344 22.424-10.442 36.805-10.442 36.805 4.922 8.13 11.312 9.17 19.97 7.857.005 0 .788-.104.786-.114-1.81-4.493-2.43-9.261-.876-15.421 2.297-9.13 12.341-14.67 19.32-10.638 6.324 3.648 4.626 13.295-1.854 20.074-5.209 5.452-13.42 8.223-13.42 8.223s9.112 10.899 26.057 10.73c16.948-.172 19.687-1.54 19.687-1.54l-5.308 9.073.009 36.667 7.993 11.51-7.987 11.5.002 7.479c0 37.625-30.507 68.13-68.128 68.13-37.644 0-68.17-30.467-68.17-68.13l.001-7.478L0 149.695l7.994-11.51.008-36.667-5.307-9.074s2.739 1.369 19.684 1.541c16.95.169 26.059-10.73 26.059-10.73l-.025-.009c-.493-.17-8.349-2.935-13.396-8.214-6.476-6.78-8.175-16.426-1.85-20.074 6.976-4.032 17.02 1.51 19.32 10.638 1.55 6.16.934 10.928-.876 15.42-.003.007.778.115.783.115 8.66 1.313 15.048.275 19.972-7.857 0 0-10.785-14.381-10.442-36.805C62.26 14.436 75.651.5 76.118.021L76.137 0zm-.083 77.276l.045-.04a30.058 30.058 0 01-5.163 3.916l-.285.167.237-.138a34.7 34.7 0 00.82-.505V94.3a16.724 16.724 0 01-1.234 2.072v-14.95l.068-.04-.393.223c-4.096 2.274-8.64 3.459-13.38 3.39l-.352-.008-.334-.012-.158-.006-.43-.024-.107-.005a28.101 28.101 0 01-3.727-.499 81.9 81.9 0 00-1.114-.324l-.046.082.046-.08c.002-.004.697.202.988.286v12.628l-1.234-.655V84.554l.048-.08.042-.078-.09.158-.161.275c-.928 1.53-2.14 2.99-3.567 4.369l-.083.078v37.833l-1.231.232V90.394l-.061.053a39.648 39.648 0 01-4.31 3.182l-.255.161.202-.127c.206-.131.41-.264.611-.398v34.807l-1.231.235V94.055l.107-.069-.287.179a54.9 54.9 0 01-4.03 2.242l-.464.231-.466.228a65.61 65.61 0 01-4.272 1.875l-.393.155.335-.13.615-.246-.001 112.571.5.555a60.253 60.253 0 008.154 7.43l.201.15c.204.157.408.308.613.458l.62.447-.001-.004.055.039a60.038 60.038 0 003.078 2.043l.679.413v.001l.055.033.056.034.078.046.425.253.619.358-.001-.004.483.274a59.78 59.78 0 003.3 1.708l.028.014c.41.196.819.387 1.234.573l-.001-.004.432.195c.854.377 1.718.734 2.592 1.071l.787.296c.204.08.41.153.615.226l.236.082.124.044.108.037.149.053-.001-.003.634.217c.893.297 1.796.573 2.707.829l.47.127.445.121c1.223.322 2.46.606 3.713.852l.886.166v-17.76c.405.217.815.423 1.234.617v17.351l.72.112c.955.14 1.916.257 2.885.35l.442.04-.238-.022v-16.437c.408.111.819.208 1.233.296v16.244l.508.038a60.937 60.937 0 007.882 0l.465-.035v-16.004c.415-.068.825-.144 1.234-.232v16.135l-.616.054-.43.033.321-.023a60.081 60.081 0 003.855-.438l.68-.106v-16.809c.415-.166.828-.343 1.232-.526l-.001 17.129.929-.174c.938-.185 1.87-.39 2.792-.618l.09-.023v-18.529a25.42 25.42 0 001.234-.94v19.147l-.582.155-.507.129.473-.12.034-.009.178-.045a59.444 59.444 0 003.62-1.079l.594-.203v-21.868c.436-.563.85-1.137 1.234-1.737v23.165l.822-.309a59.518 59.518 0 002.591-1.072l.395-.178v-34.297l.003-.027.008-37.855c.007-12.263 0-24.524 0-36.787h-.01v-17.64l1.233-1.661v127.696l.064-.03a59.708 59.708 0 003.297-1.709l.449-.256V89.276l-.082-.078c-1.426-1.38-2.638-2.84-3.566-4.369l-.162-.274v-.001l-.099-.172.052.093.047.08v11.794c-.406.203-.831.42-1.233.624V84.406c.29-.084.987-.29.987-.286l.064.113-.064-.115c0-.004-1.107.322-1.111.324a28.101 28.101 0 01-3.728.499l-.241.013.284-.015v13.768c-.419.146-.83.282-1.233.415V84.994l.182-.007.086-.001.11-.005.238-.008.089-.005h.024l.204-.013-.228.013-.327.013-.196.006-.373.01c-6.88.099-13.347-2.443-18.632-7.124l-.266-.24.141.13.007.008v3.654l-1.232-.006V77.77l.002-.007.29-.26.242-.228zm-.534 138.002c.408.019.819.03 1.232.03v15.863h-1.087l-.145-.003v-15.89zm-15.133-6.444c.4.372.81.732 1.234 1.08v19.49c-.413-.103-.823-.21-1.234-.322v-20.248zm-5.042-6.748c.375.75.786 1.47 1.232 2.169l-.001 23.654-.148-.05-.232-.081-.76-.273-.091-.035v-25.384zm-5.044-56.398l.036.005 1.198.168-.001 80.047-.418-.187-.815-.383v-79.65zm-5.042-.713l1.232.179-.001 78.189-.322-.183-.721-.424-.134-.08-.055-.034v-77.647zm61.753-54.58v132.238l.71-.432a59.987 59.987 0 003.075-2.044l.026-.02V93.265c.404.268.815.53 1.232.792l-.001 125.18.23-.17a60.24 60.24 0 009.367-8.813l.411-.488-.53.624c-.206.237-.413.473-.623.707V98.52l.616.246.394.153-.451-.178c-5.277-2.099-10.457-4.924-14.396-8.294l-.06-.052zm-66.797 53.78l1.231.2v75.752l-.694-.5-.538-.401v-75.051zm75.652-47.969c.409.21.817.415 1.232.615v118.185c-.404.38-.817.754-1.232 1.12V96.206zm-80.696 35.137l1.233.141v84.636a56.436 56.436 0 01-1.233-1.122v-83.655zm64.477-13.295V178.8c0 7.612-.002 12.786-.004 12.786-.132 12.522-10.32 22.63-22.871 22.63-12.634 0-22.874-10.24-22.874-22.878 0-12.632 10.24-22.874 22.874-22.874 1.92 0 3.785.24 5.568.686v21.815c-1.394-.47-2.983-.684-4.52-.726h-.914a16.885 16.885 0 00-11.873 5.324 16.898 16.898 0 01-.276-3.05c0-7.144 4.004-14.323 12.15-13.09v-5.22a15.344 15.344 0 00-3.274-.339c-8.242 0-14.615 8.049-14.96 16.404-.285 6.847 3.044 13.9 8.779 16.912 0-5.393 4.268-9.784 9.63-9.931l.277-.004-.013.003c-.305.042-4.884.662-4.884 5.246 0 9.96 16.377 5.758 16.152-11.514h.006v-38.33l-6-1.702v11.922a28.943 28.943 0 00-5.785-.576 28.873 28.873 0 00-19.592 7.625 29.051 29.051 0 0116.375-13.47 4.087 4.087 0 00.8-7.56c-4.326-1.87-24.476-4.25-30.558-5.231l44.762-4.404v-2.769l-52.983-6.19 52.992-10.138 11.016-2.108zM30.28 98.947l-.436.168c-5.924 2.254-11.882 3.582-16.26 3.727-.204.006-.747-.133-.615.013l3.249 3.56-.009 31.737 3.834 5.519v12.046l-3.84 5.53v10.014c0 8.282 1.678 16.167 4.713 23.337l.038.087.333.77a59.704 59.704 0 003.901 7.383l.241.38-.344-.55V100.73c.409-.123.82-.251 1.234-.382l-.001 104.236.387.573a60.109 60.109 0 003.339 4.407l.294.348-.209-.248V99.006l.151-.059zm91.669-.017l.193.076v110.667l.103-.122a60.129 60.129 0 003.336-4.408l.374-.554V100.35c.414.131.823.26 1.231.382v101.94l-.403.647-.377.586-.043.066.01-.013.033-.053.196-.3a59.708 59.708 0 005.461-10.754l.167-.444.164-.433a59.824 59.824 0 003.674-20.712v-10.015l-3.838-5.526v-12.052l3.832-5.516-.006-31.649 3.248-3.648c.13-.15-.412-.007-.615-.013-4.495-.15-10.659-1.545-16.74-3.912zm197.29 94.88c1.011 0 1.853.228 2.517.674.669.444 1.002.985 1.002 1.621 0 .644-.165 1.143-.493 1.505a1.633 1.633 0 01-1.223.56 1.78 1.78 0 01-1.236-.465c-.326-.305-.486-.701-.478-1.168 0-.861.373-1.504 1.118-1.933-.2-.101-.493-.156-.882-.156-2.175 0-3.265 1.884-3.265 5.649 0 1.918.355 3.33 1.063 4.246.705.918 1.612 1.375 2.72 1.375 1.107 0 2.078-.417 2.91-1.247l.128.11c-1.028 2.27-2.596 3.415-4.695 3.423-1.537.008-2.798-.581-3.783-1.773-.988-1.187-1.478-2.87-1.478-5.046 0-2.179.562-3.952 1.682-5.328 1.126-1.362 2.587-2.047 4.394-2.047zm-43.45 0c1.381 0 2.497.423 3.345 1.26.849.84 1.274 2.182 1.274 4.025v1.014h-7.202c0 1.672.316 3.017.943 4.036.634 1.015 1.577 1.518 2.836 1.518 1.261 0 2.37-.459 3.33-1.375l.108.129c-1.175 2.38-2.872 3.579-5.095 3.587-1.604-.008-2.897-.617-3.871-1.827-.98-1.209-1.466-2.897-1.466-5.066 0-2.176.537-3.934 1.607-5.286 1.067-1.347 2.47-2.023 4.191-2.015zm54.063 0c1.75 0 3.19.621 4.329 1.857 1.137 1.225 1.713 2.933 1.73 5.112 0 2.179-.574 3.924-1.724 5.238-1.145 1.318-2.606 1.979-4.387 1.987-1.773-.008-3.226-.657-4.358-1.941-1.135-1.28-1.701-3.006-1.701-5.173 0-2.172.575-3.894 1.73-5.172 1.169-1.282 2.632-1.916 4.381-1.908zm20.7 0c1.747 0 3.189.621 4.326 1.857 1.139 1.225 1.713 2.933 1.732 5.112 0 2.179-.577 3.924-1.724 5.238-1.145 1.318-2.608 1.979-4.39 1.987-1.77-.008-3.223-.657-4.357-1.941-1.133-1.28-1.7-3.006-1.7-5.173 0-2.172.575-3.894 1.731-5.172 1.169-1.282 2.632-1.916 4.381-1.908zm21.812 0c.914 0 1.95.223 3.11.661v3.354h-.108c-1.181-2.126-2.32-3.19-3.419-3.19-.507 0-.939.158-1.282.48-.347.318-.524.76-.533 1.327 0 .958.73 1.791 2.192 2.493.617.294 1.223.616 1.83.97.61.356 1.126.857 1.536 1.495.413.642.626 1.404.634 2.284.008 1.32-.425 2.375-1.305 3.15-.878.778-1.996 1.17-3.358 1.17-1.356 0-2.596-.276-3.708-.825l-.052-3.89h.132c1.257 2.593 2.563 3.89 3.914 3.89.581 0 1.067-.173 1.467-.518.398-.341.598-.834.598-1.47 0-.648-.206-1.179-.625-1.59a5.696 5.696 0 00-1.5-1.06 42.542 42.542 0 01-1.795-.943 4.537 4.537 0 01-1.5-1.432c-.418-.61-.63-1.34-.639-2.191-.008-1.234.41-2.238 1.257-3.007.85-.772 1.901-1.158 3.154-1.158zm-9.802 0v10.626c0 1.1.103 1.833.31 2.208.208.37.665.68 1.366.933v.107h-6.112v-.107c.56-.253.92-.57 1.07-.96.157-.39.231-1.22.231-2.489v-5.722c0-1.271-.082-2.082-.236-2.43-.155-.343-.572-.65-1.244-.92v-.128c1.472-.137 2.969-.511 4.486-1.118h.129zm-71.333 0v10.653c-.008 1.118.065 1.853.223 2.206.15.36.522.661 1.106.912v.103h-5.794v-.103c.579-.25.943-.552 1.099-.912.156-.353.23-1.088.23-2.206v-6.133c0-1.259-.079-2.057-.232-2.402-.158-.35-.575-.655-1.247-.92v-.132c1.434-.106 2.933-.46 4.487-1.066h.128zm-40.962-4.465v.11c-.69.265-1.147.618-1.368 1.048-.221.434-.333 1.192-.333 2.27v14.088h2.234c.606 0 1.116-.156 1.532-.468.41-.311.941-.894 1.58-1.738l1.195-1.544h.156l-.442 4.573h-11.223v-.107c.68-.234 1.128-.558 1.34-.973.196-.38.297-1.047.306-2.004v-11.878c0-1.1-.105-1.861-.318-2.28-.221-.425-.665-.756-1.328-.987v-.11h6.67zm47.707 4.465v1.832c1.312-1.22 2.643-1.832 3.98-1.832 2.218 0 3.33 1.4 3.33 4.205v6.42c0 1.135.08 1.88.234 2.234.16.356.532.655 1.122.908v.107h-5.794v-.107c.41-.173.701-.356.867-.558.16-.198.266-.5.329-.908.063-.406.097-1.075.105-2.012v-5.981c0-1.79-.69-2.685-2.074-2.685-.524 0-1.225.186-2.099.56v8.47c0 1.135.072 1.876.22 2.221.145.345.503.64 1.084.893v.107h-5.741v-.107c.58-.253.939-.548 1.086-.893.147-.345.217-1.086.217-2.221v-5.956c0-1.356-.07-2.21-.209-2.556-.137-.345-.553-.66-1.244-.947v-.128c1.436-.106 2.922-.46 4.461-1.066h.126zm43.918-6.059v16.712c-.01 1.099.074 1.834.242 2.198.173.364.556.67 1.137.92v.103h-5.924v-.103c.58-.25.943-.552 1.097-.912.158-.353.232-1.088.232-2.206v-12.219c0-1.257-.08-2.055-.236-2.4-.154-.345-.57-.657-1.242-.924v-.105c1.806-.156 3.328-.508 4.566-1.064h.128zm-72.947 0c.93 0 1.648.207 2.158.61.51.407.77.879.779 1.416 0 .536-.154.947-.461 1.244-.31.303-.682.45-1.12.45-.438 0-.807-.13-1.108-.4-.296-.267-.448-.62-.448-1.063 0-.69.36-1.259 1.082-1.699a3.833 3.833 0 00-.566-.05c-1.228 0-1.842.867-1.842 2.602 0 .754.017 1.591.048 2.518l.03.751h2.311v1.143h-2.311v9.14c0 1.077.111 1.818.336 2.216.226.4.666.714 1.312.948v.107h-6.032v-.107c.523-.253.85-.575.977-.973.13-.4.19-1.272.19-2.623v-8.708h-1.592v-.143l1.592-1v-1.179c-.007-1.703.423-2.993 1.286-3.875.867-.88 1.994-1.325 3.379-1.325zm-8.301 6.06v10.652c-.008 1.118.067 1.853.223 2.206.15.36.522.661 1.107.912v.103h-5.793v-.103c.579-.25.943-.552 1.097-.912.155-.353.231-1.088.231-2.206v-6.133c0-1.259-.08-2.057-.233-2.402-.156-.35-.573-.655-1.247-.92v-.132c1.436-.106 2.933-.46 4.487-1.066h.128zm89.882.637c-1.773 0-2.659 2.156-2.659 6.457 0 4.299.884 6.453 2.66 6.461 1.767-.008 2.654-2.162 2.654-6.46 0-4.302-.887-6.458-2.655-6.458zm-20.701 0c-1.77 0-2.657 2.156-2.657 6.457 0 4.299.886 6.453 2.657 6.461 1.773-.008 2.659-2.162 2.659-6.46 0-4.302-.886-6.458-2.659-6.458zm-253.072 4.045v8.18a3.774 3.774 0 01-1.232-.326v-7.332a5.479 5.479 0 011.232-.522zm3.81-6.866c.423.089.832.198 1.234.318v13.007a9.236 9.236 0 01-1.234.798v-14.123zm-13.897 3.861v9.09c-.059.243-.111.491-.153.742a13.624 13.624 0 01-1.08-.853v-7.732l.397-.423c.27-.287.548-.563.836-.824zm18.941-42.56l1.232.35v43.84c-.03.057-.063.111-.1.164a16.885 16.885 0 01-1.132 2.95v-47.304zm189.789 41.52c-.647 0-1.154.396-1.516 1.185-.362.788-.583 2.112-.674 3.971l4.067-.286c0-1.754-.151-3.009-.452-3.754-.305-.743-.78-1.116-1.425-1.116zM61.62 183.261v16.084a19.174 19.174 0 01-1.234-3.377v-9.515c.31-1.09.722-2.167 1.234-3.192zm10.086 9.112v5.343c-.43.257-.842.545-1.233.859v-5.672c.406-.196.817-.375 1.233-.53zm293.418 1.492c.47 0 .874.177 1.21.53.337.356.506.782.506 1.28 0 .51-.164.94-.493 1.285a1.61 1.61 0 01-1.223.52c-.482 0-.888-.17-1.221-.52a1.778 1.778 0 01-.493-1.272c0-.499.169-.928.506-1.292.336-.354.74-.53 1.208-.53zm-288.373-2.524v4.827a10.8 10.8 0 00-1.232.137v-4.867c.408-.049.819-.08 1.232-.097zm54.243-37.398l1.234 1.777v36.686l-.393 1.016a60.73 60.73 0 01-.84 2.001l-.001-41.48zm-109.722.001v41.48l-.32-.739a58.315 58.315 0 01-.91-2.279l-.001-36.689 1.231-1.773zm237.762 34.872c.484 0 .901.179 1.25.53.346.36.519.775.519 1.264 0 .484-.173.899-.518 1.25-.35.343-.767.516-1.25.516a1.54 1.54 0 01-1.192-.516 1.821 1.821 0 01-.47-1.25c0-.489.158-.903.47-1.263.311-.352.71-.531 1.191-.531zm30.585 0c.483 0 .9.179 1.25.53.346.36.519.775.519 1.264 0 .484-.173.899-.518 1.25a1.73 1.73 0 01-1.25.516 1.54 1.54 0 01-1.192-.516 1.811 1.811 0 01-.47-1.25c0-.489.156-.903.47-1.263.311-.352.71-.531 1.191-.531zm80.746-74.973v.512c-1.64.461-2.783 1.126-3.447 1.996-.682.871-.991 2.305-.958 4.3 0 1.999.752 5.923 2.255 11.792l6.895 26.247 6.379-23.329c1.895-6.193 2.73-10.972 2.493-14.299-.24-3.345-1.843-5.58-4.847-6.707v-.512h16.792v.413c-1.825.867-3.55 2.798-5.137 5.8-1.602 3.002-3.636 8.787-6.11 17.354l-10.033 35.002c-3.48 12.15-8.41 18.223-14.777 18.223-2.202 0-4.027-.648-5.495-1.943-1.47-1.3-2.202-2.8-2.202-4.541 0-1.722.581-3.242 1.758-4.573 1.16-1.299 2.661-1.947 4.488-1.947 1.84 0 3.344.633 4.504 1.894 1.162 1.264 1.81 2.885 1.947 4.883 2.541-2.135 4.762-6.333 6.655-12.594l1.587-5.802-7.253.067-8.806-30.922c-2.457-8.463-4.231-13.857-5.288-16.158-1.076-2.286-2.562-3.876-4.455-4.743v-.413h23.055zM205.74 95.413v.411c-2.66.97-4.385 2.234-5.168 3.805-.787 1.553-1.179 4.486-1.179 8.787v49.147c0 9.198-2.423 16.162-7.27 20.906-2.389 2.27-4.608 4.027-6.654 5.288-2.065 1.28-4.522 2.51-7.373 3.703v-.492c5.665-3.535 8.5-10.24 8.5-20.104v-58.448c0-4.232-.395-7.147-1.178-8.737-.819-1.604-2.543-2.884-5.172-3.855v-.41h25.494zm-139.075 81.82v5.259a13.338 13.338 0 00-1.233 2.04v-6.316c.393-.35.806-.68 1.233-.983zm-10.088-5.221v6.408a24.226 24.226 0 00-1.232 2.16v-7.436l1.232-1.132zm15.13 3.107v3.598c-.427.145-.838.316-1.233.511v-3.833c.404-.11.814-.205 1.233-.276zm276.402 2.527v1.211H210.132v-1.21h137.977zm61.655 0v1.211h-27.421v-1.21h27.42zM75.52 175.078l.29.036v3.092l-.29-.012v-3.116zm-13.899-7.181v4.871a25.83 25.83 0 00-1.234 1.08v-5.1c.407-.293.817-.577 1.234-.851zm-6.276-21.501l1.232.177v22.31c-.097.168-.194.336-.289.504l-.943 1.69v-24.681zm11.32 18.903v4.303c-.419.196-.83.404-1.233.62v-4.405c.408-.181.816-.354 1.233-.518zm5.042-1.442v4.05a24.6 24.6 0 00-1.233.3v-4.091c.41-.097.82-.181 1.233-.26zm8.855-.223c.415.057.825.124 1.234.195v4.078a26.048 26.048 0 00-1.234-.235v-4.038zm-3.81-.25v3.984c-.413 0-.824.013-1.232.032v-3.985c.408-.02.819-.03 1.232-.032zm202.812-50.77c3.89 0 7.134.87 9.692 2.596 2.577 1.705 3.857 3.79 3.857 6.246 0 2.472-.632 4.4-1.895 5.8-1.28 1.402-2.848 2.116-4.707 2.15-1.863 0-3.448-.596-4.762-1.792-1.263-1.175-1.878-2.695-1.842-4.505 0-3.31 1.431-5.784 4.299-7.438-.769-.394-1.895-.598-3.396-.598-8.38 0-12.577 7.252-12.577 21.758 0 7.39 1.366 12.831 4.095 16.364 2.713 3.533 6.212 5.29 10.478 5.29 4.267 0 8.004-1.604 11.212-4.797l.495.41c-3.96 8.758-10 13.156-18.09 13.192-5.92.035-10.784-2.234-14.573-6.826-3.804-4.574-5.7-11.059-5.7-19.435 0-8.396 2.17-15.221 6.485-20.529 4.333-5.257 9.966-7.886 16.929-7.886zm146.979 0c3.515 0 7.507.855 11.978 2.54v12.923h-.408c-4.558-8.192-8.943-12.288-13.175-12.288-1.962 0-3.619.614-4.947 1.842-1.333 1.23-2.015 2.939-2.05 5.12 0 3.688 2.816 6.894 8.448 9.608a92.403 92.403 0 017.048 3.737c2.354 1.364 4.333 3.295 5.92 5.75 1.588 2.477 2.407 5.41 2.44 8.808.034 5.084-1.638 9.145-5.033 12.13-3.38 3.005-7.697 4.506-12.935 4.506-5.221 0-10-1.057-14.282-3.173l-.207-14.983h.512c4.848 9.98 9.882 14.983 15.086 14.983 2.236 0 4.112-.665 5.649-1.996 1.537-1.316 2.303-3.208 2.303-5.665 0-2.493-.802-4.543-2.404-6.128-1.588-1.586-3.535-2.952-5.788-4.078a168.733 168.733 0 01-6.91-3.636c-2.252-1.314-4.197-3.14-5.784-5.512-1.605-2.353-2.424-5.17-2.457-8.444-.036-4.762 1.585-8.619 4.844-11.587 3.278-2.973 7.322-4.457 12.152-4.457zm-196.417 0c11.11 0 16.657 6.025 16.657 18.071v22.272c-.034 3.72.444 6.158 1.45 7.286 1.006 1.141 2.764 1.826 5.307 2.1v.41c-1.075 1.023-2.783 1.994-5.103 2.9-5 1.927-8.77 1.807-11.347-.357-1.263-1.128-2.032-2.697-2.289-4.695-4.76 4.42-9.366 6.653-13.804 6.689-3.396 0-6.263-1.194-8.6-3.6-2.339-2.39-3.499-5.701-3.499-9.933 0-5.425 1.912-9.676 5.75-12.712 3.842-3.056 10.513-4.673 20.052-4.88v-7.048c0-8.482-3.43-12.714-10.29-12.714-2.697 0-5.495.769-8.377 2.322 2.08.325 3.752 1.04 5.05 2.165 1.297 1.11 1.944 2.478 1.944 4.097 0 1.604-.615 3.04-1.842 4.284-1.23 1.244-2.695 1.876-4.402 1.876-1.725 0-3.175-.596-4.369-1.79-1.179-1.215-1.775-2.716-1.775-4.558 0-3.463 1.929-6.366 5.767-8.686 3.842-2.34 8.412-3.5 13.72-3.5zm116.638 1.23v.51c-2.798.666-5.443 1.845-7.935 3.553-2.508 1.705-5.358 4.366-8.548 8.002l-6.058 6.654 13.446 21.946c2.44 3.89 4.455 6.57 6.057 8.038 1.59 1.467 3.328 2.509 5.19 3.107v.406h-12.184c-3.347 0-5.632-.51-6.861-1.55-1.23-1.027-3.139-3.856-5.752-8.5L314.633 139l7.046-8.586c3.89-4.712 5.836-8.004 5.836-9.914 0-2.732-2.046-4.743-6.143-6.042v-.615h25.392zm-46.221-14.211l1.366 1.484 11.375 12.379v38.863c-.034 5.07.24 8.295.835 9.693.581 1.4 1.98 2.591 4.181 3.602v.406h-22.216v-.406c2.115-.973 3.446-2.17 3.991-3.602.548-1.434.82-4.66.82-9.693v-45.598c0-3.09-.117-5.467-.352-7.128zm-240.156 47.5l1.234.19v15.117c-.423.41-.834.834-1.234 1.272v-16.58zm169.945-8.51c-6.23 0-9.352 3.99-9.352 11.976 0 3.636.718 6.282 2.133 7.954 1.434 1.657 3.175 2.49 5.221 2.49 2.065 0 4.181-.579 6.366-1.739v-19.98c-1.757-.464-3.208-.702-4.368-.702zm-164.9 9.318l1.233.217v10.335c-.419.26-.83.53-1.233.812v-11.364zm5.042.962c.44.095.852.192 1.233.286v6.78c-.414.16-.825.332-1.233.509v-7.575zm-49.201-3.459l2.952 4.25-2.952 4.25v-8.5zm109.722.001v8.498l-2.95-4.248 2.95-4.25zm0-43.706c.42.097.826.185 1.234.27v41.659l-1.234 1.777v-43.706zm-109.721 0l-.001 43.705-1.231-1.773v-41.663c.406-.086.815-.172 1.232-.27zm18.94 30.194l1.232.143v10.72l-1.231.122v-10.985zm5.045.587l1.232.143v9.638l-1.232.12v-9.901zm5.042.59l1.234.145v8.547l-1.234.124v-8.817zm5.044.589l1.232.143v7.467l-1.232.123v-7.733zm5.042.587l1.234.146v6.38l-1.234.12v-6.646zm5.045.59l1.233.145v5.293l-1.233.126v-5.564zm5.042.591l1.233.141v4.213l-1.233.12v-4.474zm5.046.588l1.232.143v3.128l-1.232.118v-3.39zm5.042.587l1.234.145v2.04l-1.234.122v-2.307zm5.044.59l1.232.147v.954l-1.232.12v-1.221zM36.404 96.206v32.83l-1.233.236v-32.45l.37-.184.249-.122c.205-.102.41-.205.614-.31zm13.897 1.447l1.234 1.66v26.83l-1.234.236V97.653zm5.044 6.787l1.232 1.659v19.08l-1.232.236V104.44zm5.042 6.787l.394.533.545.728.295.4v11.327l-1.234.238v-13.226zm6.278 2.43v9.596l-1.233.233v-9.442c.4-.139.81-.267 1.233-.387zm5.042-.98v9.611l-1.233.234v-9.682c.406-.061.817-.114 1.233-.162zm4.242-.235c.27 0 .537.004.803.01v8.87l-1.232.238v-9.114l.43-.004zm4.613.28c.417.053.827.112 1.234.177v7.461l-1.234.234v-7.872zM405.536 93.98c1.895 0 3.463.682 4.727 2.047 1.263 1.366 1.894 3.124 1.894 5.258 0 3.123-1.47 6.449-4.385 9.948-2.935 3.497-6.145 6.347-9.642 8.551l-.392-.206c3.122-3.96 4.69-7.51 4.69-10.65 0-1.09-.578-2.424-1.738-3.992-1.162-1.568-1.741-3.175-1.741-4.813 0-1.62.612-3.052 1.842-4.299 1.23-1.23 2.817-1.844 4.745-1.844zm-319.93 19.788c.423.127.834.261 1.232.405v5.22l-1.232.234v-5.859zm6.276-2.54v7.2l-1.234.233v-5.77l.596-.803v-.002l.638-.859zm5.044-6.79v13.019l-1.233.238v-11.596l1.233-1.661zm-20.928 5.219c5.417 0 10.297 1.088 13.73 2.831l-.936 1.261c-3.356-1.484-7.853-2.391-12.794-2.391-4.804 0-9.185.857-12.51 2.267l-.945-1.27c3.417-1.664 8.183-2.698 13.455-2.698zm.162-25.703c.006.031.015.065.019.099 4.116 20.027 11.823 19.282 23.37 14.846.072-.025.14-.067.209-.101l-9.147 12.31c-4.104-2.028-9.291-3.039-14.476-3.034-5.186-.005-10.373 1.006-14.476 3.033l-9.147-12.31c.071.035.136.077.208.102 11.545 4.436 19.255 5.183 23.37-14.846.007-.034.015-.066.02-.1.008.034.014.072.02.104l.005.019.004-.02c.008-.033.015-.069.021-.102zm14.488.67c.409.07.82.13 1.234.182v15.31c-.42.076-.83.135-1.234.179V84.623zm-29.027 0v15.669a15.675 15.675 0 01-1.234-.177v-15.31c.413-.052.826-.111 1.234-.183zm5.044-1.388v16.45c-.398.175-.81.316-1.233.423V83.676c.414-.137.825-.282 1.233-.44zm18.941 0c.407.158.817.303 1.232.44v16.433a8.097 8.097 0 01-1.232-.423v-16.45zm-30.26 1.703l.149.007.355.021.075.003.038.003.12.003.227.01.107.002.16.006v14.128a85.071 85.071 0 01-1.232-.415V84.94zm25.216-4.263c.406.259.817.51 1.234.747v14.95a17.022 17.022 0 01-1.234-2.074V80.676zm32.689-7.592c10.444-14.242-4.066-19.295-9.67-6.65-2.457 5.543-2.813 12.718-1.103 14.208 1.743-.151 7.745-3.434 10.773-7.558zm-74.23 0c3.027 4.124 9.03 7.407 10.77 7.558 1.71-1.49 1.356-8.665-1.1-14.208-5.607-12.645-20.114-7.592-9.67 6.65zm37.114-50.307c-9.207 3.524-8.263 38.796-.044 46.177.033.031.056.031.09 0 8.24-7.402 9.128-42.775-.046-46.177z" opacity=".119"/></svg>