<svg xmlns="http://www.w3.org/2000/svg" xmlns:xlink="http://www.w3.org/1999/xlink" width="135" height="48" viewBox="0 0 135 48"><defs><linearGradient id="sm-rus.ru-b" x1="0%" x2="100%" y1="50.001%" y2="50.001%"><stop offset="0%" stop-color="#FFF"/><stop offset="100%" stop-color="#B3CFF2"/></linearGradient><linearGradient id="sm-rus.ru-e" x1="0%" x2="100%" y1="50%" y2="50%"><stop offset="0%" stop-color="#FFF"/><stop offset="100%" stop-color="#B3CFF2"/></linearGradient><linearGradient id="sm-rus.ru-h" x1="50%" x2="50%" y1="100.146%" y2=".146%"><stop offset="0%" stop-color="#FFF"/><stop offset="100%" stop-color="#B3CFF2"/></linearGradient><linearGradient id="sm-rus.ru-k" x1="50%" x2="50%" y1="100.153%" y2=".003%"><stop offset="0%" stop-color="#FFF"/><stop offset="100%" stop-color="#B3CFF2"/></linearGradient><linearGradient id="sm-rus.ru-n" x1="50%" x2="50%" y1="99.735%" y2="-.494%"><stop offset="0%" stop-color="#FFF"/><stop offset="100%" stop-color="#B3CFF2"/></linearGradient><linearGradient id="sm-rus.ru-q" x1="50%" x2="50%" y1="99.611%" y2="-.618%"><stop offset="0%" stop-color="#FFF"/><stop offset="100%" stop-color="#B3CFF2"/></linearGradient><linearGradient id="sm-rus.ru-t" x1="50%" x2="50%" y1="100%" y2="0%"><stop offset="0%" stop-color="#FFF"/><stop offset="100%" stop-color="#B3CFF2"/></linearGradient><linearGradient id="sm-rus.ru-w" x1="50.003%" x2="50.003%" y1="99.434%" y2="-.569%"><stop offset="0%" stop-color="#FFF"/><stop offset="100%" stop-color="#B3CFF2"/></linearGradient><linearGradient id="sm-rus.ru-z" x1="50%" x2="50%" y1="100.373%" y2=".152%"><stop offset="0%" stop-color="#FFF"/><stop offset="100%" stop-color="#B3CFF2"/></linearGradient><linearGradient id="sm-rus.ru-C" x1="50%" x2="50%" y1="100.217%" y2=".217%"><stop offset="0%" stop-color="#FFF"/><stop offset="100%" stop-color="#B3CFF2"/></linearGradient><linearGradient id="sm-rus.ru-F" x1="50%" x2="50%" y1="100.248%" y2="-.391%"><stop offset="0%" stop-color="#FFF"/><stop offset="100%" stop-color="#B3CFF2"/></linearGradient><linearGradient id="sm-rus.ru-I" x1="50%" x2="50%" y1="99.811%" y2="-.418%"><stop offset="0%" stop-color="#FFF"/><stop offset="100%" stop-color="#B3CFF2"/></linearGradient><linearGradient id="sm-rus.ru-L" x1="50%" x2="50%" y1="99.687%" y2="-.542%"><stop offset="0%" stop-color="#FFF"/><stop offset="100%" stop-color="#B3CFF2"/></linearGradient><linearGradient id="sm-rus.ru-O" x1="50%" x2="50%" y1="100%" y2="0%"><stop offset="0%" stop-color="#FFF"/><stop offset="100%" stop-color="#B3CFF2"/></linearGradient><linearGradient id="sm-rus.ru-R" x1="50%" x2="50%" y1="100.194%" y2="-.047%"><stop offset="0%" stop-color="#FFF"/><stop offset="100%" stop-color="#B3CFF2"/></linearGradient><linearGradient id="sm-rus.ru-U" x1="50%" x2="50%" y1="99.178%" y2="-.401%"><stop offset="0%" stop-color="#FFF"/><stop offset="100%" stop-color="#B3CFF2"/></linearGradient><linearGradient id="sm-rus.ru-X" x1="50%" x2="50%" y1="98.786%" y2="-1.214%"><stop offset="0%" stop-color="#FFF"/><stop offset="100%" stop-color="#B3CFF2"/></linearGradient><linearGradient id="sm-rus.ru-aa" x1="50%" x2="50%" y1="99.52%" y2="-.478%"><stop offset="0%" stop-color="#FFF"/><stop offset="100%" stop-color="#B3CFF2"/></linearGradient><linearGradient id="sm-rus.ru-ad" x1="50%" x2="50%" y1="100.106%" y2=".326%"><stop offset="0%" stop-color="#FFF"/><stop offset="100%" stop-color="#B3CFF2"/></linearGradient><path id="sm-rus.ru-a" d="M91.026.628c-.053.262.261.471.628.471.366 0 .628-.21.628-.47 0-.263-.262-.472-.628-.472-.367 0-.628.21-.628.471m-12.458.733c0 .471.419.837.89.837.47-.052.89-.418.837-.89 0-.47-.418-.837-.89-.837-.471 0-.837.419-.837.89m-45.905-.21c0 .262.261.472.523.472.314 0 .523-.21.523-.471 0-.262-.261-.472-.523-.472-.314 0-.523.21-.523.472m49.674.21c0 .26.261.47.523.47s.524-.21.524-.47c0-.263-.262-.472-.524-.472-.314 0-.523.21-.523.471m-71.502.157c0 .262.262.47.524.47.314 0 .523-.208.523-.47s-.262-.472-.523-.472c-.314 0-.524.21-.524.472m69.774.105c0 .261.262.47.524.47.262.053.523-.209.523-.47 0-.262-.261-.471-.523-.471-.315 0-.524.21-.524.47M9.003 1.99c0 .262.262.471.524.471.314 0 .524-.21.524-.471 0-.262-.21-.471-.524-.471-.314 0-.524.21-.524.47m47.947.472c-.052.262.21.471.523.471.315 0 .524-.21.524-.47 0-.263-.262-.472-.524-.472-.313 0-.523.21-.523.471m-41.718.418c0 .263.21.472.523.472.315 0 .524-.21.524-.472 0-.26-.262-.47-.524-.47-.314 0-.523.21-.523.47m67.785.315c0 .366.419.733.942.733.524 0 .995-.314.995-.68.052-.368-.419-.681-.942-.734-.524 0-.995.315-.995.681M52.71 3.035c0 .263.262.472.524.472.313 0 .523-.21.523-.472 0-.26-.262-.47-.523-.47-.314 0-.524.21-.524.47m-49.622.053c0 .262.21.471.524.471.314 0 .523-.209.523-.47 0-.262-.262-.472-.523-.472-.314 0-.524.21-.524.471m60.039.262c0 .262.261.47.523.47.314 0 .523-.208.523-.47s-.209-.472-.523-.472c-.314 0-.523.21-.523.472m-12.72 0c0 .262.261.47.576.47h.052c.105.158.314.263.471.21.314 0 .524-.21.524-.47 0-.262-.262-.472-.524-.472-.104-.157-.314-.21-.523-.21-.315 0-.576.21-.576.472m-23.712.628c0 .471.419.838.89.838.471 0 .838-.42.838-.89 0-.419-.367-.838-.89-.838-.47 0-.838.419-.838.89m-15.232-.366c0 .261.314.47.628.47.315 0 .576-.209.576-.47 0-.262-.261-.471-.628-.471-.314 0-.576.209-.576.47m26.277.106c-.053.261.21.47.523.47.314 0 .524-.209.524-.47 0-.262-.262-.472-.524-.472-.314 0-.523.21-.523.472m56.898.104c0 .262.261.471.628.471.314 0 .575-.21.575-.471 0-.262-.261-.471-.628-.471-.314 0-.575.21-.575.47m-8.114.524c0 .472.314.838.68.838.367 0 .629-.366.629-.838 0-.47-.314-.837-.68-.837-.367 0-.63.366-.63.837m-11.88.105c0 .471.418.838.889.838.472 0 .838-.42.838-.89 0-.419-.42-.838-.89-.838-.471 0-.838.42-.838.89m-52.03-.366c0 .261.21.47.524.47.314 0 .523-.209.523-.47 0-.262-.261-.471-.523-.471-.314 0-.523.209-.523.47m-5.601 0c0 .262.261.472.523.472.314 0 .524-.21.524-.471 0-.262-.21-.471-.524-.471-.314 0-.523.209-.523.47m24.34.367c0 .262.261.471.523.471.314 0 .523-.21.523-.47.053-.263-.209-.472-.523-.472-.314 0-.523.21-.523.471m29.155.105c0 .262.262.472.523.472.315 0 .524-.21.524-.472s-.21-.471-.524-.471c-.314 0-.523.21-.523.47m-67.995.158c0 .262.262.471.524.471s.523-.21.523-.471c0-.262-.261-.471-.523-.471-.314 0-.523.21-.523.47m11.201.053c-.052.263.21.47.524.47.314 0 .523-.207.523-.47 0-.261-.262-.47-.523-.47-.315 0-.524.209-.524.47m75.637-.052c-.314.156-.524.366-.524.628 0 .418.524.785 1.152.785.628 0 1.151-.261 1.151-.733 0-.365-.366-.68-.89-.785-.104-.104-.261-.21-.418-.21-.21 0-.419.106-.471.315M37.426 5.915c0 .47.419.837.89.837.47 0 .837-.418.837-.89-.052-.471-.419-.836-.89-.836-.47 0-.837.418-.837.889m40.776-.105c0 .262.26.471.523.471.314 0 .523-.209.523-.47 0-.262-.261-.472-.523-.472-.314 0-.523.21-.523.471M11.149 5.6c-.366.21-.524.734-.314 1.205.157.261.367.47.576.523 0 .261.262.471.523.471.314 0 .524-.21.524-.47a.441.441 0 00-.21-.367c.158-.263.158-.576 0-.89-.154-.347-.45-.553-.763-.553a.746.746 0 00-.336.082m23.712.575c0 .262.262.472.523.472.314 0 .524-.21.524-.472 0-.261-.21-.47-.524-.47-.314 0-.523.209-.523.47m18.686.105c0 .262.262.471.524.471.314 0 .524-.209.524-.47 0-.262-.262-.472-.524-.472s-.524.21-.524.471m5.55-.209c-.367.21-.524.733-.315 1.204.21.47.68.68 1.1.47.366-.209.523-.731.313-1.203-.154-.347-.45-.552-.763-.552a.742.742 0 00-.336.081M47.528 6.02c-.68 0-1.204.523-1.204 1.151s.576 1.152 1.256 1.1c.681 0 1.256-.525 1.204-1.152 0-.6-.524-1.103-1.162-1.103-.031 0-.062 0-.094.004m35.803.209c-.314 0-.523.21-.523.47 0 .263.262.472.523.472.314 0 .524-.21.524-.472 0-.28-.21-.478-.443-.478a.43.43 0 00-.08.008m-43.132.47c0 .263.262.472.523.472.21 0 .42-.156.472-.314a.56.56 0 00.523.419c.314 0 .523-.21.523-.471.053-.262-.209-.471-.523-.471-.21 0-.419.157-.472.314a.562.562 0 00-.523-.42c-.314 0-.523.21-.523.471m-24.13.263c0 .235.211.428.443.465a.455.455 0 00-.286.425c0 .26.261.47.523.47.314 0 .523-.21.523-.47 0-.24-.173-.433-.44-.466a.455.455 0 00.284-.424c0-.263-.262-.471-.524-.471a.467.467 0 00-.08-.007c-.269 0-.443.239-.443.478m34.598-.314h-.104c-.314 0-.523.209-.523.47 0 .263.261.471.523.471.053 0 .157 0 .21-.052h.104c.314 0 .524-.209.524-.47 0-.262-.262-.472-.524-.472-.052 0-.105 0-.21.053m43.917.941c0 .263.262.472.524.472.313 0 .523-.21.523-.472 0-.26-.261-.47-.523-.47-.314 0-.524.21-.524.47m-61.504.315c0 .262.262.471.524.471.314 0 .524-.21.524-.47.05-.263-.21-.472-.524-.472-.314 0-.524.21-.524.471m22.298.262c0 .262.262.47.524.47.314 0 .524-.208.524-.47s-.21-.471-.524-.471c-.314 0-.524.21-.524.47m25.65.21c0 .262.26.471.523.471.314 0 .523-.21.523-.471 0-.262-.21-.47-.523-.47-.314 0-.524.208-.524.47m-38.577 0c0 .262.261.471.523.471s.524-.21.524-.471c0-.262-.262-.47-.524-.47-.314 0-.523.208-.523.47m26.852.471c0 .262.262.471.628.471.314 0 .628-.21.628-.47 0-.263-.261-.472-.628-.472-.366 0-.628.21-.628.471m-11.777.209c0 .262.261.472.523.472.314 0 .524-.21.524-.472 0-.261-.262-.47-.524-.47-.314 0-.523.209-.523.47M1.413 9.16c0 .262.262.471.524.471-.314 0-.524.21-.524.47 0 .263.262.472.524.472.314 0 .523-.209.523-.471 0-.261-.262-.47-.523-.47.261 0 .523-.21.523-.472s-.262-.47-.523-.47c-.314 0-.524.208-.524.47m17.221.157c0 .261.21.471.524.471.314 0 .523-.21.523-.47 0-.263-.261-.472-.523-.472-.314 0-.524.209-.524.471m67.105.261c0 .263.261.472.628.472s.628-.21.628-.472c.053-.26-.261-.47-.628-.47s-.628.21-.628.47m-45.434.315c0 .262.261.471.523.471.314 0 .524-.21.524-.471 0-.262-.21-.471-.524-.471-.314 0-.523.21-.523.471m8.898.052c0 .262.262.471.524.471.314 0 .523-.209.523-.471 0-.261-.262-.47-.523-.47-.314 0-.524.209-.524.47m5.653.21c0 .261.21.47.523.47.315 0 .524-.209.524-.47 0-.262-.262-.471-.524-.471-.313 0-.523.209-.523.47m-2.774.158c0 .314.21.523.523.471.315 0 .524-.21.524-.471 0-.262-.262-.471-.524-.471-.314 0-.523.209-.523.47m-8.794.42c0 .47.419.837.89.837.471-.052.838-.419.838-.89 0-.471-.42-.837-.89-.837-.471 0-.838.419-.838.89m44.911-.367c0 .262.262.471.524.471.314 0 .523-.21.523-.47.052-.263-.21-.472-.523-.472-.314 0-.524.209-.524.471M67 10.416c0 .262.262.471.628.471.367 0 .628-.209.628-.47 0-.262-.314-.472-.628-.472-.366 0-.628.21-.628.471m-51.087 0c0 .262.261.471.523.471.314 0 .523-.209.523-.47.053-.262-.209-.472-.523-.472-.314 0-.524.21-.524.471m7.329-.314c-.367.21-.524.733-.315 1.204.21.471.681.68 1.1.471.366-.209.523-.732.314-1.204-.155-.347-.48-.552-.787-.552a.625.625 0 00-.312.08m-18.896.839c.052.47.418.837.89.837.47 0 .837-.418.837-.89 0-.47-.419-.837-.89-.837-.471 0-.837.418-.837.89m8.846-.367c0 .262.261.472.523.472.314 0 .524-.21.524-.472 0-.261-.262-.471-.524-.471-.314 0-.523.21-.523.471m77.992.629c0 .47.419.837.89.837.47 0 .837-.419.837-.89 0-.47-.366-.837-.89-.837-.47 0-.837.418-.837.89m-53.548-.262c0 .262.21.47.524.47.314 0 .523-.208.523-.47s-.262-.472-.523-.472c-.314 0-.524.21-.524.472m-11.568.576c0 .47.419.837.89.837.471 0 .838-.42.838-.89 0-.47-.42-.837-.89-.837-.471 0-.838.419-.838.89m8.794-.367c0 .261.262.471.523.471.314 0 .524-.21.524-.47 0-.263-.21-.472-.524-.472-.314 0-.523.209-.523.471m50.668.261c0 .316.262.524.524.472.314 0 .524-.21.524-.472 0-.26-.262-.47-.524-.47-.314 0-.524.21-.524.47m-38.995.158c0 .262.261.471.523.471.314 0 .523-.21.523-.471 0-.262-.261-.471-.523-.471-.314 0-.523.21-.523.471m36.221.052c0 .262.262.472.524.472.314 0 .523-.21.523-.472.053-.261-.209-.47-.523-.47-.314 0-.524.209-.524.47m-75.113.157c0 .053 0 .053.053.105h-.053c-.314 0-.523.21-.523.471 0 .262.261.47.523.47.314 0 .524-.208.524-.47 0-.053 0-.053-.053-.105h.053c.314 0 .523-.209.523-.47 0-.262-.262-.472-.523-.472-.314 0-.524.21-.524.471m42.399.21c0 .261.261.47.523.47.314 0 .524-.209.524-.47s-.262-.471-.524-.471c-.314 0-.523.21-.523.47m44.387.053c0 .261.262.471.523.471.315 0 .524-.21.524-.47.052-.263-.21-.472-.524-.472-.313 0-.523.21-.523.471m-65.115.314c0 .262.261.47.523.47.314 0 .523-.208.523-.47 0-.261-.209-.471-.523-.471-.314 0-.523.21-.523.471m32.767.314c0 .262.261.472.523.472.314 0 .524-.21.524-.472.052-.262-.21-.47-.524-.47-.314 0-.523.208-.523.47m28.056.157c0 .262.262.471.524.471.261 0 .523-.21.523-.471s-.262-.47-.523-.47c-.315 0-.524.209-.524.47m-12.929 0c0 .262.262.471.523.471.315 0 .524-.21.524-.471.052-.261-.21-.47-.524-.47-.314 0-.523.209-.523.47m-22.246 0c0 .262.262.471.523.471.315 0 .524-.21.524-.471s-.209-.47-.524-.47c-.314 0-.523.209-.523.47m-36.902.785c0 .629.523 1.152 1.151 1.1.628 0 1.152-.524 1.1-1.152 0-.628-.524-1.1-1.152-1.1-.628 0-1.152.524-1.1 1.152m36.85.314c0 .262.262.472.524.472.314 0 .523-.21.523-.472 0-.261-.261-.47-.523-.47-.314 0-.523.209-.523.47m-38.892.262c0 .262.262.47.524.47.314 0 .523-.208.523-.47s-.262-.47-.523-.47c-.314 0-.576.208-.524.47m-11.515-.314c-.367.21-.524.733-.314 1.204.209.471.68.68 1.099.471.418-.21.523-.733.314-1.204-.155-.347-.451-.552-.764-.552a.75.75 0 00-.335.081m9.736.471c0 .262.261.47.523.47.314 0 .524-.208.524-.47 0-.261-.21-.47-.524-.47-.314 0-.523.209-.523.47m78.986.262c0 .262.262.471.524.471.314 0 .523-.21.523-.471 0-.262-.262-.471-.523-.471-.314 0-.524.21-.524.47m-40.775-.26c-.367.209-.524.732-.315 1.203.21.471.68.68 1.1.471.366-.21.523-.733.313-1.204-.154-.347-.45-.552-.763-.552a.746.746 0 00-.335.081m-14.761.419c0 .262.261.471.523.471.314 0 .523-.21.523-.471 0-.262-.261-.472-.523-.472-.314 0-.523.21-.523.472m11.253.262c0 .261.262.471.524.471.314 0 .523-.21.523-.471.053-.262-.21-.471-.523-.471-.314 0-.524.209-.524.47m-5.13.42c0 .47.42.837.89.837.472 0 .838-.419.838-.89 0-.471-.419-.837-.89-.837-.47 0-.837.419-.837.89m41.77-.21c0 .262.262.471.523.471.315 0 .524-.209.524-.471.052-.261-.21-.471-.524-.471-.314 0-.523.21-.523.471m-75.531.052c0 .262.26.471.523.471.313 0 .523-.209.523-.47 0-.262-.21-.472-.523-.472-.315 0-.523.21-.523.471m1.517.157c0 .262.262.471.523.471.315 0 .524-.209.524-.47 0-.263-.262-.471-.524-.471-.314 0-.523.208-.523.47m85.32.105c0 .262.262.471.524.471.314 0 .523-.21.523-.47 0-.263-.262-.472-.523-.472-.314 0-.524.21-.524.471m-88.095.052c0 .262.262.472.524.472.314 0 .524-.21.524-.472 0-.261-.21-.47-.524-.47-.314 0-.524.209-.524.47M0 16.018c0 .47.419.837.89.837.47 0 .837-.367.837-.89 0-.47-.366-.838-.89-.838-.47 0-.837.42-.837.89m59.515-.104c-.053.261.21.47.524.47.313 0 .523-.209.523-.47 0-.262-.262-.472-.523-.472-.315 0-.524.21-.524.471m-2.774.158c0 .261.261.47.523.47.314 0 .523-.209.523-.47 0-.262-.261-.472-.523-.472-.314 0-.523.21-.523.472m-8.794.418c0 .471.419.838.89.838.47 0 .837-.419.837-.89-.052-.471-.419-.838-.89-.838-.471 0-.837.42-.837.89m-25.544-.261c0 .261.262.47.523.47.315 0 .524-.209.524-.47 0-.262-.21-.472-.524-.472-.313 0-.523.21-.523.472m57.264.104c0 .262.262.472.524.472.314 0 .524-.21.524-.472 0-.261-.21-.47-.524-.47-.314 0-.524.209-.524.47m-9.317.367c0 .261.262.47.523.47.314 0 .523-.209.523-.47 0-.262-.26-.471-.523-.471-.314 0-.523.21-.523.47m-67.105.106c0 .261.263.47.524.47h.052c0 .262.261.472.524.472.314 0 .523-.21.523-.472s-.262-.47-.523-.47h-.053c.053-.262-.21-.472-.523-.472-.314 0-.524.21-.524.472m47.947.523c0 .261.262.47.524.47.314 0 .523-.209.523-.47 0-.262-.262-.471-.523-.471-.314 0-.524.21-.524.471m39.468.209c0 .262.261.471.523.471.314 0 .523-.21.523-.471 0-.262-.21-.47-.523-.47-.314 0-.523.208-.523.47m-40.724 1.518c0 .262.262.47.523.47.314 0 .524-.208.524-.47.052-.261-.21-.471-.524-.471-.314 0-.523.21-.523.471m-38.106-.21c-.053-.051-.157-.051-.262-.051-.314 0-.523.208-.523.47s.261.472.523.472c.157 0 .262-.052.314-.105.052.053.157.053.262.053.314 0 .523-.21.523-.472s-.21-.47-.523-.47c-.157 0-.262.052-.314.104m3.56.994c0 .47.418.838.889.838.471 0 .838-.367.838-.89-.053-.471-.42-.838-.89-.838-.472 0-.838.419-.838.89m82.494-.314c0 .262.262.471.523.471.314 0 .524-.21.524-.471 0-.262-.262-.47-.524-.47-.314 0-.523.209-.523.47m-38.316.158c0 .261.262.47.523.47.315 0 .524-.209.524-.47 0-.262-.262-.472-.524-.472-.313 0-.523.21-.523.472m-53.862.575a.399.399 0 00-.104.262c0 .261.262.47.523.47a.564.564 0 00.524-.418.4.4 0 00.104-.262c0-.261-.261-.47-.523-.47a.564.564 0 00-.524.418m2.67.105c0 .261.262.47.523.47.315 0 .524-.209.524-.47 0-.262-.262-.472-.524-.472-.314 0-.523.21-.523.472m10.26.314c0 .262.261.471.523.471.314 0 .523-.21.523-.471 0-.262-.261-.47-.523-.47-.314 0-.524.208-.524.47m-15.546.156c0 .315.524.577 1.1.577.575 0 1.046-.262 1.046-.577 0-.366-.523-.575-1.099-.575s-1.047.262-1.047.575M53.6 20.78c0 .262.262.472.523.472.315 0 .524-.21.524-.472 0-.261-.21-.471-.524-.471-.314 0-.523.21-.523.471"/><path id="sm-rus.ru-d" d="M33.238.419c-.314 0-.523.21-.523.47 0 .263.262.472.523.472.262 0 .524-.21.524-.471 0-.262-.262-.471-.524-.471zm-22.35.837c0 .262.209.471.523.471.314 0 .523-.209.523-.47 0-.262-.261-.472-.523-.472-.314 0-.524.21-.524.471zm-1.833.471c0 .262.262.471.524.471.314 0 .523-.21.523-.47 0-.262-.261-.472-.523-.472-.314 0-.524.21-.524.471zm6.23.89c-.053.262.209.471.523.471.314 0 .523-.21.523-.47 0-.263-.261-.472-.523-.472-.314 0-.524.21-.524.471zm-12.144.21c-.053.261.209.47.523.47.314 0 .523-.209.523-.47 0-.262-.261-.472-.523-.472-.314 0-.523.21-.523.472zm23.607.89c0 .47.418.837.89.837.47 0 .836-.419.836-.89 0-.47-.418-.837-.889-.837-.471 0-.837.418-.837.89zM11.516 3.35c0 .262.261.471.628.471.313 0 .576-.21.576-.471 0-.262-.263-.471-.629-.471-.314 0-.575.21-.575.471zm26.224.052c0 .262.262.523.523.471.314 0 .524-.209.524-.471 0-.261-.262-.47-.524-.47-.314 0-.523.209-.523.47zm-15.075.367c-.052.261.21.471.523.471.314 0 .524-.21.524-.471 0-.262-.262-.471-.524-.471-.314 0-.523.209-.523.47zm-5.6 0c0 .261.26.471.522.471.315 0 .524-.21.524-.471 0-.262-.21-.471-.524-.471-.314 0-.523.209-.523.47zm24.339.418c0 .262.262.472.523.472.314 0 .524-.21.524-.471 0-.263-.21-.471-.524-.471-.314 0-.523.208-.523.47zm-38.892.21c0 .262.262.47.523.47.315 0 .524-.208.524-.47s-.261-.472-.524-.472c-.313 0-.522.21-.522.472zm11.202.105c0 .261.262.47.524.47.314 0 .523-.209.523-.47 0-.262-.262-.472-.523-.472-.315 0-.524.21-.524.472zm23.712 1.151c0 .471.419.838.89.838.47 0 .837-.419.837-.89 0-.471-.419-.838-.89-.838-.47 0-.837.42-.837.89zM11.202 5.34c-.367.21-.524.733-.315 1.204.105.262.315.419.576.523 0 .262.262.472.523.472.315 0 .524-.21.524-.472a.441.441 0 00-.21-.367c.157-.26.157-.575 0-.889-.154-.347-.45-.552-.763-.552a.75.75 0 00-.335.081zm23.711.575c0 .263.262.472.524.472.314 0 .524-.21.524-.472 0-.26-.263-.47-.524-.47-.314 0-.524.21-.524.47zm5.34.472c0 .262.261.471.523.471.21 0 .419-.158.47-.314.053.21.263.419.524.419.314 0 .524-.21.524-.471 0-.262-.21-.471-.524-.471-.21 0-.418.157-.47.314-.054-.21-.262-.42-.524-.42-.314 0-.524.21-.524.472zm-24.131.262c0 .261.262.47.523.47.314 0 .523-.209.523-.47 0-.262-.261-.471-.523-.471-.314 0-.575.209-.523.47zm.157.942c0 .262.262.47.523.47.315 0 .524-.208.524-.47s-.262-.471-.524-.471c-.314 0-.523.21-.523.47zm17.378-.419c-.314 0-.523.21-.523.471 0 .262.261.47.523.47.314 0 .523-.208.523-.47 0-.281-.168-.479-.43-.479a.592.592 0 00-.093.008zm8.794.942c0 .262.261.471.523.471.306 0 .513-.198.524-.45v-.042c-.011-.251-.218-.45-.524-.45-.314 0-.523.21-.523.47zm-40.985.785c0 .262.261.472.523.472s.524-.21.524-.472-.262-.47-.524-.47c-.314 0-.523.208-.523.47zm17.22.157c-.052.262.21.472.524.472.314 0 .524-.21.524-.472 0-.261-.262-.47-.524-.47-.314 0-.523.209-.523.47zm21.671.523c0 .263.262.472.523.472.315 0 .524-.21.524-.472 0-.26-.262-.47-.524-.47-.314 0-.523.21-.523.47zm-38.944.263c0 .26.262.47.524.47.314 0 .524-.21.524-.47.052-.263-.21-.471-.524-.471-.314 0-.524.208-.524.47zm14.552.26c0 .263.262.472.523.472.314 0 .524-.209.524-.471 0-.261-.21-.47-.524-.47-.314 0-.523.209-.523.47zm7.328-.26c-.366.209-.523.732-.314 1.204.21.47.68.68 1.1.47.366-.208.523-.732.313-1.203-.193-.348-.5-.553-.794-.553a.612.612 0 00-.305.082zm-18.896.837c0 .471.42.838.89.838.47 0 .837-.42.837-.89 0-.471-.419-.838-.89-.838-.47 0-.837.419-.837.89zm8.794-.366c0 .261.261.471.523.471.314 0 .524-.21.524-.471.052-.262-.21-.471-.524-.471-.314 0-.523.209-.523.47zm24.496.366c-.052.262.21.471.524.471.314 0 .523-.21.523-.47 0-.263-.261-.472-.523-.472-.314 0-.523.21-.523.471zm-2.774.157c0 .262.262.472.524.472.314 0 .524-.21.524-.472s-.263-.47-.524-.47c-.314 0-.524.208-.524.47zm-8.794.419c0 .471.42.837.89.837.471 0 .838-.418.838-.89-.052-.47-.419-.837-.89-.837-.471 0-.838.42-.838.89zm-18.424.262c0 .052 0 .052.051.104h-.05c-.316 0-.524.21-.524.471 0 .262.26.472.523.472.314 0 .523-.21.523-.472 0-.052 0-.052-.052-.104h.052c.262 0 .523-.21.523-.471 0-.262-.261-.471-.523-.471-.314 0-.523.209-.523.47zm21.67.575c0 .262.262.472.523.472.314 0 .524-.21.524-.472 0-.261-.262-.47-.524-.47-.314 0-.523.209-.523.47zM18.11 13.347c0 .629.523 1.152 1.151 1.1.629 0 1.152-.524 1.1-1.152 0-.628-.524-1.099-1.152-1.099-.628 0-1.151.524-1.1 1.151zm-2.094.576c0 .262.262.472.524.472.314 0 .523-.21.523-.472 0-.26-.262-.47-.523-.47-.262 0-.524.21-.524.47zM4.554 13.61c-.367.21-.524.733-.314 1.204.21.471.68.681 1.1.471.365-.209.522-.785.313-1.204-.154-.347-.45-.552-.764-.552a.75.75 0 00-.335.081zm9.736.471c0 .262.262.472.523.472.314 0 .523-.21.523-.472 0-.261-.209-.47-.523-.47-.314 0-.523.209-.523.47zm23.45.367c0 .262.262.471.523.471.314 0 .524-.21.524-.471 0-.262-.262-.471-.524-.471-.314 0-.523.21-.523.47zm-27.638.576c0 .261.262.471.523.471.315 0 .524-.21.524-.471 0-.262-.261-.471-.524-.471-.313 0-.523.209-.523.47zm1.466.104c0 .262.262.471.523.471.315 0 .524-.209.524-.47.052-.262-.209-.472-.524-.472-.314 0-.523.21-.523.471zm-11.516.576c0 .471.42.838.89.838.471 0 .838-.367.838-.89 0-.472-.42-.838-.89-.838-.471 0-.838.419-.838.89zm8.794-.367c0 .262.262.472.524.472.314 0 .523-.21.523-.472 0-.261-.262-.47-.523-.47-.315 0-.524.209-.524.47zm13.61.576c0 .262.261.472.523.472.314 0 .523-.21.523-.472 0-.261-.261-.47-.523-.47-.314 0-.524.209-.524.47zm-19.158.629c0 .261.26.47.523.47h.052c0 .262.262.472.524.472.314 0 .523-.21.523-.471 0-.262-.261-.471-.523-.471h-.052c0-.262-.21-.471-.524-.471-.314 0-.523.209-.523.47zm8.585 2.041c-.053-.052-.158-.052-.263-.052-.314 0-.523.21-.523.47 0 .262.262.472.523.472.157 0 .263-.052.314-.105.052.053.157.053.262.053.314 0 .524-.21.524-.472 0-.261-.263-.471-.524-.471-.157 0-.262.053-.313.105zm3.506.995c0 .47.419.837.89.837.471 0 .838-.367.838-.89 0-.47-.367-.837-.89-.837-.472 0-.838.418-.838.89zm-9.684.418a.399.399 0 00-.104.262c0 .262.261.472.523.472s.471-.21.524-.42a.4.4 0 00.104-.262c.053-.261-.209-.47-.523-.47a.564.564 0 00-.524.418zm2.67.105c0 .262.262.471.523.471.315 0 .524-.21.524-.471.052-.262-.21-.471-.524-.471-.314 0-.523.21-.523.471zm10.783-.157c-.314 0-.524.21-.524.47 0 .263.262.472.524.472.314 0 .523-.21.523-.471.047-.282-.158-.479-.427-.479a.61.61 0 00-.096.008zm-16.017.576c0 .313.523.576 1.099.576s1.047-.263 1.047-.576c-.053-.314-.524-.576-1.1-.576-.575 0-1.046.262-1.046.576z"/><path id="sm-rus.ru-g" d="M5.758.366c.576 1.832 1.727 2.827 2.931 3.77-.105.313-.733.156-.994.104.104.47.628.576.732.994-.366.157-.785-.157-1.099-.314.157.524.471 1.047.838 1.466 0 0 1.256 1.256 2.512 1.78.052.052.157.052.21.104.052 0 .157.053.209.053.157.104.21.157.262.157-.21.523-1.257.418-1.728.21 0 .365.367.365.314.732-.366.105-.68-.105-.994-.21.366 1.675 2.094 2.147 3.454 2.88-.261.575-1.308.523-1.884.261-.157.367.157.576.157.942-.576.105-.89-.261-1.204-.523-.04.08-.072.165-.102.251l-.044.13c-.11.32-.228.613-.639.613-.157-.157-.262-.366-.471-.523-.157.052 0 .366-.157.419-.576.104-.576-.367-.995-.471-.157.523.157.942.157 1.465-.314.314-1.203 0-1.675.053-.314-.367.053-.89 0-1.518-.68.314-1.099.785-1.832.994 0-.366.42-.576.471-1.047-.47.105-.942.68-1.57.576.105-.262.367-.314.419-.628-.785.262-1.727.105-2.931-.052 1.57-.733 2.722-1.518 3.35-3.455-.367 0-.838.419-1.309.314.21-.471.785-.576.89-1.152-.262 0-1.047.262-1.466 0 1.1-.941 2.2-1.989 2.775-3.507-.315-.052-.943.262-1.257.053.157-.367.628-.314.733-.68-.366-.053-.733-.105-1.047-.315"/><path id="sm-rus.ru-j" d="M6.857.419c.68 2.146 2.041 3.35 3.455 4.449-.105.314-.838.157-1.152.105.157.523.733.628.89 1.151-.419.21-.942-.21-1.309-.366.21.68.524 1.256.995 1.78 0 0 1.466 1.465 2.931 2.093.105.053.157.053.262.105.105.052.157.105.262.105.104.052.209.104.261.157-.209.628-1.413.523-1.989.261 0 .367.419.42.367.838-.471.105-.838-.157-1.204-.262.47 1.937 2.46 2.565 4.03 3.35-.314.68-1.518.576-2.198.314-.105.236-.04.419.046.596l.065.132c.064.132.118.267.098.424-.68.21-1.047-.314-1.413-.576-.262.523-.262 1.204-.942 1.204-.21-.21-.367-.471-.576-.628-.097 0-.115.089-.123.19l-.006.103c-.006.083-.02.158-.08.178-.733.105-.68-.471-1.204-.576-.112.335-.06.64.013.94l.056.223c.047.186.088.373.088.564-.42.367-1.414 0-1.99.053-.366-.419.158-1.047.053-1.78-.733.367-1.256.995-2.146 1.204 0-.419.471-.733.523-1.256-.523.104-1.099.785-1.832.68.105-.366.419-.419.471-.785-.89.314-2.041.157-3.454-.052 1.884-.89 3.245-1.78 3.978-4.083-.419 0-.995.523-1.57.366.314-.523.942-.68 1.099-1.36-.314.052-1.257.366-1.728.052 1.361-1.1 2.618-2.356 3.298-4.135-.314-.053-1.1.314-1.466.052.157-.419.733-.314.838-.785-.419-.053-.838-.105-1.204-.367"/><path id="sm-rus.ru-m" d="M5.758.314C6.28 1.99 7.38 2.984 8.48 3.821c-.105.21-.68.105-.943.052.105.42.576.472.681.89-.366.157-.785-.104-1.047-.261.157.523.419.942.785 1.36 0 0 1.152 1.1 2.303 1.623.053.052.157.052.21.105.104 0 .157.052.21.052l.125.063.06.03.023.012c-.157.523-1.151.419-1.57.21 0 .313.314.313.262.68-.367.104-.68-.105-.942-.21.263 1.129 1.148 1.69 2.111 2.169l.253.123.254.122c.212.1.423.202.627.308-.262.576-1.204.471-1.727.262-.157.366.157.576.157.89-.576.104-.89-.262-1.152-.471-.21.366-.21.942-.733.942-.157-.157-.209-.367-.418-.471-.157 0 0 .314-.157.366-.576.053-.524-.419-.943-.47-.104.47.157.889.157 1.36-.314.314-1.151 0-1.57.052-.314-.366.052-.837 0-1.413-.576.314-.994.785-1.675.942 0-.366.366-.575.419-.994-.367.104-.838.628-1.413.523.052-.21.314-.314.366-.576-.733.21-1.623.105-2.722-.052 1.466-.68 2.565-1.413 3.14-3.193-.366 0-.837.419-1.256.314.21-.47.733-.576.838-1.1-.262 0-.995.263-1.361 0 1.047-.889 2.041-1.831 2.565-3.244-.262 0-.89.261-1.152.052.105-.314.576-.262.68-.628-.313-.053-.627-.053-.941-.262"/><path id="sm-rus.ru-p" d="M5.705 0c.524 1.675 1.623 2.67 2.722 3.507-.104.21-.68.105-.942.052.105.42.576.471.68.89-.366.157-.785-.104-1.046-.261.157.523.418.942.785 1.36 0 0 1.151 1.1 2.303 1.623.052.052.157.052.21.105.104 0 .156.052.209.052l.126.063.06.03.023.012c-.157.523-1.151.419-1.57.21 0 .313.314.313.262.68-.367.104-.68-.105-.943-.21.287 1.186 1.308 1.733 2.365 2.265l.254.128c.211.107.422.215.627.33-.262.575-1.204.47-1.728.26-.157.367.157.577.157.89-.575.105-.89-.261-1.151-.47-.21.366-.21.942-.733.942-.157-.157-.21-.367-.419-.471-.157 0 0 .314-.157.366-.576.052-.523-.419-.942-.471-.105.471.157.89.157 1.361-.314.314-1.152 0-1.57.052-.314-.366.052-.837 0-1.413-.576.314-.995.785-1.675.942 0-.366.366-.576.418-.994-.366.104-.837.628-1.413.523.053-.21.314-.314.367-.576-.733.21-1.623.105-2.722-.052 1.465-.68 2.565-1.413 3.14-3.193-.366 0-.837.419-1.256.314.21-.471.733-.576.838-1.1-.262 0-.995.263-1.361 0 1.047-.889 2.041-1.831 2.565-3.244-.262 0-.89.261-1.152.052.105-.314.576-.262.68-.628-.314-.053-.628-.053-.942-.262"/><path id="sm-rus.ru-s" d="M6.648.419c.314 1.675 1.204 2.67 2.146 3.611-.157.21-.68 0-.89-.052.052.419.471.524.523.942-.366.105-.68-.21-.942-.366.105.523.314.994.576 1.413 0 0 .942 1.152 1.989 1.78.052.052.105.052.157.105.052.052.105.104.157.104.065.033.13.086.17.121l.035.032.004.004c-.261.471-1.151.262-1.518 0 0 .314.262.367.21.68-.367.053-.628-.209-.89-.313.21 1.465 1.623 2.093 2.67 2.983-.315.471-1.204.262-1.675 0-.079.157-.053.288-.014.419l.04.132a.633.633 0 01.026.287c-.524.052-.733-.314-.995-.576-.209.314-.314.838-.785.785-.157-.157-.21-.366-.366-.523-.157 0-.053.314-.21.314-.575.052-.47-.419-.837-.524-.21.471 0 .89-.052 1.309-.314.21-1.047-.157-1.466-.157-.21-.367.21-.733.21-1.309-.576.21-.995.576-1.676.68.053-.313.471-.47.524-.89-.367 0-.89.472-1.414.315.105-.21.315-.262.42-.523-.734.157-1.519-.053-2.566-.367 1.466-.523 2.513-1.047 3.298-2.67-.314-.052-.785.315-1.204.158.262-.367.785-.42.942-.89-.21 0-.942.104-1.256-.157 1.1-.733 2.146-1.518 2.827-2.774-.262-.053-.89.104-1.1-.105.157-.314.629-.21.733-.524a1.958 1.958 0 01-.837-.366"/><path id="sm-rus.ru-v" d="M2.513 3.193c.261.157.522.21.837.262-.105.314-.471.261-.628.523.121.092.368.059.594.026.162-.024.313-.047.4-.026-.523 1.204-1.413 2.042-2.355 2.775.314.208.994.052 1.152 0-.105.47-.576.523-.786.942.195.056.403-.021.603-.098.178-.068.348-.136.497-.112C2.25 9.055 1.309 9.63 0 10.207c.995.157 1.727.315 2.408.105-.053.21-.262.313-.314.523.47.105.941-.366 1.256-.419-.052.367-.366.576-.419.838.628-.157.995-.524 1.518-.785.053.523-.314.942-.052 1.256.142-.02.34.015.545.05.32.055.656.11.816-.05 0-.419-.21-.785-.105-1.203.367.051.314.47.838.418.104-.053.052-.315.157-.315.157.105.209.315.366.42.471 0 .471-.472.681-.786.261.21.523.524.994.42.052-.315-.262-.472-.105-.786.471.21 1.309.314 1.518-.157-1.099-.68-2.46-1.152-2.774-2.513.262.105.524.262.838.21.052-.314-.21-.314-.21-.576.367.21 1.204.314 1.414-.157l-.21-.105c-.052 0-.105-.052-.157-.052-.052-.052-.105-.052-.157-.052-.994-.471-1.989-1.466-1.989-1.466a2.966 2.966 0 01-.628-1.204c.21.105.576.419.89.261-.105-.366-.524-.418-.576-.837.21.053.733.157.785-.052-.942-.785-1.884-1.623-2.303-3.14 0 0-.419 2.302-2.513 3.14"/><path id="sm-rus.ru-y" d="M4.71.262c.734 1.78 1.938 2.722 3.246 3.56-.104.26-.733.156-.994.156.157.471.68.524.837.942-.366.21-.837-.104-1.151-.21.209.524.523.995.942 1.414 0 0 1.36 1.1 2.67 1.57.052 0 .156.053.209.053.052 0 .157.052.21.052.156.053.208.105.26.105-.156.576-1.203.576-1.674.366.052.314.366.314.366.68-.366.158-.733-.052-1.047-.104.576 1.675 2.303 2.041 3.612 2.617-.21.628-1.204.628-1.832.419-.105.366.262.576.262.942-.576.157-.942-.21-1.256-.419-.03.08-.053.166-.073.252l-.03.13c-.076.324-.167.628-.578.665-.21-.104-.314-.366-.523-.47-.157.052 0 .366-.157.418-.576.157-.629-.366-1.047-.419-.105.576.21.942.261 1.466-.314.366-1.203.105-1.675.21-.366-.367.053-.89-.104-1.519-.628.367-.995.89-1.728 1.152-.052-.367.367-.628.367-1.1-.419.105-.89.733-1.518.681.105-.262.314-.366.366-.68-.733.366-1.727.314-2.931.209 1.518-.838 2.617-1.727 3.088-3.716-.366 0-.837.523-1.308.418.21-.523.733-.68.837-1.256-.262.052-1.047.367-1.465.157 1.046-1.047 2.041-2.198 2.512-3.769-.314 0-.942.367-1.256.157.105-.366.628-.314.68-.732-.366 0-.733 0-1.047-.21C4.188 3.307 4.621.97 4.697.392L4.704.33"/><path id="sm-rus.ru-B" d="M5.862.419C6.438 2.25 7.59 3.245 8.794 4.187c-.105.315-.733.158-.995.105.105.471.628.576.733.995-.366.157-.785-.157-1.1-.314.158.523.472 1.047.838 1.465 0 0 1.257 1.257 2.513 1.78.052.052.157.052.21.105.052 0 .156.052.209.052.157.105.209.157.261.157-.21.523-1.256.419-1.727.21 0 .366.366.366.314.732-.366.105-.68-.104-.995-.21.367 1.676 2.042 2.147 3.455 2.88-.262.576-1.308.523-1.884.261-.157.367.157.576.157.943-.576.104-.89-.262-1.204-.524-.04.08-.072.165-.102.252l-.045.129c-.11.32-.227.614-.638.614-.157-.157-.262-.367-.471-.524-.157.053 0 .367-.157.42-.576.104-.576-.367-.995-.472-.157.523.157.942.157 1.466-.314.314-1.204 0-1.675.052-.314-.366.052-.89 0-1.518-.68.314-1.1.785-1.832.995 0-.367.419-.576.471-1.047-.47.104-.942.68-1.57.575.105-.261.366-.314.419-.628-.786.262-1.728.105-2.932-.052 1.57-.733 2.722-1.518 3.35-3.455-.366 0-.837.419-1.308.314.21-.47.785-.575.89-1.151-.262 0-1.047.261-1.466 0 1.1-.942 2.198-1.99 2.774-3.507-.314-.053-.942.261-1.256.052.157-.366.628-.314.733-.68-.367-.053-.733-.105-1.047-.314"/><path id="sm-rus.ru-E" d="M8.166.419c.837 2.565 2.407 4.03 4.135 5.339-.157.366-1.047.157-1.414.104.158.629.89.733 1.047 1.361-.523.262-1.151-.209-1.57-.418.262.785.68 1.465 1.204 2.093l.01.01.118.107.08.072c.52.46 1.936 1.647 3.351 2.272.105 0 .21.052.314.104.105.053.21.053.314.105.157.105.262.157.315.21-.262.784-1.728.627-2.408.313 0 .472.47.472.418.995-.575.157-1.046-.21-1.465-.314.415 1.698 1.782 2.553 3.22 3.29l.278.141c.465.234.932.46 1.37.704-.367.838-1.78.68-2.617.366-.262.524.261.838.209 1.361-.837.157-1.309-.418-1.727-.732-.262.575-.314 1.413-1.1 1.413-.261-.21-.418-.524-.68-.733-.21.052-.052.523-.262.576-.837.157-.785-.576-1.413-.68-.21.732.21 1.308.21 2.04-.524.42-1.728-.052-2.408.053-.42-.523.157-1.256.052-2.146-.89.419-1.518 1.152-2.565 1.413 0-.47.576-.837.628-1.465-.628.104-1.36.942-2.198.785.157-.367.47-.471.575-.89-1.099.366-2.407.21-4.135-.052 2.251-1.047 3.874-2.146 4.764-4.868-.524 0-1.204.628-1.885.47.367-.627 1.152-.784 1.309-1.622-.367.052-1.466.419-2.042.052 1.57-1.36 3.089-2.878 3.926-4.972-.366-.053-1.308.366-1.727.052.21-.471.89-.419 1.047-.942-.524-.052-1.047-.105-1.466-.419"/><path id="sm-rus.ru-H" d="M5.34.366c.522 1.675 1.622 2.67 2.72 3.507-.104.21-.68.105-.941.053.104.419.576.47.68.89-.366.157-.785-.105-1.047-.262.157.523.42.942.785 1.36 0 0 1.152 1.1 2.304 1.623.052.053.157.053.209.105.105 0 .157.053.21.053l.126.063.06.03.023.011c-.157.524-1.152.419-1.57.21 0 .314.314.314.261.68-.366.105-.68-.105-.942-.21.286 1.227 1.307 1.783 2.364 2.292l.254.122c.212.101.423.202.627.309-.261.575-1.204.47-1.727.261-.157.367.157.576.157.89-.576.105-.89-.262-1.152-.471-.209.366-.209.942-.732.942-.157-.157-.21-.366-.42-.47-.156 0 0 .313-.156.366-.576.052-.524-.42-.942-.472-.105.472.157.89.157 1.361-.314.314-1.152 0-1.57.053-.315-.367.052-.838 0-1.414-.576.315-.995.786-1.676.943 0-.367.367-.576.42-.995-.367.105-.838.628-1.414.524.052-.21.314-.315.366-.576-.733.21-1.622.104-2.722-.053 1.466-.68 2.565-1.413 3.141-3.193-.366 0-.838.42-1.256.315.21-.472.733-.576.837-1.1-.261 0-.994.262-1.36 0 1.046-.89 2.04-1.832 2.564-3.245-.262 0-.89.262-1.151.052.104-.314.575-.261.68-.628-.314-.052-.628-.052-.942-.262"/><path id="sm-rus.ru-K" d="M5.287.052c.523 1.675 1.622 2.67 2.722 3.507-.105.21-.68.105-.943.053.105.418.576.47.68.89-.366.157-.784-.105-1.046-.262.157.523.419.942.785 1.36 0 0 1.152 1.1 2.303 1.623.053.053.157.053.21.105.104 0 .157.052.209.052l.126.064.06.03.023.011c-.157.524-1.151.419-1.57.21 0 .314.314.314.262.68-.367.105-.68-.105-.942-.21.366 1.57 1.936 1.99 3.245 2.723-.262.575-1.204.47-1.727.261-.157.367.157.576.157.89-.576.105-.89-.262-1.152-.471-.21.366-.21.942-.733.942-.157-.157-.21-.366-.419-.47-.157 0 0 .313-.157.365-.575.053-.523-.418-.942-.47-.104.47.157.89.157 1.36-.314.314-1.151 0-1.57.053-.314-.367.052-.838 0-1.414-.576.314-.995.786-1.675.943 0-.367.366-.576.419-.995-.367.105-.838.628-1.414.523.053-.209.315-.314.367-.575-.733.21-1.623.104-2.722-.053 1.466-.68 2.565-1.413 3.14-3.193-.366 0-.837.42-1.256.314.21-.47.733-.575.838-1.099-.262 0-.995.262-1.361 0 1.047-.89 2.041-1.832 2.565-3.245-.262 0-.89.262-1.152.052.105-.314.576-.261.68-.628-.313-.052-.627-.052-.942-.262"/><path id="sm-rus.ru-N" d="M6.752.471c.314 1.675 1.204 2.67 2.146 3.612-.157.21-.68 0-.89-.053.053.42.472.524.524.943-.366.104-.68-.21-.942-.367.105.524.314.995.576 1.414 0 0 .942 1.151 1.989 1.78.052.052.104.052.157.104.052.052.104.105.157.105.065.032.13.085.17.12l.034.032.005.005c-.262.47-1.151.261-1.518 0 0 .314.262.366.21.68-.367.052-.629-.21-.89-.314.157 1.518 1.57 2.094 2.67 2.984-.315.47-1.205.261-1.676 0-.078.157-.052.288-.013.418l.04.132c.026.09.043.182.026.287-.524.052-.733-.314-.995-.576-.21.314-.314.838-.785.786-.157-.158-.21-.367-.367-.524-.157 0-.052.314-.209.314-.576.052-.471-.419-.837-.523-.21.47 0 .89-.053 1.308-.314.21-1.047-.157-1.465-.157-.21-.366.209-.733.209-1.308-.576.209-.995.575-1.675.68.052-.314.471-.471.523-.89-.366 0-.89.471-1.413.314.105-.209.314-.261.419-.523-.733.157-1.518-.052-2.565-.367 1.466-.523 2.513-1.046 3.298-2.669-.314-.052-.785.314-1.204.157.262-.366.785-.419.942-.89-.21 0-.942.105-1.256-.157C3.193 6.595 4.24 5.81 4.92 4.554c-.261-.052-.89.105-1.099-.105.157-.314.628-.21.733-.523a1.958 1.958 0 01-.838-.367"/><path id="sm-rus.ru-Q" d="M3.246 3.925c.313.21.68.263 1.046.315-.104.366-.628.314-.733.68.157.126.483.082.776.038.195-.029.375-.058.48-.038-.628 1.518-1.727 2.565-2.93 3.455.366.261 1.203.053 1.465 0-.157.576-.733.68-.942 1.152.257.085.53-.016.783-.117.212-.084.411-.169.578-.145-.68 1.937-1.885 2.669-3.507 3.402 1.203.21 2.146.367 2.984.105-.053.314-.315.367-.42.628.629.104 1.152-.42 1.57-.523-.051.47-.47.68-.47 1.046.733-.157 1.204-.68 1.884-.942.053.628-.366 1.152-.052 1.518.179-.02.42.021.668.062.404.066.833.133 1.06-.062 0-.523-.263-.942-.106-1.465.42.105.367.575.995.523.157-.053.052-.366.21-.418.209.156.261.365.47.523.576 0 .629-.576.837-.995.315.262.63.68 1.205.524.052-.367-.314-.576-.157-.995.576.261 1.623.367 1.884-.21-1.465-.68-3.14-1.256-3.507-2.983.314.105.628.367 1.047.262.052-.367-.262-.419-.262-.733.471.261 1.518.366 1.728-.157-.053 0-.105-.105-.262-.157a.397.397 0 01-.21-.105c-.052-.052-.156-.052-.209-.104-1.257-.576-2.46-1.832-2.46-1.832-.366-.471-.68-.943-.785-1.518.262.157.733.47 1.1.314-.106-.471-.629-.524-.734-.995.262.052.89.21.995-.053-1.204-.941-2.303-2.04-2.88-3.872 0 0-.522 2.878-3.14 3.872"/><path id="sm-rus.ru-T" d="M8.898.262c.157 1.989 1.1 3.35 2.147 4.554-.158.209-.786-.053-1.047-.157 0 .523.47.732.523 1.204-.419.052-.785-.367-1.047-.576.053.628.21 1.204.524 1.727l.01.015.032.045c.205.288 1.14 1.557 2.156 2.296.052.052.157.104.21.157a.4.4 0 01.209.104c.105.105.21.157.21.21-.367.523-1.414.157-1.833-.157-.052.314.262.418.157.785-.419 0-.68-.314-.994-.471.041 1.455 1.073 2.315 2.152 3.21l.24.2c.2.168.399.338.591.515-.418.524-1.413.21-1.989-.157-.261.367.053.68-.052 1.047-.628 0-.89-.47-1.152-.785a2.346 2.346 0 00-.174.238l-.081.124c-.19.289-.389.549-.792.476-.157-.21-.209-.471-.366-.628-.157 0-.105.366-.262.366-.68-.052-.523-.576-.942-.733-.262.471-.052.995-.157 1.518-.471.262-1.256-.262-1.78-.314-.261-.471.314-.89.367-1.57-.733.157-1.309.575-2.094.628.105-.367.576-.524.733-.995-.471 0-1.152.471-1.727.21.157-.262.418-.314.575-.576-.89.105-1.832-.21-3.036-.68 1.78-.42 3.141-.995 4.24-2.827-.419-.105-.994.21-1.465 0 .366-.419.942-.419 1.204-.995-.315 0-1.152.053-1.518-.314 1.36-.733 2.721-1.57 3.664-2.983-.314-.105-1.047 0-1.309-.262.08-.12.2-.172.328-.21l.156-.043c.157-.044.31-.101.406-.27-.367-.105-.733-.262-.995-.524"/><path id="sm-rus.ru-W" d="M2.722.471c.262.785.733 1.256 1.256 1.675-.052.105-.314 0-.419 0 .053.157.262.21.314.419-.157.052-.366-.105-.47-.157a2.8 2.8 0 00.366.68s.576.524 1.099.785c.052 0 .052.053.105.053.052.052.052.052.104.052a.15.15 0 01.083.034l.022.018c-.105.21-.523.157-.733.053 0 .157.105.157.105.314-.157.052-.262-.052-.419-.105.157.733.89.942 1.256 1.361-.157.262-.575.21-.837.105-.105.157.052.262.052.419-.261.104-.418-.105-.523-.21a.684.684 0 00-.06.121l-.035.086c-.049.113-.11.212-.272.212-.104-.052-.104-.157-.209-.21-.105 0-.052.158-.105.158-.261.052-.209-.157-.418-.21-.053.21.052.419.052.628-.157.105-.523 0-.733 0-.105-.209.105-.418.052-.68-.261.105-.47.366-.785.419 0-.157.21-.262.21-.471-.21 0-.42.261-.68.209 0-.105.104-.157.156-.262C.942 6.072.523 6.02 0 5.915c.68-.314 1.204-.628 1.518-1.466-.157-.052-.366.157-.576.105.105-.157.367-.21.419-.471-.105 0-.471.104-.628 0 .523-.419.994-.89 1.256-1.518-.105 0-.419.105-.523 0 .052-.105.261-.105.314-.262-.157-.052-.262-.052-.42-.157"/><path id="sm-rus.ru-Z" d="M2.617 3.245c.262.157.524.21.838.262-.105.314-.471.262-.628.523.122.092.369.06.595.026.161-.023.312-.047.4-.026-.524 1.204-1.414 2.042-2.356 2.775.313.21.994.053 1.151 0-.104.47-.576.523-.785.942.194.055.403-.022.602-.098.178-.068.35-.136.497-.112-.576 1.57-1.518 2.147-2.826 2.722.994.157 1.727.314 2.408.105-.053.21-.263.314-.314.523.47.105.942-.365 1.256-.418-.053.366-.367.576-.42.837.63-.157.996-.523 1.52-.784.05.523-.315.941-.053 1.255.141-.02.34.016.544.05.32.056.656.11.816-.05 0-.418-.209-.785-.104-1.204.366.053.314.472.837.42.105-.053.053-.315.157-.315.158.105.21.314.367.419.47 0 .47-.471.68-.785.262.21.524.523.995.418.052-.314-.262-.47-.105-.785.471.21 1.309.314 1.518-.157-1.152-.68-2.512-1.098-2.774-2.512.262.104.523.261.837.209.053-.314-.21-.314-.21-.576.367.21 1.205.314 1.414-.157l-.209-.104c-.053 0-.105-.053-.157-.053-.053-.053-.105-.053-.157-.053-.995-.47-1.99-1.465-1.99-1.465a2.971 2.971 0 01-.627-1.204c.209.106.576.42.89.262-.105-.366-.524-.419-.576-.838.209.053.732.158.785-.052C6.49 2.46 5.548 1.623 5.129.105c0 0-.418 2.303-2.512 3.14"/><path id="sm-rus.ru-ac" d="M2.094 2.355c.156.105.366.157.576.157-.053.21-.315.158-.42.366.088.059.24.036.385.014.115-.018.227-.036.296-.014-.366.838-.942 1.414-1.622 1.938.209.157.68.051.785 0-.105.314-.367.366-.524.628.262.052.524-.157.733-.157C1.937 6.334 1.256 6.752.366 7.17c.68.105 1.204.21 1.623.052-.052.158-.157.21-.21.366.315.053.629-.26.89-.26 0 .26-.261.366-.261.575.419-.105.68-.367 1.047-.523.052.366-.21.627-.053.837.262 0 .733.157.943 0 0-.262-.157-.523-.053-.785.262.052.21.314.576.314.105 0 0-.21.105-.21.104.052.156.21.261.315.314 0 .314-.315.471-.524.157.157.367.367.681.314 0-.21-.157-.314-.052-.523.314.157.89.21 1.046-.105-.837-.576-1.78-.89-1.989-1.832.157.052.367.21.576.157.053-.21-.157-.21-.157-.419.262.157.838.21.942-.104 0 0-.052-.053-.157-.053-.052 0-.052-.053-.105-.053-.052 0-.104-.051-.104-.051-.68-.315-1.361-.995-1.361-.995-.21-.262-.366-.523-.42-.837.158.104.42.261.63.157-.053-.262-.367-.314-.42-.576.158.052.472.104.576-.053-.68-.523-1.256-1.099-1.57-2.146 0 0-.314 1.571-1.727 2.146"/></defs><g fill="none" fill-rule="evenodd"><g transform="translate(0 7.628)"><mask id="sm-rus.ru-c" fill="#fff"><use xlink:href="#sm-rus.ru-a"/></mask><path fill="url(#sm-rus.ru-b)" d="M91.026.628c-.053.262.261.471.628.471.366 0 .628-.21.628-.47 0-.263-.262-.472-.628-.472-.367 0-.628.21-.628.471m-12.458.733c0 .471.419.837.89.837.47-.052.89-.418.837-.89 0-.47-.418-.837-.89-.837-.471 0-.837.419-.837.89m-45.905-.21c0 .262.261.472.523.472.314 0 .523-.21.523-.471 0-.262-.261-.472-.523-.472-.314 0-.523.21-.523.472m49.674.21c0 .26.261.47.523.47s.524-.21.524-.47c0-.263-.262-.472-.524-.472-.314 0-.523.21-.523.471m-71.502.157c0 .262.262.47.524.47.314 0 .523-.208.523-.47s-.262-.472-.523-.472c-.314 0-.524.21-.524.472m69.774.105c0 .261.262.47.524.47.262.053.523-.209.523-.47 0-.262-.261-.471-.523-.471-.315 0-.524.21-.524.47M9.003 1.99c0 .262.262.471.524.471.314 0 .524-.21.524-.471 0-.262-.21-.471-.524-.471-.314 0-.524.21-.524.47m47.947.472c-.052.262.21.471.523.471.315 0 .524-.21.524-.47 0-.263-.262-.472-.524-.472-.313 0-.523.21-.523.471m-41.718.418c0 .263.21.472.523.472.315 0 .524-.21.524-.472 0-.26-.262-.47-.524-.47-.314 0-.523.21-.523.47m67.785.315c0 .366.419.733.942.733.524 0 .995-.314.995-.68.052-.368-.419-.681-.942-.734-.524 0-.995.315-.995.681M52.71 3.035c0 .263.262.472.524.472.313 0 .523-.21.523-.472 0-.26-.262-.47-.523-.47-.314 0-.524.21-.524.47m-49.622.053c0 .262.21.471.524.471.314 0 .523-.209.523-.47 0-.262-.262-.472-.523-.472-.314 0-.524.21-.524.471m60.039.262c0 .262.261.47.523.47.314 0 .523-.208.523-.47s-.209-.472-.523-.472c-.314 0-.523.21-.523.472m-12.72 0c0 .262.261.47.576.47h.052c.105.158.314.263.471.21.314 0 .524-.21.524-.47 0-.262-.262-.472-.524-.472-.104-.157-.314-.21-.523-.21-.315 0-.576.21-.576.472m-23.712.628c0 .471.419.838.89.838.471 0 .838-.42.838-.89 0-.419-.367-.838-.89-.838-.47 0-.838.419-.838.89m-15.232-.366c0 .261.314.47.628.47.315 0 .576-.209.576-.47 0-.262-.261-.471-.628-.471-.314 0-.576.209-.576.47m26.277.106c-.053.261.21.47.523.47.314 0 .524-.209.524-.47 0-.262-.262-.472-.524-.472-.314 0-.523.21-.523.472m56.898.104c0 .262.261.471.628.471.314 0 .575-.21.575-.471 0-.262-.261-.471-.628-.471-.314 0-.575.21-.575.47m-8.114.524c0 .472.314.838.68.838.367 0 .629-.366.629-.838 0-.47-.314-.837-.68-.837-.367 0-.63.366-.63.837m-11.88.105c0 .471.418.838.889.838.472 0 .838-.42.838-.89 0-.419-.42-.838-.89-.838-.471 0-.838.42-.838.89m-52.03-.366c0 .261.21.47.524.47.314 0 .523-.209.523-.47 0-.262-.261-.471-.523-.471-.314 0-.523.209-.523.47m-5.601 0c0 .262.261.472.523.472.314 0 .524-.21.524-.471 0-.262-.21-.471-.524-.471-.314 0-.523.209-.523.47m24.34.367c0 .262.261.471.523.471.314 0 .523-.21.523-.47.053-.263-.209-.472-.523-.472-.314 0-.523.21-.523.471m29.155.105c0 .262.262.472.523.472.315 0 .524-.21.524-.472s-.21-.471-.524-.471c-.314 0-.523.21-.523.47m-67.995.158c0 .262.262.471.524.471s.523-.21.523-.471c0-.262-.261-.471-.523-.471-.314 0-.523.21-.523.47m11.201.053c-.052.263.21.47.524.47.314 0 .523-.207.523-.47 0-.261-.262-.47-.523-.47-.315 0-.524.209-.524.47m75.637-.052c-.314.156-.524.366-.524.628 0 .418.524.785 1.152.785.628 0 1.151-.261 1.151-.733 0-.365-.366-.68-.89-.785-.104-.104-.261-.21-.418-.21-.21 0-.419.106-.471.315M37.426 5.915c0 .47.419.837.89.837.47 0 .837-.418.837-.89-.052-.471-.419-.836-.89-.836-.47 0-.837.418-.837.889m40.776-.105c0 .262.26.471.523.471.314 0 .523-.209.523-.47 0-.262-.261-.472-.523-.472-.314 0-.523.21-.523.471M11.149 5.6c-.366.21-.524.734-.314 1.205.157.261.367.47.576.523 0 .261.262.471.523.471.314 0 .524-.21.524-.47a.441.441 0 00-.21-.367c.158-.263.158-.576 0-.89-.154-.347-.45-.553-.763-.553a.746.746 0 00-.336.082m23.712.575c0 .262.262.472.523.472.314 0 .524-.21.524-.472 0-.261-.21-.47-.524-.47-.314 0-.523.209-.523.47m18.686.105c0 .262.262.471.524.471.314 0 .524-.209.524-.47 0-.262-.262-.472-.524-.472s-.524.21-.524.471m5.55-.209c-.367.21-.524.733-.315 1.204.21.47.68.68 1.1.47.366-.209.523-.731.313-1.203-.154-.347-.45-.552-.763-.552a.742.742 0 00-.336.081M47.528 6.02c-.68 0-1.204.523-1.204 1.151s.576 1.152 1.256 1.1c.681 0 1.256-.525 1.204-1.152 0-.6-.524-1.103-1.162-1.103-.031 0-.062 0-.094.004m35.803.209c-.314 0-.523.21-.523.47 0 .263.262.472.523.472.314 0 .524-.21.524-.472 0-.28-.21-.478-.443-.478a.43.43 0 00-.08.008m-43.132.47c0 .263.262.472.523.472.21 0 .42-.156.472-.314a.56.56 0 00.523.419c.314 0 .523-.21.523-.471.053-.262-.209-.471-.523-.471-.21 0-.419.157-.472.314a.562.562 0 00-.523-.42c-.314 0-.523.21-.523.471m-24.13.263c0 .235.211.428.443.465a.455.455 0 00-.286.425c0 .26.261.47.523.47.314 0 .523-.21.523-.47 0-.24-.173-.433-.44-.466a.455.455 0 00.284-.424c0-.263-.262-.471-.524-.471a.467.467 0 00-.08-.007c-.269 0-.443.239-.443.478m34.598-.314h-.104c-.314 0-.523.209-.523.47 0 .263.261.471.523.471.053 0 .157 0 .21-.052h.104c.314 0 .524-.209.524-.47 0-.262-.262-.472-.524-.472-.052 0-.105 0-.21.053m43.917.941c0 .263.262.472.524.472.313 0 .523-.21.523-.472 0-.26-.261-.47-.523-.47-.314 0-.524.21-.524.47m-61.504.315c0 .262.262.471.524.471.314 0 .524-.21.524-.47.05-.263-.21-.472-.524-.472-.314 0-.524.21-.524.471m22.298.262c0 .262.262.47.524.47.314 0 .524-.208.524-.47s-.21-.471-.524-.471c-.314 0-.524.21-.524.47m25.65.21c0 .262.26.471.523.471.314 0 .523-.21.523-.471 0-.262-.21-.47-.523-.47-.314 0-.524.208-.524.47m-38.577 0c0 .262.261.471.523.471s.524-.21.524-.471c0-.262-.262-.47-.524-.47-.314 0-.523.208-.523.47m26.852.471c0 .262.262.471.628.471.314 0 .628-.21.628-.47 0-.263-.261-.472-.628-.472-.366 0-.628.21-.628.471m-11.777.209c0 .262.261.472.523.472.314 0 .524-.21.524-.472 0-.261-.262-.47-.524-.47-.314 0-.523.209-.523.47M1.413 9.16c0 .262.262.471.524.471-.314 0-.524.21-.524.47 0 .263.262.472.524.472.314 0 .523-.209.523-.471 0-.261-.262-.47-.523-.47.261 0 .523-.21.523-.472s-.262-.47-.523-.47c-.314 0-.524.208-.524.47m17.221.157c0 .261.21.471.524.471.314 0 .523-.21.523-.47 0-.263-.261-.472-.523-.472-.314 0-.524.209-.524.471m67.105.261c0 .263.261.472.628.472s.628-.21.628-.472c.053-.26-.261-.47-.628-.47s-.628.21-.628.47m-45.434.315c0 .262.261.471.523.471.314 0 .524-.21.524-.471 0-.262-.21-.471-.524-.471-.314 0-.523.21-.523.471m8.898.052c0 .262.262.471.524.471.314 0 .523-.209.523-.471 0-.261-.262-.47-.523-.47-.314 0-.524.209-.524.47m5.653.21c0 .261.21.47.523.47.315 0 .524-.209.524-.47 0-.262-.262-.471-.524-.471-.313 0-.523.209-.523.47m-2.774.158c0 .314.21.523.523.471.315 0 .524-.21.524-.471 0-.262-.262-.471-.524-.471-.314 0-.523.209-.523.47m-8.794.42c0 .47.419.837.89.837.471-.052.838-.419.838-.89 0-.471-.42-.837-.89-.837-.471 0-.838.419-.838.89m44.911-.367c0 .262.262.471.524.471.314 0 .523-.21.523-.47.052-.263-.21-.472-.523-.472-.314 0-.524.209-.524.471M67 10.416c0 .262.262.471.628.471.367 0 .628-.209.628-.47 0-.262-.314-.472-.628-.472-.366 0-.628.21-.628.471m-51.087 0c0 .262.261.471.523.471.314 0 .523-.209.523-.47.053-.262-.209-.472-.523-.472-.314 0-.524.21-.524.471m7.329-.314c-.367.21-.524.733-.315 1.204.21.471.681.68 1.1.471.366-.209.523-.732.314-1.204-.155-.347-.48-.552-.787-.552a.625.625 0 00-.312.08m-18.896.839c.052.47.418.837.89.837.47 0 .837-.418.837-.89 0-.47-.419-.837-.89-.837-.471 0-.837.418-.837.89m8.846-.367c0 .262.261.472.523.472.314 0 .524-.21.524-.472 0-.261-.262-.471-.524-.471-.314 0-.523.21-.523.471m77.992.629c0 .47.419.837.89.837.47 0 .837-.419.837-.89 0-.47-.366-.837-.89-.837-.47 0-.837.418-.837.89m-53.548-.262c0 .262.21.47.524.47.314 0 .523-.208.523-.47s-.262-.472-.523-.472c-.314 0-.524.21-.524.472m-11.568.576c0 .47.419.837.89.837.471 0 .838-.42.838-.89 0-.47-.42-.837-.89-.837-.471 0-.838.419-.838.89m8.794-.367c0 .261.262.471.523.471.314 0 .524-.21.524-.47 0-.263-.21-.472-.524-.472-.314 0-.523.209-.523.471m50.668.261c0 .316.262.524.524.472.314 0 .524-.21.524-.472 0-.26-.262-.47-.524-.47-.314 0-.524.21-.524.47m-38.995.158c0 .262.261.471.523.471.314 0 .523-.21.523-.471 0-.262-.261-.471-.523-.471-.314 0-.523.21-.523.471m36.221.052c0 .262.262.472.524.472.314 0 .523-.21.523-.472.053-.261-.209-.47-.523-.47-.314 0-.524.209-.524.47m-75.113.157c0 .053 0 .053.053.105h-.053c-.314 0-.523.21-.523.471 0 .262.261.47.523.47.314 0 .524-.208.524-.47 0-.053 0-.053-.053-.105h.053c.314 0 .523-.209.523-.47 0-.262-.262-.472-.523-.472-.314 0-.524.21-.524.471m42.399.21c0 .261.261.47.523.47.314 0 .524-.209.524-.47s-.262-.471-.524-.471c-.314 0-.523.21-.523.47m44.387.053c0 .261.262.471.523.471.315 0 .524-.21.524-.47.052-.263-.21-.472-.524-.472-.313 0-.523.21-.523.471m-65.115.314c0 .262.261.47.523.47.314 0 .523-.208.523-.47 0-.261-.209-.471-.523-.471-.314 0-.523.21-.523.471m32.767.314c0 .262.261.472.523.472.314 0 .524-.21.524-.472.052-.262-.21-.47-.524-.47-.314 0-.523.208-.523.47m28.056.157c0 .262.262.471.524.471.261 0 .523-.21.523-.471s-.262-.47-.523-.47c-.315 0-.524.209-.524.47m-12.929 0c0 .262.262.471.523.471.315 0 .524-.21.524-.471.052-.261-.21-.47-.524-.47-.314 0-.523.209-.523.47m-22.246 0c0 .262.262.471.523.471.315 0 .524-.21.524-.471s-.209-.47-.524-.47c-.314 0-.523.209-.523.47m-36.902.785c0 .629.523 1.152 1.151 1.1.628 0 1.152-.524 1.1-1.152 0-.628-.524-1.1-1.152-1.1-.628 0-1.152.524-1.1 1.152m36.85.314c0 .262.262.472.524.472.314 0 .523-.21.523-.472 0-.261-.261-.47-.523-.47-.314 0-.523.209-.523.47m-38.892.262c0 .262.262.47.524.47.314 0 .523-.208.523-.47s-.262-.47-.523-.47c-.314 0-.576.208-.524.47m-11.515-.314c-.367.21-.524.733-.314 1.204.209.471.68.68 1.099.471.418-.21.523-.733.314-1.204-.155-.347-.451-.552-.764-.552a.75.75 0 00-.335.081m9.736.471c0 .262.261.47.523.47.314 0 .524-.208.524-.47 0-.261-.21-.47-.524-.47-.314 0-.523.209-.523.47m78.986.262c0 .262.262.471.524.471.314 0 .523-.21.523-.471 0-.262-.262-.471-.523-.471-.314 0-.524.21-.524.47m-40.775-.26c-.367.209-.524.732-.315 1.203.21.471.68.68 1.1.471.366-.21.523-.733.313-1.204-.154-.347-.45-.552-.763-.552a.746.746 0 00-.335.081m-14.761.419c0 .262.261.471.523.471.314 0 .523-.21.523-.471 0-.262-.261-.472-.523-.472-.314 0-.523.21-.523.472m11.253.262c0 .261.262.471.524.471.314 0 .523-.21.523-.471.053-.262-.21-.471-.523-.471-.314 0-.524.209-.524.47m-5.13.42c0 .47.42.837.89.837.472 0 .838-.419.838-.89 0-.471-.419-.837-.89-.837-.47 0-.837.419-.837.89m41.77-.21c0 .262.262.471.523.471.315 0 .524-.209.524-.471.052-.261-.21-.471-.524-.471-.314 0-.523.21-.523.471m-75.531.052c0 .262.26.471.523.471.313 0 .523-.209.523-.47 0-.262-.21-.472-.523-.472-.315 0-.523.21-.523.471m1.517.157c0 .262.262.471.523.471.315 0 .524-.209.524-.47 0-.263-.262-.471-.524-.471-.314 0-.523.208-.523.47m85.32.105c0 .262.262.471.524.471.314 0 .523-.21.523-.47 0-.263-.262-.472-.523-.472-.314 0-.524.21-.524.471m-88.095.052c0 .262.262.472.524.472.314 0 .524-.21.524-.472 0-.261-.21-.47-.524-.47-.314 0-.524.209-.524.47M0 16.018c0 .47.419.837.89.837.47 0 .837-.367.837-.89 0-.47-.366-.838-.89-.838-.47 0-.837.42-.837.89m59.515-.104c-.053.261.21.47.524.47.313 0 .523-.209.523-.47 0-.262-.262-.472-.523-.472-.315 0-.524.21-.524.471m-2.774.158c0 .261.261.47.523.47.314 0 .523-.209.523-.47 0-.262-.261-.472-.523-.472-.314 0-.523.21-.523.472m-8.794.418c0 .471.419.838.89.838.47 0 .837-.419.837-.89-.052-.471-.419-.838-.89-.838-.471 0-.837.42-.837.89m-25.544-.261c0 .261.262.47.523.47.315 0 .524-.209.524-.47 0-.262-.21-.472-.524-.472-.313 0-.523.21-.523.472m57.264.104c0 .262.262.472.524.472.314 0 .524-.21.524-.472 0-.261-.21-.47-.524-.47-.314 0-.524.209-.524.47m-9.317.367c0 .261.262.47.523.47.314 0 .523-.209.523-.47 0-.262-.26-.471-.523-.471-.314 0-.523.21-.523.47m-67.105.106c0 .261.263.47.524.47h.052c0 .262.261.472.524.472.314 0 .523-.21.523-.472s-.262-.47-.523-.47h-.053c.053-.262-.21-.472-.523-.472-.314 0-.524.21-.524.472m47.947.523c0 .261.262.47.524.47.314 0 .523-.209.523-.47 0-.262-.262-.471-.523-.471-.314 0-.524.21-.524.471m39.468.209c0 .262.261.471.523.471.314 0 .523-.21.523-.471 0-.262-.21-.47-.523-.47-.314 0-.523.208-.523.47m-40.724 1.518c0 .262.262.47.523.47.314 0 .524-.208.524-.47.052-.261-.21-.471-.524-.471-.314 0-.523.21-.523.471m-38.106-.21c-.053-.051-.157-.051-.262-.051-.314 0-.523.208-.523.47s.261.472.523.472c.157 0 .262-.052.314-.105.052.053.157.053.262.053.314 0 .523-.21.523-.472s-.21-.47-.523-.47c-.157 0-.262.052-.314.104m3.56.994c0 .47.418.838.889.838.471 0 .838-.367.838-.89-.053-.471-.42-.838-.89-.838-.472 0-.838.419-.838.89m82.494-.314c0 .262.262.471.523.471.314 0 .524-.21.524-.471 0-.262-.262-.47-.524-.47-.314 0-.523.209-.523.47m-38.316.158c0 .261.262.47.523.47.315 0 .524-.209.524-.47 0-.262-.262-.472-.524-.472-.313 0-.523.21-.523.472m-53.862.575a.399.399 0 00-.104.262c0 .261.262.47.523.47a.564.564 0 00.524-.418.4.4 0 00.104-.262c0-.261-.261-.47-.523-.47a.564.564 0 00-.524.418m2.67.105c0 .261.262.47.523.47.315 0 .524-.209.524-.47 0-.262-.262-.472-.524-.472-.314 0-.523.21-.523.472m10.26.314c0 .262.261.471.523.471.314 0 .523-.21.523-.471 0-.262-.261-.47-.523-.47-.314 0-.524.208-.524.47m-15.546.156c0 .315.524.577 1.1.577.575 0 1.046-.262 1.046-.577 0-.366-.523-.575-1.099-.575s-1.047.262-1.047.575M53.6 20.78c0 .262.262.472.523.472.315 0 .524-.21.524-.472 0-.261-.21-.471-.524-.471-.314 0-.523.21-.523.471" mask="url(#sm-rus.ru-c)"/></g><g transform="translate(90.031 7.105)"><mask id="sm-rus.ru-f" fill="#fff"><use xlink:href="#sm-rus.ru-d"/></mask><path fill="url(#sm-rus.ru-e)" d="M33.238.419c-.314 0-.523.21-.523.47 0 .263.262.472.523.472.262 0 .524-.21.524-.471 0-.262-.262-.471-.524-.471zm-22.35.837c0 .262.209.471.523.471.314 0 .523-.209.523-.47 0-.262-.261-.472-.523-.472-.314 0-.524.21-.524.471zm-1.833.471c0 .262.262.471.524.471.314 0 .523-.21.523-.47 0-.262-.261-.472-.523-.472-.314 0-.524.21-.524.471zm6.23.89c-.053.262.209.471.523.471.314 0 .523-.21.523-.47 0-.263-.261-.472-.523-.472-.314 0-.524.21-.524.471zm-12.144.21c-.053.261.209.47.523.47.314 0 .523-.209.523-.47 0-.262-.261-.472-.523-.472-.314 0-.523.21-.523.472zm23.607.89c0 .47.418.837.89.837.47 0 .836-.419.836-.89 0-.47-.418-.837-.889-.837-.471 0-.837.418-.837.89zM11.516 3.35c0 .262.261.471.628.471.313 0 .576-.21.576-.471 0-.262-.263-.471-.629-.471-.314 0-.575.21-.575.471zm26.224.052c0 .262.262.523.523.471.314 0 .524-.209.524-.471 0-.261-.262-.47-.524-.47-.314 0-.523.209-.523.47zm-15.075.367c-.052.261.21.471.523.471.314 0 .524-.21.524-.471 0-.262-.262-.471-.524-.471-.314 0-.523.209-.523.47zm-5.6 0c0 .261.26.471.522.471.315 0 .524-.21.524-.471 0-.262-.21-.471-.524-.471-.314 0-.523.209-.523.47zm24.339.418c0 .262.262.472.523.472.314 0 .524-.21.524-.471 0-.263-.21-.471-.524-.471-.314 0-.523.208-.523.47zm-38.892.21c0 .262.262.47.523.47.315 0 .524-.208.524-.47s-.261-.472-.524-.472c-.313 0-.522.21-.522.472zm11.202.105c0 .261.262.47.524.47.314 0 .523-.209.523-.47 0-.262-.262-.472-.523-.472-.315 0-.524.21-.524.472zm23.712 1.151c0 .471.419.838.89.838.47 0 .837-.419.837-.89 0-.471-.419-.838-.89-.838-.47 0-.837.42-.837.89zM11.202 5.34c-.367.21-.524.733-.315 1.204.105.262.315.419.576.523 0 .262.262.472.523.472.315 0 .524-.21.524-.472a.441.441 0 00-.21-.367c.157-.26.157-.575 0-.889-.154-.347-.45-.552-.763-.552a.75.75 0 00-.335.081zm23.711.575c0 .263.262.472.524.472.314 0 .524-.21.524-.472 0-.26-.263-.47-.524-.47-.314 0-.524.21-.524.47zm5.34.472c0 .262.261.471.523.471.21 0 .419-.158.47-.314.053.21.263.419.524.419.314 0 .524-.21.524-.471 0-.262-.21-.471-.524-.471-.21 0-.418.157-.47.314-.054-.21-.262-.42-.524-.42-.314 0-.524.21-.524.472zm-24.131.262c0 .261.262.47.523.47.314 0 .523-.209.523-.47 0-.262-.261-.471-.523-.471-.314 0-.575.209-.523.47zm.157.942c0 .262.262.47.523.47.315 0 .524-.208.524-.47s-.262-.471-.524-.471c-.314 0-.523.21-.523.47zm17.378-.419c-.314 0-.523.21-.523.471 0 .262.261.47.523.47.314 0 .523-.208.523-.47 0-.281-.168-.479-.43-.479a.592.592 0 00-.093.008zm8.794.942c0 .262.261.471.523.471.306 0 .513-.198.524-.45v-.042c-.011-.251-.218-.45-.524-.45-.314 0-.523.21-.523.47zm-40.985.785c0 .262.261.472.523.472s.524-.21.524-.472-.262-.47-.524-.47c-.314 0-.523.208-.523.47zm17.22.157c-.052.262.21.472.524.472.314 0 .524-.21.524-.472 0-.261-.262-.47-.524-.47-.314 0-.523.209-.523.47zm21.671.523c0 .263.262.472.523.472.315 0 .524-.21.524-.472 0-.26-.262-.47-.524-.47-.314 0-.523.21-.523.47zm-38.944.263c0 .26.262.47.524.47.314 0 .524-.21.524-.47.052-.263-.21-.471-.524-.471-.314 0-.524.208-.524.47zm14.552.26c0 .263.262.472.523.472.314 0 .524-.209.524-.471 0-.261-.21-.47-.524-.47-.314 0-.523.209-.523.47zm7.328-.26c-.366.209-.523.732-.314 1.204.21.47.68.68 1.1.47.366-.208.523-.732.313-1.203-.193-.348-.5-.553-.794-.553a.612.612 0 00-.305.082zm-18.896.837c0 .471.42.838.89.838.47 0 .837-.42.837-.89 0-.471-.419-.838-.89-.838-.47 0-.837.419-.837.89zm8.794-.366c0 .261.261.471.523.471.314 0 .524-.21.524-.471.052-.262-.21-.471-.524-.471-.314 0-.523.209-.523.47zm24.496.366c-.052.262.21.471.524.471.314 0 .523-.21.523-.47 0-.263-.261-.472-.523-.472-.314 0-.523.21-.523.471zm-2.774.157c0 .262.262.472.524.472.314 0 .524-.21.524-.472s-.263-.47-.524-.47c-.314 0-.524.208-.524.47zm-8.794.419c0 .471.42.837.89.837.471 0 .838-.418.838-.89-.052-.47-.419-.837-.89-.837-.471 0-.838.42-.838.89zm-18.424.262c0 .052 0 .052.051.104h-.05c-.316 0-.524.21-.524.471 0 .262.26.472.523.472.314 0 .523-.21.523-.472 0-.052 0-.052-.052-.104h.052c.262 0 .523-.21.523-.471 0-.262-.261-.471-.523-.471-.314 0-.523.209-.523.47zm21.67.575c0 .262.262.472.523.472.314 0 .524-.21.524-.472 0-.261-.262-.47-.524-.47-.314 0-.523.209-.523.47zM18.11 13.347c0 .629.523 1.152 1.151 1.1.629 0 1.152-.524 1.1-1.152 0-.628-.524-1.099-1.152-1.099-.628 0-1.151.524-1.1 1.151zm-2.094.576c0 .262.262.472.524.472.314 0 .523-.21.523-.472 0-.26-.262-.47-.523-.47-.262 0-.524.21-.524.47zM4.554 13.61c-.367.21-.524.733-.314 1.204.21.471.68.681 1.1.471.365-.209.522-.785.313-1.204-.154-.347-.45-.552-.764-.552a.75.75 0 00-.335.081zm9.736.471c0 .262.262.472.523.472.314 0 .523-.21.523-.472 0-.261-.209-.47-.523-.47-.314 0-.523.209-.523.47zm23.45.367c0 .262.262.471.523.471.314 0 .524-.21.524-.471 0-.262-.262-.471-.524-.471-.314 0-.523.21-.523.47zm-27.638.576c0 .261.262.471.523.471.315 0 .524-.21.524-.471 0-.262-.261-.471-.524-.471-.313 0-.523.209-.523.47zm1.466.104c0 .262.262.471.523.471.315 0 .524-.209.524-.47.052-.262-.209-.472-.524-.472-.314 0-.523.21-.523.471zm-11.516.576c0 .471.42.838.89.838.471 0 .838-.367.838-.89 0-.472-.42-.838-.89-.838-.471 0-.838.419-.838.89zm8.794-.367c0 .262.262.472.524.472.314 0 .523-.21.523-.472 0-.261-.262-.47-.523-.47-.315 0-.524.209-.524.47zm13.61.576c0 .262.261.472.523.472.314 0 .523-.21.523-.472 0-.261-.261-.47-.523-.47-.314 0-.524.209-.524.47zm-19.158.629c0 .261.26.47.523.47h.052c0 .262.262.472.524.472.314 0 .523-.21.523-.471 0-.262-.261-.471-.523-.471h-.052c0-.262-.21-.471-.524-.471-.314 0-.523.209-.523.47zm8.585 2.041c-.053-.052-.158-.052-.263-.052-.314 0-.523.21-.523.47 0 .262.262.472.523.472.157 0 .263-.052.314-.105.052.053.157.053.262.053.314 0 .524-.21.524-.472 0-.261-.263-.471-.524-.471-.157 0-.262.053-.313.105zm3.506.995c0 .47.419.837.89.837.471 0 .838-.367.838-.89 0-.47-.367-.837-.89-.837-.472 0-.838.418-.838.89zm-9.684.418a.399.399 0 00-.104.262c0 .262.261.472.523.472s.471-.21.524-.42a.4.4 0 00.104-.262c.053-.261-.209-.47-.523-.47a.564.564 0 00-.524.418zm2.67.105c0 .262.262.471.523.471.315 0 .524-.21.524-.471.052-.262-.21-.471-.524-.471-.314 0-.523.21-.523.471zm10.783-.157c-.314 0-.524.21-.524.47 0 .263.262.472.524.472.314 0 .523-.21.523-.471.047-.282-.158-.479-.427-.479a.61.61 0 00-.096.008zm-16.017.576c0 .313.523.576 1.099.576s1.047-.263 1.047-.576c-.053-.314-.524-.576-1.1-.576-.575 0-1.046.262-1.046.576z" mask="url(#sm-rus.ru-f)"/></g><g transform="translate(23.031 17.574)"><mask id="sm-rus.ru-i" fill="#fff"><use xlink:href="#sm-rus.ru-g"/></mask><path fill="url(#sm-rus.ru-h)" d="M8.95 9.213c.315.104.629.314.995.209.053-.367-.314-.367-.314-.733.471.21 1.518.314 1.728-.21-.053 0-.105-.052-.262-.156-.052 0-.157-.053-.21-.053-.052-.052-.157-.052-.209-.104-1.256-.524-2.512-1.78-2.512-1.78-.367-.419-.68-.942-.838-1.466.314.157.733.471 1.1.314-.105-.418-.629-.523-.733-.994.261.052.89.21.994-.105C7.485 3.193 6.334 2.198 5.758.366c0 0-.471 2.827-2.984 3.926.314.21.68.262 1.047.314-.105.367-.576.314-.733.68.314.21.942-.104 1.257-.052C3.769 6.752 2.67 7.8 1.57 8.741c.42.262 1.204 0 1.466 0-.105.576-.68.68-.89 1.152.471.105.942-.314 1.309-.314-.628 1.937-1.78 2.722-3.35 3.455 1.204.157 2.146.314 2.93.052-.051.314-.313.366-.418.628.628.105 1.1-.471 1.57-.576-.052.471-.47.68-.47 1.047.732-.21 1.151-.68 1.831-.994.053.628-.314 1.151 0 1.518.472-.053 1.361.261 1.675-.053 0-.523-.314-.942-.157-1.465.42.104.42.575.995.47.157-.052 0-.366.157-.418.21.157.314.366.471.523.576 0 .576-.575.785-.994.314.262.628.628 1.204.523 0-.366-.314-.575-.157-.942.576.262 1.623.314 1.884-.262-1.36-.732-3.088-1.204-3.454-2.878" mask="url(#sm-rus.ru-i)"/></g><g transform="translate(33.5 11.816)"><mask id="sm-rus.ru-l" fill="#fff"><use xlink:href="#sm-rus.ru-j"/></mask><path fill="url(#sm-rus.ru-k)" d="M10.626 10.835c.366.105.733.367 1.204.262.052-.419-.367-.471-.367-.838.576.262 1.78.367 1.99-.261-.053-.053-.158-.105-.262-.157-.105 0-.157-.053-.262-.105-.105-.052-.157-.052-.262-.105-1.465-.628-2.931-2.094-2.931-2.094a4.599 4.599 0 01-.995-1.78c.367.158.89.577 1.309.367-.157-.523-.733-.628-.89-1.151.314.052 1.047.209 1.152-.105-1.414-1.1-2.774-2.303-3.455-4.45 0 0-.523 3.35-3.507 4.66.366.261.785.313 1.204.366-.105.47-.68.366-.838.785.367.262 1.152-.105 1.466-.052-.68 1.78-1.937 3.036-3.298 4.135.471.314 1.414 0 1.728-.053-.157.68-.785.838-1.1 1.361.576.157 1.152-.366 1.57-.366-.732 2.303-2.093 3.193-3.977 4.083 1.413.21 2.565.366 3.454.052-.052.366-.366.419-.47.785.732.105 1.308-.576 1.831-.68-.052.523-.523.837-.523 1.256.89-.21 1.413-.838 2.146-1.204.105.733-.419 1.361-.052 1.78.575-.053 1.57.314 1.989-.053 0-.575-.367-1.099-.157-1.727.523.105.47.68 1.204.576.157-.052 0-.471.209-.471.21.157.366.419.576.628.68 0 .68-.68.942-1.204.366.262.733.785 1.413.576.053-.419-.419-.68-.21-1.152.681.262 1.885.367 2.2-.314-1.571-.785-3.56-1.413-4.031-3.35" mask="url(#sm-rus.ru-l)"/></g><g transform="translate(48.156 16.526)"><mask id="sm-rus.ru-o" fill="#fff"><use xlink:href="#sm-rus.ru-m"/></mask><path fill="url(#sm-rus.ru-n)" d="M8.637 8.427c.261.105.575.314.942.21.052-.367-.262-.367-.262-.68.419.209 1.413.313 1.57-.21l-.209-.105c-.052 0-.105-.052-.21-.052-.052-.053-.156-.053-.209-.105-1.151-.523-2.303-1.623-2.303-1.623-.366-.418-.628-.837-.785-1.36.262.157.68.418 1.047.261-.105-.418-.576-.47-.68-.89.261.053.837.157.942-.052-1.1-.837-2.2-1.831-2.722-3.507 0 0-.419 2.617-2.774 3.664.314.21.628.21.942.262-.105.366-.576.314-.68.628.261.21.89-.052 1.15-.052C3.874 6.229 2.88 7.17 1.833 8.06c.366.262 1.1 0 1.361 0-.105.523-.628.628-.838 1.1.42.104.89-.315 1.257-.315-.576 1.78-1.675 2.513-3.14 3.193 1.098.157 1.988.262 2.721.052-.052.262-.314.367-.366.576.575.105 1.046-.419 1.413-.523-.053.418-.419.628-.419.994.68-.157 1.1-.628 1.675-.942.052.576-.314 1.047 0 1.413.419-.052 1.256.262 1.57-.052 0-.471-.261-.89-.157-1.36.42.051.367.523.943.47.157-.052 0-.366.157-.366.209.104.261.314.418.47.524 0 .524-.575.733-.941.262.21.576.575 1.152.47 0-.313-.314-.523-.157-.89.523.21 1.465.315 1.727-.26-1.309-.681-2.879-1.152-3.245-2.723" mask="url(#sm-rus.ru-o)"/></g><g transform="translate(28.265 19.668)"><mask id="sm-rus.ru-r" fill="#fff"><use xlink:href="#sm-rus.ru-p"/></mask><path fill="url(#sm-rus.ru-q)" d="M8.584 8.113c.262.105.576.314.943.21.052-.367-.262-.367-.262-.68.419.209 1.413.313 1.57-.21l-.21-.105c-.052 0-.104-.052-.209-.052-.052-.053-.157-.053-.209-.105-1.152-.523-2.303-1.623-2.303-1.623-.367-.418-.628-.837-.785-1.36.261.157.68.418 1.047.261-.105-.419-.576-.47-.68-.89.26.053.837.157.941-.052C7.328 2.67 6.23 1.675 5.705 0c0 0-.418 2.617-2.774 3.664.314.21.628.21.942.262-.104.366-.575.314-.68.628.262.21.89-.052 1.152-.052C3.82 5.915 2.827 6.857 1.78 7.747c.366.262 1.099 0 1.36 0-.104.523-.627.628-.837 1.1.419.104.89-.315 1.256-.315-.575 1.78-1.675 2.513-3.14 3.193 1.099.157 1.989.262 2.722.052-.053.262-.314.367-.367.576.576.105 1.047-.419 1.413-.523-.052.418-.418.628-.418.994.68-.157 1.099-.628 1.675-.942.052.576-.314 1.047 0 1.413.418-.052 1.256.262 1.57-.052 0-.471-.262-.89-.157-1.361.419.052.366.523.942.471.157-.052 0-.366.157-.366.21.104.262.314.419.47.523 0 .523-.575.733-.941.262.209.576.575 1.151.47 0-.313-.314-.523-.157-.89.524.21 1.466.315 1.728-.26-1.309-.734-2.88-1.205-3.246-2.723" mask="url(#sm-rus.ru-r)"/></g><g transform="translate(55.484 14.956)"><mask id="sm-rus.ru-u" fill="#fff"><use xlink:href="#sm-rus.ru-s"/></mask><path fill="url(#sm-rus.ru-t)" d="M8.375 8.48c.262.104.523.366.89.314.052-.314-.21-.367-.21-.68.367.261 1.257.47 1.518 0 0 0-.104-.105-.209-.158-.052 0-.105-.052-.157-.104-.052-.053-.105-.053-.157-.105-1.047-.628-1.99-1.78-1.99-1.78a4.231 4.231 0 01-.575-1.413c.262.157.576.471.942.366-.052-.418-.47-.523-.523-.942.21.052.733.262.89.052-.942-.942-1.832-1.936-2.146-3.61 0 0-.68 2.408-3.036 3.088.261.21.575.314.837.366-.104.314-.576.21-.733.524.21.21.838.052 1.1.105-.68 1.256-1.728 2.041-2.827 2.774.314.261 1.047.157 1.256.157-.157.47-.68.523-.942.89.419.157.89-.21 1.204-.157-.785 1.622-1.832 2.146-3.298 2.67 1.047.313 1.832.523 2.565.366-.104.261-.314.314-.419.523.524.157 1.047-.314 1.414-.314-.053.419-.471.576-.524.89.68-.105 1.1-.471 1.675-.68 0 .575-.418.941-.21 1.308.42 0 1.152.366 1.467.157.052-.419-.157-.838.052-1.309.366.105.262.576.837.524.157 0 .053-.314.21-.314.157.157.21.366.366.523.471.053.576-.47.785-.785.262.262.471.628.995.576.052-.314-.21-.524-.052-.838.47.262 1.36.471 1.675 0-1.047-.89-2.46-1.518-2.67-2.983" mask="url(#sm-rus.ru-u)"/></g><g transform="translate(42.922 19.667)"><mask id="sm-rus.ru-x" fill="#fff"><use xlink:href="#sm-rus.ru-v"/></mask><path fill="url(#sm-rus.ru-w)" d="M2.513 3.193c.261.157.522.21.837.262-.105.314-.471.261-.628.523.121.092.368.059.594.026.162-.024.313-.047.4-.026-.523 1.204-1.413 2.042-2.355 2.775.314.208.994.052 1.152 0-.105.47-.576.523-.786.942.195.056.403-.021.603-.098.178-.068.348-.136.497-.112C2.25 9.055 1.309 9.63 0 10.207c.995.157 1.727.315 2.408.105-.053.21-.262.313-.314.523.47.105.941-.366 1.256-.419-.052.367-.366.576-.419.838.628-.157.995-.524 1.518-.785.053.523-.314.942-.052 1.256.142-.02.34.015.545.05.32.055.656.11.816-.05 0-.419-.21-.785-.105-1.203.367.051.314.47.838.418.104-.053.052-.315.157-.315.157.105.209.315.366.42.471 0 .471-.472.681-.786.261.21.523.524.994.42.052-.315-.262-.472-.105-.786.471.21 1.309.314 1.518-.157-1.099-.68-2.46-1.152-2.774-2.513.262.105.524.262.838.21.052-.314-.21-.314-.21-.576.367.21 1.204.314 1.414-.157l-.21-.105c-.052 0-.105-.052-.157-.052-.052-.052-.105-.052-.157-.052-.994-.471-1.989-1.466-1.989-1.466a2.966 2.966 0 01-.628-1.204c.21.105.576.419.89.261-.105-.366-.524-.418-.576-.837.21.053.733.157.785-.052-.942-.785-1.884-1.623-2.303-3.14 0 0-.419 2.302-2.513 3.14" mask="url(#sm-rus.ru-x)"/></g><g transform="translate(62.29 19.143)"><mask id="sm-rus.ru-A" fill="#fff"><use xlink:href="#sm-rus.ru-y"/></mask><path fill="url(#sm-rus.ru-z)" d="M8.584 8.846c.314.052.68.262 1.047.105 0-.367-.314-.367-.366-.68.47.209 1.518.209 1.675-.367-.053 0-.105-.052-.262-.105-.052 0-.157-.052-.21-.052-.052 0-.156-.052-.209-.052-1.308-.472-2.67-1.57-2.67-1.57a4.183 4.183 0 01-.941-1.414c.314.105.785.419 1.151.21-.157-.42-.68-.472-.837-.943.261 0 .89.105.994-.157-1.308-.837-2.512-1.78-3.245-3.56 0 0-.21 2.88-2.67 4.188.314.21.68.21 1.047.21-.052.418-.575.366-.68.732.314.21.942-.157 1.256-.157-.471 1.57-1.466 2.722-2.512 3.77.418.209 1.203-.106 1.465-.158-.104.576-.628.733-.837 1.256.47.105.942-.418 1.308-.418-.47 1.989-1.57 2.879-3.088 3.716 1.204.105 2.198.157 2.931-.21-.052.315-.261.42-.366.681.628.052 1.1-.576 1.518-.68 0 .47-.419.732-.367 1.099.733-.262 1.1-.785 1.728-1.152.157.628-.262 1.152.104 1.518.472-.104 1.361.157 1.675-.21-.052-.523-.366-.889-.261-1.465.418.053.47.576 1.047.419.157-.052 0-.366.157-.419.209.105.314.367.523.471.576-.052.524-.628.68-1.047.315.21.681.576 1.257.42 0-.367-.367-.577-.262-.943.628.21 1.623.21 1.832-.419-1.309-.575-3.036-.942-3.612-2.617" mask="url(#sm-rus.ru-A)"/></g><g transform="translate(68.571 16.526)"><mask id="sm-rus.ru-D" fill="#fff"><use xlink:href="#sm-rus.ru-B"/></mask><path fill="url(#sm-rus.ru-C)" d="M9.055 9.265c.315.105.629.314.995.21.052-.367-.314-.367-.314-.734.471.21 1.518.314 1.727-.209-.052 0-.104-.052-.261-.157-.053 0-.157-.052-.21-.052-.052-.053-.157-.053-.21-.105-1.255-.523-2.512-1.78-2.512-1.78-.366-.418-.68-.942-.837-1.465.314.157.733.47 1.099.314-.105-.419-.628-.524-.733-.995.262.053.89.21.995-.104C7.59 3.244 6.438 2.25 5.862.417c0 0-.47 2.827-2.983 3.927.314.209.68.261 1.047.314-.105.366-.576.314-.733.68.314.21.942-.105 1.256-.052-.576 1.518-1.675 2.565-2.774 3.507.419.261 1.204 0 1.466 0-.105.576-.68.68-.89 1.151.47.105.942-.314 1.308-.314-.628 1.937-1.78 2.722-3.35 3.455 1.204.157 2.146.314 2.932.052-.053.314-.314.367-.42.628.629.105 1.1-.47 1.571-.575-.052.47-.47.68-.47 1.046.732-.209 1.15-.68 1.831-.994.052.628-.314 1.152 0 1.518.471-.052 1.361.262 1.675-.052 0-.524-.314-.943-.157-1.466.419.105.419.576.995.471.157-.052 0-.366.157-.419.209.157.314.367.47.524.577 0 .577-.576.786-.995.314.262.628.628 1.204.524 0-.367-.314-.576-.157-.943.576.262 1.622.315 1.884-.261-1.413-.733-3.088-1.204-3.455-2.88" mask="url(#sm-rus.ru-D)"/></g><g transform="translate(83.228 10.245)"><mask id="sm-rus.ru-G" fill="#fff"><use xlink:href="#sm-rus.ru-E"/></mask><path fill="url(#sm-rus.ru-F)" d="M12.615 12.772c.419.105.89.471 1.465.314.053-.524-.418-.524-.418-.995.68.314 2.146.472 2.408-.314-.053-.052-.158-.104-.315-.209-.104-.052-.209-.052-.314-.105-.104-.052-.209-.104-.314-.104-1.78-.786-3.559-2.46-3.559-2.46-.523-.629-.942-1.31-1.204-2.094.419.21 1.047.68 1.57.418-.157-.628-.89-.732-1.046-1.36.366.052 1.256.261 1.413-.105-1.728-1.309-3.298-2.774-4.135-5.34 0 0-.629 4.031-4.188 5.55.419.313.942.366 1.466.418-.157.523-.838.471-1.047.942.419.314 1.36-.105 1.727-.052-.837 2.094-2.355 3.611-3.926 4.972.576.367 1.675 0 2.042-.052-.157.838-.942.995-1.309 1.623.68.157 1.361-.471 1.885-.471-.89 2.722-2.513 3.82-4.764 4.868 1.728.261 3.036.418 4.136.052-.105.419-.42.523-.576.89.837.157 1.57-.68 2.198-.785-.052.628-.628.994-.628 1.465 1.047-.261 1.675-.994 2.565-1.413.105.89-.471 1.623-.052 2.146.68-.105 1.884.366 2.407-.052 0-.733-.418-1.309-.209-2.042.628.105.576.838 1.413.68.21-.052.053-.523.262-.575.262.21.419.523.68.733.786 0 .838-.838 1.1-1.413.418.314.89.89 1.727.732.052-.523-.471-.837-.21-1.36.838.313 2.251.47 2.618-.367-1.885-1.047-4.292-1.78-4.868-4.135" mask="url(#sm-rus.ru-G)"/></g><g transform="translate(94.22 15.479)"><mask id="sm-rus.ru-J" fill="#fff"><use xlink:href="#sm-rus.ru-H"/></mask><path fill="url(#sm-rus.ru-I)" d="M8.218 8.48c.262.104.576.314.942.21.053-.367-.262-.367-.262-.681.42.209 1.414.314 1.57-.21l-.209-.104c-.052 0-.104-.053-.209-.053-.052-.052-.157-.052-.21-.105-1.15-.523-2.303-1.622-2.303-1.622-.366-.419-.628-.838-.785-1.361.262.157.68.419 1.047.262-.104-.42-.576-.471-.68-.89.261.052.837.157.942-.053-1.1-.837-2.199-1.832-2.722-3.507 0 0-.419 2.618-2.774 3.664.314.21.628.21.942.262-.105.367-.576.314-.68.628.261.21.89-.052 1.151-.052-.523 1.413-1.518 2.355-2.565 3.245.367.262 1.1 0 1.361 0-.104.524-.628.628-.837 1.1.418.104.89-.315 1.256-.315-.576 1.78-1.675 2.513-3.14 3.193 1.099.157 1.988.262 2.721.053-.052.261-.314.366-.366.576.576.104 1.047-.42 1.413-.524-.052.419-.419.628-.419.995.68-.157 1.1-.629 1.675-.943.053.576-.314 1.047 0 1.414.42-.053 1.257.261 1.57-.053 0-.47-.261-.89-.156-1.36.418.052.366.523.942.47.157-.052 0-.366.157-.366.21.105.262.314.419.471.523 0 .523-.576.732-.942.262.21.576.576 1.152.471 0-.314-.314-.523-.157-.89.523.21 1.466.314 1.727-.261-1.308-.68-2.879-1.152-3.245-2.722" mask="url(#sm-rus.ru-J)"/></g><g transform="translate(74.33 18.62)"><mask id="sm-rus.ru-M" fill="#fff"><use xlink:href="#sm-rus.ru-K"/></mask><path fill="url(#sm-rus.ru-L)" d="M8.166 8.166c.261.104.575.314.942.209.052-.366-.262-.366-.262-.68.419.209 1.413.314 1.57-.21l-.209-.105c-.052 0-.105-.052-.21-.052-.052-.052-.156-.052-.209-.105C8.637 6.7 7.485 5.601 7.485 5.601c-.366-.419-.628-.838-.785-1.361.262.157.68.419 1.047.262-.105-.42-.576-.472-.68-.89.261.052.837.157.942-.053-1.1-.837-2.199-1.832-2.722-3.507 0 0-.419 2.618-2.774 3.664.314.21.628.21.942.262-.105.367-.576.314-.68.628.26.21.89-.052 1.15-.052-.523 1.413-1.517 2.355-2.564 3.245.366.262 1.1 0 1.36 0-.104.524-.627.628-.837 1.1.42.104.89-.315 1.257-.315-.576 1.78-1.675 2.513-3.141 3.193 1.1.157 1.99.262 2.722.053-.052.261-.314.366-.367.575.576.105 1.047-.418 1.414-.523-.053.419-.419.628-.419.995.68-.157 1.1-.629 1.675-.943.052.576-.314 1.047 0 1.414.419-.053 1.256.261 1.57-.053 0-.47-.261-.89-.157-1.36.419.052.367.523.942.47.157-.052 0-.366.157-.366.21.105.262.314.42.471.523 0 .523-.576.732-.942.262.21.576.576 1.152.471 0-.314-.314-.523-.157-.89.523.21 1.465.314 1.727-.261-1.309-.733-2.879-1.152-3.245-2.722" mask="url(#sm-rus.ru-M)"/></g><g transform="translate(101.024 13.909)"><mask id="sm-rus.ru-P" fill="#fff"><use xlink:href="#sm-rus.ru-N"/></mask><path fill="url(#sm-rus.ru-O)" d="M8.48 8.532c.261.105.523.366.89.314.052-.314-.21-.366-.21-.68.367.261 1.256.47 1.518 0 0 0-.105-.105-.21-.157-.052 0-.104-.053-.156-.105-.053-.052-.105-.052-.157-.105-1.047-.628-1.99-1.78-1.99-1.78a4.231 4.231 0 01-.575-1.413c.262.157.576.471.942.367-.052-.42-.471-.524-.523-.943.209.053.732.262.89.053C7.955 3.14 7.065 2.146 6.751.47c0 0-.68 2.408-3.036 3.088.262.21.576.314.838.367-.105.314-.576.21-.733.523.21.21.838.053 1.1.105-.68 1.257-1.728 2.042-2.827 2.775.314.262 1.047.157 1.256.157-.157.471-.68.524-.942.89.419.157.89-.21 1.204-.157-.785 1.623-1.832 2.146-3.298 2.67 1.047.314 1.832.523 2.565.366-.105.262-.314.314-.419.523.524.157 1.047-.314 1.413-.314-.052.419-.47.576-.523.89.68-.105 1.1-.471 1.675-.68 0 .575-.419.942-.21 1.308.42 0 1.152.367 1.466.157.053-.418-.157-.837.053-1.308.366.104.261.575.837.523.157 0 .052-.314.21-.314.156.157.209.366.366.524.471.052.576-.472.785-.786.262.262.471.628.995.576.052-.314-.21-.523-.053-.837.471.261 1.361.47 1.675 0-1.099-.89-2.512-1.466-2.67-2.984" mask="url(#sm-rus.ru-P)"/></g><g transform="translate(77.992 16.003)"><mask id="sm-rus.ru-S" fill="#fff"><use xlink:href="#sm-rus.ru-Q"/></mask><path fill="url(#sm-rus.ru-R)" d="M3.246 3.925c.313.21.68.263 1.046.315-.104.366-.628.314-.733.68.157.126.483.082.776.038.195-.029.375-.058.48-.038-.628 1.518-1.727 2.565-2.93 3.455.366.261 1.203.053 1.465 0-.157.576-.733.68-.942 1.152.257.085.53-.016.783-.117.212-.084.411-.169.578-.145-.68 1.937-1.885 2.669-3.507 3.402 1.203.21 2.146.367 2.984.105-.053.314-.315.367-.42.628.629.104 1.152-.42 1.57-.523-.051.47-.47.68-.47 1.046.733-.157 1.204-.68 1.884-.942.053.628-.366 1.152-.052 1.518.179-.02.42.021.668.062.404.066.833.133 1.06-.062 0-.523-.263-.942-.106-1.465.42.105.367.575.995.523.157-.053.052-.366.21-.418.209.156.261.365.47.523.576 0 .629-.576.837-.995.315.262.63.68 1.205.524.052-.367-.314-.576-.157-.995.576.261 1.623.367 1.884-.21-1.465-.68-3.14-1.256-3.507-2.983.314.105.628.367 1.047.262.052-.367-.262-.419-.262-.733.471.261 1.518.366 1.728-.157-.053 0-.105-.105-.262-.157a.397.397 0 01-.21-.105c-.052-.052-.156-.052-.209-.104-1.257-.576-2.46-1.832-2.46-1.832-.366-.471-.68-.943-.785-1.518.262.157.733.47 1.1.314-.106-.471-.629-.524-.734-.995.262.052.89.21.995-.053-1.204-.941-2.303-2.04-2.88-3.872 0 0-.522 2.878-3.14 3.872" mask="url(#sm-rus.ru-S)"/></g><g transform="translate(107.305 16.527)"><mask id="sm-rus.ru-V" fill="#fff"><use xlink:href="#sm-rus.ru-T"/></mask><path fill="url(#sm-rus.ru-U)" d="M10.155 9.998c.314.157.575.47.994.47.105-.366-.21-.47-.157-.784.419.314 1.466.68 1.832.157 0-.053-.104-.105-.21-.21a.397.397 0 00-.209-.104c-.052-.053-.157-.105-.209-.157-1.151-.838-2.198-2.356-2.198-2.356-.314-.523-.471-1.1-.524-1.727.262.21.628.628 1.047.575-.052-.47-.523-.68-.523-1.203.261.104.89.366 1.047.157C9.998 3.612 9.055 2.25 8.898.262c0 0-1.099 2.826-3.978 3.402.262.262.628.419.995.523-.21.367-.68.21-.89.524.262.262.995.157 1.309.262C5.39 6.386 4.03 7.223 2.67 7.956c.366.367 1.203.314 1.518.314-.262.576-.838.576-1.204.995.47.21 1.046-.105 1.465 0C3.35 11.097 1.99 11.673.21 12.09c1.204.472 2.146.786 3.036.68-.157.263-.418.315-.575.577.575.261 1.256-.21 1.727-.21-.157.471-.628.628-.733.995.785-.053 1.361-.471 2.094-.628-.053.68-.628 1.099-.367 1.57.524.052 1.309.576 1.78.314.105-.523-.105-1.047.157-1.518.419.157.262.68.942.733.157 0 .105-.366.262-.366.157.157.21.418.366.628.576.104.733-.471 1.047-.838.262.314.524.785 1.152.785.105-.366-.21-.68.052-1.047.576.367 1.57.68 1.99.157-1.31-1.203-2.932-2.093-2.984-3.925" mask="url(#sm-rus.ru-V)"/></g><g transform="translate(97.883 22.808)"><mask id="sm-rus.ru-Y" fill="#fff"><use xlink:href="#sm-rus.ru-W"/></mask><path fill="url(#sm-rus.ru-X)" d="M4.135 4.292c.157.053.262.157.419.105 0-.157-.105-.157-.105-.314.21.104.628.157.733-.053 0 0-.052-.052-.105-.052-.052 0-.052 0-.104-.052-.053 0-.053-.053-.105-.053-.523-.261-1.1-.785-1.1-.785a2.82 2.82 0 01-.366-.68c.105.052.314.21.471.157-.052-.21-.261-.262-.314-.419.105 0 .367.105.42 0-.524-.419-.995-.89-1.257-1.675 0 0-.21 1.256-1.361 1.675.157.105.262.105.419.157-.053.157-.262.157-.314.262.104.105.418 0 .523 0-.262.628-.733 1.1-1.256 1.518.157.104.523 0 .628 0-.052.262-.314.314-.419.47.21.053.419-.156.576-.104C1.204 5.287.68 5.601 0 5.915c.523.105.942.157 1.256.052-.052.105-.157.157-.157.262.262.052.471-.21.68-.21 0 .21-.209.315-.209.472.314-.053.524-.314.785-.42.053.263-.157.472-.052.681.21 0 .576.105.733 0 0-.209-.105-.418-.052-.628.209.053.157.262.418.21.053 0 0-.157.105-.157.105.052.105.157.21.209.261 0 .261-.262.366-.419.104.105.262.314.523.21 0-.157-.157-.262-.052-.42.262.106.68.158.837-.104-.366-.419-1.099-.628-1.256-1.36" mask="url(#sm-rus.ru-Y)"/></g><g transform="translate(88.46 18.62)"><mask id="sm-rus.ru-ab" fill="#fff"><use xlink:href="#sm-rus.ru-Z"/></mask><path fill="url(#sm-rus.ru-aa)" d="M2.617 3.245c.262.157.524.21.838.262-.105.314-.471.262-.628.523.122.092.369.06.595.026.161-.023.312-.047.4-.026-.524 1.204-1.414 2.042-2.356 2.775.313.21.994.053 1.151 0-.104.47-.576.523-.785.942.194.055.403-.022.602-.098.178-.068.35-.136.497-.112-.576 1.57-1.518 2.147-2.826 2.722.994.157 1.727.314 2.408.105-.053.21-.263.314-.314.523.47.105.942-.365 1.256-.418-.053.366-.367.576-.42.837.63-.157.996-.523 1.52-.784.05.523-.315.941-.053 1.255.141-.02.34.016.544.05.32.056.656.11.816-.05 0-.418-.209-.785-.104-1.204.366.053.314.472.837.42.105-.053.053-.315.157-.315.158.105.21.314.367.419.47 0 .47-.471.68-.785.262.21.524.523.995.418.052-.314-.262-.47-.105-.785.471.21 1.309.314 1.518-.157-1.152-.68-2.512-1.098-2.774-2.512.262.104.523.261.837.209.053-.314-.21-.314-.21-.576.367.21 1.205.314 1.414-.157l-.209-.104c-.053 0-.105-.053-.157-.053-.053-.053-.105-.053-.157-.053-.995-.47-1.99-1.465-1.99-1.465a2.971 2.971 0 01-.627-1.204c.209.106.576.42.89.262-.105-.366-.524-.419-.576-.838.209.053.732.158.785-.052C6.49 2.46 5.548 1.623 5.129.105c0 0-.418 2.303-2.512 3.14" mask="url(#sm-rus.ru-ab)"/></g><g transform="translate(102.594 22.284)"><mask id="sm-rus.ru-ae" fill="#fff"><use xlink:href="#sm-rus.ru-ac"/></mask><path fill="url(#sm-rus.ru-ad)" d="M2.094 2.355c.156.105.366.157.576.157-.053.21-.315.158-.42.366.088.059.24.036.385.014.115-.018.227-.036.296-.014-.366.838-.942 1.414-1.622 1.938.209.157.68.051.785 0-.105.314-.367.366-.524.628.262.052.524-.157.733-.157C1.937 6.334 1.256 6.752.366 7.17c.68.105 1.204.21 1.623.052-.052.158-.157.21-.21.366.315.053.629-.26.89-.26 0 .26-.261.366-.261.575.419-.105.68-.367 1.047-.523.052.366-.21.627-.053.837.262 0 .733.157.943 0 0-.262-.157-.523-.053-.785.262.052.21.314.576.314.105 0 0-.21.105-.21.104.052.156.21.261.315.314 0 .314-.315.471-.524.157.157.367.367.681.314 0-.21-.157-.314-.052-.523.314.157.89.21 1.046-.105-.837-.576-1.78-.89-1.989-1.832.157.052.367.21.576.157.053-.21-.157-.21-.157-.419.262.157.838.21.942-.104 0 0-.052-.053-.157-.053-.052 0-.052-.053-.105-.053-.052 0-.104-.051-.104-.051-.68-.315-1.361-.995-1.361-.995-.21-.262-.366-.523-.42-.837.158.104.42.261.63.157-.053-.262-.367-.314-.42-.576.158.052.472.104.576-.053-.68-.523-1.256-1.099-1.57-2.146 0 0-.314 1.571-1.727 2.146" mask="url(#sm-rus.ru-ae)"/></g><path fill="#000" fill-rule="nonzero" d="M134 21.406h-4.918v2.07s-1.226-2.571-5.823-2.571c-4.99 0-8.097 4.406-8.097 9.242 0 5.13 2.708 9.184 8.261 9.184 4.169 0 5.481-2.22 5.481-2.22l.043 1.984c-.164 2.643-1.533 4.062-4.156 4.062-1.939 0-3.157-.63-3.428-2.15l-5.424.302c.192 3.76 4.447 5.989 8.318 5.989 8.709-.015 9.743-4.65 9.743-8.418V21.405v.001zm-19.9 11.112c.384-5.595-2.773-11.463-9.509-11.463-5.901 0-9.401 4.83-9.401 10.095 0 5.265 3.614 9.95 9.587 9.95 4.276 0 7.598-1.762 9.066-6.203l-5.274-.237c-.136.717-1.519 2.321-3.693 2.321a4.329 4.329 0 01-3.186-1.263 4.374 4.374 0 01-1.283-3.193l13.693-.007zm-65.432 2.337c0 4.456 4.412 6.813 8.717 6.813 3.464 0 8.468-1.605 8.468-6.548 0-3.49-2.317-4.779-5.624-5.588-2.901-.717-6.415-.602-6.415-2.486 0-1.526 1.64-2.085 3.264-2.085 1.832 0 3.685.78 3.685 2.801h4.555c-.392-4.621-4.099-6.377-8.154-6.377-4.056 0-7.983 1.74-7.983 6.412 0 3.31 2.85 4.735 5.802 5.251 4.469.781 5.859.96 5.859 2.68 0 1.72-2.552 2.285-3.414 2.285-2.01 0-4.106-.903-4.142-3.16h-4.618v.002zm17.983 5.867h5.117V29.975c0-3.246 2.224-3.998 3.2-3.998 2.788 0 3.009 2.286 3.009 4.356v10.388h5.117V29.975c0-3.253 1.846-4.062 3.165-4.062 2.944 0 3.043 2.314 3.043 4.427v10.381h5.118V28.27c0-4.872-2.751-6.727-6.6-6.727a6.515 6.515 0 00-5.453 3.13c-.976-2.256-3.008-3.13-5.274-3.13a6.464 6.464 0 00-5.524 3.052h-.071v-2.55H66.65v18.676l.001.001zM29.912 22.611c-2.93-.003-5.378 2.076-5.96 4.848-.583-2.759-3.016-4.833-5.936-4.842-3.358-.01-6.09 2.715-6.106 6.09a6.149 6.149 0 001.777 4.34c.86.869 1.96 1.46 3.16 1.694a6.109 6.109 0 00-4.805 4.736c-.581-2.763-3.018-4.838-5.94-4.845-3.36-.008-6.09 2.72-6.102 6.096-.004 3.384 2.72 6.132 6.087 6.14 2.93 0 5.376-2.08 5.957-4.852.584 2.767 3.026 4.845 5.953 4.852 2.953 0 5.415-2.114 5.97-4.918.557 2.803 3.016 4.918 5.97 4.925 3.354-.016 6.063-2.756 6.058-6.128a6.112 6.112 0 00-4.965-6.004 6.109 6.109 0 004.827-4.714 6.143 6.143 0 001.637 3.018 6.086 6.086 0 004.31 1.807c3.358 0 6.081-2.734 6.087-6.109.005-3.375-2.71-6.117-6.068-6.128-2.921-.009-5.368 2.051-5.967 4.809-.593-2.752-3.029-4.814-5.944-4.816v.001zM12.044 42.015a6.171 6.171 0 00-.002-2.539 6.173 6.173 0 00.002 2.539zm11.925-12.09a6.142 6.142 0 001.657 3.114 6.091 6.091 0 003.183 1.698 6.109 6.109 0 00-4.856 4.743 6.11 6.11 0 00-4.795-4.738 6.085 6.085 0 01-2.312-.002 6.082 6.082 0 012.312.002 6.11 6.11 0 004.811-4.818v.001zm0 0a6.269 6.269 0 01-.12-1.226l-.028.007c0-.42.044-.837.13-1.248.172.812.178 1.651.018 2.466v.001zm76.588-1.062a4.107 4.107 0 014.084-3.776 4.106 4.106 0 014.084 3.776h-8.168zm23.778 6.384c-2.644 0-4.341-2.587-4.191-5.173.135-2.407 1.425-4.907 4.39-4.907 2.966 0 4.612 2.471 4.413 5.337-.157 2.328-1.476 4.743-4.612 4.743z"/><path fill="#B12920" fill-rule="nonzero" d="M38.29 0c2.102 0 3.471 1.661 3.471 4.191 0 2.529-1.347 4.083-3.386 4.083a2.803 2.803 0 01-2.402-1.175v3.79h-2.138V.229h2.024l.015.974A2.846 2.846 0 0138.29 0zm57.057 0c2.102 0 3.471 1.661 3.471 4.191 0 2.529-1.347 4.083-3.386 4.083a2.803 2.803 0 01-2.402-1.175v3.79h-2.138V.229h2.024l.015.974A2.846 2.846 0 0195.347 0zm34.148 0c2.102 0 3.471 1.661 3.471 4.191 0 2.529-1.347 4.083-3.386 4.083a2.803 2.803 0 01-2.402-1.175v3.79h-2.138V.229h2.024l.015.974A2.846 2.846 0 01129.495 0zm-9.515 0c2.267 0 3.85 1.741 3.85 4.499v.215h-5.589c0 1.354.713 2.092 1.825 2.092.73.036 1.388-.44 1.582-1.146h2.053a3.566 3.566 0 01-3.65 2.665c-2.401 0-3.991-1.648-3.991-4.12 0-2.471 1.654-4.205 3.92-4.205zM28.768 0c2.267 0 3.848 1.741 3.846 4.499v.215h-5.58c0 1.354.713 2.092 1.825 2.092.73.036 1.388-.44 1.582-1.146h2.061a3.566 3.566 0 01-3.657 2.665c-2.402 0-3.984-1.648-3.984-4.12 0-2.471 1.64-4.205 3.907-4.205zm26.87 0c2.267 0 3.849 1.741 3.848 4.499v.215h-5.588c0 1.354.713 2.092 1.825 2.092.73.036 1.388-.44 1.582-1.146h2.054a3.566 3.566 0 01-3.65 2.665c-2.402 0-3.984-1.648-3.984-4.12C51.725 1.734 53.371 0 55.638 0zm30.15 0c1.568 0 3.4.365 3.401 2.566V5.96a5.37 5.37 0 00.27 2.15l-2.152-.014a2.355 2.355 0 01-.15-.76 3.558 3.558 0 01-2.524.989c-1.725 0-2.78-.903-2.78-2.379 0-2.056 1.86-2.3 3.4-2.5 1.39-.179 1.903-.308 1.903-.946 0-.637-.456-1.053-1.425-1.053-.97 0-1.39.308-1.54 1.203h-2.01C82.302.896 83.542 0 85.788 0zm-5.246.23v7.88l-2.138-.014V1.892h-3.008v6.204h-2.138V.23h7.284zM2.053.23v5.323L4.833.23h2.43v7.88L5.21 8.097V2.773L2.43 8.096H0V.23h2.053zm9.037 0v2.866h3.008V.23h2.138v7.88l-2.138-.014v-3.31H11.09v3.31H8.952V.23h2.138zm98.518 0v2.866h3.008V.23h2.138v7.88l-2.138-.014v-3.31h-3.008v3.31h-2.138V.23h2.138zm-64.369 0v2.866h3.008V.23h2.138v7.88l-2.138-.014v-3.31h-3.008v3.31h-2.138V.23h2.138zm61.22 0v1.662H103.9v6.204h-2.138V1.892h-2.566V.23h7.263zM24.49.23v1.662h-2.566v6.204h-2.138V1.892H17.22V.23h7.27zm42.553 0v1.662h-2.566v6.204h-2.138V1.892h-2.566V.23h7.27zm20.099 4.068a4.046 4.046 0 01-1.51.38c-.713.122-1.568.215-1.568 1.175 0 .659.441 1.053 1.176 1.053.492.059.986-.101 1.352-.438.365-.337.567-.818.55-1.317zm-49.387-2.55c-1.147 0-1.853.902-1.853 2.428h-.028c0 1.526.712 2.422 1.874 2.422 1.162 0 1.867-.867 1.867-2.393 0-1.527-.712-2.457-1.86-2.457zm57.029 0c-1.148 0-1.825.902-1.825 2.428h-.028c0 1.526.712 2.422 1.874 2.422 1.162 0 1.839-.903 1.839-2.393 0-1.49-.713-2.457-1.86-2.457zm34.155 0c-1.148 0-1.832.902-1.832 2.428h-.028c0 1.526.712 2.422 1.874 2.422 1.162 0 1.846-.903 1.846-2.393 0-1.49-.713-2.457-1.86-2.457zM71.654 2.973v1.934h-4.547V2.973h4.547zM28.767 1.569a1.758 1.758 0 00-1.739 1.77h3.414c-.085-.96-.599-1.77-1.675-1.77zm26.871 0a1.76 1.76 0 00-1.746 1.77h3.414c-.086-.96-.598-1.77-1.668-1.77zm64.342 0a1.76 1.76 0 00-1.746 1.77h3.414a1.713 1.713 0 00-.464-1.238 1.695 1.695 0 00-1.204-.532z"/></g></svg>