<svg width="813" height="160" viewBox="0 0 813 160" xmlns:xlink="http://www.w3.org/1999/xlink" xmlns="http://www.w3.org/2000/svg"><path d="M812.342 3.04h-29.815v12.552S775.095 0 747.225 0c-30.247 0-49.086 26.71-49.086 56.026 0 31.097 16.419 55.679 50.08 55.679 25.277 0 33.228-13.464 33.228-13.464l.259 12.03c-.994 16.027-9.29 24.626-25.191 24.626-11.753 0-19.142-3.822-20.784-13.029l-32.883 1.824C704.015 146.493 729.811 160 753.274 160c52.802-.087 59.068-28.187 59.068-51.031V3.04zM691.7 70.402c2.334-33.92-16.808-69.49-57.641-69.49-35.778 0-56.994 29.273-56.994 61.194 0 31.922 21.907 60.326 58.117 60.326 25.926 0 46.062-10.684 54.963-37.611l-31.975-1.433c-.821 4.343-9.204 14.071-22.383 14.071a26.245 26.245 0 01-19.317-7.66 26.52 26.52 0 01-7.775-19.354l83.005-.043zM295.036 84.56c0 27.014 26.746 41.303 52.845 41.303 21 0 51.333-9.728 51.333-39.696 0-21.15-14.043-28.968-34.092-33.876-17.587-4.343-38.889-3.648-38.889-15.07 0-9.251 9.938-12.639 19.79-12.639 11.105 0 22.339 4.734 22.339 16.981h27.611C393.597 13.55 371.128 2.91 346.542 2.91c-24.587 0-48.395 10.554-48.395 38.87 0 20.066 17.284 28.709 35.172 31.836 27.093 4.734 35.519 5.82 35.519 16.243 0 10.423-15.469 13.854-20.698 13.854-12.185 0-24.888-5.472-25.105-19.153h-27.999zm109.018 35.57h31.024V54.984c0-19.675 13.482-24.235 19.401-24.235 16.895 0 18.235 13.855 18.235 26.406v62.975h31.024V54.984c0-19.718 11.192-24.626 19.185-24.626 17.846 0 18.451 14.028 18.451 26.84v62.932h31.024V44.647c0-29.533-16.679-40.782-40.012-40.782-13.523.228-25.992 7.387-33.055 18.98-5.92-13.681-18.235-18.98-31.975-18.98-13.598-.082-26.269 6.918-33.488 18.502h-.432V6.906h-29.382V120.13zM181.337 10.337c-17.762-.014-32.609 12.59-36.136 29.398-3.531-16.729-18.284-29.3-35.982-29.355-20.357-.064-36.92 16.455-37.016 36.916A37.275 37.275 0 0082.976 73.61a36.93 36.93 0 0019.15 10.266c-14.544 2.798-26.065 14.181-29.123 28.713-3.526-16.749-18.3-29.333-36.016-29.375C16.624 83.166.072 99.707 0 120.174c-.024 20.515 16.49 37.172 36.901 37.22 17.76 0 32.592-12.611 36.11-29.415 3.545 16.774 18.346 29.373 36.093 29.415 17.901 0 32.828-12.813 36.192-29.816 3.375 16.996 18.281 29.818 36.185 29.86 20.334-.096 36.759-16.709 36.727-37.148-.028-18.122-12.984-33.196-30.095-36.403 14.584-2.733 26.139-14.082 29.261-28.578a37.228 37.228 0 009.922 18.301 36.893 36.893 0 0026.129 10.95c20.357 0 36.869-16.57 36.9-37.032.032-20.462-16.428-37.084-36.786-37.148-17.706-.055-32.542 12.434-36.168 29.152-3.599-16.684-18.365-29.181-36.034-29.195zM73.011 127.979c.515-2.462.788-5.015.79-7.632a37.43 37.43 0 00-.798-7.758 37.445 37.445 0 00-.8 7.585 37.501 37.501 0 00.808 7.805zm43.127-44.092a36.905 36.905 0 01-7.034.673 36.8 36.8 0 01-6.978-.684 36.907 36.907 0 017.065-.662c2.375.006 4.698.237 6.947.673zm29.17-29.205a37.315 37.315 0 01-.728-7.429l-.173.043a37.43 37.43 0 01.794-7.561c.531 2.513.808 5.12.804 7.793a37.462 37.462 0 01-.697 7.154zm0 0c-2.892 14.749-14.48 26.355-29.17 29.205 14.536 2.82 26.027 14.21 29.073 28.724 3.087-14.628 14.749-26.06 29.435-28.75a36.93 36.93 0 01-19.294-10.294 37.236 37.236 0 01-10.044-18.885zm464.294-6.43c1.077-12.94 11.84-22.892 24.759-22.892s23.683 9.952 24.759 22.892h-49.518zm144.147 38.697c-16.03 0-26.314-15.679-25.407-31.357.821-14.593 8.642-29.75 26.617-29.75s27.957 14.983 26.747 32.356c-.951 14.115-8.944 28.751-27.957 28.751z" id="logo-bg" fill="#EDEDED" fill-rule="evenodd" stroke="none"/></svg>