<svg width="134" height="48" viewBox="0 0 134 48" xmlns:xlink="http://www.w3.org/1999/xlink" xmlns="http://www.w3.org/2000/svg"><g id="sm-rus-default-3" stroke="none"><path d="M134 .501h-4.918v2.07S127.856 0 123.259 0c-4.99 0-8.097 4.406-8.097 9.242 0 5.13 2.708 9.184 8.261 9.184 4.169 0 5.481-2.22 5.481-2.22l.043 1.984c-.164 2.643-1.533 4.062-4.156 4.062-1.939 0-3.157-.63-3.428-2.15l-5.424.302c.192 3.76 4.447 5.989 8.318 5.989 8.709-.015 9.743-4.65 9.743-8.418V.5zm-19.9 11.112C114.484 6.018 111.327.15 104.591.15c-5.901 0-9.401 4.83-9.401 10.095 0 5.265 3.614 9.95 9.587 9.95 4.276 0 7.598-1.762 9.066-6.203l-5.274-.237c-.136.717-1.519 2.321-3.693 2.321a4.329 4.329 0 01-3.186-1.263 4.374 4.374 0 01-1.283-3.193l13.693-.007zM48.668 13.95c0 4.456 4.412 6.813 8.717 6.813 3.464 0 8.468-1.605 8.468-6.548 0-3.49-2.317-4.779-5.624-5.588-2.901-.717-6.415-.602-6.415-2.486 0-1.526 1.64-2.085 3.264-2.085 1.832 0 3.685.78 3.685 2.801h4.555C64.926 2.236 61.219.48 57.164.48c-4.056 0-7.983 1.74-7.983 6.412 0 3.31 2.85 4.735 5.802 5.251 4.469.781 5.859.96 5.859 2.68 0 1.72-2.552 2.285-3.414 2.285-2.01 0-4.106-.903-4.142-3.16h-4.618zm17.983 5.867h5.117V9.07c0-3.246 2.224-3.998 3.2-3.998 2.788 0 3.009 2.286 3.009 4.356v10.388h5.117V9.07c0-3.253 1.846-4.062 3.165-4.062 2.944 0 3.043 2.314 3.043 4.427v10.381h5.118V7.365c0-4.872-2.751-6.727-6.6-6.727a6.515 6.515 0 00-5.453 3.13c-.976-2.256-3.008-3.13-5.274-3.13a6.464 6.464 0 00-5.524 3.052h-.071V1.14H66.65v18.676zM29.912 1.706c-2.93-.003-5.378 2.076-5.96 4.848-.583-2.759-3.016-4.833-5.936-4.842-3.358-.01-6.09 2.715-6.106 6.09a6.149 6.149 0 001.777 4.34 6.092 6.092 0 003.16 1.694 6.109 6.109 0 00-4.805 4.736c-.581-2.763-3.018-4.838-5.94-4.845-3.36-.008-6.09 2.72-6.102 6.096-.004 3.384 2.72 6.132 6.087 6.14 2.93 0 5.376-2.08 5.957-4.852.584 2.767 3.026 4.845 5.953 4.852 2.953 0 5.415-2.114 5.97-4.918.557 2.803 3.016 4.918 5.97 4.925 3.354-.016 6.063-2.756 6.058-6.128a6.112 6.112 0 00-4.965-6.004 6.109 6.109 0 004.827-4.714 6.143 6.143 0 001.637 3.018 6.086 6.086 0 004.31 1.807c3.358 0 6.081-2.734 6.087-6.109.005-3.375-2.71-6.117-6.068-6.128-2.921-.009-5.368 2.051-5.967 4.809-.593-2.752-3.029-4.814-5.944-4.816zM12.044 21.11a6.171 6.171 0 00-.002-2.539 6.173 6.173 0 00.002 2.539zM23.969 9.02a6.142 6.142 0 001.657 3.114 6.091 6.091 0 003.183 1.698 6.109 6.109 0 00-4.856 4.743 6.11 6.11 0 00-4.795-4.738 6.085 6.085 0 01-2.312-.002 6.082 6.082 0 012.312.002 6.11 6.11 0 004.811-4.818zm0 0a6.269 6.269 0 01-.12-1.226l-.028.007a6.18 6.18 0 01.13-1.248 6.173 6.173 0 01.018 2.466zm76.588-1.062a4.107 4.107 0 014.084-3.776 4.106 4.106 0 014.084 3.776h-8.168zm23.778 6.384c-2.644 0-4.341-2.587-4.191-5.173.135-2.407 1.425-4.907 4.39-4.907 2.966 0 4.612 2.471 4.413 5.337-.157 2.328-1.476 4.743-4.612 4.743z" transform="translate(0 20.905)" id="Combined-Shape" fill="#000" fill-rule="evenodd"/><path d="M5.21 7.866V2.543L2.43 7.866H0V0h2.053v5.323L4.833 0h2.43v7.88L5.21 7.867z" transform="translate(0 .23)" id="Path" fill="#B12920"/><path d="M5.146 7.866v-3.31H2.138v3.31H0V0h2.138v2.866h3.008V0h2.138v7.88l-2.138-.014z" transform="translate(8.952 .23)" id="Path" fill="#B12920"/><path d="M4.704 1.662v6.204H2.566V1.662H0V0h7.27v1.662H4.704z" transform="translate(17.22 .23)" id="Path" fill="#B12920"/><path d="M0 4.205c0 2.472 1.582 4.12 3.984 4.12A3.566 3.566 0 007.641 5.66H5.58a1.562 1.562 0 01-1.582 1.146c-1.112 0-1.825-.738-1.825-2.092h5.58v-.215C7.755 1.741 6.174 0 3.907 0S0 1.734 0 4.205zm2.167-.866a1.758 1.758 0 011.739-1.77c1.076 0 1.59.81 1.675 1.77H2.167z" transform="translate(24.861)" id="Shape" fill="#B12920" fill-rule="evenodd"/><path d="M4.455.002a2.846 2.846 0 00-2.416 1.203L2.024.231H0v10.66h2.138v-3.79A2.803 2.803 0 004.54 8.276c2.039 0 3.386-1.554 3.386-4.083 0-2.53-1.369-4.191-3.471-4.191zM3.913 6.6c-1.162 0-1.874-.896-1.874-2.422h.028c0-1.526.706-2.428 1.853-2.428 1.148 0 1.86.93 1.86 2.457 0 1.526-.705 2.393-1.867 2.393z" transform="translate(33.835 -.002)" id="Shape" fill="#B12920" fill-rule="evenodd"/><path d="M5.146 7.866v-3.31H2.138v3.31H0V0h2.138v2.866h3.008V0h2.138v7.88l-2.138-.014z" transform="translate(43.101 .23)" id="Path" fill="#B12920"/><path d="M0 4.205c0 2.472 1.582 4.12 3.984 4.12a3.566 3.566 0 003.65-2.665H5.58a1.562 1.562 0 01-1.582 1.146c-1.112 0-1.825-.738-1.825-2.092h5.588v-.215C7.762 1.741 6.18 0 3.913 0S0 1.734 0 4.205zm2.167-.866a1.758 1.758 0 011.739-1.77h.007c1.07 0 1.582.81 1.668 1.77H2.167z" transform="translate(51.725)" id="Shape" fill="#B12920" fill-rule="evenodd"/><path d="M4.704 1.662v6.204H2.566V1.662H0V0h7.27v1.662H4.704z" transform="translate(59.773 .23)" id="Path" fill="#B12920"/><path d="M4.547 1.934H0V0h4.547v1.934z" transform="translate(67.107 2.973)" id="Path" fill="#B12920"/><path d="M5.146 7.866V1.662H2.138v6.204H0V0h7.284v7.88l-2.138-.014z" transform="translate(73.258 .23)" id="Path" fill="#B12920"/><path d="M5.303 7.336c.008.26.058.516.15.76l2.152.014a5.377 5.377 0 01-.27-2.15V2.566C7.334.365 5.502 0 3.934 0 1.688 0 .448.896.327 2.65h2.01c.15-.895.57-1.203 1.54-1.203.969 0 1.425.416 1.425 1.053 0 .638-.513.767-1.903.946-1.54.2-3.4.444-3.4 2.5 0 1.476 1.055 2.379 2.78 2.379a3.554 3.554 0 002.523-.989zM2.21 5.853c0-.96.855-1.053 1.568-1.175a4.046 4.046 0 001.51-.38v.853c.017.499-.185.98-.55 1.317-.366.337-.86.497-1.352.438-.735 0-1.176-.394-1.176-1.053z" transform="translate(81.854)" id="Shape" fill="#B12920" fill-rule="evenodd"/><path d="M4.455.002a2.846 2.846 0 00-2.416 1.203L2.024.231H0v10.66h2.138v-3.79A2.803 2.803 0 004.54 8.276c2.039 0 3.386-1.554 3.386-4.083 0-2.53-1.369-4.191-3.471-4.191zM3.913 6.6c-1.162 0-1.874-.896-1.874-2.422h.028c0-1.526.677-2.428 1.825-2.428 1.147 0 1.86.967 1.86 2.457 0 1.49-.677 2.393-1.839 2.393z" transform="translate(90.892 -.002)" id="Shape" fill="#B12920" fill-rule="evenodd"/><path d="M4.704 1.662v6.204H2.566V1.662H0V0h7.263v1.662H4.704z" transform="translate(99.196 .23)" id="Path" fill="#B12920"/><path d="M5.146 7.866v-3.31H2.138v3.31H0V0h2.138v2.866h3.008V0h2.138v7.88l-2.138-.014z" transform="translate(107.47 .23)" id="Path" fill="#B12920"/><path d="M0 4.205c0 2.472 1.59 4.12 3.991 4.12a3.566 3.566 0 003.65-2.665H5.588a1.562 1.562 0 01-1.582 1.146c-1.112 0-1.825-.738-1.825-2.092H7.77v-.215C7.77 1.741 6.187 0 3.92 0 1.654 0 0 1.734 0 4.205zm2.174-.866a1.758 1.758 0 011.74-1.77h.006c.456.007.89.2 1.204.532.314.333.481.78.464 1.238H2.174z" transform="translate(116.06)" id="Shape" fill="#B12920" fill-rule="evenodd"/><path d="M4.455.002a2.846 2.846 0 00-2.416 1.203L2.024.231H0v10.66h2.138v-3.79A2.803 2.803 0 004.54 8.276c2.039 0 3.386-1.554 3.386-4.083 0-2.53-1.369-4.191-3.471-4.191zM3.913 6.6c-1.162 0-1.874-.896-1.874-2.422h.028c0-1.526.684-2.428 1.832-2.428 1.147 0 1.86.967 1.86 2.457 0 1.49-.684 2.393-1.846 2.393z" transform="translate(125.04 -.002)" id="Shape" fill="#B12920" fill-rule="evenodd"/></g></svg>