<svg width="134" height="48" xmlns="http://www.w3.org/2000/svg"><path d="M134 21.407h-4.918v2.07s-1.226-2.572-5.823-2.572c-4.99 0-8.097 4.406-8.097 9.242 0 5.13 2.708 9.184 8.261 9.184 4.169 0 5.481-2.22 5.481-2.22l.043 1.984c-.164 2.643-1.533 4.062-4.156 4.062-1.939 0-3.157-.63-3.428-2.15l-5.424.302c.192 3.76 4.447 5.989 8.318 5.989 8.709-.014 9.743-4.65 9.743-8.418V21.407zm-19.9 11.111c.384-5.595-2.773-11.462-9.509-11.462-5.901 0-9.401 4.828-9.401 10.094 0 5.265 3.614 9.95 9.587 9.95 4.276 0 7.598-1.762 9.066-6.203l-5.274-.237c-.136.717-1.519 2.321-3.693 2.321a4.329 4.329 0 01-3.186-1.263 4.374 4.374 0 01-1.283-3.193l13.693-.007zm-65.432 2.336c0 4.456 4.412 6.813 8.717 6.813 3.464 0 8.467-1.605 8.467-6.548 0-3.49-2.316-4.779-5.623-5.588-2.901-.717-6.415-.602-6.415-2.486 0-1.526 1.64-2.085 3.264-2.085 1.832 0 3.685.78 3.685 2.801h4.555c-.392-4.62-4.099-6.376-8.154-6.376-4.056 0-7.983 1.741-7.983 6.412 0 3.31 2.85 4.736 5.802 5.251 4.469.781 5.859.96 5.859 2.68 0 1.72-2.552 2.285-3.414 2.285-2.01 0-4.106-.903-4.142-3.16h-4.618zM66.65 40.72h5.117V29.975c0-3.245 2.224-3.998 3.2-3.998 2.788 0 3.009 2.286 3.009 4.356v10.388h5.117V29.975c0-3.253 1.846-4.062 3.165-4.062 2.944 0 3.043 2.314 3.043 4.427v10.381h5.118V28.27c0-4.872-2.751-6.727-6.6-6.727a6.515 6.515 0 00-5.453 3.13c-.976-2.256-3.008-3.13-5.274-3.13a6.464 6.464 0 00-5.524 3.052h-.071v-2.55H66.65V40.72zM29.911 22.61c-2.93-.003-5.379 2.076-5.96 4.849-.583-2.76-3.016-4.834-5.936-4.843-3.358-.01-6.09 2.715-6.106 6.09a6.149 6.149 0 001.777 4.34 6.092 6.092 0 003.16 1.694 6.11 6.11 0 00-4.805 4.736c-.581-2.763-3.018-4.838-5.94-4.845-3.36-.008-6.09 2.72-6.102 6.096-.004 3.384 2.72 6.132 6.087 6.14 2.93 0 5.376-2.08 5.956-4.852.585 2.767 3.027 4.845 5.954 4.852 2.953 0 5.415-2.114 5.97-4.918.557 2.803 3.016 4.918 5.97 4.925 3.353-.016 6.063-2.756 6.058-6.128a6.112 6.112 0 00-4.965-6.004 6.109 6.109 0 004.827-4.714 6.143 6.143 0 001.637 3.018 6.086 6.086 0 004.31 1.807c3.358 0 6.081-2.734 6.087-6.109.005-3.375-2.71-6.117-6.068-6.128-2.921-.009-5.368 2.051-5.967 4.809-.593-2.752-3.029-4.813-5.944-4.816zM12.043 42.015a6.171 6.171 0 000-2.539 6.173 6.173 0 000 2.539zm11.926-12.09a6.142 6.142 0 001.657 3.114 6.091 6.091 0 003.183 1.698 6.109 6.109 0 00-4.856 4.743 6.11 6.11 0 00-4.795-4.738 6.085 6.085 0 01-2.312-.002 6.082 6.082 0 012.312.002 6.11 6.11 0 004.811-4.818zm0 0a6.269 6.269 0 01-.12-1.226l-.028.007a6.18 6.18 0 01.13-1.247 6.173 6.173 0 01.018 2.465zm76.588-1.062a4.107 4.107 0 014.084-3.776 4.106 4.106 0 014.084 3.776h-8.168zm23.778 6.384c-2.644 0-4.341-2.587-4.191-5.173.135-2.407 1.425-4.907 4.39-4.907 2.966 0 4.612 2.471 4.413 5.337-.157 2.328-1.476 4.743-4.612 4.743z" fill-rule="evenodd"/><path d="M5.21 8.096V2.773L2.43 8.096H0V.229h2.053v5.323L4.833.23h2.43v7.88L5.21 8.097zm8.889 0v-3.31H11.09v3.31H8.952V.229h2.139v2.866h3.008V.229h2.138v7.88l-2.138-.013zm7.826-6.205v6.205h-2.139V1.89H17.22V.23h7.27v1.662h-2.565z" fill="#B12920"/><path d="M24.861 4.205c0 2.472 1.583 4.12 3.985 4.12a3.566 3.566 0 003.656-2.665h-2.06a1.562 1.562 0 01-1.582 1.146c-1.112 0-1.825-.738-1.825-2.092h5.581v-.215C32.616 1.741 31.034 0 28.767 0c-2.266 0-3.906 1.734-3.906 4.205zm2.167-.866a1.758 1.758 0 011.74-1.77c1.076 0 1.589.81 1.674 1.77h-3.414zM38.29 0a2.846 2.846 0 00-2.416 1.204l-.015-.975h-2.024v10.66h2.138V7.1a2.803 2.803 0 002.402 1.176c2.039 0 3.386-1.555 3.386-4.084S40.392 0 38.29 0zm-.542 6.598c-1.162 0-1.874-.895-1.874-2.421h.028c0-1.526.706-2.429 1.853-2.429 1.148 0 1.86.931 1.86 2.457 0 1.526-.705 2.393-1.867 2.393z" fill="#B12920" fill-rule="evenodd"/><path d="M48.247 8.096v-3.31H45.24v3.31h-2.138V.229h2.138v2.866h3.008V.229h2.138v7.88l-2.138-.013z" fill="#B12920"/><path d="M51.725 4.205c0 2.472 1.583 4.12 3.985 4.12a3.566 3.566 0 003.65-2.665h-2.054a1.562 1.562 0 01-1.582 1.146c-1.112 0-1.825-.738-1.825-2.092h5.588v-.215C59.487 1.741 57.905 0 55.64 0c-2.267 0-3.914 1.734-3.914 4.205zm2.167-.866a1.758 1.758 0 011.74-1.77h.007c1.069 0 1.582.81 1.667 1.77h-3.414z" fill="#B12920" fill-rule="evenodd"/><path d="M64.477 1.891v6.205h-2.138V1.89h-2.566V.23h7.27v1.662h-2.566zm7.177 3.016h-4.547V2.973h4.547v1.934zm6.75 3.189V1.89h-3.008v6.205h-2.138V.229h7.285v7.88l-2.139-.013z" fill="#B12920"/><path d="M87.157 7.336c.008.26.058.516.15.76l2.152.014a5.377 5.377 0 01-.27-2.15V2.566c0-2.2-1.832-2.565-3.4-2.565-2.246 0-3.486.896-3.607 2.65h2.01c.15-.895.57-1.203 1.54-1.203.969 0 1.425.416 1.425 1.053 0 .638-.513.767-1.903.946-1.54.2-3.4.444-3.4 2.5 0 1.476 1.055 2.379 2.78 2.379a3.554 3.554 0 002.523-.989zm-3.093-1.483c0-.96.855-1.053 1.568-1.175a4.046 4.046 0 001.51-.38v.853a1.71 1.71 0 01-.55 1.317c-.366.337-.86.497-1.352.438-.734 0-1.176-.394-1.176-1.053zM95.347 0a2.846 2.846 0 00-2.417 1.204l-.014-.975h-2.024v10.66h2.138V7.1a2.803 2.803 0 002.402 1.176c2.039 0 3.386-1.555 3.386-4.084S97.449 0 95.347 0zm-.542 6.598c-1.162 0-1.875-.895-1.875-2.421h.029c0-1.526.677-2.429 1.825-2.429 1.147 0 1.86.967 1.86 2.457 0 1.49-.677 2.393-1.839 2.393z" fill="#B12920" fill-rule="evenodd"/><path d="M103.9 1.891v6.205h-2.138V1.89h-2.566V.23h7.263v1.662h-2.56zm8.717 6.205v-3.31h-3.008v3.31h-2.138V.229h2.138v2.866h3.008V.229h2.138v7.88l-2.138-.013z" fill="#B12920"/><path d="M116.06 4.205c0 2.472 1.59 4.12 3.991 4.12a3.566 3.566 0 003.65-2.665h-2.053a1.562 1.562 0 01-1.583 1.146c-1.111 0-1.824-.738-1.824-2.092h5.588v-.215c0-2.758-1.582-4.499-3.85-4.499-2.266 0-3.92 1.734-3.92 4.205zm2.174-.866a1.758 1.758 0 011.739-1.77h.007c.456.007.89.2 1.204.532.314.333.481.78.464 1.238h-3.414zM129.495 0a2.846 2.846 0 00-2.416 1.204l-.014-.975h-2.025v10.66h2.139V7.1a2.803 2.803 0 002.402 1.176c2.038 0 3.385-1.555 3.385-4.084S131.598 0 129.496 0zm-.541 6.598c-1.162 0-1.875-.895-1.875-2.421h.029c0-1.526.684-2.429 1.831-2.429 1.148 0 1.86.967 1.86 2.457 0 1.49-.684 2.393-1.845 2.393z" fill="#B12920" fill-rule="evenodd"/></svg>