<svg xmlns="http://www.w3.org/2000/svg" width="103" height="86"><g fill="#FFF"><path d="M92.272 34.609v-2.325c0-3.546-2.888-6.43-6.438-6.43H64.375V15.137c0-1.184-.96-2.144-2.146-2.144h-6.438V6.565c0-1.184-.96-2.144-2.146-2.144h-29.15L20.83.761a2.148 2.148 0 00-3.034 0L5.549 12.994H2.146A2.143 2.143 0 000 15.137V75.15c0 1.183.96 2.143 2.146 2.143h8.799c.323 1.583.997 3.04 1.936 4.286H8.583a2.145 2.145 0 100 4.287h12.891c5.174-.008 9.501-3.692 10.497-8.573h39.058c.324 1.583.998 3.04 1.937 4.287h-4.298a2.144 2.144 0 100 4.286h12.89c5.175-.008 9.502-3.692 10.498-8.573h8.798c1.185 0 2.146-.96 2.146-2.143V47.286c0-6.36-4.648-11.653-10.728-12.677zM51.5 8.708v4.286H33.077l-4.29-4.286H51.5zm-32.187-3.4l2.774 2.77.003.004 4.918 4.912h-15.39l7.695-7.686zm2.145 76.271c-3.55 0-6.438-2.884-6.438-6.43 0-3.545 2.888-6.43 6.438-6.43s6.437 2.885 6.437 6.43c0 3.546-2.888 6.43-6.437 6.43zm38.625-53.582v36.436H45.49a2.145 2.145 0 100 4.287h14.593v4.287H31.971c-.997-4.886-5.332-8.574-10.513-8.574s-9.516 3.688-10.513 8.574H4.292V38.714h8.583a2.145 2.145 0 100-4.287H4.292V30.14H30.04a2.145 2.145 0 100-4.287H4.291V17.28h55.792v10.717zm10.947 45.01h-6.655V68.72h8.59a10.66 10.66 0 00-1.935 4.286zm16.95 2.15c-.004 3.542-2.89 6.422-6.437 6.422-3.55 0-6.438-2.884-6.438-6.43 0-3.54 2.88-6.42 6.421-6.43h.022c3.545.003 6.428 2.883 6.432 6.424v.014zm10.728-2.15h-6.652c-.997-4.887-5.332-8.574-10.513-8.574H64.375V30.141h21.46c1.182 0 2.145.961 2.145 2.143v2.143H72.96c-1.185 0-2.146.96-2.146 2.144V55.86c0 1.184.96 2.143 2.145 2.143h25.75v15.003zm-19.31-34.293v15.002h-4.293V38.714h4.292zm19.31 15.002h-15.02V38.714h6.438c4.732 0 8.582 3.845 8.582 8.572v6.43z"/><path d="M37.095 68.72h1.34a2.145 2.145 0 100-4.287h-1.34a2.144 2.144 0 100 4.287zm0-38.58h1.34a2.144 2.144 0 002.146-2.143 2.145 2.145 0 00-2.146-2.143h-1.34a2.145 2.145 0 100 4.287z"/></g></svg>