<svg width="18" height="18" xmlns="http://www.w3.org/2000/svg"><path d="M0 0h18v18H0V0z" fill="none"/><path d="M1.5 1.5V3H3l2.7 5.7-1.05 1.8c-.075.225-.15.525-.15.75 0 .825.675 1.5 1.5 1.5h9v-1.5H6.3a.161.161 0 01-.15-.15v-.075l.675-1.275h5.55c.6 0 1.05-.3 1.275-.75l2.7-4.875c.15-.15.15-.225.15-.375 0-.45-.3-.75-.75-.75H4.65l-.675-1.5H1.5zm3 13.5c0-.825.675-1.5 1.5-1.5s1.5.675 1.5 1.5-.675 1.5-1.5 1.5-1.5-.675-1.5-1.5zm7.5 0c0-.825.675-1.5 1.5-1.5s1.5.675 1.5 1.5-.675 1.5-1.5 1.5S12 15.825 12 15z" fill="#FFF" fill-rule="evenodd"/></svg>