<svg width="18" height="18" viewBox="0 0 18 18" xmlns:xlink="http://www.w3.org/1999/xlink" xmlns="http://www.w3.org/2000/svg"><g id="shopping-cart"><g id="shopping-cart" stroke="none"><path d="M0 0h18v18H0V0z" id="Rectangle-5" fill="none"/><path d="M0 0v1.5h1.5l2.7 5.7L3.15 9c-.075.225-.15.525-.15.75 0 .825.675 1.5 1.5 1.5h9v-1.5H4.8a.161.161 0 01-.15-.15v-.075l.675-1.275h5.55c.6 0 1.05-.3 1.275-.75l2.7-4.875c.15-.15.15-.225.15-.375 0-.45-.3-.75-.75-.75H3.15L2.475 0H0zm3 13.5c0-.825.675-1.5 1.5-1.5s1.5.675 1.5 1.5S5.325 15 4.5 15 3 14.325 3 13.5zm7.5 0c0-.825.675-1.5 1.5-1.5s1.5.675 1.5 1.5S12.825 15 12 15s-1.5-.675-1.5-1.5z" transform="translate(1.5 1.5)" id="Shape" fill="#FFF" fill-rule="evenodd"/></g></g></svg>