<svg xmlns="http://www.w3.org/2000/svg" width="83" height="86" viewBox="0 0 83 86"><path fill="#FFF" d="M64.074 45.51V6.913H7.034v72.01h26.238c1.882 0 3.422 1.555 3.422 3.456s-1.54 3.457-3.422 3.457H3.611c-1.882 0-3.422-1.556-3.422-3.457V3.456C.189 1.556 1.729 0 3.61 0h63.885c1.883 0 3.423 1.555 3.423 3.456V45.51c0 1.901-1.54 3.456-3.423 3.456-1.882 0-3.422-1.555-3.422-3.456zM81.7 53.92c-1.426-1.267-3.594-1.151-4.849.289L58.085 75.293l-9.412-9.16a3.403 3.403 0 00-4.848.116 3.485 3.485 0 00.114 4.897l11.978 11.636c.628.634 1.483.98 2.396.98h.114c.913-.058 1.825-.461 2.396-1.153l21.105-23.734c1.312-1.498 1.197-3.687-.228-4.954zM51.525 20.164H20.723c-1.882 0-3.422 1.555-3.422 3.456s1.54 3.457 3.422 3.457h30.802c1.882 0 3.422-1.556 3.422-3.457 0-1.9-1.54-3.456-3.422-3.456zm3.423 22.467c0-1.901-1.54-3.457-3.423-3.457H20.723c-1.882 0-3.422 1.556-3.422 3.457 0 1.9 1.54 3.456 3.422 3.456h30.802c1.882 0 3.423-1.555 3.423-3.456zM20.723 57.608c-1.882 0-3.422 1.555-3.422 3.456s1.54 3.457 3.422 3.457h9.127c1.882 0 3.422-1.556 3.422-3.457 0-1.9-1.54-3.456-3.422-3.456h-9.127z"/></svg>