<svg width="24" height="24" viewBox="0 0 24 24" xmlns:xlink="http://www.w3.org/1999/xlink" xmlns="http://www.w3.org/2000/svg"><g id="quality" stroke="none"><path d="M23.25 0H.75A.75.75 0 000 .75v16.5c0 .414.336.75.75.75h9.75v-1.5h-9v-15h21v15H21V18h2.25a.75.75 0 00.75-.75V.75a.75.75 0 00-.75-.75" transform="translate(0 1)" id="Fill-1" fill="#BA1212"/><path d="M0 4.5C0 2.018 2.018 0 4.5 0S9 2.018 9 4.5c0 .917-.277 1.77-.75 2.482v7.266a.751.751 0 01-1.2.6L4.5 12.936l-2.55 1.912a.751.751 0 01-1.2-.6V6.984A4.471 4.471 0 010 4.5zm1.5 0c0 1.654 1.345 3 3 3 1.654 0 3-1.346 3-3 0-1.655-1.346-3-3-3-1.655 0-3 1.345-3 3zm5.25 8.248l-1.8-1.35a.75.75 0 00-.9 0l-1.8 1.35V8.392a4.468 4.468 0 004.5 0v4.357z" transform="translate(11.25 8.502)" id="Fill-3" fill="#BA1212" fill-rule="evenodd"/><path d="M0 1.5h6V0H0v1.5z" transform="translate(3 4)" id="Fill-6" fill="#666"/><path d="M0 1.5h1.5V0H0v1.5z" transform="translate(3 7)" id="Fill-8" fill="#666"/><path d="M0 1.5h1.5V0H0v1.5z" transform="translate(6 7)" id="Fill-9" fill="#666"/><path d="M0 1.5h6V0H0v1.5z" transform="translate(3 10.75)" id="Fill-10" fill="#666"/><path d="M0 1.5h6V0H0v1.5z" transform="translate(3 13.75)" id="Fill-11" fill="#666"/><path d="M0 1.5h1.5V0H0v1.5z" transform="translate(19.5 4)" id="Fill-12" fill="#666"/><path d="M0 1.5h1.5V0H0v1.5z" transform="translate(16.5 4)" id="Fill-13" fill="#666"/></g></svg>