<svg width="24" height="24" xmlns="http://www.w3.org/2000/svg"><path d="M18 6h2.25a.75.75 0 01.75.75v3a.75.75 0 01-.75.75h-.75v8.25a.75.75 0 01-.75.75h-6V24h-1.5v-4.5h-6a.75.75 0 01-.75-.75V10.5h-.75A.75.75 0 013 9.75v-3A.75.75 0 013.75 6H6V.75A.75.75 0 016.75 0H9a.75.75 0 01.75.75V6h4.5V.75A.75.75 0 0115 0h2.25a.75.75 0 01.75.75V6zM8.25 6H7.5V1.5h.75V6zm7.5 0h.75V1.5h-.75V6zM4.5 9h15V7.5h-15V9zM6 18h12v-7.5H6V18z" fill="#BA1212" fill-rule="evenodd"/><path d="M8.25 13.5h7.5V12h-7.5v1.5zm0 3h7.5V15h-7.5v1.5z" fill="#666"/></svg>