<svg width="24" height="24" viewBox="0 0 24 24" xmlns:xlink="http://www.w3.org/1999/xlink" xmlns="http://www.w3.org/2000/svg"><g id="files" stroke="none"><path d="M14.783.218l4.5 4.5a.75.75 0 01.217.532v16.5A2.25 2.25 0 0117.25 24h-15A2.25 2.25 0 010 21.75V2.25A2.25 2.25 0 012.25 0h12a.75.75 0 01.533.218zM17.25 22.5a.75.75 0 00.75-.75V6h-3a1.5 1.5 0 01-1.5-1.5v-3H2.25a.75.75 0 00-.75.75v19.5c0 .414.336.75.75.75h15z" transform="translate(2)" id="Fill-1" fill="#BA1212" fill-rule="evenodd"/><path d="M0 1.5h7.5V0H0v1.5z" transform="translate(5 10.5)" id="Fill-4" fill="#666"/><path d="M0 1.5h13.5V0H0v1.5z" transform="translate(5 14.25)" id="Fill-6" fill="#666"/><path d="M0 1.5h7.5V0H0v1.5z" transform="translate(5 18)" id="Fill-7" fill="#666"/></g></svg>