<svg width="24" height="24" xmlns="http://www.w3.org/2000/svg"><path d="M23.25 1H.75a.75.75 0 00-.75.75v16.5c0 .414.336.75.75.75h9.75v-1.5h-9v-15h21v15H21V19h2.25a.75.75 0 00.75-.75V1.75a.75.75 0 00-.75-.75" fill="#BA1212"/><path d="M11.25 13.002c0-2.482 2.018-4.5 4.5-4.5s4.5 2.018 4.5 4.5c0 .917-.277 1.77-.75 2.482v7.266a.751.751 0 01-1.2.6l-2.55-1.912-2.55 1.912a.751.751 0 01-1.2-.6v-7.266a4.471 4.471 0 01-.75-2.482zm1.5 0c0 1.654 1.345 3 3 3 1.654 0 3-1.346 3-3 0-1.655-1.346-3-3-3-1.655 0-3 1.345-3 3zM18 21.25l-1.8-1.35a.75.75 0 00-.9 0l-1.8 1.35v-4.357a4.468 4.468 0 004.5 0v4.357z" fill="#BA1212" fill-rule="evenodd"/><path d="M3 5.5h6V4H3v1.5zm0 3h1.5V7H3v1.5zm3 0h1.5V7H6v1.5zm-3 3.75h6v-1.5H3v1.5zm0 3h6v-1.5H3v1.5zM19.5 5.5H21V4h-1.5v1.5zm-3 0H18V4h-1.5v1.5z" fill="#666"/></svg>