<svg width="24" height="24" viewBox="0 0 24 24" xmlns:xlink="http://www.w3.org/1999/xlink" xmlns="http://www.w3.org/2000/svg"><g id="tools" stroke="none"><path d="M15 6h2.25a.75.75 0 01.75.75v3a.75.75 0 01-.75.75h-.75v8.25a.75.75 0 01-.75.75h-6V24h-1.5v-4.5h-6a.75.75 0 01-.75-.75V10.5H.75A.75.75 0 010 9.75v-3A.75.75 0 01.75 6H3V.75A.75.75 0 013.75 0H6a.75.75 0 01.75.75V6h4.5V.75A.75.75 0 0112 0h2.25a.75.75 0 01.75.75V6zM5.25 6H4.5V1.5h.75V6zm7.5 0h.75V1.5h-.75V6zM1.5 9h15V7.5h-15V9zM3 18h12v-7.5H3V18z" transform="translate(3)" id="Fill-1" fill="#BA1212" fill-rule="evenodd"/><path d="M0 1.5h7.5V0H0v1.5z" transform="translate(8.25 12)" id="Fill-4" fill="#666"/><path d="M0 1.5h7.5V0H0v1.5z" transform="translate(8.25 15)" id="Fill-6" fill="#666"/></g></svg>