<svg xmlns="http://www.w3.org/2000/svg" xmlns:xlink="http://www.w3.org/1999/xlink" width="16" height="25" viewBox="0 0 16 25"><defs><filter id="блендеры-a" width="200%" height="1100%" x="-50%" y="-400%" filterUnits="objectBoundingBox"><feOffset dy="1" in="SourceAlpha" result="shadowOffsetOuter1"/><feGaussianBlur in="shadowOffsetOuter1" result="shadowBlurOuter1" stdDeviation="1.5"/><feColorMatrix in="shadowBlurOuter1" values="0 0 0 0 0.729411765 0 0 0 0 0.0705882353 0 0 0 0 0.0705882353 0 0 0 0.404747596 0"/></filter><path id="блендеры-b" d="M2 20h10v1H2z"/></defs><g fill="none" fill-rule="evenodd" transform="translate(1)"><path fill="#BA1212" d="M12 18h3v3h-3z"/><path stroke="#BA1212" d="M5 3h7.905a1 1 0 011 .984l.079 5a1 1 0 01-1 1.016H7h0"/><path fill="#FFF" stroke="#BA1212" d="M1.733 1.53a.498.498 0 00-.089.37l1.435 9.328A1.497 1.497 0 004.562 12.5h4.876a1.497 1.497 0 001.483-1.272L12.356 1.9a.498.498 0 00-.412-.57L9.918.994C7.972.67 5.986.676 1.733 1.531z"/><path fill="#FFF" stroke="#212121" d="M8.983 13.5H5.017a3.495 3.495 0 00-3.365 2.538l-.76 2.657A10.21 10.21 0 00.5 21.5l.5 1 12.5-.5v-.5c0-.949-.132-1.893-.393-2.805l-.759-2.657A3.495 3.495 0 008.983 13.5z"/><path fill="#000" opacity=".152" d="M2 23h3v1H2zm7 0h3v1H9z"/><use fill="#000" filter="url(#блендеры-a)" xlink:href="#блендеры-b"/><use fill="#BA1212" xlink:href="#блендеры-b"/><path fill="#D8D8D8" d="M5 3h1v8H5zm3 0h1v8H8zM3 3h1v2H3zm7 0h1v2h-1z"/></g></svg>