<svg xmlns="http://www.w3.org/2000/svg" xmlns:xlink="http://www.w3.org/1999/xlink" width="24" height="20" viewBox="0 0 24 20"><defs><filter id="вакуумные-упаковщики-a" width="162.5%" height="190.9%" x="-31.2%" y="-36.4%" filterUnits="objectBoundingBox"><feOffset dy="1" in="SourceAlpha" result="shadowOffsetOuter1"/><feGaussianBlur in="shadowOffsetOuter1" result="shadowBlurOuter1" stdDeviation="1.5"/><feComposite in="shadowBlurOuter1" in2="SourceAlpha" operator="out" result="shadowBlurOuter1"/><feColorMatrix in="shadowBlurOuter1" values="0 0 0 0 0.729411765 0 0 0 0 0.0705882353 0 0 0 0 0.0705882353 0 0 0 0.25 0"/></filter><path id="вакуумные-упаковщики-b" d="M4 2.5L9 3l11-.5-1 7.5 1 3.5-7-.5-9 .5L5 7z"/></defs><g fill="none" fill-rule="evenodd"><path stroke="#000" d="M2.5.5h19v15h-19z"/><use fill="#000" filter="url(#вакуумные-упаковщики-a)" xlink:href="#вакуумные-упаковщики-b"/><path fill="#BA1212" fill-opacity=".15" stroke="#BA1212" stroke-linejoin="square" d="M19.425 3.027L8.986 3.5l-4.348-.435.87 3.917-.92 5.984 8.416-.468 6.319.451-.832-2.913.934-7.01z"/><path stroke="#BA1212" d="M15.254 5.209c4.161.52.087 6.652-3.925 5.689-3.042-.73-4.656-4.568-1.954-5.734 1.824-.233 3.783-.218 5.88.045z"/><path fill="#BA1212" d="M9.414 8.423c6.469 5.386 2.744-5.018 0-1.787-.552.596-.552 1.191 0 1.787z"/><path fill="#BA1212" d="M13 6.747c.033 5.465 5.686-.729 1.388-.745-.822-.026-1.285.223-1.388.745z"/><path stroke="#000" d="M23.261 15.5H.74l1.6 4h19.32l1.6-4z"/></g></svg>