<svg xmlns="http://www.w3.org/2000/svg" xmlns:xlink="http://www.w3.org/1999/xlink" width="26" height="25"><defs><filter id="a" width="266.7%" height="600%" x="-83.3%" y="-200%" filterUnits="objectBoundingBox"><feOffset dy="1" in="SourceAlpha" result="shadowOffsetOuter1"/><feGaussianBlur in="shadowOffsetOuter1" result="shadowBlurOuter1" stdDeviation="1.5"/><feColorMatrix in="shadowBlurOuter1" values="0 0 0 0 0.729411765 0 0 0 0 0.0705882353 0 0 0 0 0.0705882353 0 0 0 0.404747596 0"/></filter><filter id="c" width="150%" height="176.9%" x="-25%" y="-30.8%" filterUnits="objectBoundingBox"><feOffset dy="1" in="SourceAlpha" result="shadowOffsetOuter1"/><feGaussianBlur in="shadowOffsetOuter1" result="shadowBlurOuter1" stdDeviation="1.5"/><feComposite in="shadowBlurOuter1" in2="SourceAlpha" operator="out" result="shadowBlurOuter1"/><feColorMatrix in="shadowBlurOuter1" values="0 0 0 0 0.729411765 0 0 0 0 0.0705882353 0 0 0 0 0.0705882353 0 0 0 0.251311189 0"/></filter><path id="b" d="M9 2h6v2H9z"/><path id="d" d="M2 8h20v13H2z"/></defs><g fill="none" fill-rule="evenodd" transform="translate(1)"><path stroke="#000" d="M.5 1.5h23v22H.5z"/><use fill="#000" filter="url(#a)" xlink:href="#b"/><use fill="#BA1212" xlink:href="#b"/><circle cx="4.5" cy="3.5" r="1" fill="#000"/><circle cx="6.5" cy="3.5" r="1" fill="#000"/><circle cx="17.5" cy="3.5" r="1" fill="#000"/><circle cx="19.5" cy="3.5" r="1" fill="#000"/><path fill="#000" opacity=".152" d="M3 0h6v1H3zm12 0h6v1h-6z"/><path fill="#000" d="M2 5h20v1H2z"/><use fill="#000" filter="url(#c)" xlink:href="#d"/><path fill="#D0021B" fill-opacity=".149" stroke="#BA1212" stroke-linejoin="square" d="M2.5 8.5h19v12h-19z"/><path fill="#BA1212" fill-opacity=".25" d="M3 10h18v1H3zm0 2h18v1H3zm0 2h18v1H3zm0 2h18v1H3zm0 2h18v1H3z"/></g></svg>