<svg width="25" height="19" viewBox="0 0 25 19" xmlns:xlink="http://www.w3.org/1999/xlink" xmlns="http://www.w3.org/2000/svg"><defs><clipPath id="clip_1"><use xlink:href="#path_1"/></clipPath><clipPath id="clip_2"><use xlink:href="#path_2"/></clipPath><clipPath id="clip_3"><use xlink:href="#path_3"/></clipPath><path d="M0 0h24v18H0V0z" id="path_1"/><path d="M3.999 0h.002q.196 0 .392.02.195.019.388.057.193.038.38.095.189.057.37.132.182.076.355.168.173.093.337.202.163.11.315.234.152.124.29.263.14.14.264.291.125.152.234.315.11.164.202.337.092.173.168.355.075.181.132.37.057.187.095.38t.058.388Q8 3.803 8 3.999v4.002q0 .196-.02.392-.019.195-.057.388-.038.193-.095.38-.057.189-.132.37-.076.182-.168.355-.093.173-.202.337-.11.163-.234.315-.124.152-.263.29-.14.14-.291.264-.152.125-.315.234-.164.11-.337.202-.173.092-.355.168-.181.075-.37.132-.187.057-.38.095t-.388.058Q4.197 12 4.001 12h-.002q-.196 0-.392-.02-.195-.019-.388-.057-.193-.038-.38-.095-.189-.057-.37-.132-.182-.076-.355-.168-.173-.093-.337-.202-.163-.11-.315-.234-.152-.124-.29-.263-.14-.14-.264-.291-.125-.152-.234-.315-.11-.164-.202-.337-.092-.173-.168-.355-.075-.181-.132-.37-.057-.187-.095-.38t-.058-.388Q0 8.197 0 8.001V3.999q0-.196.02-.392.019-.195.057-.388.038-.193.095-.38.057-.189.132-.37.076-.182.168-.355.093-.173.202-.337.11-.163.234-.315.124-.152.263-.29.14-.14.291-.264.152-.125.315-.234.164-.11.337-.202.173-.092.355-.168.181-.075.37-.132.187-.057.38-.095t.388-.058Q3.803 0 3.999 0z" transform="translate(3 2)" id="path_2"/><path d="M4 8a4 4 0 100-8 4 4 0 000 8z" transform="translate(3 2)" id="path_3"/><filter filterUnits="userSpaceOnUse" color-interpolation-filters="sRGB" id="filter_1"><feFlood flood-opacity="0" result="BackgroundImageFix"/><feColorMatrix in="SourceAlpha" values="0 0 0 0 0 0 0 0 0 0 0 0 0 0 0 0 0 0 127 0"/><feOffset dy="1"/><feGaussianBlur stdDeviation="1.5"/><feColorMatrix values="0 0 0 0 1 0 0 0 0 0.8 0 0 0 0 0.2392157 0 0 0 0.3058824 0"/><feBlend in2="BackgroundImageFix" result="effect0_dropShadow"/><feBlend in="SourceGraphic" in2="effect0_dropShadow" result="shape"/></filter><filter filterUnits="userSpaceOnUse" color-interpolation-filters="sRGB" id="filter_2"><feFlood flood-opacity="0" result="BackgroundImageFix"/><feColorMatrix in="SourceAlpha" values="0 0 0 0 0 0 0 0 0 0 0 0 0 0 0 0 0 0 127 0"/><feOffset dy="1"/><feGaussianBlur stdDeviation="1.5"/><feColorMatrix values="0 0 0 0 0.7294118 0 0 0 0 0.07058824 0 0 0 0 0.07058824 0 0 0 0.4039216 0"/><feBlend in2="BackgroundImageFix" result="effect0_dropShadow"/><feBlend in="SourceGraphic" in2="effect0_dropShadow" result="shape"/></filter></defs><g id="индукционные-плиты" transform="translate(.5 .5)"><g clip-path="url(#clip_1)" id="Rectangle"><use xlink:href="#path_1" fill="none" stroke="#000" stroke-width="2"/></g><g id="Rectangle"><use fill="#BA1212" fill-opacity=".251" xlink:href="#path_2"/><g clip-path="url(#clip_2)"><use xlink:href="#path_2" fill="none" stroke="#BA1212" stroke-width="2"/></g></g><g filter="url(#filter_1)"><g clip-path="url(#clip_3)" id="Oval"><use xlink:href="#path_3" fill="none" stroke="#BA1212" stroke-width="2"/></g></g><g filter="url(#filter_2)"><path d="M0 0h6v2H0V0z" transform="translate(9 15)" id="Rectangle" fill="#BA1212" stroke="none"/></g><path d="M2 4a2 2 0 100-4 2 2 0 000 4z" transform="translate(16 10)" id="Oval" fill="#000" stroke="none"/><path d="M3 6a3 3 0 100-6 3 3 0 000 6z" transform="translate(15 2)" id="Oval" fill="#000" stroke="none"/></g></svg>