<svg width="25" height="21" viewBox="0 0 25 21" xmlns:xlink="http://www.w3.org/1999/xlink" xmlns="http://www.w3.org/2000/svg"><defs><clipPath id="clip_1"><use xlink:href="#path_1"/></clipPath><clipPath id="clip_2"><use xlink:href="#path_2"/></clipPath><path d="M0 0h24l-2 17H2L0 0z" transform="translate(0 3)" id="path_1"/><path d="M0 0h8v4H0V0z" transform="translate(8)" id="path_2"/><filter filterUnits="userSpaceOnUse" color-interpolation-filters="sRGB" id="filter_1"><feFlood flood-opacity="0" result="BackgroundImageFix"/><feColorMatrix in="SourceAlpha" values="0 0 0 0 0 0 0 0 0 0 0 0 0 0 0 0 0 0 127 0"/><feOffset dy="1"/><feGaussianBlur stdDeviation="1.5"/><feColorMatrix values="0 0 0 0 0.7294118 0 0 0 0 0.07058824 0 0 0 0 0.07058824 0 0 0 0.5019608 0"/><feBlend in2="BackgroundImageFix" result="effect0_dropShadow"/><feBlend in="SourceGraphic" in2="effect0_dropShadow" result="shape"/></filter></defs><g id="Вытяжка-настенная" transform="translate(.5 .5)"><g clip-path="url(#clip_1)" id="Rectangle"><use xlink:href="#path_1" fill="none" stroke="#000" stroke-width="2" stroke-linejoin="round"/></g><g clip-path="url(#clip_2)" id="Rectangle"><use xlink:href="#path_2" fill="none" stroke="#000" stroke-width="2"/></g><path d="M.499 0h21.002q.05 0 .097.01.049.01.094.028.045.019.086.046.041.027.076.062.035.035.062.076.027.04.046.086.019.045.028.094.01.048.01.097v.002q0 .05-.01.097-.01.049-.028.094-.019.045-.046.086-.027.041-.062.076-.035.035-.076.062-.04.027-.086.046-.046.019-.094.028-.048.01-.097.01H.499Q.449 1 .402.99.353.98.308.962.263.943.222.916.18.889.146.854.111.819.084.778.057.738.038.692.019.647.01.598 0 .55 0 .501V.499q0-.05.01-.097Q.02.353.038.308.057.263.084.222.111.18.146.146.181.111.222.084.262.057.308.038.353.019.402.01.45 0 .499 0z" transform="translate(1 8)" id="Rectangle" fill="#060606" stroke="none"/><path d="M0 0h10v1H0V0z" transform="translate(7 17)" id="Rectangle" fill="#060606" stroke="none"/><path d="M.5 1a.5.5 0 100-1 .5.5 0 000 1z" transform="translate(3 17)" id="Oval" fill="#060606" stroke="none"/><path d="M.5 1a.5.5 0 100-1 .5.5 0 000 1z" transform="translate(5 17)" id="Oval" fill="#060606" stroke="none"/><path d="M.5 1a.5.5 0 100-1 .5.5 0 000 1z" transform="translate(18 17)" id="Oval" fill="#060606" stroke="none"/><path d="M.5 1a.5.5 0 100-1 .5.5 0 000 1z" transform="translate(20 17)" id="Oval" fill="#060606" stroke="none"/><g filter="url(#filter_1)"><path d="M8 15l1.001-.667q.041-.028.078-.06.038-.032.07-.068.034-.037.062-.077.029-.04.052-.084.023-.043.04-.089.019-.046.03-.094.013-.047.019-.096.006-.05.006-.098 0-.05-.006-.098-.006-.05-.018-.097-.012-.048-.03-.094t-.041-.089q-.023-.043-.052-.084-.028-.04-.061-.076-.033-.037-.07-.069-.039-.032-.08-.06h0q-.041-.028-.078-.06-.038-.032-.07-.069-.034-.036-.062-.076-.029-.04-.052-.084-.023-.043-.04-.09-.019-.045-.03-.093-.013-.048-.019-.097-.006-.048-.006-.098 0-.049.006-.098t.018-.096q.012-.048.03-.094t.041-.09q.023-.043.052-.083.028-.04.061-.077.033-.036.07-.068.038-.032.079-.06L10 11" id="Path-6" fill="none" stroke="#BA1212" stroke-width="1" stroke-linecap="square"/></g><g filter="url(#filter_1)"><path d="M14 15l1.001-.667q.041-.028.078-.06.038-.032.07-.068.034-.037.062-.077.029-.04.052-.084.023-.043.04-.089.019-.046.03-.094.013-.047.019-.096.006-.05.006-.098 0-.05-.006-.098-.006-.05-.018-.097-.012-.048-.03-.094t-.041-.089q-.023-.043-.052-.084-.028-.04-.061-.076-.033-.037-.07-.069-.038-.032-.079-.06H15q-.041-.028-.078-.06-.038-.032-.07-.069-.034-.036-.062-.076-.029-.04-.052-.084-.023-.043-.04-.09-.019-.045-.03-.093-.013-.048-.019-.097-.006-.048-.006-.098 0-.049.006-.098t.018-.096q.012-.048.03-.094t.041-.09q.023-.043.052-.083.028-.04.061-.077.033-.036.07-.068.038-.032.079-.06L16 11" id="Path-6" fill="none" stroke="#BA1212" stroke-width="1" stroke-linecap="square"/></g><g filter="url(#filter_1)"><path d="M11 15l1.001-.667q.041-.028.078-.06.038-.032.07-.068.034-.037.062-.077.029-.04.052-.084.023-.043.04-.089.019-.046.03-.094.013-.047.019-.096.006-.05.006-.098 0-.05-.006-.098-.006-.05-.018-.097-.012-.048-.03-.094t-.041-.089q-.023-.043-.052-.084-.028-.04-.061-.076-.033-.037-.07-.069-.038-.032-.079-.06H12q-.041-.028-.078-.06-.038-.032-.07-.069-.034-.036-.062-.076-.029-.04-.052-.084-.023-.043-.04-.09-.019-.045-.03-.093-.013-.048-.019-.097-.006-.048-.006-.098 0-.049.006-.098t.018-.096q.012-.048.03-.094t.041-.09q.023-.043.052-.083.028-.04.061-.077.033-.036.07-.068.038-.032.079-.06L13 11" id="Path-6" fill="none" stroke="#BA1212" stroke-width="1" stroke-linecap="square"/></g></g></svg>