<svg xmlns="http://www.w3.org/2000/svg" xmlns:xlink="http://www.w3.org/1999/xlink" width="24" height="20"><defs><filter id="a" width="669.3%" height="384.7%" x="-284.7%" y="-117.3%" filterUnits="objectBoundingBox"><feMorphology in="SourceAlpha" operator="dilate" radius=".5" result="shadowSpreadOuter1"/><feOffset dy="1" in="shadowSpreadOuter1" result="shadowOffsetOuter1"/><feMorphology in="SourceAlpha" radius="1" result="shadowInner"/><feOffset dy="1" in="shadowInner" result="shadowInner"/><feComposite in="shadowOffsetOuter1" in2="shadowInner" operator="out" result="shadowOffsetOuter1"/><feGaussianBlur in="shadowOffsetOuter1" result="shadowBlurOuter1" stdDeviation="1.5"/><feColorMatrix in="shadowBlurOuter1" values="0 0 0 0 0.729411765 0 0 0 0 0.0705882353 0 0 0 0 0.0705882353 0 0 0 0.5 0"/></filter><filter id="c" width="669.3%" height="384.7%" x="-284.7%" y="-117.3%" filterUnits="objectBoundingBox"><feMorphology in="SourceAlpha" operator="dilate" radius=".5" result="shadowSpreadOuter1"/><feOffset dy="1" in="shadowSpreadOuter1" result="shadowOffsetOuter1"/><feMorphology in="SourceAlpha" radius="1" result="shadowInner"/><feOffset dy="1" in="shadowInner" result="shadowInner"/><feComposite in="shadowOffsetOuter1" in2="shadowInner" operator="out" result="shadowOffsetOuter1"/><feGaussianBlur in="shadowOffsetOuter1" result="shadowBlurOuter1" stdDeviation="1.5"/><feColorMatrix in="shadowBlurOuter1" values="0 0 0 0 0.729411765 0 0 0 0 0.0705882353 0 0 0 0 0.0705882353 0 0 0 0.5 0"/></filter><filter id="e" width="669.3%" height="384.7%" x="-284.7%" y="-117.3%" filterUnits="objectBoundingBox"><feMorphology in="SourceAlpha" operator="dilate" radius=".5" result="shadowSpreadOuter1"/><feOffset dy="1" in="shadowSpreadOuter1" result="shadowOffsetOuter1"/><feMorphology in="SourceAlpha" radius="1" result="shadowInner"/><feOffset dy="1" in="shadowInner" result="shadowInner"/><feComposite in="shadowOffsetOuter1" in2="shadowInner" operator="out" result="shadowOffsetOuter1"/><feGaussianBlur in="shadowOffsetOuter1" result="shadowBlurOuter1" stdDeviation="1.5"/><feColorMatrix in="shadowBlurOuter1" values="0 0 0 0 0.729411765 0 0 0 0 0.0705882353 0 0 0 0 0.0705882353 0 0 0 0.5 0"/></filter><path id="b" d="M10 15l-1-.667A.801.801 0 019 13a.801.801 0 000-1.333L8 11"/><path id="d" d="M16 15l-1-.667A.801.801 0 0115 13a.801.801 0 000-1.333L14 11"/><path id="f" d="M13 15l-1-.667A.801.801 0 0112 13a.801.801 0 000-1.333L11 11"/></defs><g fill="none" fill-rule="evenodd"><path stroke="#000" d="M23.438 3.5H.562l1.883 16h19.11l1.883-16zM8.5.5h7v3h-7z"/><rect width="22" height="1" x="1" y="8" fill="#060606" rx=".5"/><path fill="#060606" d="M7 17h10v1H7z"/><circle cx="3.5" cy="17.5" r="1" fill="#060606"/><circle cx="5.5" cy="17.5" r="1" fill="#060606"/><circle cx="18.5" cy="17.5" r="1" fill="#060606"/><circle cx="20.5" cy="17.5" r="1" fill="#060606"/><g stroke-linecap="square" transform="matrix(-1 0 0 1 18 0)"><use fill="#000" filter="url(#a)" xlink:href="#b"/><use stroke="#BA1212" xlink:href="#b"/></g><g stroke-linecap="square" transform="matrix(-1 0 0 1 30 0)"><use fill="#000" filter="url(#c)" xlink:href="#d"/><use stroke="#BA1212" xlink:href="#d"/></g><g stroke-linecap="square" transform="matrix(-1 0 0 1 24 0)"><use fill="#000" filter="url(#e)" xlink:href="#f"/><use stroke="#BA1212" xlink:href="#f"/></g></g></svg>