<svg width="25" height="25" xmlns:xlink="http://www.w3.org/1999/xlink" xmlns="http://www.w3.org/2000/svg"><defs><clipPath id="c"><use xlink:href="#a"/></clipPath><clipPath id="e"><use xlink:href="#b"/></clipPath><path d="M2 0h20l2 24H0L2 0z" id="a"/><path d="M1 0h14l1 15H0L1 0z" transform="translate(4 3)" id="b"/><filter filterUnits="userSpaceOnUse" color-interpolation-filters="sRGB" id="d"><feFlood flood-opacity="0" result="BackgroundImageFix"/><feColorMatrix in="SourceAlpha" values="0 0 0 0 0 0 0 0 0 0 0 0 0 0 0 0 0 0 127 0"/><feOffset dy="1"/><feGaussianBlur stdDeviation="1.5"/><feColorMatrix values="0 0 0 0 0.7294118 0 0 0 0 0.07058824 0 0 0 0 0.07058824 0 0 0 0.2509804 0"/><feBlend in2="BackgroundImageFix" result="effect0_dropShadow"/><feBlend in="SourceGraphic" in2="effect0_dropShadow" result="shape"/></filter></defs><g clip-path="url(#c)" transform="translate(.5 .5)"><use xlink:href="#a" fill="none" stroke="#000" stroke-width="2"/></g><g filter="url(#d)" transform="translate(.5 .5)"><use fill="#D0021B" fill-opacity=".149" xlink:href="#b"/><g clip-path="url(#e)"><use xlink:href="#b" fill="none" stroke="#BA1212" stroke-width="2"/></g></g><path d="M15.5 22.5c1.105 0 2-.672 2-1.5s-.895-1.5-2-1.5-2 .672-2 1.5.895 1.5 2 1.5zm-6 0c1.105 0 2-.672 2-1.5s-.895-1.5-2-1.5-2 .672-2 1.5.895 1.5 2 1.5z"/><path d="M5.5 5.5h14v1h-14v-1zm0 2h14v1h-14v-1zm0 2h14v1h-14v-1zm0 2h14v1h-14v-1zm0 2h14v1h-14v-1zm0 2h14v1h-14v-1z" fill="#BA1212"/></svg>