<svg width="25" height="25" viewBox="0 0 25 25" xmlns:xlink="http://www.w3.org/1999/xlink" xmlns="http://www.w3.org/2000/svg"><defs><clipPath id="clip_1"><use xlink:href="#path_1"/></clipPath><clipPath id="clip_2"><use xlink:href="#path_2"/></clipPath><path d="M2 0h20l2 24H0L2 0z" id="path_1"/><path d="M1 0h14l1 15H0L1 0z" transform="translate(4 3)" id="path_2"/><filter filterUnits="userSpaceOnUse" color-interpolation-filters="sRGB" id="filter_1"><feFlood flood-opacity="0" result="BackgroundImageFix"/><feColorMatrix in="SourceAlpha" values="0 0 0 0 0 0 0 0 0 0 0 0 0 0 0 0 0 0 127 0"/><feOffset dy="1"/><feGaussianBlur stdDeviation="1.5"/><feColorMatrix values="0 0 0 0 0.7294118 0 0 0 0 0.07058824 0 0 0 0 0.07058824 0 0 0 0.2509804 0"/><feBlend in2="BackgroundImageFix" result="effect0_dropShadow"/><feBlend in="SourceGraphic" in2="effect0_dropShadow" result="shape"/></filter></defs><g id="гриль" transform="translate(.5 .5)"><g clip-path="url(#clip_1)" id="Rectangle"><use xlink:href="#path_1" fill="none" stroke="#000" stroke-width="2"/></g><g filter="url(#filter_1)"><g id="Rectangle"><use fill="#D0021B" fill-opacity=".149" xlink:href="#path_2"/><g clip-path="url(#clip_2)"><use xlink:href="#path_2" fill="none" stroke="#BA1212" stroke-width="2"/></g></g></g><path d="M2 3c1.105 0 2-.672 2-1.5S3.105 0 2 0 0 .672 0 1.5.895 3 2 3z" transform="translate(13 19)" id="Oval" fill="#000" stroke="none"/><path d="M2 3c1.105 0 2-.672 2-1.5S3.105 0 2 0 0 .672 0 1.5.895 3 2 3z" transform="translate(7 19)" id="Oval" fill="#000" stroke="none"/><path d="M0 0h14v1H0V0z" transform="translate(5 5)" id="Rectangle" fill="#BA1212" stroke="none"/><path d="M0 0h14v1H0V0z" transform="translate(5 7)" id="Rectangle" fill="#BA1212" stroke="none"/><path d="M0 0h14v1H0V0z" transform="translate(5 9)" id="Rectangle" fill="#BA1212" stroke="none"/><path d="M0 0h14v1H0V0z" transform="translate(5 11)" id="Rectangle" fill="#BA1212" stroke="none"/><path d="M0 0h14v1H0V0z" transform="translate(5 13)" id="Rectangle" fill="#BA1212" stroke="none"/><path d="M0 0h14v1H0V0z" transform="translate(5 15)" id="Rectangle" fill="#BA1212" stroke="none"/></g></svg>