<svg xmlns="http://www.w3.org/2000/svg" xmlns:xlink="http://www.w3.org/1999/xlink" width="24" height="25" viewBox="0 0 24 25"><defs><filter id="кофемашины-a" width="155.6%" height="183.3%" x="-27.8%" y="-33.3%" filterUnits="objectBoundingBox"><feOffset dy="1" in="SourceAlpha" result="shadowOffsetOuter1"/><feGaussianBlur in="shadowOffsetOuter1" result="shadowBlurOuter1" stdDeviation="1.5"/><feComposite in="shadowBlurOuter1" in2="SourceAlpha" operator="out" result="shadowBlurOuter1"/><feColorMatrix in="shadowBlurOuter1" values="0 0 0 0 0.729411765 0 0 0 0 0.0705882353 0 0 0 0 0.0705882353 0 0 0 0.251311189 0"/></filter><filter id="кофемашины-c" width="266.7%" height="300%" x="-83.3%" y="-80%" filterUnits="objectBoundingBox"><feOffset dy="1" in="SourceAlpha" result="shadowOffsetOuter1"/><feGaussianBlur in="shadowOffsetOuter1" result="shadowBlurOuter1" stdDeviation="1.5"/><feColorMatrix in="shadowBlurOuter1" values="0 0 0 0 0.729411765 0 0 0 0 0.0705882353 0 0 0 0 0.0705882353 0 0 0 0.404747596 0"/></filter><path id="кофемашины-b" d="M3 9h18v12H3z"/><path id="кофемашины-d" d="M9 2h6v5H9z"/></defs><g fill="none" fill-rule="evenodd"><path stroke="#000" d="M.5.5h23v23H.5z"/><use fill="#000" filter="url(#кофемашины-a)" xlink:href="#кофемашины-b"/><path fill="#D0021B" fill-opacity=".149" stroke="#BA1212" stroke-linejoin="square" d="M3.5 9.5h17v11h-17z"/><use fill="#000" filter="url(#кофемашины-c)" xlink:href="#кофемашины-d"/><use fill="#BA1212" xlink:href="#кофемашины-d"/><path fill="#BA1212" d="M9 9h6v3H9z"/><path fill="#BA1212" d="M9 9h2v4H9zm4 0h2v4h-2z"/><circle cx="6" cy="3" r="1" fill="#000"/><circle cx="3" cy="3" r="1" fill="#000"/><circle cx="6" cy="6" r="1" fill="#000"/><circle cx="3" cy="6" r="1" fill="#000"/><circle cx="21" cy="3" r="1" fill="#000"/><circle cx="18" cy="3" r="1" fill="#000"/><circle cx="21" cy="6" r="1" fill="#000"/><circle cx="18" cy="6" r="1" fill="#000"/><path fill="#D0021B" fill-opacity=".149" stroke="#BA1212" d="M15.306 14.5H8.694l1.666 5h3.28l1.666-5zm1.194 1h-1.14l-.666 2H16.5a.997.997 0 001-1 .997.997 0 00-1-1z"/></g></svg>