<svg xmlns="http://www.w3.org/2000/svg" width="24" height="24"><g fill="none" fill-rule="evenodd"><rect width="5" height="11" y="7" fill="#D8D8D8" rx="1"/><path fill="#FFF" stroke="#BA1212" d="M19 .5H3c-.69 0-1.315.28-1.768.732A2.492 2.492 0 00.5 3v1c0 .414.168.79.44 1.06.27.272.646.44 1.06.44h17c.69 0 1.315-.28 1.768-.732A2.492 2.492 0 0021.5 3c0-.69-.28-1.315-.732-1.768A2.492 2.492 0 0019 .5z"/><path fill="#D8D8D8" d="M13 2h6v1h-6zM7 2h4v1H7z"/><path fill="#FFF" stroke="#BA1212" d="M20 19.5L.5 20v1c0 .414.168.79.44 1.06.27.272.646.44 1.06.44h18c.414 0 .79-.168 1.06-.44a1.495 1.495 0 000-2.121A1.495 1.495 0 0020 19.5z"/><path fill="#BA1212" stroke="#BA1212" d="M6.5 5.5h6v14h-6z"/><path fill="#D8D8D8" d="M3 23h5v1H3zm11 0h5v1h-5zm-1-5h7v1h-7z"/><path fill="#212121" d="M14 7V6h5v1h-1v3h-3V7h-1z"/><path fill="#FFF" stroke="#212121" d="M15.51 9.833a1.286 1.286 0 011.423-1.115l6.44.844c.098.11.127.266-.318 1.04l-6.29.688a1.208 1.208 0 01-.886-.404c-.232-.26-.367-.624-.368-1.053z"/></g></svg>