<svg width="25" height="25" viewBox="0 0 25 25" xmlns:xlink="http://www.w3.org/1999/xlink" xmlns="http://www.w3.org/2000/svg"><defs><clipPath id="clip_1"><use xlink:href="#path_1"/></clipPath><clipPath id="clip_2"><use xlink:href="#path_2"/></clipPath><clipPath id="clip_3"><use xlink:href="#path_3"/></clipPath><clipPath id="clip_4"><use xlink:href="#path_4"/></clipPath><path d="M0 0h24v24H0V0z" id="path_1"/><path d="M0 0h18v12H0V0z" transform="translate(3 9)" id="path_2"/><path d="M0 0h8L6 6H2L0 0z" transform="translate(8 14)" id="path_3"/><path d="M1 0h1.501q.074 0 .147.007t.145.022q.073.014.143.036.07.02.139.05.068.027.133.062t.126.076q.061.04.118.087.057.047.109.099.052.052.099.109.046.057.087.118.041.061.076.126.035.065.063.133.028.068.05.139.02.07.035.143.015.072.022.145Q4 1.425 4 1.5v.002q0 .074-.007.147t-.022.145q-.014.073-.036.143-.02.07-.05.139-.027.068-.062.133t-.076.126q-.04.061-.087.118-.047.057-.1.109-.051.052-.108.099-.057.046-.118.087-.061.041-.126.076-.065.035-.133.063-.068.028-.139.05-.07.02-.143.035-.072.015-.145.022Q2.575 3 2.5 3H0l1-3z" transform="translate(14 15)" id="path_4"/><filter filterUnits="userSpaceOnUse" color-interpolation-filters="sRGB" id="filter_1"><feFlood flood-opacity="0" result="BackgroundImageFix"/><feColorMatrix in="SourceAlpha" values="0 0 0 0 0 0 0 0 0 0 0 0 0 0 0 0 0 0 127 0"/><feOffset dy="1"/><feGaussianBlur stdDeviation="1.5"/><feColorMatrix values="0 0 0 0 0.7294118 0 0 0 0 0.07058824 0 0 0 0 0.07058824 0 0 0 0.2509804 0"/><feBlend in2="BackgroundImageFix" result="effect0_dropShadow"/><feBlend in="SourceGraphic" in2="effect0_dropShadow" result="shape"/></filter><filter filterUnits="userSpaceOnUse" color-interpolation-filters="sRGB" id="filter_2"><feFlood flood-opacity="0" result="BackgroundImageFix"/><feColorMatrix in="SourceAlpha" values="0 0 0 0 0 0 0 0 0 0 0 0 0 0 0 0 0 0 127 0"/><feOffset dy="1"/><feGaussianBlur stdDeviation="1.5"/><feColorMatrix values="0 0 0 0 0.7294118 0 0 0 0 0.07058824 0 0 0 0 0.07058824 0 0 0 0.4039216 0"/><feBlend in2="BackgroundImageFix" result="effect0_dropShadow"/><feBlend in="SourceGraphic" in2="effect0_dropShadow" result="shape"/></filter></defs><g id="кофемашина" transform="translate(.5 .5)"><g clip-path="url(#clip_1)" id="Rectangle"><use xlink:href="#path_1" fill="none" stroke="#000" stroke-width="2"/></g><g filter="url(#filter_1)"><g id="Rectangle"><use fill="#D0021B" fill-opacity=".149" xlink:href="#path_2"/><g clip-path="url(#clip_2)"><use xlink:href="#path_2" fill="none" stroke="#BA1212" stroke-width="2"/></g></g></g><g filter="url(#filter_2)"><path d="M0 0h6v5H0V0z" transform="translate(9 2)" id="Rectangle" fill="#BA1212" stroke="none"/></g><path d="M0 0h6v3H0V0z" transform="translate(9 9)" id="Rectangle" fill="#BA1212" stroke="none"/><path d="M0 0h2v4H0V0z" transform="translate(9 9)" id="Rectangle" fill="#BA1212" stroke="none"/><path d="M0 0h2v4H0V0z" transform="translate(13 9)" id="Rectangle" fill="#BA1212" stroke="none"/><path d="M1 2a1 1 0 100-2 1 1 0 000 2z" transform="translate(5 2)" id="Oval" fill="#000" stroke="none"/><path d="M1 2a1 1 0 100-2 1 1 0 000 2z" transform="translate(2 2)" id="Oval" fill="#000" stroke="none"/><path d="M1 2a1 1 0 100-2 1 1 0 000 2z" transform="translate(5 5)" id="Oval" fill="#000" stroke="none"/><path d="M1 2a1 1 0 100-2 1 1 0 000 2z" transform="translate(2 5)" id="Oval" fill="#000" stroke="none"/><path d="M1 2a1 1 0 100-2 1 1 0 000 2z" transform="translate(20 2)" id="Oval" fill="#000" stroke="none"/><path d="M1 2a1 1 0 100-2 1 1 0 000 2z" transform="translate(17 2)" id="Oval" fill="#000" stroke="none"/><path d="M1 2a1 1 0 100-2 1 1 0 000 2z" transform="translate(20 5)" id="Oval" fill="#000" stroke="none"/><path d="M1 2a1 1 0 100-2 1 1 0 000 2z" transform="translate(17 5)" id="Oval" fill="#000" stroke="none"/><g id="Rectangle"><use fill="#D0021B" fill-opacity=".149" xlink:href="#path_3"/><g clip-path="url(#clip_3)"><use xlink:href="#path_3" fill="none" stroke="#BA1212" stroke-width="2"/></g></g><g id="Path-2"><use fill="#D0021B" fill-opacity=".149" xlink:href="#path_4"/><g clip-path="url(#clip_4)"><use xlink:href="#path_4" fill="none" stroke="#BA1212" stroke-width="2"/></g></g></g></svg>