<svg width="25" height="25" xmlns:xlink="http://www.w3.org/1999/xlink" xmlns="http://www.w3.org/2000/svg"><defs><clipPath id="e"><use xlink:href="#a"/></clipPath><clipPath id="g"><use xlink:href="#b"/></clipPath><clipPath id="i"><use xlink:href="#c"/></clipPath><clipPath id="j"><use xlink:href="#d"/></clipPath><path d="M0 0h24v24H0V0z" id="a"/><path d="M0 0h18v12H0V0z" transform="translate(3 9)" id="b"/><path d="M0 0h8L6 6H2L0 0z" transform="translate(8 14)" id="c"/><path d="M1 0h1.501q.074 0 .147.007t.145.022q.073.014.143.036.07.02.139.05.068.027.133.062t.126.076q.061.04.118.087.057.047.109.099.052.052.099.109.046.057.087.118.041.061.076.126.035.065.063.133.028.068.05.139.02.07.035.143.015.072.022.145Q4 1.425 4 1.5v.002q0 .074-.007.147t-.022.145q-.014.073-.036.143-.02.07-.05.139-.027.068-.062.133t-.076.126q-.04.061-.087.118-.047.057-.1.109-.051.052-.108.099-.057.046-.118.087-.061.041-.126.076-.065.035-.133.063-.068.028-.139.05-.07.02-.143.035-.072.015-.145.022Q2.575 3 2.5 3H0l1-3z" transform="translate(14 15)" id="d"/><filter filterUnits="userSpaceOnUse" color-interpolation-filters="sRGB" id="f"><feFlood flood-opacity="0" result="BackgroundImageFix"/><feColorMatrix in="SourceAlpha" values="0 0 0 0 0 0 0 0 0 0 0 0 0 0 0 0 0 0 127 0"/><feOffset dy="1"/><feGaussianBlur stdDeviation="1.5"/><feColorMatrix values="0 0 0 0 0.7294118 0 0 0 0 0.07058824 0 0 0 0 0.07058824 0 0 0 0.2509804 0"/><feBlend in2="BackgroundImageFix" result="effect0_dropShadow"/><feBlend in="SourceGraphic" in2="effect0_dropShadow" result="shape"/></filter><filter filterUnits="userSpaceOnUse" color-interpolation-filters="sRGB" id="h"><feFlood flood-opacity="0" result="BackgroundImageFix"/><feColorMatrix in="SourceAlpha" values="0 0 0 0 0 0 0 0 0 0 0 0 0 0 0 0 0 0 127 0"/><feOffset dy="1"/><feGaussianBlur stdDeviation="1.5"/><feColorMatrix values="0 0 0 0 0.7294118 0 0 0 0 0.07058824 0 0 0 0 0.07058824 0 0 0 0.4039216 0"/><feBlend in2="BackgroundImageFix" result="effect0_dropShadow"/><feBlend in="SourceGraphic" in2="effect0_dropShadow" result="shape"/></filter></defs><g clip-path="url(#e)" transform="translate(.5 .5)"><use xlink:href="#a" fill="none" stroke="#000" stroke-width="2"/></g><g filter="url(#f)" transform="translate(.5 .5)"><use fill="#D0021B" fill-opacity=".149" xlink:href="#b"/><g clip-path="url(#g)"><use xlink:href="#b" fill="none" stroke="#BA1212" stroke-width="2"/></g></g><g filter="url(#h)" transform="translate(.5 .5)"><path d="M9 2h6v5H9V2z" fill="#BA1212"/></g><path d="M9.5 9.5h6v3h-6v-3z" fill="#BA1212"/><path d="M9.5 9.5h2v4h-2v-4zm4 0h2v4h-2v-4z" fill="#BA1212"/><path d="M6.5 4.5a1 1 0 100-2 1 1 0 000 2zm-3 0a1 1 0 100-2 1 1 0 000 2zm3 3a1 1 0 100-2 1 1 0 000 2zm-3 0a1 1 0 100-2 1 1 0 000 2zm18-3a1 1 0 100-2 1 1 0 000 2zm-3 0a1 1 0 100-2 1 1 0 000 2zm3 3a1 1 0 100-2 1 1 0 000 2zm-3 0a1 1 0 100-2 1 1 0 000 2z"/><g transform="translate(.5 .5)"><use fill="#D0021B" fill-opacity=".149" xlink:href="#c"/><g clip-path="url(#i)"><use xlink:href="#c" fill="none" stroke="#BA1212" stroke-width="2"/></g></g><g transform="translate(.5 .5)"><use fill="#D0021B" fill-opacity=".149" xlink:href="#d"/><g clip-path="url(#j)"><use xlink:href="#d" fill="none" stroke="#BA1212" stroke-width="2"/></g></g></svg>