<svg xmlns="http://www.w3.org/2000/svg" xmlns:xlink="http://www.w3.org/1999/xlink" width="25" height="18"><defs><filter id="a" width="166.7%" height="183.3%" x="-33.3%" y="-33.3%" filterUnits="objectBoundingBox"><feOffset dy="1" in="SourceAlpha" result="shadowOffsetOuter1"/><feGaussianBlur in="shadowOffsetOuter1" result="shadowBlurOuter1" stdDeviation="1.5"/><feComposite in="shadowBlurOuter1" in2="SourceAlpha" operator="out" result="shadowBlurOuter1"/><feColorMatrix in="shadowBlurOuter1" values="0 0 0 0 0.729411765 0 0 0 0 0.0705882353 0 0 0 0 0.0705882353 0 0 0 0.251311189 0"/></filter><path id="b" d="M2 2h15v12H2z"/></defs><g fill="none" fill-rule="evenodd" transform="translate(1)"><path stroke="#000" d="M.5.5h23v15H.5z"/><use fill="#000" filter="url(#a)" xlink:href="#b"/><path fill="#D0021B" fill-opacity=".149" stroke="#BA1212" stroke-linejoin="square" d="M2.5 2.5h14v11h-14z"/><path fill="#BA1212" d="M20 8h2v1h-2zm0 2h2v1h-2z"/><path fill="#000" d="M20 12h3v2h-3z"/><circle cx="21" cy="3" r="1" fill="#000"/><circle cx="21" cy="6" r="1" fill="#000"/><path fill="#000" d="M18 1h1v15h-1z"/><path fill="#BA1212" d="M4 12h11v1H4z"/><path stroke="#BA1212" d="M14.066 8.5H4.934l1.334 2h6.464l1.334-2z"/></g></svg>