<svg width="25" height="17" viewBox="0 0 25 17" xmlns:xlink="http://www.w3.org/1999/xlink" xmlns="http://www.w3.org/2000/svg"><defs><clipPath id="clip_1"><use xlink:href="#path_1"/></clipPath><clipPath id="clip_2"><use xlink:href="#path_2"/></clipPath><clipPath id="clip_3"><use xlink:href="#path_3"/></clipPath><path d="M0 0h24v16H0V0z" id="path_1"/><path d="M0 0h15v12H0V0z" transform="translate(2 2)" id="path_2"/><path d="M0 0h11L9 3H2L0 0z" transform="translate(4 8)" id="path_3"/><filter filterUnits="userSpaceOnUse" color-interpolation-filters="sRGB" id="filter_1"><feFlood flood-opacity="0" result="BackgroundImageFix"/><feColorMatrix in="SourceAlpha" values="0 0 0 0 0 0 0 0 0 0 0 0 0 0 0 0 0 0 127 0"/><feOffset dy="1"/><feGaussianBlur stdDeviation="1.5"/><feColorMatrix values="0 0 0 0 0.7294118 0 0 0 0 0.07058824 0 0 0 0 0.07058824 0 0 0 0.2509804 0"/><feBlend in2="BackgroundImageFix" result="effect0_dropShadow"/><feBlend in="SourceGraphic" in2="effect0_dropShadow" result="shape"/></filter></defs><g id="Микроволновка" transform="translate(.5 .5)"><g clip-path="url(#clip_1)" id="Rectangle"><use xlink:href="#path_1" fill="none" stroke="#000" stroke-width="2"/></g><g filter="url(#filter_1)"><g id="Rectangle"><use fill="#D0021B" fill-opacity=".149" xlink:href="#path_2"/><g clip-path="url(#clip_2)"><use xlink:href="#path_2" fill="none" stroke="#BA1212" stroke-width="2"/></g></g></g><path d="M0 0h2v1H0V0z" transform="translate(20 8)" id="Rectangle" fill="#BA1212" stroke="none"/><path d="M0 0h2v1H0V0z" transform="translate(20 10)" id="Rectangle" fill="#BA1212" stroke="none"/><path d="M0 0h3v2H0V0z" transform="translate(20 12)" id="Rectangle" fill="#000" stroke="none"/><path d="M1 2a1 1 0 100-2 1 1 0 000 2z" transform="translate(20 2)" id="Oval" fill="#000" stroke="none"/><path d="M1 2a1 1 0 100-2 1 1 0 000 2z" transform="translate(20 5)" id="Oval" fill="#000" stroke="none"/><path d="M0 0h1v15H0V0z" transform="translate(18 1)" id="Rectangle" fill="#000" stroke="none"/><path d="M0 0h11v1H0V0z" transform="translate(4 12)" id="Rectangle" fill="#BA1212" stroke="none"/><g clip-path="url(#clip_3)" id="Rectangle"><use xlink:href="#path_3" fill="none" stroke="#BA1212" stroke-width="2" stroke-linejoin="round"/></g></g></svg>