<svg width="25" height="17" xmlns:xlink="http://www.w3.org/1999/xlink" xmlns="http://www.w3.org/2000/svg"><defs><clipPath id="d"><use xlink:href="#a"/></clipPath><clipPath id="f"><use xlink:href="#b"/></clipPath><clipPath id="g"><use xlink:href="#c"/></clipPath><path d="M0 0h24v16H0V0z" id="a"/><path d="M0 0h15v12H0V0z" transform="translate(2 2)" id="b"/><path d="M0 0h11L9 3H2L0 0z" transform="translate(4 8)" id="c"/><filter filterUnits="userSpaceOnUse" color-interpolation-filters="sRGB" id="e"><feFlood flood-opacity="0" result="BackgroundImageFix"/><feColorMatrix in="SourceAlpha" values="0 0 0 0 0 0 0 0 0 0 0 0 0 0 0 0 0 0 127 0"/><feOffset dy="1"/><feGaussianBlur stdDeviation="1.5"/><feColorMatrix values="0 0 0 0 0.7294118 0 0 0 0 0.07058824 0 0 0 0 0.07058824 0 0 0 0.2509804 0"/><feBlend in2="BackgroundImageFix" result="effect0_dropShadow"/><feBlend in="SourceGraphic" in2="effect0_dropShadow" result="shape"/></filter></defs><g clip-path="url(#d)" transform="translate(.5 .5)"><use xlink:href="#a" fill="none" stroke="#000" stroke-width="2"/></g><g filter="url(#e)" transform="translate(.5 .5)"><use fill="#D0021B" fill-opacity=".149" xlink:href="#b"/><g clip-path="url(#f)"><use xlink:href="#b" fill="none" stroke="#BA1212" stroke-width="2"/></g></g><path d="M20.5 8.5h2v1h-2v-1zm0 2h2v1h-2v-1z" fill="#BA1212"/><path d="M20.5 12.5h3v2h-3v-2zm1-8a1 1 0 100-2 1 1 0 000 2zm0 3a1 1 0 100-2 1 1 0 000 2zm-3-6h1v15h-1v-15z"/><path d="M4.5 12.5h11v1h-11v-1z" fill="#BA1212"/><g clip-path="url(#g)" transform="translate(.5 .5)"><use xlink:href="#c" fill="none" stroke="#BA1212" stroke-width="2" stroke-linejoin="round"/></g></svg>