<svg xmlns="http://www.w3.org/2000/svg" xmlns:xlink="http://www.w3.org/1999/xlink" width="28" height="27" viewBox="0 0 28 27"><defs><filter id="миксер-a" width="433.3%" height="433.3%" x="-166.7%" y="-133.3%" filterUnits="objectBoundingBox"><feOffset dy="1" in="SourceAlpha" result="shadowOffsetOuter1"/><feGaussianBlur in="shadowOffsetOuter1" result="shadowBlurOuter1" stdDeviation="1.5"/><feColorMatrix in="shadowBlurOuter1" values="0 0 0 0 0.729411765 0 0 0 0 0.0705882353 0 0 0 0 0.0705882353 0 0 0 0.404747596 0"/></filter><rect id="миксер-b" width="3" height="3" x="21" y="0" rx="1.5"/></defs><g fill="none" fill-rule="evenodd" transform="translate(1 2)"><path fill="#BA1212" d="M5.633 11h3v3h-3z"/><path fill="#BA1212" stroke="#BA1212" d="M15.634 8c.41 2.461 1 4.129 1 6-.001 7-1.001 8-5 8h-10c-.517 0-1.028.243-1 1 .025.71.557.933 1 1h21c.494-.505.178-1.828.154-2.521C22.634 17 19.634 13 19.634 10c0-2.12 2.32-4.336 1-6-.976-1.23-1.483 1.6-3 2l-2 2z"/><path fill="#FFF" stroke="#BA1212" d="M3.639 9c-5.006 0-5.006-7 .994-7 9 0 18 0 18 4 0 2-.375 2.395-3.969 3.204-2.366.533-6.031.796-8.031.796v1h-7l.006-2z"/><use fill="#000" filter="url(#миксер-a)" xlink:href="#миксер-b"/><use fill="#BA1212" xlink:href="#миксер-b"/><path fill="#D8D8D8" d="M14.633 5h6v1h-6zm0 2h4v1h-4z"/><path fill="#FFF" stroke="#212121" d="M.997 14.275l.636 2.225a4.826 4.826 0 004.64 3.5h1.72a4.826 4.826 0 004.64-3.5l.635-2.225A1 1 0 0012.307 13H1.958a1 1 0 00-.961 1.275z"/></g></svg>