<svg xmlns="http://www.w3.org/2000/svg" xmlns:xlink="http://www.w3.org/1999/xlink" width="24" height="25"><defs><filter id="a" width="155.6%" height="190.9%" x="-27.8%" y="-36.4%" filterUnits="objectBoundingBox"><feOffset dy="1" in="SourceAlpha" result="shadowOffsetOuter1"/><feGaussianBlur in="shadowOffsetOuter1" result="shadowBlurOuter1" stdDeviation="1.5"/><feComposite in="shadowBlurOuter1" in2="SourceAlpha" operator="out" result="shadowBlurOuter1"/><feColorMatrix in="shadowBlurOuter1" values="0 0 0 0 0.733333333 0 0 0 0 0 0 0 0 0 0 0 0 0 0.251311189 0"/></filter><filter id="c" width="266.7%" height="300%" x="-83.3%" y="-80%" filterUnits="objectBoundingBox"><feOffset dy="1" in="SourceAlpha" result="shadowOffsetOuter1"/><feGaussianBlur in="shadowOffsetOuter1" result="shadowBlurOuter1" stdDeviation="1.5"/><feColorMatrix in="shadowBlurOuter1" values="0 0 0 0 0.733333333 0 0 0 0 0 0 0 0 0 0 0 0 0 0.404747596 0"/></filter><path id="b" d="M3 10h18v11H3z"/><path id="d" d="M9 2h6v5H9z"/></defs><g fill="none" fill-rule="evenodd"><path stroke="#000" d="M.5.5h23v23H.5z"/><path fill="#000" d="M0 8h24v1H0z"/><use fill="#000" filter="url(#a)" xlink:href="#b"/><path fill="#D0021B" fill-opacity=".149" stroke="#B00" stroke-linejoin="square" d="M3.5 10.5h17v10h-17z"/><use fill="#000" filter="url(#c)" xlink:href="#d"/><use fill="#B00" xlink:href="#d"/><circle cx="6" cy="3" r="1" fill="#000"/><circle cx="3" cy="3" r="1" fill="#000"/><circle cx="6" cy="6" r="1" fill="#000"/><circle cx="3" cy="6" r="1" fill="#000"/><path fill="#000" d="M17 2h1v3h-1zm0 3h7v1h-7z"/><path fill="#B00" fill-opacity=".25" d="M3 12h18v1H3zm0 2h18v1H3zm0 2h18v1H3zm0 2h18v1H3z"/></g></svg>