<svg width="25" height="25" xmlns:xlink="http://www.w3.org/1999/xlink" xmlns="http://www.w3.org/2000/svg"><defs><clipPath id="c"><use xlink:href="#a"/></clipPath><clipPath id="e"><use xlink:href="#b"/></clipPath><filter filterUnits="userSpaceOnUse" color-interpolation-filters="sRGB" id="d"><feFlood flood-opacity="0" result="BackgroundImageFix"/><feColorMatrix in="SourceAlpha" values="0 0 0 0 0 0 0 0 0 0 0 0 0 0 0 0 0 0 127 0"/><feOffset dy="1"/><feGaussianBlur stdDeviation="1.5"/><feColorMatrix values="0 0 0 0 0.7294118 0 0 0 0 0.07058824 0 0 0 0 0.07058824 0 0 0 0.2509804 0"/><feBlend in2="BackgroundImageFix" result="effect0_dropShadow"/><feBlend in="SourceGraphic" in2="effect0_dropShadow" result="shape"/></filter><filter filterUnits="userSpaceOnUse" color-interpolation-filters="sRGB" id="f"><feFlood flood-opacity="0" result="BackgroundImageFix"/><feColorMatrix in="SourceAlpha" values="0 0 0 0 0 0 0 0 0 0 0 0 0 0 0 0 0 0 127 0"/><feOffset dy="1"/><feGaussianBlur stdDeviation="1.5"/><feColorMatrix values="0 0 0 0 0.7294118 0 0 0 0 0.07058824 0 0 0 0 0.07058824 0 0 0 0.4039216 0"/><feBlend in2="BackgroundImageFix" result="effect0_dropShadow"/><feBlend in="SourceGraphic" in2="effect0_dropShadow" result="shape"/></filter><path d="M0 0h24v24H0V0z" id="a"/><path d="M0 0h18v11H0V0z" transform="translate(3 10)" id="b"/></defs><g clip-path="url(#c)" transform="translate(.5 .5)"><use xlink:href="#a" fill="none" stroke="#000" stroke-width="2"/></g><path d="M.5 8.5h24v1H.5v-1z"/><g filter="url(#d)" transform="translate(.5 .5)"><use fill="#D0021B" fill-opacity=".149" xlink:href="#b"/><g clip-path="url(#e)"><use xlink:href="#b" fill="none" stroke="#BA1212" stroke-width="2"/></g></g><g filter="url(#f)" transform="translate(.5 .5)"><path d="M9 2h6v5H9V2z" fill="#BA1212"/></g><path d="M6.5 4.5a1 1 0 100-2 1 1 0 000 2zm-3 0a1 1 0 100-2 1 1 0 000 2zm3 3a1 1 0 100-2 1 1 0 000 2zm-3 0a1 1 0 100-2 1 1 0 000 2zm14-5h1v3h-1v-3zm0 3h7v1h-7v-1z"/><path d="M3.5 12.5h18v1h-18v-1zm0 2h18v1h-18v-1zm0 2h18v1h-18v-1zm0 2h18v1h-18v-1z" fill="#BA1212" fill-opacity=".251"/></svg>