<svg width="21" height="25" viewBox="0 0 21 25" xmlns:xlink="http://www.w3.org/1999/xlink" xmlns="http://www.w3.org/2000/svg"><defs><clipPath id="clip_1"><use xlink:href="#path_1"/></clipPath><clipPath id="clip_2"><use xlink:href="#path_2"/></clipPath><filter filterUnits="userSpaceOnUse" color-interpolation-filters="sRGB" id="filter_1"><feFlood flood-opacity="0" result="BackgroundImageFix"/><feColorMatrix in="SourceAlpha" values="0 0 0 0 0 0 0 0 0 0 0 0 0 0 0 0 0 0 127 0"/><feOffset dy="1"/><feGaussianBlur stdDeviation="1.5"/><feColorMatrix values="0 0 0 0 0.7294118 0 0 0 0 0.07058824 0 0 0 0 0.07058824 0 0 0 0.4039216 0"/><feBlend in2="BackgroundImageFix" result="effect0_dropShadow"/><feBlend in="SourceGraphic" in2="effect0_dropShadow" result="shape"/></filter><filter filterUnits="userSpaceOnUse" color-interpolation-filters="sRGB" id="filter_2"><feFlood flood-opacity="0" result="BackgroundImageFix"/><feColorMatrix in="SourceAlpha" values="0 0 0 0 0 0 0 0 0 0 0 0 0 0 0 0 0 0 127 0"/><feOffset dy="1"/><feGaussianBlur stdDeviation="1.5"/><feColorMatrix values="0 0 0 0 0.7294118 0 0 0 0 0.07058824 0 0 0 0 0.07058824 0 0 0 0.2509804 0"/><feBlend in2="BackgroundImageFix" result="effect0_dropShadow"/><feBlend in="SourceGraphic" in2="effect0_dropShadow" result="shape"/></filter><path d="M0 0h20v23H0V0z" transform="translate(0 1)" id="path_1"/><path d="M0 0h14v11H0V0z" transform="translate(3 8)" id="path_2"/></defs><g id="Плиты" transform="translate(.5 .5)"><g clip-path="url(#clip_1)" id="Rectangle"><use xlink:href="#path_1" fill="none" stroke="#000" stroke-width="2"/></g><g filter="url(#filter_1)"><path d="M0 0h6v2H0V0z" transform="translate(7 2)" id="Rectangle" fill="#BA1212" stroke="none"/></g><path d="M.5 1a.5.5 0 100-1 .5.5 0 000 1z" transform="translate(2 3)" id="Oval" fill="#000" stroke="none"/><path d="M.5 1a.5.5 0 100-1 .5.5 0 000 1z" transform="translate(4 3)" id="Oval" fill="#000" stroke="none"/><path d="M.5 1a.5.5 0 100-1 .5.5 0 000 1z" transform="translate(15 3)" id="Oval" fill="#000" stroke="none"/><path d="M.5 1a.5.5 0 100-1 .5.5 0 000 1z" transform="translate(17 3)" id="Oval" fill="#000" stroke="none"/><path d="M0 0h5v1H0V0z" transform="translate(2)" id="Rectangle" fill="#000" fill-opacity=".152" stroke="none"/><path d="M0 0h5v1H0V0z" transform="translate(13)" id="Rectangle" fill="#000" fill-opacity=".152" stroke="none"/><path d="M0 0h20v1H0V0z" transform="translate(0 5)" id="Rectangle" fill="#000" stroke="none"/><g filter="url(#filter_2)"><g id="Rectangle"><use fill="#D0021B" fill-opacity=".149" xlink:href="#path_2"/><g clip-path="url(#clip_2)"><use xlink:href="#path_2" fill="none" stroke="#BA1212" stroke-width="2"/></g></g></g><path d="M0 0h14v1H0V0z" transform="translate(3 10)" id="Rectangle" fill="#BA1212" fill-opacity=".247" stroke="none"/><path d="M0 0h14v1H0V0z" transform="translate(3 12)" id="Rectangle" fill="#BA1212" fill-opacity=".247" stroke="none"/><path d="M0 0h14v1H0V0z" transform="translate(3 14)" id="Rectangle" fill="#BA1212" fill-opacity=".247" stroke="none"/><path d="M0 0h14v1H0V0z" transform="translate(3 16)" id="Rectangle" fill="#BA1212" fill-opacity=".247" stroke="none"/></g></svg>