<svg width="21" height="25" xmlns:xlink="http://www.w3.org/1999/xlink" xmlns="http://www.w3.org/2000/svg"><defs><clipPath id="c"><use xlink:href="#a"/></clipPath><clipPath id="f"><use xlink:href="#b"/></clipPath><filter filterUnits="userSpaceOnUse" color-interpolation-filters="sRGB" id="d"><feFlood flood-opacity="0" result="BackgroundImageFix"/><feColorMatrix in="SourceAlpha" values="0 0 0 0 0 0 0 0 0 0 0 0 0 0 0 0 0 0 127 0"/><feOffset dy="1"/><feGaussianBlur stdDeviation="1.5"/><feColorMatrix values="0 0 0 0 0.7294118 0 0 0 0 0.07058824 0 0 0 0 0.07058824 0 0 0 0.4039216 0"/><feBlend in2="BackgroundImageFix" result="effect0_dropShadow"/><feBlend in="SourceGraphic" in2="effect0_dropShadow" result="shape"/></filter><filter filterUnits="userSpaceOnUse" color-interpolation-filters="sRGB" id="e"><feFlood flood-opacity="0" result="BackgroundImageFix"/><feColorMatrix in="SourceAlpha" values="0 0 0 0 0 0 0 0 0 0 0 0 0 0 0 0 0 0 127 0"/><feOffset dy="1"/><feGaussianBlur stdDeviation="1.5"/><feColorMatrix values="0 0 0 0 0.7294118 0 0 0 0 0.07058824 0 0 0 0 0.07058824 0 0 0 0.2509804 0"/><feBlend in2="BackgroundImageFix" result="effect0_dropShadow"/><feBlend in="SourceGraphic" in2="effect0_dropShadow" result="shape"/></filter><path d="M0 0h20v23H0V0z" transform="translate(0 1)" id="a"/><path d="M0 0h14v11H0V0z" transform="translate(3 8)" id="b"/></defs><g clip-path="url(#c)" transform="translate(.5 .5)"><use xlink:href="#a" fill="none" stroke="#000" stroke-width="2"/></g><g filter="url(#d)" transform="translate(.5 .5)"><path d="M7 2h6v2H7V2z" fill="#BA1212"/></g><path d="M3 4.5a.5.5 0 100-1 .5.5 0 000 1zm2 0a.5.5 0 100-1 .5.5 0 000 1zm11 0a.5.5 0 100-1 .5.5 0 000 1zm2 0a.5.5 0 100-1 .5.5 0 000 1z"/><path d="M2.5.5h5v1h-5v-1zm11 0h5v1h-5v-1z" fill-opacity=".152"/><path d="M.5 5.5h20v1H.5v-1z"/><g filter="url(#e)" transform="translate(.5 .5)"><use fill="#D0021B" fill-opacity=".149" xlink:href="#b"/><g clip-path="url(#f)"><use xlink:href="#b" fill="none" stroke="#BA1212" stroke-width="2"/></g></g><path d="M3.5 10.5h14v1h-14v-1zm0 2h14v1h-14v-1zm0 2h14v1h-14v-1zm0 2h14v1h-14v-1z" fill="#BA1212" fill-opacity=".247"/></svg>