<svg xmlns="http://www.w3.org/2000/svg" xmlns:xlink="http://www.w3.org/1999/xlink" width="20" height="24" viewBox="0 0 20 24"><defs><filter id="посудомоечные-машины-a" width="225%" height="225%" x="-62.5%" y="-50%" filterUnits="objectBoundingBox"><feOffset dy="1" in="SourceAlpha" result="shadowOffsetOuter1"/><feGaussianBlur in="shadowOffsetOuter1" result="shadowBlurOuter1" stdDeviation="1.5"/><feComposite in="shadowBlurOuter1" in2="SourceAlpha" operator="out" result="shadowBlurOuter1"/><feColorMatrix in="shadowBlurOuter1" values="0 0 0 0 0.729411765 0 0 0 0 0.0705882353 0 0 0 0 0.0705882353 0 0 0 0.25 0"/></filter><filter id="посудомоечные-машины-c" width="266.7%" height="1100%" x="-83.3%" y="-400%" filterUnits="objectBoundingBox"><feOffset dy="1" in="SourceAlpha" result="shadowOffsetOuter1"/><feGaussianBlur in="shadowOffsetOuter1" result="shadowBlurOuter1" stdDeviation="1.5"/><feColorMatrix in="shadowBlurOuter1" values="0 0 0 0 0.729411765 0 0 0 0 0.0705882353 0 0 0 0 0.0705882353 0 0 0 0.404747596 0"/></filter><circle id="посудомоечные-машины-b" cx="12" cy="16" r="4"/><path id="посудомоечные-машины-d" d="M7 4h6v1H7z"/></defs><g fill="none" fill-rule="evenodd"><path stroke="#000" d="M.5.5h19v23H.5z"/><path fill="#000" d="M0 3h20v1H0z"/><circle cx="6.5" cy="17.5" r="2" fill="#E794A2" stroke="#BA1212"/><circle cx="9" cy="17" r="2.5" fill="#E794A2" stroke="#BA1212"/><use fill="#000" filter="url(#посудомоечные-машины-a)" xlink:href="#посудомоечные-машины-b"/><circle cx="12" cy="16" r="3.5" fill="#E794A2" stroke="#BA1212" stroke-linejoin="square"/><circle cx="12" cy="16" r="2" fill="#BA1212"/><use fill="#000" filter="url(#посудомоечные-машины-c)" xlink:href="#посудомоечные-машины-d"/><use fill="#BA1212" xlink:href="#посудомоечные-машины-d"/><path stroke="#BA1212" d="M2.5 15v4.5a2 2 0 002 2h11a2 2 0 002-2V15h0"/><path fill="#D8D8D8" stroke="#000" stroke-linecap="square" stroke-linejoin="round" d="M6 7L5 9m-1 2l-1 2m11-6l1 2m1 2l1 2m-7-6v1m0 2v1"/></g></svg>