<svg width="24" height="19" xmlns:xlink="http://www.w3.org/1999/xlink" xmlns="http://www.w3.org/2000/svg"><defs><clipPath id="e"><use xlink:href="#a"/></clipPath><clipPath id="f"><use xlink:href="#b"/></clipPath><clipPath id="g"><use xlink:href="#c"/></clipPath><clipPath id="i"><use xlink:href="#d"/></clipPath><path d="M0 0h24l-2 8H2L0 0z" transform="translate(0 11)" id="a"/><path d="M0 0h20v12H0V0z" transform="translate(2)" id="b"/><path d="M3 6a3 3 0 100-6 3 3 0 000 6z" transform="translate(11 3)" id="c"/><path d="M4 8a4 4 0 100-8 4 4 0 000 8z" transform="translate(7 2)" id="d"/><filter filterUnits="userSpaceOnUse" color-interpolation-filters="sRGB" id="h"><feFlood flood-opacity="0" result="BackgroundImageFix"/><feColorMatrix in="SourceAlpha" values="0 0 0 0 0 0 0 0 0 0 0 0 0 0 0 0 0 0 127 0"/><feOffset dy="1"/><feGaussianBlur stdDeviation="1.5"/><feColorMatrix values="0 0 0 0 0.7294118 0 0 0 0 0.07058824 0 0 0 0 0.07058824 0 0 0 0.2509804 0"/><feBlend in2="BackgroundImageFix" result="effect0_dropShadow"/><feBlend in="SourceGraphic" in2="effect0_dropShadow" result="shape"/></filter></defs><g clip-path="url(#e)"><use xlink:href="#a" fill="none" stroke="#000" stroke-width="2"/></g><g clip-path="url(#f)"><use xlink:href="#b" fill="none" stroke="#000" stroke-width="2"/></g><path d="M6 14h1v1h10v-1h1v2H6v-2z" fill="#1A1A1A" fill-rule="evenodd"/><use fill="#E794A2" xlink:href="#c"/><g clip-path="url(#g)"><use xlink:href="#c" fill="none" stroke="#BA1212" stroke-width="2"/></g><g filter="url(#h)"><use fill="#E794A2" xlink:href="#d"/><g clip-path="url(#i)"><use xlink:href="#d" fill="none" stroke="#BA1212" stroke-width="2"/></g></g><path d="M11 8a2 2 0 100-4 2 2 0 000 4z" fill="#BA1212"/><path d="M5 3h1v8H5V3zm13 0h1v8h-1V3z" fill-opacity=".152"/></svg>