<svg width="21" height="25" viewBox="0 0 21 25" xmlns:xlink="http://www.w3.org/1999/xlink" xmlns="http://www.w3.org/2000/svg"><defs><clipPath id="clip_1"><use xlink:href="#path_1"/></clipPath><clipPath id="clip_2"><use xlink:href="#path_2"/></clipPath><clipPath id="clip_3"><use xlink:href="#path_3"/></clipPath><clipPath id="clip_4"><use xlink:href="#path_4"/></clipPath><path d="M0 0h20v24H0V0z" id="path_1"/><path d="M2.5 5a2.5 2.5 0 100-5 2.5 2.5 0 000 5z" transform="translate(4 15)" id="path_2"/><path d="M3 6a3 3 0 100-6 3 3 0 000 6z" transform="translate(6 14)" id="path_3"/><path d="M4 8a4 4 0 100-8 4 4 0 000 8z" transform="translate(8 12)" id="path_4"/><filter filterUnits="userSpaceOnUse" color-interpolation-filters="sRGB" id="filter_1"><feFlood flood-opacity="0" result="BackgroundImageFix"/><feColorMatrix in="SourceAlpha" values="0 0 0 0 0 0 0 0 0 0 0 0 0 0 0 0 0 0 127 0"/><feOffset dy="1"/><feGaussianBlur stdDeviation="1.5"/><feColorMatrix values="0 0 0 0 0.7294118 0 0 0 0 0.07058824 0 0 0 0 0.07058824 0 0 0 0.2509804 0"/><feBlend in2="BackgroundImageFix" result="effect0_dropShadow"/><feBlend in="SourceGraphic" in2="effect0_dropShadow" result="shape"/></filter><filter filterUnits="userSpaceOnUse" color-interpolation-filters="sRGB" id="filter_2"><feFlood flood-opacity="0" result="BackgroundImageFix"/><feColorMatrix in="SourceAlpha" values="0 0 0 0 0 0 0 0 0 0 0 0 0 0 0 0 0 0 127 0"/><feOffset dy="1"/><feGaussianBlur stdDeviation="1.5"/><feColorMatrix values="0 0 0 0 0.7294118 0 0 0 0 0.07058824 0 0 0 0 0.07058824 0 0 0 0.4039216 0"/><feBlend in2="BackgroundImageFix" result="effect0_dropShadow"/><feBlend in="SourceGraphic" in2="effect0_dropShadow" result="shape"/></filter></defs><g id="посудомойка" transform="translate(.5 .5)"><g clip-path="url(#clip_1)" id="Rectangle"><use xlink:href="#path_1" fill="none" stroke="#000" stroke-width="2"/></g><path d="M0 0h20v1H0V0z" transform="translate(0 3)" id="Rectangle" fill="#000" stroke="none"/><g id="Oval"><use fill="#E794A2" xlink:href="#path_2"/><g clip-path="url(#clip_2)"><use xlink:href="#path_2" fill="none" stroke="#BA1212" stroke-width="2"/></g></g><g id="Oval"><use fill="#E794A2" xlink:href="#path_3"/><g clip-path="url(#clip_3)"><use xlink:href="#path_3" fill="none" stroke="#BA1212" stroke-width="2"/></g></g><g filter="url(#filter_1)"><g id="Oval"><use fill="#E794A2" xlink:href="#path_4"/><g clip-path="url(#clip_4)"><use xlink:href="#path_4" fill="none" stroke="#BA1212" stroke-width="2"/></g></g></g><path d="M2 4a2 2 0 100-4 2 2 0 000 4z" transform="translate(10 14)" id="Oval" fill="#BA1212" stroke="none"/><g filter="url(#filter_2)"><path d="M0 0h6v1H0V0z" transform="translate(7 4)" id="Rectangle" fill="#BA1212" stroke="none"/></g><path d="M2.5 15v4.501q0 .098.01.196t.028.194q.02.096.048.19.029.094.066.185.038.09.084.177.046.087.1.169.055.081.118.157.062.076.131.146.07.069.146.131.076.063.157.117.082.055.169.101.086.046.177.084.09.037.185.066.094.028.19.048.096.019.194.028.098.01.196.01h11.002q.098 0 .196-.01t.194-.028q.096-.02.19-.048.094-.029.185-.066.09-.038.177-.084.087-.046.169-.1.081-.055.157-.118.076-.062.146-.131.069-.07.131-.146.062-.076.117-.157.055-.082.101-.169.046-.086.084-.177.037-.09.066-.185.028-.094.048-.19.019-.096.028-.194.01-.098.01-.196V15" id="Path-3" fill="none" stroke="#BA1212" stroke-width="1"/><path d="M6 7L5 9m-1 2l-1 2m11-6l1 2m1 2l1 2" id="Path-4" fill="#D8D8D8" stroke="#000" stroke-width="1" stroke-linecap="square" stroke-linejoin="round"/><path d="M10 7v1m0 2v1" id="Path-5" fill="#D8D8D8" stroke="#000" stroke-width="1" stroke-linecap="square" stroke-linejoin="round"/></g></svg>