<svg xmlns="http://www.w3.org/2000/svg" xmlns:xlink="http://www.w3.org/1999/xlink" width="26" height="24" viewBox="0 0 26 24"><defs><filter id="проф-аксессуары-a" width="150%" height="155.6%" x="-25%" y="-22.2%" filterUnits="objectBoundingBox"><feOffset dy="1" in="SourceAlpha" result="shadowOffsetOuter1"/><feGaussianBlur in="shadowOffsetOuter1" result="shadowBlurOuter1" stdDeviation="1.5"/><feComposite in="shadowBlurOuter1" in2="SourceAlpha" operator="out" result="shadowBlurOuter1"/><feColorMatrix in="shadowBlurOuter1" values="0 0 0 0 0.729411765 0 0 0 0 0.0705882353 0 0 0 0 0.0705882353 0 0 0 0.251311189 0"/></filter><path id="проф-аксессуары-b" d="M2 2h20v18H2z"/></defs><g fill="none" fill-rule="evenodd" transform="translate(1)"><path stroke="#000" d="M.5.5h23v21H.5z"/><path stroke="#D8D8D8" stroke-linecap="round" d="M21 3L3 19M17.5 2.5l-15 13m19-9l-15 13m15-9.5l-11 9.5m11-5.75l-7 5.75m7-2.625l-3 2.625M13 2.5l-10.5 9m6.25-9l-6.25 5m2.375-5L2.5 4.5"/><use fill="#000" filter="url(#проф-аксессуары-a)" xlink:href="#проф-аксессуары-b"/><path fill="#D0021B" fill-opacity=".149" stroke="#BA1212" stroke-linejoin="square" d="M2.5 2.5h19v17h-19z"/><path stroke="#BA1212" stroke-linecap="round" d="M3 3l18 16M6.5 2.5l15 13m-19-9l15 13M2.5 10l11 9.5m-11-5.75l7 5.75m-7-2.625l3 2.625m5.5-17l10.5 9m-6.25-9l6.25 5m-2.375-5l2.375 2"/></g></svg>