<svg xmlns="http://www.w3.org/2000/svg" width="24" height="25"><g fill="none" fill-rule="evenodd"><path stroke="#BA1212" stroke-width="2" d="M8 14V6.5a5.5 5.5 0 0111 0V8h0"/><path fill="#FFF" stroke="#212121" d="M9 12.5H7c-.69 0-1.315.28-1.768.732A2.492 2.492 0 004.5 15v8.5h7V15c0-.69-.28-1.315-.732-1.768A2.492 2.492 0 009 12.5z"/><path fill="#FFF" stroke="#212121" d="M7.016 17.234c.072-.59.373-1.096.804-1.44a2.178 2.178 0 011.606-.466L15 16.395l-.445 2.707-5.395.583a2.06 2.06 0 01-1.528-.69c-.388-.432-.617-1.042-.616-1.761z"/><path fill="#D8D8D8" d="M0 23h24v2H0z"/></g></svg>