<svg xmlns="http://www.w3.org/2000/svg" width="24" height="24" viewBox="0 0 24 24"><g fill="none" fill-rule="evenodd"><path fill="#D8D8D8" d="M13 22h8l-1 2h-6z"/><path fill="#BA1212" stroke="#BA1212" d="M23.448 8.5H10.552l.69 6.897c.168 1.68.443 3.348.862 5.165A2.496 2.496 0 0014.54 22.5h4.92a2.42 2.42 0 001.569-.572c.436-.368.758-.896.907-1.54a39.81 39.81 0 00.822-4.99l.69-6.898z"/><path fill="#BA1212" stroke="#BA1212" stroke-linejoin="round" d="M11 10l-3 2c2.667 0 4 1 4 3 2 0 1.667-1.667-1-5z"/><path fill="#D8D8D8" d="M14 13v2h-2v-2h2zm3 0v2h-1v-1h-1v-1h2zm2 0v2h-1v-2h1zm3 0v1h-1v1h-1v-2h2z"/><path fill="#FFF" stroke="#212121" d="M23.323 6.5H10.677l.53-1.721a6.053 6.053 0 012.192-3.093A6.053 6.053 0 0117 .5c1.33 0 2.583.434 3.601 1.186a6.053 6.053 0 012.192 3.093l.53 1.721z"/><path fill="#FFF" stroke="#B2B6B8" d="M19.371 5.5H14.63l.314-1.364A2.107 2.107 0 0117 2.5a2.107 2.107 0 012.057 1.636L19.37 5.5z"/><path fill="#FFF" stroke="#212121" d="M7.931 14.5l-7.34.562.598 7.064A1.496 1.496 0 002.684 23.5h3.632a1.496 1.496 0 001.495-1.374l.12-7.625z"/><path fill="#D8D8D8" d="M2 16h1l1 6H3zm4 0h1l-1 6H5z"/></g></svg>