<svg width="21" height="25" xmlns:xlink="http://www.w3.org/1999/xlink" xmlns="http://www.w3.org/2000/svg"><defs><clipPath id="c"><use xlink:href="#a"/></clipPath><clipPath id="e"><use xlink:href="#b"/></clipPath><filter filterUnits="userSpaceOnUse" color-interpolation-filters="sRGB" id="d"><feFlood flood-opacity="0" result="BackgroundImageFix"/><feColorMatrix in="SourceAlpha" values="0 0 0 0 0 0 0 0 0 0 0 0 0 0 0 0 0 0 127 0"/><feOffset dy="1"/><feGaussianBlur stdDeviation="1.5"/><feColorMatrix values="0 0 0 0 0.7294118 0 0 0 0 0.07058824 0 0 0 0 0.07058824 0 0 0 0.2509804 0"/><feBlend in2="BackgroundImageFix" result="effect0_dropShadow"/><feBlend in="SourceGraphic" in2="effect0_dropShadow" result="shape"/></filter><filter filterUnits="userSpaceOnUse" color-interpolation-filters="sRGB" id="f"><feFlood flood-opacity="0" result="BackgroundImageFix"/><feColorMatrix in="SourceAlpha" values="0 0 0 0 0 0 0 0 0 0 0 0 0 0 0 0 0 0 127 0"/><feOffset dy="1"/><feGaussianBlur stdDeviation="1.5"/><feColorMatrix values="0 0 0 0 0.7294118 0 0 0 0 0.07058824 0 0 0 0 0.07058824 0 0 0 0.4039216 0"/><feBlend in2="BackgroundImageFix" result="effect0_dropShadow"/><feBlend in="SourceGraphic" in2="effect0_dropShadow" result="shape"/></filter><path d="M0 0h20v24H0V0z" id="a"/><path d="M7 14A7 7 0 107 0a7 7 0 000 14z" transform="translate(3 7)" id="b"/></defs><g clip-path="url(#c)" transform="translate(.5 .5)"><use xlink:href="#a" fill="none" stroke="#000" stroke-width="2"/></g><g filter="url(#d)" transform="translate(.5 .5)"><use fill="#BA1212" fill-opacity=".149" xlink:href="#b"/><g clip-path="url(#e)"><use xlink:href="#b" fill="none" stroke="#BA1212" stroke-width="2"/></g></g><g filter="url(#f)" transform="translate(.5 .5)"><path d="M13 2h5v3h-5V2z" fill="#BA1212"/></g><path d="M2.5 4.5h9v1h-9v-1zm13 16h3v2h-3v-2z" fill-opacity=".152"/><path d="M3 3.5a.5.5 0 100-1 .5.5 0 000 1zm2 0a.5.5 0 100-1 .5.5 0 000 1zm2 0a.5.5 0 100-1 .5.5 0 000 1zm2 0a.5.5 0 100-1 .5.5 0 000 1zm2 0a.5.5 0 100-1 .5.5 0 000 1z"/><path d="M4.5 15.5l1.5-1q.172-.115.357-.207.185-.093.38-.162t.397-.113q.202-.044.408-.063.206-.019.412-.012.207.006.411.039.204.032.403.09.198.057.389.138l3.687 1.58q.086.037.175.067.09.029.181.05.092.022.185.036.093.013.187.019.093.005.187.002.094-.002.188-.013.093-.01.185-.03.092-.019.182-.045.09-.027.178-.062.087-.034.171-.076.085-.042.165-.091.08-.05.156-.105.075-.056.146-.118.07-.062.135-.13t.124-.142q.058-.073.11-.151L16.5 13.5" fill="none" stroke="#BA1212" stroke-linecap="round" stroke-linejoin="round"/></svg>