<svg xmlns="http://www.w3.org/2000/svg" xmlns:xlink="http://www.w3.org/1999/xlink" width="21" height="25" viewBox="0 0 21 25"><defs><filter id="стиральные-машины-a" width="171.4%" height="171.4%" x="-35.7%" y="-28.6%" filterUnits="objectBoundingBox"><feOffset dy="1" in="SourceAlpha" result="shadowOffsetOuter1"/><feGaussianBlur in="shadowOffsetOuter1" result="shadowBlurOuter1" stdDeviation="1.5"/><feComposite in="shadowBlurOuter1" in2="SourceAlpha" operator="out" result="shadowBlurOuter1"/><feColorMatrix in="shadowBlurOuter1" values="0 0 0 0 0.729411765 0 0 0 0 0.0705882353 0 0 0 0 0.0705882353 0 0 0 0.25 0"/></filter><filter id="стиральные-машины-c" width="300%" height="433.3%" x="-100%" y="-133.3%" filterUnits="objectBoundingBox"><feOffset dy="1" in="SourceAlpha" result="shadowOffsetOuter1"/><feGaussianBlur in="shadowOffsetOuter1" result="shadowBlurOuter1" stdDeviation="1.5"/><feColorMatrix in="shadowBlurOuter1" values="0 0 0 0 0.729411765 0 0 0 0 0.0705882353 0 0 0 0 0.0705882353 0 0 0 0.404747596 0"/></filter><circle id="стиральные-машины-b" cx="10" cy="14" r="7"/><path id="стиральные-машины-d" d="M13 2h5v3h-5z"/></defs><g fill="none" fill-rule="evenodd"><path stroke="#000" d="M.5.5h19v23H.5z"/><use fill="#000" filter="url(#стиральные-машины-a)" xlink:href="#стиральные-машины-b"/><circle cx="10" cy="14" r="6.5" fill="#BA1212" fill-opacity=".15" stroke="#BA1212" stroke-linejoin="square"/><use fill="#000" filter="url(#стиральные-машины-c)" xlink:href="#стиральные-машины-d"/><use fill="#BA1212" xlink:href="#стиральные-машины-d"/><path fill="#000" opacity=".152" d="M2 4h9v1H2zm13 16h3v2h-3z"/><circle cx="2.5" cy="2.5" r="1" fill="#000"/><circle cx="4.5" cy="2.5" r="1" fill="#000"/><circle cx="6.5" cy="2.5" r="1" fill="#000"/><circle cx="8.5" cy="2.5" r="1" fill="#000"/><circle cx="10.5" cy="2.5" r="1" fill="#000"/><path stroke="#BA1212" stroke-linecap="round" stroke-linejoin="round" d="M4 15a6.656 6.656 0 016.314-.58l.372.16A4.335 4.335 0 0016 13h0"/></g></svg>