<svg xmlns="http://www.w3.org/2000/svg" xmlns:xlink="http://www.w3.org/1999/xlink" width="27" height="26"><defs><filter id="a" width="670.7%" height="290.2%" x="-285.4%" y="-78.5%" filterUnits="objectBoundingBox"><feMorphology in="SourceAlpha" operator="dilate" radius=".5" result="shadowSpreadOuter1"/><feOffset dy="1" in="shadowSpreadOuter1" result="shadowOffsetOuter1"/><feMorphology in="SourceAlpha" radius="1" result="shadowInner"/><feOffset dy="1" in="shadowInner" result="shadowInner"/><feComposite in="shadowOffsetOuter1" in2="shadowInner" operator="out" result="shadowOffsetOuter1"/><feGaussianBlur in="shadowOffsetOuter1" result="shadowBlurOuter1" stdDeviation="1.5"/><feColorMatrix in="shadowBlurOuter1" values="0 0 0 0 0.729411765 0 0 0 0 0.0705882353 0 0 0 0 0.0705882353 0 0 0 0.5 0"/></filter><filter id="c" width="670.7%" height="290.2%" x="-285.4%" y="-78.5%" filterUnits="objectBoundingBox"><feMorphology in="SourceAlpha" operator="dilate" radius=".5" result="shadowSpreadOuter1"/><feOffset dy="1" in="shadowSpreadOuter1" result="shadowOffsetOuter1"/><feMorphology in="SourceAlpha" radius="1" result="shadowInner"/><feOffset dy="1" in="shadowInner" result="shadowInner"/><feComposite in="shadowOffsetOuter1" in2="shadowInner" operator="out" result="shadowOffsetOuter1"/><feGaussianBlur in="shadowOffsetOuter1" result="shadowBlurOuter1" stdDeviation="1.5"/><feColorMatrix in="shadowBlurOuter1" values="0 0 0 0 0.729411765 0 0 0 0 0.0705882353 0 0 0 0 0.0705882353 0 0 0 0.5 0"/></filter><filter id="e" width="670.7%" height="290.2%" x="-285.4%" y="-78.5%" filterUnits="objectBoundingBox"><feMorphology in="SourceAlpha" operator="dilate" radius=".5" result="shadowSpreadOuter1"/><feOffset dy="1" in="shadowSpreadOuter1" result="shadowOffsetOuter1"/><feMorphology in="SourceAlpha" radius="1" result="shadowInner"/><feOffset dy="1" in="shadowInner" result="shadowInner"/><feComposite in="shadowOffsetOuter1" in2="shadowInner" operator="out" result="shadowOffsetOuter1"/><feGaussianBlur in="shadowOffsetOuter1" result="shadowBlurOuter1" stdDeviation="1.5"/><feColorMatrix in="shadowBlurOuter1" values="0 0 0 0 0.729411765 0 0 0 0 0.0705882353 0 0 0 0 0.0705882353 0 0 0 0.5 0"/></filter><filter id="g" width="433.3%" height="433.3%" x="-166.7%" y="-133.3%" filterUnits="objectBoundingBox"><feOffset dy="1" in="SourceAlpha" result="shadowOffsetOuter1"/><feGaussianBlur in="shadowOffsetOuter1" result="shadowBlurOuter1" stdDeviation="1.5"/><feColorMatrix in="shadowBlurOuter1" values="0 0 0 0 0.729411765 0 0 0 0 0.0705882353 0 0 0 0 0.0705882353 0 0 0 0.404747596 0"/></filter><path id="b" d="M9 6L8 5a1.414 1.414 0 010-2 1.414 1.414 0 000-2L7 0"/><path id="d" d="M15 6l-1-1a1.414 1.414 0 010-2 1.414 1.414 0 000-2l-1-1"/><path id="f" d="M12 6l-1-1a1.414 1.414 0 010-2 1.414 1.414 0 000-2l-1-1"/><rect id="h" width="3" height="3" x="21" y="9" rx="1.5"/></defs><g fill="none" fill-rule="evenodd" transform="translate(0 3)"><path fill="#000" opacity=".152" d="M21 16h2v4h-2z"/><path fill="#FFF" stroke="#212121" d="M16.983 8.5H5.017a3.495 3.495 0 00-3.365 2.538l-.21.734A24.49 24.49 0 00.5 18.5l.5 3 20.5-.5v-2.5c0-2.276-.317-4.54-.942-6.728l-.21-.734A3.495 3.495 0 0016.983 8.5z"/><g stroke-linecap="square" transform="matrix(-1 0 0 1 16 0)"><use fill="#000" filter="url(#a)" xlink:href="#b"/><use stroke="#BA1212" xlink:href="#b"/></g><g stroke-linecap="square" transform="matrix(-1 0 0 1 28 0)"><use fill="#000" filter="url(#c)" xlink:href="#d"/><use stroke="#BA1212" xlink:href="#d"/></g><g stroke-linecap="square" transform="matrix(-1 0 0 1 22 0)"><use fill="#000" filter="url(#e)" xlink:href="#f"/><use stroke="#BA1212" xlink:href="#f"/></g><use fill="#000" filter="url(#g)" xlink:href="#h"/><use fill="#BA1212" xlink:href="#h"/><path fill="#000" opacity=".152" d="M2 22h5v1H2zm13 0h5v1h-5z"/><path fill="#BA1212" d="M3 18h16v1H3z"/></g></svg>