<svg xmlns="http://www.w3.org/2000/svg" xmlns:xlink="http://www.w3.org/1999/xlink" width="24" height="24"><defs><filter id="a" width="800%" height="333.3%" x="-350%" y="-83.3%" filterUnits="objectBoundingBox"><feOffset dy="1" in="SourceAlpha" result="shadowOffsetOuter1"/><feGaussianBlur in="shadowOffsetOuter1" result="shadowBlurOuter1" stdDeviation="1"/><feColorMatrix in="shadowBlurOuter1" values="0 0 0 0 0.729411765 0 0 0 0 0.0705882353 0 0 0 0 0.0705882353 0 0 0 0.301901224 0"/></filter><filter id="c" width="800%" height="333.3%" x="-350%" y="-83.3%" filterUnits="objectBoundingBox"><feOffset dy="1" in="SourceAlpha" result="shadowOffsetOuter1"/><feGaussianBlur in="shadowOffsetOuter1" result="shadowBlurOuter1" stdDeviation="1"/><feColorMatrix in="shadowBlurOuter1" values="0 0 0 0 0.729411765 0 0 0 0 0.0705882353 0 0 0 0 0.0705882353 0 0 0 0.301901224 0"/></filter><filter id="e" width="800%" height="333.3%" x="-350%" y="-83.3%" filterUnits="objectBoundingBox"><feOffset dy="1" in="SourceAlpha" result="shadowOffsetOuter1"/><feGaussianBlur in="shadowOffsetOuter1" result="shadowBlurOuter1" stdDeviation="1"/><feColorMatrix in="shadowBlurOuter1" values="0 0 0 0 0.729411765 0 0 0 0 0.0705882353 0 0 0 0 0.0705882353 0 0 0 0.301901224 0"/></filter><path id="b" d="M21 18h1v3h-1z"/><path id="d" d="M19 18h1v3h-1z"/><path id="f" d="M17 18h1v3h-1z"/></defs><g fill="none" fill-rule="evenodd"><path stroke="#212121" d="M23.36.5H.64l1.75 7h19.22l1.75-7z"/><path fill="#D0021B" fill-opacity=".149" stroke="#BA1212" d="M20.328 2.5H3.672l1.2 4h14.256l1.2-4z"/><path stroke="#000" d="M.5 7.5h23v15H.5z"/><path fill="#D8D8D8" d="M2 23h5v1H2zm15 0h5v1h-5z"/><use fill="#000" filter="url(#a)" xlink:href="#b"/><use fill="#BA1212" xlink:href="#b"/><use fill="#000" filter="url(#c)" xlink:href="#d"/><use fill="#BA1212" xlink:href="#d"/><use fill="#000" filter="url(#e)" xlink:href="#f"/><use fill="#BA1212" xlink:href="#f"/></g></svg>