<svg xmlns="http://www.w3.org/2000/svg" xmlns:xlink="http://www.w3.org/1999/xlink" width="25" height="24" viewBox="0 0 25 24"><defs><filter id="холодильники-a" width="190.9%" height="171.4%" x="-45.5%" y="-28.6%" filterUnits="objectBoundingBox"><feOffset dy="1" in="SourceAlpha" result="shadowOffsetOuter1"/><feGaussianBlur in="shadowOffsetOuter1" result="shadowBlurOuter1" stdDeviation="1.5"/><feComposite in="shadowBlurOuter1" in2="SourceAlpha" operator="out" result="shadowBlurOuter1"/><feColorMatrix in="shadowBlurOuter1" values="0 0 0 0 0.729411765 0 0 0 0 0.0705882353 0 0 0 0 0.0705882353 0 0 0 0.25 0"/></filter><filter id="холодильники-c" width="433.3%" height="433.3%" x="-166.7%" y="-133.3%" filterUnits="objectBoundingBox"><feOffset dy="1" in="SourceAlpha" result="shadowOffsetOuter1"/><feGaussianBlur in="shadowOffsetOuter1" result="shadowBlurOuter1" stdDeviation="1.5"/><feComposite in="shadowBlurOuter1" in2="SourceAlpha" operator="out" result="shadowBlurOuter1"/><feColorMatrix in="shadowBlurOuter1" values="0 0 0 0 0.729411765 0 0 0 0 0.0705882353 0 0 0 0 0.0705882353 0 0 0 0.25 0"/></filter><filter id="холодильники-e" width="433.3%" height="433.3%" x="-166.7%" y="-133.3%" filterUnits="objectBoundingBox"><feOffset dy="1" in="SourceAlpha" result="shadowOffsetOuter1"/><feGaussianBlur in="shadowOffsetOuter1" result="shadowBlurOuter1" stdDeviation="1.5"/><feComposite in="shadowBlurOuter1" in2="SourceAlpha" operator="out" result="shadowBlurOuter1"/><feColorMatrix in="shadowBlurOuter1" values="0 0 0 0 0.729411765 0 0 0 0 0.0705882353 0 0 0 0 0.0705882353 0 0 0 0.25 0"/></filter><filter id="холодильники-g" width="433.3%" height="433.3%" x="-166.7%" y="-133.3%" filterUnits="objectBoundingBox"><feOffset dy="1" in="SourceAlpha" result="shadowOffsetOuter1"/><feGaussianBlur in="shadowOffsetOuter1" result="shadowBlurOuter1" stdDeviation="1.5"/><feComposite in="shadowBlurOuter1" in2="SourceAlpha" operator="out" result="shadowBlurOuter1"/><feColorMatrix in="shadowBlurOuter1" values="0 0 0 0 0.729411765 0 0 0 0 0.0705882353 0 0 0 0 0.0705882353 0 0 0 0.25 0"/></filter><filter id="холодильники-i" width="433.3%" height="433.3%" x="-166.7%" y="-133.3%" filterUnits="objectBoundingBox"><feOffset dy="1" in="SourceAlpha" result="shadowOffsetOuter1"/><feGaussianBlur in="shadowOffsetOuter1" result="shadowBlurOuter1" stdDeviation="1.5"/><feComposite in="shadowBlurOuter1" in2="SourceAlpha" operator="out" result="shadowBlurOuter1"/><feColorMatrix in="shadowBlurOuter1" values="0 0 0 0 0.729411765 0 0 0 0 0.0705882353 0 0 0 0 0.0705882353 0 0 0 0.25 0"/></filter><filter id="холодильники-k" width="433.3%" height="433.3%" x="-166.7%" y="-133.3%" filterUnits="objectBoundingBox"><feOffset dy="1" in="SourceAlpha" result="shadowOffsetOuter1"/><feGaussianBlur in="shadowOffsetOuter1" result="shadowBlurOuter1" stdDeviation="1.5"/><feComposite in="shadowBlurOuter1" in2="SourceAlpha" operator="out" result="shadowBlurOuter1"/><feColorMatrix in="shadowBlurOuter1" values="0 0 0 0 0.729411765 0 0 0 0 0.0705882353 0 0 0 0 0.0705882353 0 0 0 0.25 0"/></filter><circle id="холодильники-d" cx="14.5" cy="13.5" r="1.5"/><circle id="холодильники-f" cx="14.5" cy="10.5" r="1.5"/><circle id="холодильники-h" cx="14.5" cy="7.5" r="1.5"/><circle id="холодильники-j" cx="14.5" cy="4.5" r="1.5"/><circle id="холодильники-l" cx="18.5" cy="4.5" r="1.5"/><path id="холодильники-b" d="M11 2h11v14H11z"/></defs><g fill="none" fill-rule="evenodd"><path stroke="#000" d="M.5.5h23v23H.5z"/><path fill="#040404" d="M10 1v23H9V1zM6 16v-1h1L6.999 3H6V2h2v1h-.001L8 15v1H6z"/><path fill="#040404" d="M0 17h24v1H0zm11 2h11v1H11z"/><path fill="#BA1212" d="M2 19h6v1H2z"/><path fill="#000" opacity=".152" d="M11 21h11v1H11z"/><use fill="#000" filter="url(#холодильники-a)" xlink:href="#холодильники-b"/><path fill="#BA1212" fill-opacity=".15" stroke="#BA1212" stroke-linejoin="square" d="M11.5 2.5h10v13h-10z"/><path fill="#BA1212" d="M19 7v2.086a1.5 1.5 0 011 1.414V15h-3v-4.5a1.5 1.5 0 011-1.415V7h1z"/><use fill="#000" filter="url(#холодильники-c)" xlink:href="#холодильники-d"/><circle cx="14.5" cy="13.5" r="1" fill="#BA1212" fill-opacity=".15" stroke="#BA1212" stroke-linejoin="square"/><use fill="#000" filter="url(#холодильники-e)" xlink:href="#холодильники-f"/><circle cx="14.5" cy="10.5" r="1" fill="#BA1212" fill-opacity=".15" stroke="#BA1212" stroke-linejoin="square"/><use fill="#000" filter="url(#холодильники-g)" xlink:href="#холодильники-h"/><circle cx="14.5" cy="7.5" r="1" fill="#BA1212" fill-opacity=".15" stroke="#BA1212" stroke-linejoin="square"/><use fill="#000" filter="url(#холодильники-i)" xlink:href="#холодильники-j"/><circle cx="14.5" cy="4.5" r="1" fill="#BA1212" fill-opacity=".15" stroke="#BA1212" stroke-linejoin="square"/><use fill="#000" filter="url(#холодильники-k)" xlink:href="#холодильники-l"/><circle cx="18.5" cy="4.5" r="1" fill="#BA1212" fill-opacity=".15" stroke="#BA1212" stroke-linejoin="square"/></g></svg>