<svg xmlns="http://www.w3.org/2000/svg" width="22" height="24" viewBox="0 0 22 24"><g fill="none" fill-rule="evenodd" transform="translate(1)"><path stroke="#BA1212" stroke-width="2" d="M10 5h6.204a3 3 0 012.981 2.669L20 15h0"/><path fill="#BA1212" stroke="#BA1212" stroke-linejoin="round" d="M3 5H0c1.333 2 2 4 2 6 2 0 2.333-2 1-6z"/><path fill="#FFF" stroke="#BA1212" d="M9 .5C7.632.5 6.453.955 5.464 1.867c-1.032.953-1.855 2.388-2.49 4.291C1.681 10.038 1.19 15.82 1.481 23.5h15.038c.291-7.68-.2-13.462-1.493-17.342-.635-1.903-1.458-3.338-2.49-4.29C11.547.954 10.368.5 9 .5z"/><path fill="#BA1212" d="M4 4h10l1 1H3zM1 19h16v1H1z"/><path fill="#D8D8D8" d="M4 21h2v1H4zm8 0h2v1h-2z"/><circle cx="7.5" cy="21.5" r="1" fill="#000"/><circle cx="10.5" cy="21.5" r="1" fill="#000"/></g></svg>