<svg width="40" height="40" xmlns="http://www.w3.org/2000/svg"><path d="M1.999 0h36.002q.098 0 .196.01t.194.028q.096.02.19.048.094.029.185.066.09.038.177.084.087.046.169.1.081.055.157.118.076.062.145.131.07.07.132.146.063.076.117.157.055.082.101.169.046.086.084.177.037.09.066.185.028.094.048.19.019.096.028.194.01.098.01.196v36.002q0 .098-.01.196t-.028.194q-.02.096-.048.19-.029.094-.066.185-.038.09-.084.177-.046.087-.1.169-.056.081-.118.157-.062.076-.132.145-.069.07-.145.132-.076.063-.157.117-.082.055-.169.101-.086.046-.177.084-.09.037-.185.066-.094.028-.19.048-.096.019-.194.028-.098.01-.196.01H1.999q-.098 0-.196-.01t-.194-.028q-.096-.02-.19-.048-.094-.029-.185-.066-.09-.038-.177-.084-.087-.046-.169-.1-.081-.056-.157-.118-.076-.062-.146-.132-.069-.069-.131-.145-.063-.076-.117-.157-.055-.082-.101-.169-.046-.086-.084-.177-.037-.09-.066-.185-.028-.094-.048-.19-.019-.096-.028-.194Q0 38.099 0 38V1.999q0-.098.01-.196t.028-.194q.02-.096.048-.19.029-.094.066-.185.038-.09.084-.177.046-.087.1-.169Q.392.807.455.731.516.655.585.585.655.516.731.454.807.39.888.337.97.282 1.057.236q.086-.046.177-.084.09-.037.185-.066.094-.028.19-.048.096-.019.194-.028Q1.901 0 2 0z" fill="#BA1212"/><path d="M5 5h30v30H5V5z" fill="none"/><path d="M13.529 8.374c.339.073.688.117 1.016.224 1.637.533 2.694 1.644 3.18 3.286.261.886.224 1.782-.03 2.668-.042.146-.025.244.09.358 2.451 2.442 4.9 4.886 7.342 7.338.147.148.277.106.428.072.909-.207 1.823-.273 2.722.015 1.793.575 2.883 1.804 3.294 3.633.155.693.107 1.386-.058 2.072-.142.59-.754.771-1.192.344-.593-.577-1.168-1.171-1.76-1.75-.637-.622-1.573-.573-2.098.102-.37.474-.386 1.188.016 1.64.432.488.909.936 1.366 1.4.182.185.37.362.547.55.41.436.236 1.032-.343 1.178a4.737 4.737 0 01-5.834-3.655c-.153-.762-.093-1.525.095-2.275.053-.214.016-.351-.146-.512a2000.33 2000.33 0 01-7.216-7.207c-.153-.153-.283-.195-.492-.144-.992.24-1.993.287-2.96-.083-1.68-.642-2.708-1.86-3.069-3.625-.042-.206-.063-.417-.094-.626v-.409c.057-.327.098-.657.173-.98.135-.582.734-.756 1.173-.347.183.17.354.353.533.529.47.462.924.942 1.417 1.378.45.398 1.172.384 1.646.023.682-.521.737-1.448.112-2.087-.562-.574-1.134-1.138-1.705-1.704-.217-.215-.357-.453-.257-.77.098-.314.335-.45.641-.5.245-.042.49-.09.733-.136h.73z" fill="#FFF"/><path d="M8.874 27.316c-.306.382-.436.839-.54 1.305v.635c.015.058.033.115.045.173.134.68.463 1.244 1.016 1.663 1.127.855 2.605.748 3.63-.272 2.117-2.107 4.226-4.223 6.338-6.335.035-.035.064-.076.068-.08l-3.843-3.846c-.01.01-.04.035-.066.062-2.117 2.117-4.235 4.234-6.351 6.353a4.146 4.146 0 00-.297.342zm3.564 1.343c-.16.159-.327.294-.474.288-.37-.003-.576-.126-.7-.367a.643.643 0 01.05-.706c.044-.061.097-.116.15-.169 1.32-1.32 2.64-2.64 3.959-3.962.21-.211.441-.341.75-.253.45.129.64.652.373 1.037a1.411 1.411 0 01-.165.187l-3.943 3.945z" fill="#FFF" fill-rule="evenodd"/><path d="M29.93 8.333c.178.124.37.231.529.376.318.29.62.6.925.904.333.332.368.605.123 1.009a991.49 991.49 0 01-2.068 3.394c-.304.495-.778.551-1.195.147-.108-.104-.211-.214-.346-.352l-4.57 4.554-1.91-1.895 4.552-4.534c-.116-.12-.219-.216-.31-.322-.287-.333-.246-.79.13-1.017 1.215-.733 2.44-1.448 3.662-2.168.064-.038.136-.064.204-.096h.275z" fill="#FFF"/></svg>