<svg width="40" height="40" viewBox="0 0 40 40" xmlns:xlink="http://www.w3.org/1999/xlink" xmlns="http://www.w3.org/2000/svg"><g id="tools"><path d="M1.999 0h36.002q.098 0 .196.01t.194.028q.096.02.19.048.094.029.185.066.09.038.177.084.087.046.169.1.081.055.157.118.076.062.145.131.07.07.132.146.063.076.117.157.055.082.101.169.046.086.084.177.037.09.066.185.028.094.048.19.019.096.028.194.01.098.01.196v36.002q0 .098-.01.196t-.028.194q-.02.096-.048.19-.029.094-.066.185-.038.09-.084.177-.046.087-.1.169-.056.081-.118.157-.062.076-.132.145-.069.07-.145.132-.076.063-.157.117-.082.055-.169.101-.086.046-.177.084-.09.037-.185.066-.094.028-.19.048-.096.019-.194.028-.098.01-.196.01H1.999q-.098 0-.196-.01t-.194-.028q-.096-.02-.19-.048-.094-.029-.185-.066-.09-.038-.177-.084-.087-.046-.169-.1-.081-.056-.157-.118-.076-.062-.146-.132-.069-.069-.131-.145-.063-.076-.117-.157-.055-.082-.101-.169-.046-.086-.084-.177-.037-.09-.066-.185-.028-.094-.048-.19-.019-.096-.028-.194Q0 38.099 0 38V1.999q0-.098.01-.196t.028-.194q.02-.096.048-.19.029-.094.066-.185.038-.09.084-.177.046-.087.1-.169Q.392.807.455.731.516.655.585.585.655.516.731.454.807.39.888.337.97.282 1.057.236q.086-.046.177-.084.09-.037.185-.066.094-.028.19-.048.096-.019.194-.028Q1.901 0 2 0z" id="Rectangle" fill="#BA1212" stroke="none"/><g id="tools" transform="translate(5 5)"><g id="tools" stroke="none"><path d="M0 0h30v30H0V0z" id="Rectangle-4" fill="none"/><path d="M5.195 0c.34.073.689.117 1.017.224 1.637.533 2.694 1.644 3.18 3.286.261.885.224 1.782-.03 2.668-.042.146-.025.244.09.358 2.451 2.442 4.9 4.886 7.341 7.338.148.148.278.106.429.072.908-.207 1.823-.273 2.722.015 1.792.575 2.883 1.804 3.293 3.633.156.693.108 1.386-.057 2.072-.142.59-.754.771-1.192.344-.593-.577-1.169-1.171-1.76-1.75-.637-.623-1.573-.573-2.098.102-.37.474-.386 1.187.016 1.64.432.488.908.936 1.366 1.4.181.184.37.361.546.549.411.436.236 1.032-.342 1.18a4.737 4.737 0 01-5.834-3.656c-.154-.762-.093-1.525.094-2.275.054-.214.017-.351-.145-.512A2000.33 2000.33 0 016.615 9.48c-.153-.154-.284-.195-.493-.144-.992.24-1.992.287-2.959-.083C1.483 8.612.455 7.394.093 5.63.053 5.422.032 5.212 0 5.003v-.41c.056-.326.097-.656.172-.978.136-.583.735-.757 1.174-.348.182.17.354.353.532.529.47.461.925.941 1.418 1.378.45.398 1.172.384 1.646.023.682-.521.737-1.448.112-2.087-.562-.574-1.134-1.138-1.705-1.704-.218-.216-.357-.453-.258-.771.098-.313.336-.449.642-.5.245-.04.489-.09.733-.135h.73z" transform="translate(3.333 3.374)" id="Fill-1" fill="#FFF"/><path d="M.54 6.757C.235 7.139.105 7.595 0 8.06v.636c.015.057.034.114.045.173.134.68.464 1.244 1.017 1.663 1.126.855 2.605.748 3.63-.272 2.116-2.108 4.225-4.223 6.337-6.336a.671.671 0 00.068-.08L7.255 0c-.011.01-.04.035-.066.061L.837 6.415a4.146 4.146 0 00-.297.342zm3.564 1.342c-.159.16-.327.294-.473.289-.37-.003-.576-.126-.701-.367a.643.643 0 01.051-.706c.043-.062.097-.116.15-.17 1.32-1.32 2.64-2.64 3.959-3.962.21-.21.44-.34.75-.253.45.13.64.653.372 1.038a1.411 1.411 0 01-.164.186L4.104 8.1z" transform="translate(3.333 15.56)" id="Fill-4" fill="#FFF" fill-rule="evenodd"/><path d="M8.513 0c.177.124.37.231.529.375.318.291.619.6.924.905.334.332.369.605.124 1.008a958.018 958.018 0 01-2.069 3.394c-.303.496-.777.552-1.195.148-.108-.104-.21-.214-.346-.352L1.91 10.03 0 8.136l4.552-4.533c-.115-.12-.218-.216-.31-.322-.287-.333-.245-.79.131-1.017C5.587 1.53 6.813.816 8.034.096 8.1.058 8.17.032 8.24 0h.274z" transform="translate(16.417 3.333)" id="Fill-7" fill="#FFF"/></g></g></g></svg>