<svg width="40" height="40" xmlns="http://www.w3.org/2000/svg"><path d="M1.999 0h36.002q.098 0 .196.01t.194.028q.096.02.19.048.094.029.185.066.09.038.177.084.087.046.169.1.081.055.157.118.076.062.145.131.07.07.132.146.063.076.117.157.055.082.101.169.046.086.084.177.037.09.066.185.028.094.048.19.019.096.028.194.01.098.01.196v36.002q0 .098-.01.196t-.028.194q-.02.096-.048.19-.029.094-.066.185-.038.09-.084.177-.046.087-.1.169-.056.081-.118.157-.062.076-.132.145-.069.07-.145.132-.076.063-.157.117-.082.055-.169.101-.086.046-.177.084-.09.037-.185.066-.094.028-.19.048-.096.019-.194.028-.098.01-.196.01H1.999q-.098 0-.196-.01t-.194-.028q-.096-.02-.19-.048-.094-.029-.185-.066-.09-.038-.177-.084-.087-.046-.169-.1-.081-.056-.157-.118-.076-.062-.146-.132-.069-.069-.131-.145-.063-.076-.117-.157-.055-.082-.101-.169-.046-.086-.084-.177-.037-.09-.066-.185-.028-.094-.048-.19-.019-.096-.028-.194Q0 38.099 0 38V1.999q0-.098.01-.196t.028-.194q.02-.096.048-.19.029-.094.066-.185.038-.09.084-.177.046-.087.1-.169Q.392.807.455.731.516.655.585.585.655.516.731.454.807.39.888.337.97.282 1.057.236q.086-.046.177-.084.09-.037.185-.066.094-.028.19-.048.096-.019.194-.028Q1.901 0 2 0z" fill="#BA1212"/><path d="M5 5h30v30H5V5z" fill="none"/><path d="M6.053 22.87V9.662c0-.734.575-1.329 1.284-1.329h12.757c.71 0 1.284.595 1.284 1.33V22.87a.436.436 0 01-.428.443H6.48a.436.436 0 01-.427-.443zM35 25.082v1.344a.436.436 0 01-.428.443h-3.466c-.248-1.76-1.711-3.116-3.479-3.116-1.767 0-3.23 1.357-3.478 3.116h-6.98a3.671 3.671 0 00-1.184-2.23h6.617v-12.67c0-.49.384-.887.857-.887H27.5c1.138 0 2.202.585 2.838 1.56l2.606 3.994c.382.586.586 1.276.586 1.983v6.02h1.042c.236 0 .428.198.428.443zm-6.426-11.407l2.083 3.063c.2.294-.003.698-.35.698h-5.333a.436.436 0 01-.428-.443V13.93c0-.245.192-.443.428-.443h3.25c.14 0 .27.07.35.188zM5.428 24.639h5.969a3.671 3.671 0 00-1.185 2.23H5.428A.436.436 0 015 26.426v-1.344c0-.245.192-.443.428-.443zm8.263 5.513c1.471 0 2.664-1.235 2.664-2.757s-1.193-2.756-2.664-2.756-2.664 1.234-2.664 2.756c0 1.522 1.193 2.757 2.664 2.757zm16.6-2.757c0 1.522-1.192 2.757-2.663 2.757-1.472 0-2.664-1.235-2.664-2.757s1.192-2.756 2.664-2.756c1.47 0 2.663 1.234 2.663 2.756zm-15.268 0c0-.761-.597-1.378-1.332-1.378-.736 0-1.332.617-1.332 1.378 0 .761.596 1.378 1.332 1.378.735 0 1.332-.617 1.332-1.378zm12.604-1.378c.736 0 1.332.617 1.332 1.378 0 .761-.596 1.378-1.332 1.378-.735 0-1.331-.617-1.331-1.378 0-.761.596-1.378 1.331-1.378z" fill="#FFF" fill-rule="evenodd"/></svg>