<svg width="40" height="40" viewBox="0 0 40 40" xmlns:xlink="http://www.w3.org/1999/xlink" xmlns="http://www.w3.org/2000/svg"><g id="truck"><path d="M1.999 0h36.002q.098 0 .196.01t.194.028q.096.02.19.048.094.029.185.066.09.038.177.084.087.046.169.1.081.055.157.118.076.062.145.131.07.07.132.146.063.076.117.157.055.082.101.169.046.086.084.177.037.09.066.185.028.094.048.19.019.096.028.194.01.098.01.196v36.002q0 .098-.01.196t-.028.194q-.02.096-.048.19-.029.094-.066.185-.038.09-.084.177-.046.087-.1.169-.056.081-.118.157-.062.076-.132.145-.069.07-.145.132-.076.063-.157.117-.082.055-.169.101-.086.046-.177.084-.09.037-.185.066-.094.028-.19.048-.096.019-.194.028-.098.01-.196.01H1.999q-.098 0-.196-.01t-.194-.028q-.096-.02-.19-.048-.094-.029-.185-.066-.09-.038-.177-.084-.087-.046-.169-.1-.081-.056-.157-.118-.076-.062-.146-.132-.069-.069-.131-.145-.063-.076-.117-.157-.055-.082-.101-.169-.046-.086-.084-.177-.037-.09-.066-.185-.028-.094-.048-.19-.019-.096-.028-.194Q0 38.099 0 38V1.999q0-.098.01-.196t.028-.194q.02-.096.048-.19.029-.094.066-.185.038-.09.084-.177.046-.087.1-.169Q.392.807.455.731.516.655.585.585.655.516.731.454.807.39.888.337.97.282 1.057.236q.086-.046.177-.084.09-.037.185-.066.094-.028.19-.048.096-.019.194-.028Q1.901 0 2 0z" id="Rectangle" fill="#BA1212" stroke="none"/><g id="delivery-truck" transform="translate(5 5)"><g id="delivery-truck" stroke="none"><path d="M0 0h30v30H0V0z" id="Rectangle-4" fill="none"/><path d="M1.053 14.537V1.33C1.053.595 1.628 0 2.337 0h12.757c.71 0 1.284.595 1.284 1.329v13.208a.436.436 0 01-.428.443H1.48a.436.436 0 01-.427-.443zM30 16.748v1.344a.436.436 0 01-.428.443h-3.466c-.248-1.759-1.711-3.116-3.479-3.116-1.767 0-3.23 1.357-3.478 3.116h-6.98a3.671 3.671 0 00-1.184-2.23h6.617V3.635c0-.49.384-.886.857-.886H22.5c1.138 0 2.202.585 2.838 1.56l2.606 3.994a3.63 3.63 0 01.586 1.983v6.02h1.042c.236 0 .428.198.428.442zM23.574 5.342l2.083 3.063c.2.293-.003.698-.35.698h-5.333a.436.436 0 01-.428-.443V5.596c0-.244.192-.442.428-.442h3.25c.14 0 .27.07.35.188zM.428 16.305h5.969a3.671 3.671 0 00-1.185 2.23H.428A.436.436 0 010 18.093v-1.345c0-.244.192-.443.428-.443zm8.263 5.513c1.471 0 2.664-1.234 2.664-2.756 0-1.523-1.193-2.757-2.664-2.757s-2.664 1.235-2.664 2.757 1.193 2.756 2.664 2.756zm16.6-2.756c0 1.522-1.192 2.756-2.663 2.756-1.472 0-2.664-1.234-2.664-2.756 0-1.523 1.192-2.757 2.664-2.757 1.47 0 2.663 1.235 2.663 2.757zm-15.268 0c0-.761-.597-1.378-1.332-1.378-.736 0-1.332.617-1.332 1.378 0 .761.596 1.378 1.332 1.378.735 0 1.332-.617 1.332-1.378zm12.604-1.378c.736 0 1.332.617 1.332 1.378 0 .761-.596 1.378-1.332 1.378-.735 0-1.331-.617-1.331-1.378 0-.761.596-1.378 1.331-1.378z" transform="translate(0 3.333)" id="Shape" fill="#FFF" fill-rule="evenodd"/></g></g></g></svg>