<svg xmlns="http://www.w3.org/2000/svg" width="40" height="40"><path fill="#b00" d="M0 2a2 2 0 012-2h36a2 2 0 012 2v36a2 2 0 01-2 2H2a2 2 0 01-2-2z"/><path fill="#fff" d="M20.562 33.299l-7.113-4.846c-1.025-.699-1.995-1.921-2.661-3.355-.508-1.093-.788-2.215-.788-3.16V11.834l10.561-5.168 2.731 1.34.004.002 7.827 3.84v10.088c0 2.258-1.58 5.242-3.449 6.515zm-1.363-9.604a.69.69 0 00.484-.196l6.124-5.973.013-.012a.693.693 0 00-.98-.98l-5.64 5.502-2.917-2.844-.005-.005a.693.693 0 00-.962.997l3.4 3.316a.69.69 0 00.483.196z"/></svg>