<svg width="40" height="40" viewBox="0 0 40 40" xmlns:xlink="http://www.w3.org/1999/xlink" xmlns="http://www.w3.org/2000/svg"><g id="warranty-copy" stroke="none"><path d="M1.999 0h36.002q.098 0 .196.01t.194.028q.096.02.19.048.094.029.185.066.09.038.177.084.087.046.169.1.081.055.157.118.076.062.145.131.07.07.132.146.063.076.117.157.055.082.101.169.046.086.084.177.037.09.066.185.028.094.048.19.019.096.028.194.01.098.01.196v36.002q0 .098-.01.196t-.028.194q-.02.096-.048.19-.029.094-.066.185-.038.09-.084.177-.046.087-.1.169-.056.081-.118.157-.062.076-.132.145-.069.07-.145.132-.076.063-.157.117-.082.055-.169.101-.086.046-.177.084-.09.037-.185.066-.094.028-.19.048-.096.019-.194.028-.098.01-.196.01H1.999q-.098 0-.196-.01t-.194-.028q-.096-.02-.19-.048-.094-.029-.185-.066-.09-.038-.177-.084-.087-.046-.169-.1-.081-.056-.157-.118-.076-.062-.146-.132-.069-.069-.131-.145-.063-.076-.117-.157-.055-.082-.101-.169-.046-.086-.084-.177-.037-.09-.066-.185-.028-.094-.048-.19-.019-.096-.028-.194Q0 38.099 0 38V1.999q0-.098.01-.196t.028-.194q.02-.096.048-.19.029-.094.066-.185.038-.09.084-.177.046-.087.1-.169Q.392.807.455.731.516.655.585.585.655.516.731.454.807.39.888.337.97.282 1.057.236q.086-.046.177-.084.09-.037.185-.066.094-.028.19-.048.096-.019.194-.028Q1.901 0 2 0z" id="Rectangle" fill="#BA1212"/><path d="M21.123 15.27c0 2.258-1.58 5.242-3.449 6.515l-7.112 4.847-7.113-4.846c-1.025-.698-1.995-1.921-2.661-3.354C.28 17.339 0 16.216 0 15.27V5.168L10.561 0l2.732 1.34.003.002 7.827 3.84V15.27zM8.715 16.833a.69.69 0 00.967-.001l6.125-5.973.013-.012a.693.693 0 00-.98-.98L9.2 15.37l-2.917-2.844a.693.693 0 10-.967.992l3.4 3.315z" transform="translate(10 6.667)" id="Fill-1" fill="#FFF" fill-rule="evenodd"/></g></svg>