<?xml version="1.0" encoding="utf-8"?>
<svg width="40px" height="40px" viewBox="0 0 40 40" version="1.1" xmlns:xlink="http://www.w3.org/1999/xlink" xmlns="http://www.w3.org/2000/svg">
  <desc>Created with Lunacy</desc>
  <g id="tools">
    <path d="M1.999 0L38.001 0Q38.0992 0 38.1969 0.00962573Q38.2947 0.0192515 38.391 0.0384102Q38.4873 0.057569 38.5813 0.0860763Q38.6753 0.114584 38.766 0.152165Q38.8567 0.189746 38.9433 0.236039Q39.0299 0.282333 39.1116 0.336892Q39.1932 0.391452 39.2692 0.453752Q39.3451 0.516052 39.4145 0.585494Q39.4839 0.654935 39.5462 0.730848Q39.6085 0.806761 39.6631 0.888415Q39.7177 0.970069 39.764 1.05668Q39.8102 1.14329 39.8478 1.23402Q39.8854 1.32474 39.9139 1.41872Q39.9424 1.5127 39.9616 1.60901Q39.9807 1.70533 39.9904 1.80306Q40 1.9008 40 1.999L40 38.001Q40 38.0992 39.9904 38.1969Q39.9807 38.2947 39.9616 38.391Q39.9424 38.4873 39.9139 38.5813Q39.8854 38.6753 39.8478 38.766Q39.8102 38.8567 39.764 38.9433Q39.7177 39.0299 39.6631 39.1116Q39.6085 39.1932 39.5462 39.2692Q39.4839 39.3451 39.4145 39.4145Q39.3451 39.4839 39.2692 39.5462Q39.1932 39.6085 39.1116 39.6631Q39.0299 39.7177 38.9433 39.764Q38.8567 39.8102 38.766 39.8478Q38.6753 39.8854 38.5813 39.9139Q38.4873 39.9424 38.391 39.9616Q38.2947 39.9807 38.1969 39.9904Q38.0992 40 38.001 40L1.999 40Q1.9008 40 1.80306 39.9904Q1.70533 39.9807 1.60901 39.9616Q1.5127 39.9424 1.41872 39.9139Q1.32474 39.8854 1.23402 39.8478Q1.14329 39.8102 1.05668 39.764Q0.970069 39.7177 0.888415 39.6631Q0.806761 39.6085 0.730848 39.5462Q0.654935 39.4839 0.585494 39.4145Q0.516052 39.3451 0.453752 39.2692Q0.391452 39.1932 0.336892 39.1116Q0.282333 39.0299 0.236039 38.9433Q0.189746 38.8567 0.152165 38.766Q0.114584 38.6753 0.0860763 38.5813Q0.057569 38.4873 0.0384102 38.391Q0.0192515 38.2947 0.00962573 38.1969Q0 38.0992 0 38.001L0 1.999Q0 1.9008 0.00962573 1.80306Q0.0192515 1.70533 0.0384102 1.60901Q0.057569 1.5127 0.0860763 1.41872Q0.114584 1.32474 0.152165 1.23402Q0.189746 1.14329 0.236039 1.05668Q0.282333 0.970069 0.336892 0.888415Q0.391452 0.806761 0.453752 0.730848Q0.516052 0.654935 0.585494 0.585494Q0.654935 0.516052 0.730848 0.453752Q0.806761 0.391452 0.888415 0.336892Q0.970069 0.282333 1.05668 0.236039Q1.14329 0.189746 1.23402 0.152165Q1.32474 0.114584 1.41872 0.0860763Q1.5127 0.057569 1.60901 0.0384102Q1.70533 0.0192515 1.80306 0.00962573Q1.9008 0 1.999 0L1.999 0Z" id="Rectangle" fill="#BA1212" stroke="none" />
    <g id="tools" transform="translate(5 5)">
      <g id="tools">
        <path d="M0 0L30 0L30 30L0 30L0 0Z" id="Rectangle-4" fill="none" stroke="none" />
        <path d="M5.19531 0C5.53465 0.0729565 5.88351 0.11694 6.21177 0.223873C7.84911 0.757219 8.90586 1.86835 9.39117 3.50951C9.65316 4.39549 9.61607 5.29185 9.36191 6.1776C9.31989 6.32406 9.33657 6.42181 9.45128 6.53602C11.9031 8.97751 14.3519 11.422 16.7934 13.8738C16.9411 14.0222 17.0707 13.9799 17.2217 13.9456C18.1304 13.7393 19.045 13.6726 19.9436 13.9608C21.7363 14.5359 22.827 15.765 23.2372 17.5939C23.3926 18.2866 23.3447 18.9795 23.1798 19.6657C23.0381 20.2558 22.4261 20.4373 21.9875 20.01C21.395 19.4329 20.8193 18.8387 20.228 18.2605C19.5909 17.6374 18.6547 17.6873 18.1297 18.3617C17.7604 18.8363 17.744 19.5494 18.1459 20.0025C18.5781 20.4897 19.0542 20.9383 19.5121 21.4028C19.6932 21.5865 19.8816 21.7634 20.0584 21.951C20.4694 22.3874 20.2943 22.9834 19.7157 23.1302C17.0676 23.8018 14.4221 22.1486 13.8821 19.4747C13.7282 18.7127 13.7889 17.9499 13.9764 17.1998C14.0299 16.986 13.9927 16.8485 13.8307 16.6876C11.419 14.2917 9.01419 11.8891 6.61482 9.48102C6.46174 9.32742 6.33135 9.28635 6.12236 9.33679C5.13028 9.5764 4.12954 9.62352 3.16313 9.25415C1.48262 8.61191 0.454863 7.39448 0.0938802 5.62875C0.0516797 5.42248 0.0307617 5.21184 0 5.00325L0 4.59389C0.0562826 4.26723 0.0973438 3.93701 0.172266 3.61462C0.307708 3.03211 0.906673 2.85808 1.34554 3.26703C1.52847 3.43751 1.69973 3.62035 1.87824 3.7956C2.3486 4.25749 2.80301 4.73744 3.29602 5.17386C3.74564 5.57198 4.46788 5.55829 4.94161 5.19665C5.62397 4.67576 5.67889 3.74884 5.05395 3.11025C4.49194 2.53601 3.91954 1.97192 3.34897 1.40614C3.1315 1.19041 2.99177 0.952892 3.09117 0.635049C3.18919 0.321663 3.4269 0.186348 3.73297 0.135133C3.97801 0.0940611 4.22183 0.0453476 4.46615 0L5.19531 0Z" transform="translate(3.333333 3.374133)" id="Fill-1" fill="#FFFFFF" stroke="none" />
        <path d="M0.540232 6.75665C0.234505 7.13891 0.104633 7.59507 0 8.06118L0 8.69669C0.0152069 8.75439 0.0336822 8.81145 0.0452123 8.86992C0.179442 9.54964 0.509183 10.1135 1.06199 10.533C2.18839 11.3879 3.66683 11.281 4.6915 10.2608C6.80835 8.15328 8.91735 6.03793 11.0292 3.92534C11.0642 3.8903 11.0936 3.84958 11.0972 3.8454C9.80843 2.55567 8.53386 1.2802 7.25457 0C7.24382 0.010032 7.21549 0.0346809 7.18898 0.0611909C5.07131 2.17863 2.95351 4.29585 0.83729 6.4147C0.730841 6.52133 0.634515 6.63885 0.540232 6.75665ZM4.10438 8.09949C3.9455 8.25855 3.77736 8.39323 3.63056 8.38779C3.26109 8.38484 3.05473 8.26168 2.92981 8.02069C2.80489 7.77964 2.82327 7.5386 2.98101 7.31477C3.02427 7.25348 3.07798 7.19888 3.13122 7.14554C4.45055 5.82467 5.77119 4.50502 7.0897 3.18329C7.29997 2.97248 7.53093 2.84211 7.83966 2.93045C8.29028 3.05941 8.47994 3.58262 8.21225 3.96756C8.16522 4.03524 8.10648 4.09575 8.04792 4.15436C6.73368 5.46973 5.41844 6.78398 4.10438 8.09949Z" transform="translate(3.333311 15.55944)" id="Fill-4" fill="#FFFFFF" fill-rule="evenodd" stroke="none" />
        <path d="M8.51312 0C8.6904 0.123966 8.88346 0.231136 9.04156 0.37541C9.36001 0.66603 9.66086 0.975382 9.96627 1.2796C10.3 1.6121 10.335 1.88507 10.09 2.28839C9.40224 3.42084 8.71332 4.55261 8.02119 5.68248C7.71788 6.17763 7.24379 6.23382 6.82624 5.83014C6.7181 5.72558 6.6153 5.61566 6.48025 5.47783C4.94411 7.00824 3.42554 8.52114 1.90986 10.0312C1.24074 9.36728 0.608956 8.74039 0 8.13623C1.50137 6.6412 3.0204 5.12867 4.55246 3.60312C4.43663 3.48334 4.33378 3.38675 4.24224 3.28066C3.95526 2.94798 3.99689 2.49112 4.37336 2.26372C5.58711 1.53055 6.81252 0.816068 8.03423 0.0956424C8.09864 0.0576827 8.17033 0.0316106 8.23863 0L8.51312 0Z" transform="translate(16.41745 3.333333)" id="Fill-7" fill="#FFFFFF" stroke="none" />
      </g>
    </g>
  </g>
</svg>