<?xml version="1.0" encoding="utf-8"?>
<svg width="40px" height="40px" viewBox="0 0 40 40" version="1.1" xmlns:xlink="http://www.w3.org/1999/xlink" xmlns="http://www.w3.org/2000/svg">
  <desc>Created with Lunacy</desc>
  <g id="truck">
    <path d="M1.999 0L38.001 0Q38.0992 0 38.1969 0.00962573Q38.2947 0.0192515 38.391 0.0384102Q38.4873 0.057569 38.5813 0.0860763Q38.6753 0.114584 38.766 0.152165Q38.8567 0.189746 38.9433 0.236039Q39.0299 0.282333 39.1116 0.336892Q39.1932 0.391452 39.2692 0.453752Q39.3451 0.516052 39.4145 0.585494Q39.4839 0.654935 39.5462 0.730848Q39.6085 0.806761 39.6631 0.888415Q39.7177 0.970069 39.764 1.05668Q39.8102 1.14329 39.8478 1.23402Q39.8854 1.32474 39.9139 1.41872Q39.9424 1.5127 39.9616 1.60901Q39.9807 1.70533 39.9904 1.80306Q40 1.9008 40 1.999L40 38.001Q40 38.0992 39.9904 38.1969Q39.9807 38.2947 39.9616 38.391Q39.9424 38.4873 39.9139 38.5813Q39.8854 38.6753 39.8478 38.766Q39.8102 38.8567 39.764 38.9433Q39.7177 39.0299 39.6631 39.1116Q39.6085 39.1932 39.5462 39.2692Q39.4839 39.3451 39.4145 39.4145Q39.3451 39.4839 39.2692 39.5462Q39.1932 39.6085 39.1116 39.6631Q39.0299 39.7177 38.9433 39.764Q38.8567 39.8102 38.766 39.8478Q38.6753 39.8854 38.5813 39.9139Q38.4873 39.9424 38.391 39.9616Q38.2947 39.9807 38.1969 39.9904Q38.0992 40 38.001 40L1.999 40Q1.9008 40 1.80306 39.9904Q1.70533 39.9807 1.60901 39.9616Q1.5127 39.9424 1.41872 39.9139Q1.32474 39.8854 1.23402 39.8478Q1.14329 39.8102 1.05668 39.764Q0.970069 39.7177 0.888415 39.6631Q0.806761 39.6085 0.730848 39.5462Q0.654935 39.4839 0.585494 39.4145Q0.516052 39.3451 0.453752 39.2692Q0.391452 39.1932 0.336892 39.1116Q0.282333 39.0299 0.236039 38.9433Q0.189746 38.8567 0.152165 38.766Q0.114584 38.6753 0.0860763 38.5813Q0.057569 38.4873 0.0384102 38.391Q0.0192515 38.2947 0.00962573 38.1969Q0 38.0992 0 38.001L0 1.999Q0 1.9008 0.00962573 1.80306Q0.0192515 1.70533 0.0384102 1.60901Q0.057569 1.5127 0.0860763 1.41872Q0.114584 1.32474 0.152165 1.23402Q0.189746 1.14329 0.236039 1.05668Q0.282333 0.970069 0.336892 0.888415Q0.391452 0.806761 0.453752 0.730848Q0.516052 0.654935 0.585494 0.585494Q0.654935 0.516052 0.730848 0.453752Q0.806761 0.391452 0.888415 0.336892Q0.970069 0.282333 1.05668 0.236039Q1.14329 0.189746 1.23402 0.152165Q1.32474 0.114584 1.41872 0.0860763Q1.5127 0.057569 1.60901 0.0384102Q1.70533 0.0192515 1.80306 0.00962573Q1.9008 0 1.999 0L1.999 0Z" id="Rectangle" fill="#BA1212" stroke="none" />
    <g id="delivery-truck" transform="translate(5 5)">
      <g id="delivery-truck">
        <path d="M0 0L30 0L30 30L0 30L0 0Z" id="Rectangle-4" fill="none" stroke="none" />
        <path d="M1.05265 14.5371L1.05265 1.32896C1.05265 0.59501 1.6276 0 2.33691 0L15.0943 0C15.8035 0 16.3785 0.59501 16.3785 1.32896L16.3785 14.5371C16.3785 14.7818 16.1869 14.9801 15.9504 14.9801L1.48074 14.9801C1.24426 14.9801 1.05265 14.7818 1.05265 14.5371ZM30 16.7485L30 18.0924C30 18.3371 29.8083 18.5354 29.5719 18.5354L26.106 18.5354C25.8581 16.7761 24.395 15.4195 22.6275 15.4195C20.8598 15.4195 19.3966 16.7762 19.1487 18.5354L12.1697 18.5354C12.0447 17.6486 11.6122 16.8651 10.9851 16.3055L17.6025 16.3055L17.6025 3.63473C17.6025 3.14543 17.9858 2.74876 18.4587 2.74876L22.5001 2.74876C23.638 2.74876 24.7016 3.33368 25.3383 4.30958L27.9437 8.30274C28.3259 8.88847 28.5301 9.57905 28.5301 10.2858L28.5301 16.3055L29.5719 16.3055C29.8083 16.3055 30 16.5038 30 16.7485ZM23.5739 5.34154L25.6573 8.405C25.8569 8.6985 25.654 9.10294 25.3073 9.10294L19.974 9.10294C19.7376 9.10294 19.5459 8.90465 19.5459 8.65995L19.5459 5.59649C19.5459 5.35184 19.7376 5.1535 19.974 5.1535L23.2238 5.1535C23.3631 5.1535 23.4937 5.22366 23.5739 5.34154ZM0.428088 16.3055L6.39681 16.3055C5.7698 16.8651 5.33721 17.6486 5.2123 18.5354L0.428088 18.5354C0.191667 18.5354 0 18.3371 0 18.0925L0 16.7485C0 16.5038 0.191667 16.3055 0.428088 16.3055ZM8.69098 21.8182C10.162 21.8182 11.3546 20.5841 11.3546 19.0619C11.3546 17.5395 10.162 16.3055 8.69098 16.3055C7.21995 16.3055 6.02735 17.5395 6.02735 19.0619C6.02735 20.5841 7.21995 21.8182 8.69098 21.8182ZM25.2911 19.0619C25.2911 20.5841 24.0985 21.8182 22.6275 21.8182C21.1564 21.8182 19.9638 20.5841 19.9638 19.0619C19.9638 17.5395 21.1564 16.3055 22.6275 16.3055C24.0985 16.3055 25.2911 17.5395 25.2911 19.0619ZM10.0227 19.0619C10.0227 18.3007 9.42647 17.6837 8.69093 17.6837C7.95539 17.6837 7.35907 18.3007 7.35907 19.0619C7.35907 19.823 7.95539 20.4401 8.69093 20.4401C9.42647 20.4401 10.0227 19.823 10.0227 19.0619ZM22.6274 17.6837C23.363 17.6837 23.9593 18.3007 23.9593 19.0619C23.9593 19.823 23.363 20.4401 22.6274 20.4401C21.8919 20.4401 21.2956 19.823 21.2956 19.0619C21.2956 18.3007 21.8919 17.6837 22.6274 17.6837Z" transform="translate(0 3.333333)" id="Shape" fill="#FFFFFF" fill-rule="evenodd" stroke="none" />
      </g>
    </g>
  </g>
</svg>