<?xml version="1.0" encoding="utf-8"?>
<svg width="40px" height="40px" viewBox="0 0 40 40" version="1.1" xmlns:xlink="http://www.w3.org/1999/xlink" xmlns="http://www.w3.org/2000/svg">
  <desc>Created with Lunacy</desc>
  <g id="warranty-copy">
    <path d="M1.999 0L38.001 0Q38.0992 0 38.1969 0.00962573Q38.2947 0.0192515 38.391 0.0384102Q38.4873 0.057569 38.5813 0.0860763Q38.6753 0.114584 38.766 0.152165Q38.8567 0.189746 38.9433 0.236039Q39.0299 0.282333 39.1116 0.336892Q39.1932 0.391452 39.2692 0.453752Q39.3451 0.516052 39.4145 0.585494Q39.4839 0.654935 39.5462 0.730848Q39.6085 0.806761 39.6631 0.888415Q39.7177 0.970069 39.764 1.05668Q39.8102 1.14329 39.8478 1.23402Q39.8854 1.32474 39.9139 1.41872Q39.9424 1.5127 39.9616 1.60901Q39.9807 1.70533 39.9904 1.80306Q40 1.9008 40 1.999L40 38.001Q40 38.0992 39.9904 38.1969Q39.9807 38.2947 39.9616 38.391Q39.9424 38.4873 39.9139 38.5813Q39.8854 38.6753 39.8478 38.766Q39.8102 38.8567 39.764 38.9433Q39.7177 39.0299 39.6631 39.1116Q39.6085 39.1932 39.5462 39.2692Q39.4839 39.3451 39.4145 39.4145Q39.3451 39.4839 39.2692 39.5462Q39.1932 39.6085 39.1116 39.6631Q39.0299 39.7177 38.9433 39.764Q38.8567 39.8102 38.766 39.8478Q38.6753 39.8854 38.5813 39.9139Q38.4873 39.9424 38.391 39.9616Q38.2947 39.9807 38.1969 39.9904Q38.0992 40 38.001 40L1.999 40Q1.9008 40 1.80306 39.9904Q1.70533 39.9807 1.60901 39.9616Q1.5127 39.9424 1.41872 39.9139Q1.32474 39.8854 1.23402 39.8478Q1.14329 39.8102 1.05668 39.764Q0.970069 39.7177 0.888415 39.6631Q0.806761 39.6085 0.730848 39.5462Q0.654935 39.4839 0.585494 39.4145Q0.516052 39.3451 0.453752 39.2692Q0.391452 39.1932 0.336892 39.1116Q0.282333 39.0299 0.236039 38.9433Q0.189746 38.8567 0.152165 38.766Q0.114584 38.6753 0.0860763 38.5813Q0.057569 38.4873 0.0384102 38.391Q0.0192515 38.2947 0.00962573 38.1969Q0 38.0992 0 38.001L0 1.999Q0 1.9008 0.00962573 1.80306Q0.0192515 1.70533 0.0384102 1.60901Q0.057569 1.5127 0.0860763 1.41872Q0.114584 1.32474 0.152165 1.23402Q0.189746 1.14329 0.236039 1.05668Q0.282333 0.970069 0.336892 0.888415Q0.391452 0.806761 0.453752 0.730848Q0.516052 0.654935 0.585494 0.585494Q0.654935 0.516052 0.730848 0.453752Q0.806761 0.391452 0.888415 0.336892Q0.970069 0.282333 1.05668 0.236039Q1.14329 0.189746 1.23402 0.152165Q1.32474 0.114584 1.41872 0.0860763Q1.5127 0.057569 1.60901 0.0384102Q1.70533 0.0192515 1.80306 0.00962573Q1.9008 0 1.999 0L1.999 0Z" id="Rectangle" fill="#BA1212" stroke="none" />
    <path d="M21.1232 15.2701C21.1232 17.5283 19.5439 20.512 17.6745 21.7853L10.5617 26.6321L3.44877 21.786C2.42378 21.0876 1.45374 19.865 0.787763 18.4316C0.279711 17.3385 0 16.216 0 15.2706L0 5.16814L10.5613 0L13.2925 1.34061L13.2964 1.34245L21.1232 5.18257L21.1232 15.2701ZM8.7155 16.833C8.8449 16.9592 9.01853 17.0296 9.19908 17.0293L9.19908 17.0286C9.37985 17.0288 9.55348 16.9582 9.68265 16.8319L15.8073 10.8593C15.8115 10.8554 15.8155 10.8514 15.8196 10.8474C16.09 10.5769 16.09 10.1384 15.8197 9.86794C15.5492 9.59734 15.1106 9.59734 14.8401 9.86782L9.19908 15.3697L6.28317 12.5256C6.28144 12.5239 6.2796 12.5221 6.27775 12.5203C6.00254 12.2548 5.56398 12.2626 5.29835 12.5379C5.03273 12.8133 5.04069 13.2516 5.3159 13.5172L8.7155 16.833Z" transform="translate(9.999942 6.666597)" id="Fill-1" fill="#FFFFFF" fill-rule="evenodd" stroke="none" />
  </g>
</svg>