<svg xmlns="http://www.w3.org/2000/svg" width="24" height="24" viewBox="0 0 24 24">
  <g fill="none" fill-rule="evenodd">
    <rect width="24" height="24" fill="#BA1212" fill-rule="nonzero" rx="2"/>
    <path fill="#FFF" d="M18,10.75 C18,10.888 17.888,11 17.75,11 L12.5,11 L12.5,9.389 L17.75,9.389 C17.888,9.389 18,9.501 18,9.639 L18,10.75 Z M15.639,18 L12.5,18 L12.5,12.5 L16.444,12.5 L16.444,17.194 C16.444,17.639 16.083,18 15.639,18 L15.639,18 Z M7.055,17.194 L7.055,12.5 L11,12.5 L11,18 L7.861,18 C7.417,18 7.055,17.639 7.055,17.194 L7.055,17.194 Z M5.5,9.639 C5.5,9.501 5.612,9.389 5.75,9.389 L11,9.389 L11,11 L5.75,11 C5.612,11 5.5,10.888 5.5,10.75 L5.5,9.639 Z M7.055,6.694 C7.056,6.027 7.62,5.516 8.289,5.5 C9.251,5.5 10.167,6.43 10.726,7.889 L8.25,7.889 C7.591,7.889 7.055,7.353 7.055,6.694 L7.055,6.694 Z M15.224,5.5 C15.886,5.482 16.444,6.027 16.444,6.694 C16.444,7.353 15.908,7.889 15.25,7.889 L12.773,7.889 C13.333,6.43 14.251,5.5 15.224,5.5 L15.224,5.5 Z M17.75,7.889 L17.652,7.889 C17.833,7.527 17.944,7.125 17.944,6.694 C17.944,5.208 16.735,4 15.263,4 C15.245,4 15.228,4 15.209,4 C13.828,4 12.579,4.933 11.75,6.499 C10.921,4.933 9.675,4 8.303,4 C6.799,4.015 5.555,5.191 5.555,6.694 C5.555,7.125 5.666,7.527 5.847,7.889 L5.75,7.889 C4.785,7.889 4,8.674 4,9.639 L4,10.75 C4,11.648 4.683,12.382 5.555,12.48 L5.555,17.194 C5.555,18.466 6.589,19.5 7.861,19.5 L15.639,19.5 C16.91,19.5 17.944,18.466 17.944,17.194 L17.944,12.48 C18.816,12.382 19.5,11.648 19.5,10.75 L19.5,9.639 C19.5,8.674 18.715,7.889 17.75,7.889 L17.75,7.889 Z"/>
  </g>
</svg>
