<?xml version="1.0" encoding="utf-8"?>
<svg width="24px" height="24px" viewBox="0 0 24 24" version="1.1" xmlns:xlink="http://www.w3.org/1999/xlink" xmlns="http://www.w3.org/2000/svg">
  <desc>Created with Lunacy</desc>
  <defs>
    <rect width="24" height="24" id="artboard_1" />
    <clipPath id="clip_1">
      <use xlink:href="#artboard_1" clip-rule="evenodd" />
    </clipPath>
  </defs>
  <g id="tools" clip-path="url(#clip_1)">
    <use xlink:href="#artboard_1" stroke="none" fill="#FFFFFF" />
    <path d="M1.999 0L22.001 0Q22.0992 0 22.1969 0.00962573Q22.2947 0.0192515 22.391 0.0384102Q22.4873 0.057569 22.5813 0.0860763Q22.6753 0.114584 22.766 0.152165Q22.8567 0.189746 22.9433 0.236039Q23.0299 0.282333 23.1116 0.336892Q23.1932 0.391452 23.2691 0.453752Q23.3451 0.516052 23.4145 0.585494Q23.4839 0.654935 23.5462 0.730848Q23.6085 0.806761 23.6631 0.888415Q23.7177 0.970069 23.764 1.05668Q23.8103 1.14329 23.8478 1.23402Q23.8854 1.32474 23.9139 1.41872Q23.9424 1.5127 23.9616 1.60901Q23.9807 1.70533 23.9904 1.80306Q24 1.9008 24 1.999L24 22.001Q24 22.0992 23.9904 22.1969Q23.9807 22.2947 23.9616 22.391Q23.9424 22.4873 23.9139 22.5813Q23.8854 22.6753 23.8478 22.766Q23.8103 22.8567 23.764 22.9433Q23.7177 23.0299 23.6631 23.1116Q23.6085 23.1932 23.5462 23.2691Q23.4839 23.3451 23.4145 23.4145Q23.3451 23.4839 23.2691 23.5462Q23.1932 23.6085 23.1116 23.6631Q23.0299 23.7177 22.9433 23.764Q22.8567 23.8103 22.766 23.8478Q22.6753 23.8854 22.5813 23.9139Q22.4873 23.9424 22.391 23.9616Q22.2947 23.9807 22.1969 23.9904Q22.0992 24 22.001 24L1.999 24Q1.9008 24 1.80306 23.9904Q1.70533 23.9807 1.60901 23.9616Q1.5127 23.9424 1.41872 23.9139Q1.32474 23.8854 1.23402 23.8478Q1.14329 23.8103 1.05668 23.764Q0.970069 23.7177 0.888415 23.6631Q0.806761 23.6085 0.730848 23.5462Q0.654935 23.4839 0.585494 23.4145Q0.516052 23.3451 0.453752 23.2691Q0.391452 23.1932 0.336892 23.1116Q0.282333 23.0299 0.236039 22.9433Q0.189746 22.8567 0.152165 22.766Q0.114584 22.6753 0.0860763 22.5813Q0.057569 22.4873 0.0384102 22.391Q0.0192515 22.2947 0.00962573 22.1969Q0 22.0992 0 22.001L0 1.999Q0 1.9008 0.00962573 1.80306Q0.0192515 1.70533 0.0384102 1.60901Q0.057569 1.5127 0.0860763 1.41872Q0.114584 1.32474 0.152165 1.23402Q0.189746 1.14329 0.236039 1.05668Q0.282333 0.970069 0.336892 0.888415Q0.391452 0.806761 0.453752 0.730848Q0.516052 0.654935 0.585494 0.585494Q0.654935 0.516052 0.730848 0.453752Q0.806761 0.391452 0.888415 0.336892Q0.970069 0.282333 1.05668 0.236039Q1.14329 0.189746 1.23402 0.152165Q1.32474 0.114584 1.41872 0.0860763Q1.5127 0.057569 1.60901 0.0384102Q1.70533 0.0192515 1.80306 0.00962573Q1.9008 0 1.999 0Z" id="Rectangle" fill="#BA1212" stroke="none" />
    <g id="tools" transform="translate(3 3)">
      <g id="tools">
        <path d="M0 0L18 0L18 18L0 18L0 0Z" id="Rectangle-4" fill="none" stroke="none" />
        <path d="M3.11719 0C3.32079 0.0437739 3.53011 0.0701637 3.72706 0.134324C4.70947 0.454331 5.34352 1.12101 5.6347 2.1057C5.7919 2.63729 5.76964 3.17511 5.61714 3.70656C5.59193 3.79444 5.60194 3.85308 5.67077 3.92161C7.14183 5.38651 8.61115 6.8532 10.076 8.32427C10.1647 8.41329 10.2424 8.38797 10.333 8.36739C10.8782 8.2436 11.427 8.20354 11.9661 8.37648C13.0418 8.72154 13.6962 9.45898 13.9423 10.5563C14.0356 10.9719 14.0068 11.3877 13.9079 11.7994C13.8228 12.1535 13.4556 12.2624 13.1925 12.006C12.837 11.6597 12.4916 11.3032 12.1368 10.9563C11.7546 10.5824 11.1928 10.6124 10.8778 11.017C10.6562 11.3018 10.6464 11.7296 10.8875 12.0015C11.1468 12.2938 11.4325 12.563 11.7073 12.8417C11.8159 12.9519 11.929 13.058 12.0351 13.1706C12.2816 13.4324 12.1766 13.7901 11.8294 13.8781C10.2405 14.2811 8.65323 13.2892 8.32923 11.6848C8.23692 11.2276 8.27332 10.77 8.38586 10.3199C8.41791 10.1916 8.39563 10.1091 8.29839 10.0126C6.85141 8.57504 5.40851 7.13345 3.96889 5.68861C3.87704 5.59645 3.79881 5.57181 3.67341 5.60207C3.07817 5.74584 2.47773 5.77411 1.89787 5.55249C0.889574 5.16715 0.272918 4.43669 0.0563281 3.37725C0.0310078 3.25349 0.018457 3.1271 0 3.00195L0 2.75634C0.0337695 2.56034 0.0584062 2.36221 0.103359 2.16877C0.184625 1.81926 0.544004 1.71485 0.807324 1.96022C0.917082 2.0625 1.01984 2.17221 1.12695 2.27736C1.40916 2.5545 1.6818 2.84246 1.97761 3.10432C2.24738 3.34319 2.68073 3.33497 2.96496 3.11799C3.37438 2.80546 3.40733 2.24931 3.03237 1.86615C2.69516 1.52161 2.35173 1.18315 2.00938 0.843684C1.8789 0.714246 1.79506 0.571735 1.8547 0.381029C1.91352 0.192998 2.05614 0.111809 2.23978 0.0810799C2.38681 0.0564367 2.5331 0.0272086 2.67969 0L3.11719 0Z" transform="translate(2 2.02448)" id="Fill-1" fill="#FFFFFF" stroke="none" />
        <path d="M0.324139 4.05399C0.140703 4.28335 0.0627797 4.55704 0 4.83671L0 5.21802C0.00912417 5.25263 0.0202093 5.28687 0.0271274 5.32195C0.107665 5.72979 0.30551 6.06809 0.637194 6.31981C1.31304 6.83275 2.20009 6.76858 2.8149 6.1565C4.08501 4.89197 5.35041 3.62276 6.6175 2.35521C6.63853 2.33418 6.65617 2.30975 6.6583 2.30724C5.88506 1.5334 5.12032 0.768119 4.35274 0C4.34629 0.00601923 4.32929 0.0208085 4.31339 0.0367146C3.04279 1.30718 1.7721 2.57751 0.502374 3.84882C0.438505 3.9128 0.380709 3.98331 0.324139 4.05399ZM2.46263 4.85969C2.3673 4.95513 2.26642 5.03594 2.17833 5.03267C1.95666 5.0309 1.83284 4.95701 1.75789 4.81241C1.68293 4.66779 1.69396 4.52316 1.78861 4.38886C1.81456 4.35209 1.84679 4.31933 1.87873 4.28732C2.67033 3.4948 3.46272 2.70301 4.25382 1.90997C4.37998 1.78349 4.51856 1.70527 4.70379 1.75827C4.97417 1.83565 5.08796 2.14957 4.92735 2.38054C4.89913 2.42114 4.86389 2.45745 4.82875 2.49261C4.04021 3.28184 3.25106 4.07039 2.46263 4.85969Z" transform="translate(1.999986 9.335663)" id="Fill-4" fill="#FFFFFF" fill-rule="evenodd" stroke="none" />
        <path d="M5.10787 0C5.21424 0.0743796 5.33007 0.138682 5.42494 0.225246C5.61601 0.399618 5.79651 0.585229 5.97976 0.76776C6.17998 0.967258 6.20097 1.13104 6.05401 1.37304C5.64135 2.0525 5.22799 2.73156 4.81271 3.40949C4.63073 3.70658 4.34627 3.74029 4.09575 3.49808C4.03086 3.43535 3.96918 3.3694 3.88815 3.2867C2.96647 4.20494 2.05533 5.11268 1.14591 6.01869C0.744444 5.62037 0.365374 5.24423 0 4.88174C0.900821 3.98472 1.81224 3.0772 2.73148 2.16187C2.66198 2.09 2.60027 2.03205 2.54535 1.9684C2.37316 1.76879 2.39814 1.49467 2.62401 1.35823C3.35226 0.918329 4.08751 0.489641 4.82054 0.0573855C4.85919 0.0346096 4.9022 0.0189664 4.94318 0L5.10787 0Z" transform="translate(9.850468 2)" id="Fill-7" fill="#FFFFFF" stroke="none" />
      </g>
    </g>
  </g>
</svg>